<?xml version="1.0" encoding="UTF-8"?>
<svg id="Layer_1" data-name="Layer 1" xmlns="http://www.w3.org/2000/svg" viewBox="0 0 1685.46 608.16">
  <defs>
    <style>
      .cls-1 {
        fill: #5a8a1f;
      }
    </style>
  </defs>
  <path class="cls-1" d="M813.52,471.65l12.56-6.55c1.07-.56,5.17-2.56,5.49-1.5l1.6,5.29,5.8-6.09,33.22.51,2.09,2.6-18.06-.31-1.41,2.27,22.35.63c6.52.18,10.96-.06,16.45-4.68l1.79,4.86,17.29-1.02-15.67,5.11c7.43,1.36,16.47,1.31,21.46-.4-1.45-4.12-1.66-5.15-1.33-6.64.55-2.48,2.3-5.47,3.9-4.55l8.48,4.84,1.14-3.2c.48-1.35,5.33-2.44,6.02-1.19l3.63,6.52c.52-1.51,1.81-7.08,3.82-6.78l7.95,1.18c.09,4.43.63,5.96,2.04,5.89,9.5-.52,8.55-11.61,25.81-5.64l17.02,1.8-2.38,7.05c-.51,1.52,1.24,4.16,2.69,6.08l-43.37.6-34.78.29c-4.73-2.29-10.77-1.96-16.31.61l-10.76-1.44.13,10.2c-.14.15,4.88,1.13,5.43.01l3.44-7.01,4.46,8.15c3.04,5.55,24.46-5.9,26.69,5.32l-18.19-.26-3.45,12.38-15.62-7.72c-.6.52-3.59,3.82-4.6,3l-6.87-5.59-1.32,7.84-9.92,4.39,47.22-.26-4.33,5.04c-.96,1.12,2.99,4.74,4.57,4.88l18.57,1.68c11.2-8.68,19.4,2.08,21.18-.53l1.76-2.59c.63-.93-2.75-3.36-3.91-3.35l-14.33.19c-6.85.09-13.43.25-18.27-2.02,6.49-1.31,11.87-1.84,14.08-4.41.64-.74.54-6.84-.44-6.74l-4.43.47c-.94.1-.03,2.64.22,4.45l-14.92.38,3.95-3.68c.61-.57.58-1.81.98-4.05l14.95.17c4.22.05,7.26,13.64,10.95,11.71l3.69-1.93-1.69-12.45-13.76-2.15.23-5.08c.06-1.29-2.53-2.18-5.51-3.73.96-.64,5.58-2.09,7.73-1.95l20.64,1.36-2.95,4.24c-.69.99,1.35,2.67,3.07,4.98,1.46,1.96-3.01,5.64-6.52,8.55l18.09,1.18.3,2.5-10.75,1.86,32.65,2.64c-7.64,13.02-17.42-6.27-29.81,5.22,5.35,4.82,10.84,5.67,17.87,4.16,7.04-1.51,19.5,4.11,47.43-.37l29.15-4.68.53-6.57c.12-1.52,5.98-1.53,6.76-.22s.77,3.28.87,7.34l7.33,2.59c1.28,1.4,5.09,2.81,7.11,2.6,7.22-.74,6.21-14.55,9.38-12.47l5.39,3.52c3.24,2.08,11.63-6.2,8.88-8.92l-7.05-6.98c-14.98-2.99-15.8,12.51-25.84,13.44,2.17-4.28,4.8-8.03,4.31-10.7l-1.38-7.52c-.3-1.65,5.34-1.1,7.18-.93l21.24,1.88c6.93.61,13.53-1.1,21.12-2.27l15.92,3.24-9.72,3.85c2.2,2.94,2.53,8.12.66,10.9-2.94,4.36-8.88,3.4-13.37.39l5.1-5.02c1.45-1.43-1.68-6.15-3.53-6.93-1.84-.78-6,.61-7.13,2.31-1.29,1.94-3.1,4.45-2.54,5.43l2.67,4.63c.63,1.09,2.35,4.05,1.62,4.92l-4.01,4.74,17.71.74c7.33.31,12.57-2.09,16.11-7.68l6.54-2.51c1.34-.51-.19-5.06-.63-7.28,3.02-2.61,11.07-3.94,14.23-2.1l-5.06,2.15c-.99.42-3.48,1.7-2.62,2.29l4.71,3.19c1.14.77-.65,2.98-2.98,6.11l6.55,6.66c2.19,2.23,9.77.29,11.87-3.03l-11.25-3.92c4.44-1.48,8.6-1.74,13.12-1.39l5.34.42c1.35.11.88-3.51.37-6.7l12.15-.26-8.62,5.21c3.08,4.35,12.89-.18,12.89-.38l-.22-5.18,31.88.54-4.52,5.45,8.14.66c-3.24,3.81-4.83,6.02-5.99,8.54,1.9.68,7.34,1.58,7.82.05l2.65-8.43,18.68-1.66c3.89-.35,7.89,4.01,9.88,8.05,8.66,2.05,18.19-.63,27.87-4.99.99,1.2,1.77,5.51,2.67,10.16.86,1.37,6.05-3.41,8.42-6.81,26.24,9.85,34.26-15,39.76,3.71,3.79.79,12.05-.37,16.04-1.48-.93-2.43-2.03-4.47-1.3-4.77l3.02-1.27c3.1-1.3,1.13,7.3,4.38,8.42,1.46.5,7.29,2.04,6.9,3.54l-2.21,8.44-13.12-6.95-17.93,4.08,15.15,5-45.44.71,4.5-7.48-14.24-1.89-46.91.11c-5.82-2.29-2.65-5.33,1.51-4.1,5.41.91,3.18-3.41.24-3.57l-14.07,9.76c3.62,1.64,6.46,2.78,10.56,5.99l-60.31.15-30.43-.95c-1.64-.05-7.24-.66-7.22-2.12l.1-8.47-13,4.08-41.77-2.32c-2.35-.13-7.99,1.99-8.39,2.46l11.66,6.27-55.6.03-35.1.02v-4.99c0-.86-3.12-.72-4.01-.66l-4.59.29c-1.01.06-1.39-3.05-1.53-3.38l-23.11,2.94,14.05,4.79-26.69,2.61,6.56-9.05-10.95-3.27,4.28,7.99c1.24,2.32-5.65,5.21-8.02,4.53l-4.88-1.39c-.83-.24,1.27-2.75,1.84-3.4l4.12-4.63c.85-.96-5.24-2.88-5.86-2.59-3.86,3.37-7.98,5.23-14.37,6.75l12.25,2.55-15.56,2.86.72-6.96c.13-1.24-4.63-.6-5.92-.56l-19.19.47,4.48,6.38c-21.07.66-37.81,1.2-59.54-.2l15.96-3.34,2.91-1.66c.69-.4-.06-3.29-.83-3.07l-4.36,1.23c-13.25,3.74-29.02-3.34-38.51.45l-3.96,1.58c-6.46,2.58,14.32,1.66,26.92,4.54l-32.4,1.81-72.37,3.13-18.54.82-50.59,2.35-21.62.59c6.05-3.83,7.65-4.84,4.86-3.22l-7.2-1.81c-.92-.23.38-3.94-.09-4.78-1.58-2.83-10.25-2.45-11.83,1.05-1.16,2.56-6.51,3.89-11.67,6.34l13.72.51,1.62,2.01-69.04,5.94,9.54-8.98-27.33,3.59-7.34-5.12c-1.85-1.29-6.26,4.34-8.78,4.57l-25.5,2.31c-7.12.64-12.66.46-18.92,2.42,16.42,4.83,28.79-1.41,33.22,4.13l-32.46,2.94-43.18,5.25c-5.01.61-9.63,3.12-15.35,1.33-4.7-1.47-10.01.22-14.17,3.3l-26.17-1.84,9.71,3.19-25.29,3.04c-2.46.3-7.19-2.28-9.86-4.24l-.95,3.13c-.25.81-3.17,1.15-4.38,1.25l-68.39,5.85-37.73,2.65-53.2,6.1c-36.66,4.2-71.57,9.06-107.22,18.27-16.49,4.26-32.42,6.95-50.23,6.75-5.28-.06-12.41-11.1-15.57-14.41l-6.62,6.78-4.54-7.96c-.97-1.7-4.08-1.52-7.5-1.58-4.5-13.3-8.97-27.23-10.67-41.38L1.88,448.09c-.78-6.5.4-15.6-.64-21.72-2.56-15.01-.37-27.7-.34-42.61l.43-241.19c.01-7.57-1.34-15.11-.94-22.38,1.27-23.47.99-44.34-.25-68.18l5.28,4.3c.57-6.58,3.77-10.81,10.91-12.63l1.36-24.45c.05-.98,3.93-3.89,3.45-4.74l-3.04-5.37L27.87,0l35.79,1.98,88.73,5.17,49.29,1.62,31.95,1.76,70.88,4.42,149.38,9.23,57.48,1.42,20.08,1.57,16.17.43,110.98.82,56.84-.45,165.8-1.24,69.08-1.61c11.28-.26,24.03-3.02,33.45.18,2.15,2.34,9.44.32,13.02-1.1l8.56-2.55c1.67-.5,1.42,3.49,1.99,6.96,4.5-.82,7.14-3.31,10.14-7.48l10.58,6.45-14.74,2.25c4.12,3.17,3.63,4.36.69,5.16-16.02.72-29.78,2.72-44.62,6.32-21.49-5.15-25.32,3.36-35.7,3.22-8.47-.12-14.69-1.73-21.95,2.55l22.85-.33,23.15-.33c.07,1.12.02,3.19.6,3.17l4.51-.18,16.65-.66c5.8-.23,11.03-2.5,15.25-6.25,2.43,1.45,5.21,3.26,7.05,3.67s6.59-3.37,8.48-3.2l22.29,1.91c6.83.58,11.86,2.16,19.31,5.18,5.06-10.64,15.71-8.81,25.33-8.94l39.44-.53c10.97-.15,23.18-3.1,34.1-2.24s18.46,2.22,28.67-.47c4.87-1.29,11.27.52,14.4,3.85l-30.96,3.28c1.93,4.01,2.19,4.58,2.06,4.31,15.13-5.51,23.35-3.69,38.6-1.24-1.36-4.1-2.78-4.73-8.84-6.8l6.52-4.26,14.21,4.01c.71.2,1.3.62.69.98l-3.4,2c-.93.55-5.71.49-5.35,1.5l2.09,5.85c6.62-5.56,15.16-3.72,14.85-2.29l-1.04,4.83c3.64.08,7.96-2.21,11.2-6.8l13.4-1.54,3.19-9.19,28-1.16,31.41-.25c8.04-.06,13.51.4,20.69-4.41,2.26,1.43,8.99,4.7,11.79,4.23l20.3-4.74c-3.63,4.05-4.8,5.34-2.02,2.25l8,5.84,6.25-7.18c1.8-2.07,9.35-.48,10.56,2.01l1.88,3.89c.25.51.94.6,1.31.1l2.95-4.04,28.66-.52c2.56-.05,8.86-2.22,11.3-1.31,2.23.83,3.44,3.99,4.59,8.23l13.67-2.7.46,2.9-8.94,1.53-1.4,2.14,4.83,3.43c.58.41,1.39-.19,2.96-.99l17.15-4.17-6.6-2.61c-1.54-.61,1.9-5.97,3.65-5.98l29.9-.13,2.25-4.91c.51-1.11,4.71,3.59,5.29,4.96l23.61-.23,30.94,1.79,29.39-1.61-.38,11.02c1.84-3.26,3.36-8.06,2.95-11.75-.35-3.14-4.99-6.27-9.68-9.09l13.35-1.49-.41-4.26c-.08-.86,2.84-1.95,3.77-1.94l24.35.27,18.51,1.46c4.52.68,9.31,3.04,9.82,5.99.66,3.79-3.94,11.75-6.22,9.81-4.1-3.5-2.15-6.7,1.14-12.58l-44.56-.32,1.23,2.69,16.06-.7,1.46,2.23-23.74,1.04c-.19,16.28,15.61,1.61,29.17,5.07l28.71,7.33c3.62,4.3,6.16,14.38,6.61,19.63,3.87,13.62,5.1,25.93,1,39.49,6.93,23.23,8.64,46.77,9.28,71.13l.63,23.99c.42,16.1-1.68,36.36-7,50.98-.32-.7,3.33,4.75,3.33,6.17l-.08,40.82,1.41,24.52c-1.63,9.3-1.34,19.21,2.12,28.04-1.68,9.95-1.79,19.73-1.04,29.95l1.86,19.16,2.54,22.01,1.71,13.2c1.22,9.4.56,17.75,6.42,25.13-3.25,1.88-10.36,1.43-12.19-.61,1.56-7.49.28-12.52-4.54-17.49l-3.61,9.74c-1.36-.35-5.87-.61-6.23,1.02-.64,2.93-1.91,8.29-3.75,9.64-2.15,1.56-9.25,1.78-9.05.27,4.92-2.28,5.62-5.06-.76-4.92-1.55.39-4.48,4.17-3.85,5.66l3.08,7.24c6.1-3.52,12.25-6.53,14.78-5.62,2.88,4.23,4.14,6.19,5.51,7.34,2.17,1.83,8.27-.58,6.18-5.32l12.52,2.73c1.8-2.15,5.62-2.33,2.79,1.17-4.12,8.25,12.16,15,2.95,30.61l3.25,3.76c.65.75-.61,3.88-1.01,5.05-.43,1.25-4.75-3.09-4.26-2.54-4.8,2.75-9.95,4.86-13.98,5.94l-1.89,9.5,4.73,17.67-12.88,3.04c-.76,1.98-2.11,6.69-3.98,7.3-2.24.73-7.11,1.15-10.07,1.02l-45.6-2-21.5-1.03-10.02-.18c-2.36-.04-2.64-7.62-2.45-10.44l-8.76-.08-.22,6.23c-.06,1.66-4.49,3.24-6.55,3.97l-76.63-1.25-52.17-1.35-2.47-2.32,7.05-4.88c-9.41-1.71-14.61-1.77-19.8-.37,5.06,3.12,4.74,2.35,5.08,6.02l-25.2.74-.5-19.27c5.44.98,11.74-1.46,15.61-7.22l11.71.07-9.98,6.02c-.45.56-2.19,2.59-2.43,2.61s3.11.77,5.76,1.39l-7.05,3.78,15.29,1.07.45-3.84c.14-1.15,2.97-1.43,6.02-1.94,3.06-.33,4.58-1.31-.65-1.64-1-1.06-2.18-3.73-1.36-4.51l4.98-4.78-.88,6.68,12.61,1.14-7.58,2.44,12.17,2.22-16.01,2.71c8.13,1.81,16.86,2.24,26.63.05l-7.13-2.7,23.68-9.81,31.62-4.3c-11.98-6.36-22.3.1-36.01.59,2.98-3.96,8.72-4.01,15.39-4.36l-7.42-4.8,28.13-3.4-16.45-1.21c-7.31-4.15-15.85-3.59-22.65,1.26l11.76-.13c-1.15,2.12-4.54,5.92-7.43,8-2.05,1.48-6.91-1.89-9.73-3.1l-22.96,6.55-.53-5.6-13.64-3.2,23.61-5.28-19.83-2.15-1.64-2.37,30.08.03,22.49-.19,20.26.26,22.48.28c3.5-.32,4.47.98-.17,2.7l38.87,1.43.54,2.23c8.44-2.76,10.85-3.08,17.01-2.68l.37,2.39c1.63.18,5.09.02,7.16-.66,5.65-1.85,9.74-.05,14.88,5.52-6.91,3.12-19.89,4.74-23.53-3.53l-.97-1.85-17.48,6.4-14.82,4.79-14.67,4.23,18.85,1.14-10.39,5.16,21.66-.43-1.08-1.1-2.66-2.76c1.57-1.02,3.58-2.06,3.39-2.74l-1.56-5.7,27.29,2.35c-11.99,3.97-21.65-3.65-25.49,7.51l1.43,2.13c11.29,3.37,15.08-8.31,23.6-6.06l-10.36,8.99-28.42,2.24c11.02,1.6,22.17,1.24,32.45-.02l1.08-1.86c2.33-1.47,7.61-2.23,11.74-1.95l13.62.91c2.92-.62,3.79.04.2,2.35-3.9,1.31-3.29,2.11,0,2.39l24.53-.16,7.45-6.18-9.07-2.99c-.52-2.65-1.45-7.69-3.24-8.21l-7.55-2.19-12.52-.41c4.73-3.97,11-6.98,16.91-9.25,4.99.75,4.21.6,1.58.13l-4.3-3.43c-.46-.37-.28-1.39-.24-3.95l-35.82-.97.52-7.21-21.16.8.75,3.31,13.52,1.08-1.62,2.84-66.9-.39-42.11-1.19-33.65-.22-5.09-7.7-11.06,2.8,11.55,3.69-39.51-.05-23.72-2,21.53-4.37-22.18-2.34c10.19-4.75,19.92-3.85,28.37-.66l-3.05,4.46c-.49.72,1.15,2.8,1.98,2.55l4.04-1.19c1.68-.5,3.11-3.13,4.21-6.75l25.74-.33c2.08-.03,6.58-4.36,8.27-3.47l7.3,3.88c5.01-3.22,9.74-3.58,16.1-3.35l17.34.64,19.37.95c10.25.5,18.75-.69,29.32,1.26l15.11-1.03,26.21-.12,19.7.21,37.35.95,1.36-16.46c-3.51-6.3-4.88-12.95-5.61-20.51l-2.77-28.49-3.79-25.97-.95-25.79c-1.25-33.8-2.33-66.21-1.25-99.99l1.47-45.88c.99-31.01-.67-61.2-4.07-91.85l-4.17-37.51-55.46-2.31-26.04-1.09c-7.95-.33-14.32-1.71-22.59-4.95l-.84,4.25c-.17.86-3.5,1.37-4.39,1.31l-18.73-1.35c-5.56-.4-8.23-.13-13.82.79-11.07,1.81-23.87,1.76-35.34,1.22l-14.34-.67-13.53-1.22-3.27-4.66c-2.8.16-4.71.68-5.8,1.13,2.46,2.53,2.72,2.91,3.88,5.22l-27.95.48-27.09,1.57-38-.63c-19.75-.33-38.2-3.31-57.98.7-16.56,3.36-33.29,1.89-49.9.71l-20.08-1.43c-9.53,3.69-19.7,3.37-29.93,4.01l-23.72,1.49-30.39,1.93-41.7,2.68-33.84,1.72-21.28.93,7.48-6.54-15.64.78c-3.23,5.31-12.76,8.72-16.75,5.9-1.64-1.16-5.53-6.66-6.95-5.32l-5.82,5.5c-9.11-1.95-17.9,1.72-28.17,2.22l-23.06,1.11c-15.59.75-30.11,3.83-45.25,1.24-6.03-1.03-8.96.6-15.7,1.77-19.73,3.42-46.15.12-44.04-2.04l-3.22,3.3c-17.32.17-33.52-.26-50.99-2.97-4.84,1.49-14.41,3.99-18.9,1.38-5.43-3.16-8.31.37-12.2.57-40.03,2.09-79.2.29-119.08.56l-12.69.09c-25.87.17-51.39.66-76.94-.32-4.4-1.49-8.22-2.06-12.92-1.87-18.09.74-35.83.89-53.94-.14l-35.95-2.06-22.07-1.68-43.95-2.21-49.9-2.22-28.05-1.51-41.64-2.79-20.43-.24-65.95-3.02-34.37-1.85c-2.3,8.41-3.82,12.79-6.19,18.15,3.04,7.58,4.96,19.48.79,27.74-4.66,9.24-2.1,18.71,2.28,28.15l-.38,17.45c-1.72,5.51-2.66,9.2-3.75,14.97l-.16,160.82,4.58,7.04c.83,1.28-4.64,4.95-4.7,6.74-.32,9.92-.19,28.2.79,39.39l1.58,18.13c2.73.95,5.41,1.91,4.48,1.58-.62-.22-4.08,3.07-4.03,3.72l2.2,27.53c1.79,22.36,6.5,43.56,8.09,65.55.18,2.42,2.93,7.84,5.23,7.93l8.82.36c6.69.27,12.82-.62,19.59-2.39l10.63.54c7.33-2.72,13.71-3.87,20.87-4.8l50.2-6.56c8.37-1.09,15.83-1.98,23.72-1.58l5.18-4.35c2.67-2.24,4.34,7.32,17.65,3.29l15.59-4.71,14.97-1.63c6.8,2.57,13.19,2.58,20.62,1,25.79-5.46,42.98-2.3,58.36-9.72,6.69-3.23,9.55,10.47,29.99-3.7l2.32,10.24,5.34-8.25c.86-1.32,5.82-.56,7.66-.66l22.7-1.16,36.64-3.21,27.33-3.28c3.38,4.25,10.74,6.47,14.13,3.14l4.15-4.07c.84-.83,2.81,3.57,3.58,4.71.89,1.32,3.17.95,8.19.74l-6.99,14.37c2.23.47,10.3.56,12.9-.2l.49-16.87-12.26-1.59,23.13-3.32c9.14-1.31,18.52-1.65,26.68-1.26l-25.49,6.03,9.58,2.67-4.86,2.47c-.57.29.81,1.96,1.46,1.87l3.69-.55,4.04-.62c.68-.1.88-1.58.33-2.03l-4.06-3.32c.34-.45,5.44-1.33,6.19.11l3,5.74,18.69-3.9-20.05-1.44,10.91-3.52,15.2-5.54c2.44-.89,8.44,1.49,10.62,2.68l16.45-3.72-2.87,4.91-1.39,3.85c-6.13-1.13-14.16-2.38-18.29,2.52l21.15.54c-11.89,3.22-23.82,5.62-36.41,6.15-5.96.25-11.24.65-16.8,3.55,4.55.71,11.67,2.03,15.39,1.54l14.96-1.94,25.31-1.38c6.51-.35,11.72.54,16.07-3.77-2.14-2.06-3.74-7.5-1.88-7.49l18.1.15.17-3.87-28.93,2.13-1.4-1.21,11.71-2.08-8.49-5.07,42.47-2-11.97,3.66,7.48,1.75c5.78,7.02,14.35,7.78,22.57,4.62l11.62-2.71-21.9-1.58,18.53-2.68c3.17-.46,9-4.77,12.77-6.71,9.55-4.9,9.83,8.29,19.39,4.21,13.71-5.85,27.12-7.86,41.42-6.09l7.65,9.13c-16.11-1.18-26.28-.19-40.87,2.57-3.66.69-12.2-5.97-14.85,3.96l24.09-1.06c5.68-.25,9.53-2.35,15.11-2.07l17.21.88c1.05.05,4.54-.78,5.54-1.15.9-.34-.76-2.33-1.6-2.83l-4.08-2.42,6.62-2.16-8.67-5.17,18.32,3.24,22.4-6.09-3.96,6.81,10.54,1.82h1.53ZM851.51,31.65l-3.24-1.61-9.13.72,1.09,1.68,11.29-.78ZM993.17,34.23c2.94,0,9.54-2.34,12.13-3.41l-26.07-.28-30.74,3.62,44.68.07ZM931.61,37.33c1.86.21,6.57-2.44,8.21-3.96-9.9-.87-18.2-.45-26.87,1.84l18.65,2.12ZM743.29,37.79l-8.81-3.5c-1-.4-2.52,2.46-3.36,3.96l12.17-.47ZM802.58,35.37l-27.12,1.84c26.03,6.24,35.57-2.42,27.12-1.84ZM839.59,37.83c-8.52-7.23-16.39-3.96-22.56.26l22.56-.26ZM868.76,37.47c-6.99-5.51-15.61-5.02-22.03.22l22.03-.22ZM885.13,34.66l-15.23.24c5.45,6.5,12.38,4.33,15.23-.24ZM907.54,35.27l-5.63-1.28c-1.23-.28-2.1,1.6-3.03,4.6l8.66-3.32ZM1523.2,49.54l10.56-1.38c-4.16-5.58-6.26-8.44-8.98-8.94-3.29-.61-8.36,1.55-9.65,3.54l14.06.56-5.99,6.21ZM1278.82,41.72l-14.11-1.02-.06,3.83c5.52,2.32,6.65,3.15,8.27,2.84s4.6-3.56,5.89-5.65ZM1307.1,44.94c-4.77-7.1-12.48-4.69-17.35-1.51l17.35,1.51ZM1331.87,43.15c-5.58-3.99-11.67-3.96-18.19-.17,5.62,1.93,12.71,3.01,18.19.17ZM1378.92,42.75c-6.92-2.44-13.32-2.75-20.87.5,7.86,2.91,13.95,2.27,20.87-.5ZM1431.09,43.85c-6.13-6.73-13.21-4.76-16.39.25l16.39-.25ZM1538.86,40.26v4h9.99v-4h-9.99ZM869.36,48.71c1.89-.07,6.74-3.29,8.22-2.16l5.35,4.07c1.5,1.14,5.84.57,7.34-.56,1.2-.9,1.47-5.75.13-6.41s-6-1.8-7.6-1.51l-19.52,3.52c-5.74,1.03-9.06,1.48-12.74,3.8l18.81-.74ZM807.13,48.01l-14.74-3.09c-1.55-.33-5.01.36-6.43.86-1.07.38-.02,5.57,1.11,5.6,5.21.15,15.56-1.37,20.06-3.38ZM844.73,46.76c-2.5-3.31-11.64-3.09-13.31.62,2.29,2.25,6.32,4.75,8.54,5.22,1.85.39,5.67-4.23,4.76-5.84ZM1156.31,47.81c-5.95-7.27-13.8-3.41-16.51,2.01l16.51-2.01ZM1500.12,47.88l-7.36-2.92c-1.12-.44-2.23,1.52-3.38,4.33l10.74-1.41ZM765.28,48.74c-7.31.19-13.94,1.34-23.75,3.86,8.06,1.52,16.57,2.76,23.75-3.86ZM1247.25,52.11c-1.54-2.08-3.74-4.73-5.13-4.07l-7.87,3.72,13,.36ZM1276.32,55.91c5.51-2.61,6.7-3.16,7.15-4.26s-2.2-3.22-3.3-2.8l-5.65,2.15c-.99.04-.2,2.04,1.81,4.91ZM1302.43,54.02c-3.29-3.59-8.04-6.38-9.75-5.06l-6.48,5.01,16.23.05ZM1325.5,55.48l18.54-6.08c-9.73-.24-19.11,3.05-27.65,1.99l-11.52-1.42,4.97,2.57c.66.34,1.02.78.57,1.34l-3.37,4.24c-1.29.29,4.72,1.94,5.25.63l2.38-5.9,10.83,2.62ZM627.45,53.87l-1.09-1.74-13.11.5,1.09,1.74,13.11-.5ZM1397.07,57.74l-.97-3.42-10.74.87c-1.47-1.45-5.51-3.68-5.63-2.41l-.55,6.17,17.89-1.2ZM1333.49,60.17l18.71-4.34-20.11.56c-.68.02-3.9,3.1-3.22,3.17s3.95.76,4.62.6ZM1416.92,54.26v4h17.99v-4h-17.99ZM1480.05,54.39l-7.62.94c1.13,4.66,7.35,3.91,7.62-.94ZM1533.36,56.69c-4.75-2.02-7.85-3-8.29-2.01l-1.79,4.04,10.09-2.03ZM1586.74,55.9c-5.69-2.79-10.02-3.14-12.92,2.06l12.92-2.06ZM1240.21,58.09l-13.22-.81c1.81,2.46,4.23,4.61,5.59,4.04l7.63-3.23ZM1170.32,61.52c-4.59-6.28-10.97-4.22-13.37.67l13.37-.67ZM994.13,58.69l-7.27,4.79,6.35.14c1.07.02,1.14-2.92.91-4.93ZM826.89,66.33l-17.46-2.1.28,5.7,17.18-3.61ZM870.24,68.12l6.74-.52c1.02-.08-1.99-3.57-2.87-3.06l-4.01,2.35c-3.04.11-2.84.65.14,1.23ZM1289.96,62.69l-7.25,4.8,6.34.14c1.05.02,1.14-2.91.91-4.94ZM1028.39,71.54l.6-4.54-15.32,3.15,14.72,1.39ZM975.4,74.46c1.21.19,2.14-4.33.96-4.19l-4.53.54c-.67.08-2.12,2.83-2.78,2.67s4.27.64,6.35.98ZM927.18,75.76l-20.92-3.16-3.4,3.77,24.32-.61ZM659.17,76.73c-1.42.62,3.27,4.09,3.9,2.83l1.83-3.69c.47-.95-3.74,0-5.73.86ZM707.3,74.25v4h9.99v-4h-9.99ZM1112.54,76.32l-7.34.57c-1.13.09-1.92,3.39-1.6,3.28l8.54.39c.82.04.7-3.66.4-4.24ZM1124.76,76.26l-8.03,1.19c-.79.12,2.59,3.74,3.18,3.21l4.85-4.4ZM659.32,94.21l-31.98.03v2.35s31.99-.03,31.99-.03v-2.35ZM5.84,129.17l1.74-8.97c-2.96,2.41-4.5,6.35-1.74,8.97ZM1650.48,228.92l-4.23,1.13c-.52,6.43,6.84,5.78,4.23-1.13ZM1647.8,247.69c2.01-1.86,3.08-8.64,1.96-11.49-4.58,2.67-5.81,8.97-1.96,11.49ZM1651.71,274c1.66-3.14,2.86-6.3,3.14-8.5.2-1.59-5.39-1.68-6.82-.97s-2.26,3.53-2.35,5.5l-1.63,33.89c11.2-2.75,1.2-17.7,7.66-29.92ZM68.39,297.55c.2-4.73,1.29-6.99-2.6-9.68l-.07,36.45,1.58-1.15,1.08-25.63ZM1650.8,348.14h-4v19.99h4v-19.99ZM66.06,402.23l1.7-1.1-.54-11.11-1.7,1.1.54,11.11ZM1656.1,413.04l4.49-16.43-14.37,2.99,6.48,5.43c.76.64-3.34,3.2-3.33,4.24l.06,4.77c.01.87,6.44-.16,6.67-.99ZM1664.83,415.85l-.98-11.08c-2.21,2.35-3.97,5.03-3.26,5.89l4.24,5.19ZM1655.37,433.68l10.25-4.8-16.12.23.06,9.4c.01,1.65,6.09,2.79,6.03,1.12l-.22-5.95ZM70.73,446.18l.89-14.07-3.85.09,2.96,13.99ZM1627.26,454.96l-6.65,6.14,3.09,3.35,6.65-6.14-3.09-3.35ZM625.58,535.89l-1.18-2.43-20.24.38,11.62-4.56-7.97-6.48c1.01-1.58,3.7-5.69,2.82-7.21l-2.96-5.15c1.61-.23,4.89-.45,5.18.76l1.23,5.25c3.49,1.48,9.73,2.65,15.85,3.46l2.99,10.82c3.59-1.96,5.41-3.28,8.07-5.8l25.77.2c7.16,2.22,12.25,3.11,19.32.42l18.45,2.36c.53-.09-.86,3.66-2.09,4.37l-5.7,3.31c8.15,3.61,17.07,1.69,26.73,1.24l47.94-2.22,25.13-1.29c-4.48-4.53-8.52-4.38-13.3-3.83l-19.79,2.26-11.21-7.72,27.88.41c.67,2.58.99,3.74,2.34,3.66,1.89-.11,5.98-1.79,5.09-2.84l-3.6-4.25c3.57-4.05,5.68-9.27,8.12-14.34l2.16-4.49c.26-.54.72,2.02.58,2.6l-1,4.22c-.55,2.29,6.89,3.38,8.49,1.38,1.45-1.81,1.68-4.53,2.39-9.91l15.28-.34,1.13,5.51,11.52-2.19,1.19,13.85,5.35-.37c1.49-.1,2.33-4.69,2.99-6.75,8.34-.23,18.67.15,25.98-2.54,4.51-1.66,7.54-8.82,6.04-12.69l-22.67.9c-1.56,1.96-3.74,4.24-5.27,5.15s-4.37-2.89-5-4.84l-10.46.42,7,3.34-8.98,2.47c-2.01.55-2.49-3.31-3.23-7.88-3.34-.53-8.61.92-14.22,3.14-15.58-1.32-25.25-12.78-32.92-4.04l6.03,3.61c-2.05,2.91-1.16,7.09-2.95,7.02l-7.59-.27,2.68-18.55,20.62.45,22.13.48c8.88-6.09,21.55-5.29,32.17-2.98-7.94,9-22.39.21-28.65,8.32l56.02-2.63-4.7-10.03-22.28-.56c5.49-2.31,11.18-2.81,16.72-3.29.87-.56,3.02-3.2,1.97-3.42s-4.66-.79-5.96-.55l-21.03,3.83c-.78-.57,1.21.87,3.97,2.85l-14.23,1.1-18.05,1.24-70.01,3.88,2.01,9.57c-6.95,1.77-16.17,1-22.29-1.77l5.11-6.95-18.9.18c1.49,2.85,2.06,3.97,2.99,4.01l5.99.26-8.63,5.52c3.12,2.62,6.38,5.73,6.75,8.24s-2.6,7.46-4.73,8.83-8.58-.17-9.31-2.72c-.46-1.59,1.38-6.34.04-6.6l-7.65-1.5,9.44-4.15-5.55-3.24c-1.04-.61-2.18,1.71-2.8,3.46l-17.83,3.3-12.18-.19c-1.3-.02-3.19,3.58-3.97,4.66-.59.81,4.18,1.62,5.33,1.87l-.88,12.99c-4.94-.28-11.34-2.02-14.47-4.23.81-2.93,2.07-7.2.65-7.5s-5.96.23-5.94,1.68l.1,5.87c-2.3.76-10.43,1.7-12.01,1.33l2.37-12.99,5.47-1.94c.89-.32.02,2.69-.7,5.6l19.87-8.5,11.61-3c1.49-.39,3.68-5.63,5.22-5.25l5.91,1.46c8.22-2.8,20.8-1.45,16.76-4.66l-4.61-3.66,7.78-4.53c-2.51-1.2-7.05-1.88-8.03-.33l-3.99,6.4-33.09.5c-1.7.03-6.98.83-7.88-.56l-4.1-6.34c-3.99,7.24-9.6,9.55-17.51,9.74-.31.68,1.43,5.25,2.87,4.93l6.02-1.31c.63-.14,2.66,2.58,2.02,2.66l-3.66.46c-1.21.15-4.87-.15-5.58.83l-3.2,4.45c-7.5,1.07-14.6,2.88-21.11,6.58l-13.33,1.44c-1.1,2.2-2.73,4.93-1.81,5.54l5.79,3.84-13.05-2.8-18.04-4c-6.74,3.93-14.15,5.92-22.84,6.88l6.05,8.19c9.66-5.68,19.17-7.37,29.88-4.6l11.26-1.41-8.12,7.75,20.72-1.61-3.45,5.43c-.52.82,2.69,4.18,3.66,4.16l19.83-.48ZM937.5,470.71l-15.13,1.19c3.56,6.74,11.53,4.93,15.13-1.19ZM956.86,470.63l-12.03.32c4.1,2.72,7.03,2.53,10.9,2.16l1.13-2.47ZM957.14,473.61c-.36.61,3.98,3.87,4.84,2.6l4.11-6.1-7.69,1.32-1.26,2.18ZM987.07,471.2c-1.07-.77-8.05-.6-8.09.17.53,3.96,8.16,3.87,8.09-.17ZM814.85,472.99l-1.85.13-1.22,3.93c-.31,1,4.39,1.09,5.42.91.97-.16,4.55-2.35,3.77-2.95-.9-.68-2.2-1.77-3.16-1.83l-2.95-.19ZM884.86,475.72c-1.02-4.81-7.32-5.07-8-.62l8,.62ZM1482.99,477.67l-1.1-1.7-11.11.54,1.1,1.7,11.11-.54ZM951.41,487.85c-5.33-2.22-7.64-1.49-10.8,1.3,3.37,1.32,10,.97,10.8-1.3ZM493.3,493.48c-5.37-2.69-8.97-.8-9.6,2.7l9.6-2.7ZM1510.95,494.93c-1.2.25,1.57,3.83,2.7,3.4l3.2-1.2c.75-.28-.34-3.35-1.17-3.18l-4.72.98ZM539.52,500.3c1.11.07,2.29-4.28,1.1-4.21-.8.05-3.89.22-4.49.71l-2.91,2.36c-.53.43,4.77,1.05,6.3,1.14ZM509.14,501.09c-9.67-3.99-15.07-2.81-25.05-.96-2.86-.78-2.81,4.47-.08,3.93l25.13-2.97ZM603.83,501.69c-6.09-5.34-11.67-3.47-14.55,2.66l14.55-2.66ZM587.44,509.2c0-2.15-.58-7.95-2.19-8.13l-5.75-.64c-1.3-.15-4.83,3.51-3.69,4.15l4.33,2.41.72,5.24c.17,1.25,6.57-1.55,6.58-3.03ZM552.97,505.51c3.58-3.05,1.16-3.89-2.23-3.05l-21.81,4.63c8.23,1.26,14.56.16,24.05-1.58ZM441.6,508.1l-1.11-4.63-19.46,3.88,20.57.75ZM570.7,504.09l-7.84,1.08c1.27,4.49,7.21,4.24,7.84-1.08ZM1493.35,521.47l15.62-.49-12.88-4.76,11.59-3.1v-8.73c-4.79.87-8.63,3.74-11.37,6.71l-31.82,3.64,12.89,1.39-6.85,5.24,22.81.11ZM1225.48,509.68l-7.73-3.88c-1.73-.87-5.31,1.78-7.14,4.02l14.87-.15ZM408.79,508.1l-7.84,1.08c1.27,4.49,7.2,4.24,7.84-1.08ZM450.81,513.59l6.7-.19c.85-.02-.32-3.58-1.16-3.43l-4.93.92c-3.45,1.44-4.71,2.88-.62,2.7ZM341.89,513.39c-8.02-2.21-16.73.67-24.06,4.26,9.16-.14,15.63-.92,24.06-4.26ZM355.49,512.08v4h9.99v-4h-9.99ZM831.4,517.23c-2.17-1.66-5.34-3.84-7.37-4.65s-5.67,2.27-9.03,5.66c4.31,1.82,10.04,1.47,16.4-1.01ZM853.12,521.23l3.34-4.97c.62-.93-1.72-3.37-2.47-2.55l-4.95,5.41c-2.45-1.21-1.52-.73,4.08,2.12ZM904.73,514.29l-9.49.11,4.9,5.6c.85.97,3.68-3.9,4.59-5.7ZM1584.85,537.71l62.88,1.23,2.11-10.78c.4-2.06,17.97-4.57,12.59-6.9l-6.66-2.88c-1.1-.48-1.82-3.89-1.67-3.62l-14.2,8.76c.02,2.42-1.87,8.2-4.28,8.78-2.88.69-7.36.41-11.48,0l-4.92,3.55c-1.21.87-6.51-2.85-7.99-2.88l-16.35-.36-10.05,5.09ZM528.07,520.33c1.34-.38.07-4.89-1.26-4.32l-6.67,2.9c-.63-.97.98,1.49,1.48,2.27s3.97-.15,6.44-.85ZM876.92,519.8l-2.95-3.83c-.81-1.05-4.27,2.66-4.89,3.69l7.84.14ZM1109.32,516.07h-9.23v4h9.23v-4ZM294.85,518.09l-7.84,1.08c1.28,4.49,7.19,4.24,7.84-1.08ZM1212.62,525.81l-5.23-6.96-12.16.36c3.1.98,8.73,2.66,7.87,3.79l-5.02,6.64c-.98,1.11,5.79,2.91,7.56,1.55l6.98-5.38ZM1569.23,520.7l5.35,4.17c1.55,1.21,6.53.75,7.69.26-3.36-3.91-4.87-6.32-6.51-6.15l-5.76.61-.77,1.11ZM504.24,529.31l15.69-2.78c-8.51-6.16-17.75-10.5-26.79-3.22l11.74-.62-.64,6.62ZM1632.91,521.13c-3.38-1.97-8.1-1.23-10.22,2.8l10.22-2.8ZM245.67,526.29c1.19.18,2.27-4.33,1.09-4.2l-4.56.51-2.8,2.7c-.29.28,4.81.77,6.27.99ZM319.36,522.38l-17.42.33c6.68,7.02,12.6,3.13,17.42-.33ZM479.45,522.83c-1.34-.04-8.08.12-8.25.19.7,4.54,8.1,4.45,8.25-.19ZM623.49,521.09l-6.29,5.32,4.68,5.53,6.29-5.32-4.68-5.53ZM1063.89,527.9l.03-5.68-25.08,4.73c8.51,2.35,17.09,2.47,25.06.95ZM1076.84,526.06l-4.78-4.13c-.56-.48-4.12,2.77-3.38,2.88l8.17,1.25ZM1189.54,524.51c-4.75-2.02-7.85-3-8.29-2.02l-1.8,4.05,10.09-2.03ZM464.59,524.37l-10.52.4c4.12,3.83,7.7,5.48,10.52-.4ZM909.29,529.47l-9.4-4.54-5.96.39c-1.31.09-2.29,4.43-2.09,4.37l17.45-.22ZM1029.31,523.06l-10.64,2.99,1.38,4.93,10.64-2.99-1.38-4.93ZM1594.88,523.8l-.16,4.07,8.06.32.16-4.07-8.06-.32ZM209.58,526.94c-1.18.25,1.65,3.81,2.78,3.38l3.2-1.21c.75-.28-.37-3.35-1.16-3.18l-4.82,1.01ZM812.57,527.24c-6.5-.46-7.65.44-11.62,4.07l7.75,1.81c1.54.36,4.05-4.26,3.87-5.87ZM1090.24,526.2l-7.61.96c1.06,4.69,7.37,3.93,7.61-.96ZM409.16,528.9l-.12,5.21,6.36.15.12-5.21-6.36-.15ZM433.34,529.46c-5.36-2.7-8.97-.8-9.6,2.7l9.6-2.7ZM560.67,535.62c1.71.26,3.83-5.86,2.43-6.71s-6.06-1.35-7.39-.3l-6.72,5.26,11.68,1.75ZM1514.15,528.34l-8.78,1.16.58,4.41,8.78-1.16-.58-4.41ZM1525.8,534.07c1.74-1.78,3.24-3.24,2.5-3.86l-2.55-2.16c-.07-.06-.85.93-3.93,4.37-.83-.34-.58-.24,3.98,1.66ZM501.01,539.98l20.7-1.44c1.28-.09,5.52-.25,5.55-1.52l.17-5.95c.04-1.27-5.64-1.68-5.41-.43l.84,4.51c.6,3.22-17.62-3.05-21.85,4.83ZM1439.07,531.5c-3.45-2.11-9.41-2.53-12.27,1.29l12.27-1.29ZM1546.84,534.33c1.26.19,2.41-4.44,1.22-4.28l-4.51.59c-.67.09-2.85,2.63-2.81,2.61.04-.01,4.68.86,6.09,1.08ZM369.93,532.52l-12.9-.12c2,2.21,5.15,4.39,6.78,3.49l6.12-3.37ZM616.56,541.35c-5.6-6.28-10.02-2.48-13.26.59l13.26-.59Z"/>
  <path class="cls-1" d="M1225,472.93l-8.61-4.25-25.37,2.05c-6.28.51-11.18.43-16.56,2.6l35.75,3.88c-15.68,2.29-28.42,1.85-46.07.94l9.23-5.91c-9.03-2.06-18.36-2.7-29.82-.75l12.03,4.35c-18.17,4.58-42.13,4.86-37.43-5.45l-38.56.15c-11.23.04-21.64-2.81-33.94,1.58l14.41,1.88,1.69,1.83-20.69,1.81c-8.12.71-14.03-.14-23.96-1.38l23.77-4.41-6.33-3.17,9.79-4.13c11.38-4.8,26.94-1.89,40.27,2.27,3.75-2.03,12.09-5.75,14.82-4.47,3.17,8.02,14.68,7.54,24.42,1.67l17-.97,15.02.23,33.64.79.62,3.36c.03.18,1.4.26,2.98.5,5.22-5,11.72-5.4,18.13-2.78l35.35-1.97-.58,7.87-19.18,2.76,29.95,3.64,5.27-1.02c.71-.14.67.64.26,1.24-.38.55-3.25,2.44-4.31,2.41l-40.05-1.26c-1.25-1.39,2.38-4.02,7.07-5.9Z"/>
  <path class="cls-1" d="M1413.03,488.86c-3.31,19.77-29.7.5-29.18,21.05l-19.74-1.88,10.64-2.35,3.84-2.92c2.95-2.24-8.61-10.67-21.69-2.01l-4.05,6.81c-1.08,1.81-8.24.58-7.86.08l7.08-6.9c1.43-1.4-3.96-5.37-6.1-6.52-8.86,5.96-18.69,6.87-25.97-2.08l31.51-.24-7.25-3.03c4.96-3.35,11.21-4.77,17.04-.67l-6.6,4.22,19.4,1.82-.56-4.27c-.11-.87,2.33-2.41,3.52-2.43l21.2-.34-.78,6.15c-.13,1.04,4.21.33,5.26.35l5.33.12c1.41.03.64-4.83-.78-4.7l-4.98.45c-1.06.1-.61-4.36.38-4.04l10.33,3.31Z"/>
  <path class="cls-1" d="M1011.84,505.96l3.86,4.01-13.18.37,8.78-7.61-10.67-.99c-2.06-.19-2.9-3.95-4.5-7.96-12.23-1.76-15.58,7.04-21.18,5.95-2.39-.47-5.07-5.72-5.36-8.67l17.4-1.45-.02-2.42-14.75-2.2c7.8-4.31,15.34-2.27,21.53-.25-1.7,1.33-4.96,3.69-4.11,4.14l6.22,3.32c9.53-5.05,19.63-6.53,28.72-.09,7.7-5.32,17.46-5.05,23.53.69l-11.52,2.26,7.79,2.06-17.39,6.2,1.62-6.67c.35-1.43-2.89-2.29-6.68-3.45l-10.08,12.77Z"/>
  <path class="cls-1" d="M1214.48,494.86l-17.02.77-28.68-.21-19.99-2.14,21.22-2.56,11.91-8.12c1.48-1.01,7.67-.81,8.6.75s1.12,3.39,1.57,7.49c-1.05.3,5.39.5,5.48-.98l.43-7.89,17.39,4.53-3.23,3.15c-.62.61.51,1.97,2.31,5.19ZM1189.06,488.71c-3.91-3.49-8.91-3.24-10.28,2.61l10.28-2.61Z"/>
  <path class="cls-1" d="M1283.58,481.18l-17.67-2.5,7.95-5.48-25.77-1.87c6.22-2.51,16.06-6.45,22.1-6.95l19.49,2.4-12.75,9,6.65,5.4Z"/>
  <path class="cls-1" d="M1288.56,20.36l-.37,2.1c-.14.78-2.62,3.14-3.39,2.88-2.71-.9-8.25-4.49-10.04-6.33l29.29-6.01c1.01-.21,4.93.43,5.76.71s1.91,2.82,1.14,3.23l-4.95,2.63-8.38,4.45c-1.91,1.02-6.35-2.06-9.06-3.66Z"/>
  <path class="cls-1" d="M1244.07,494.82l-21.81,1.99,1.95-6.17c.35-1.11,3.95-.19,5.25,0l15.54,2.15.97.57,29.39-1.8c3.46-.21,7.65,1.44,10,4.37h-40.33s-.96-1.11-.96-1.11Z"/>
  <path class="cls-1" d="M1043.98,483.26c-7.87,6.52-17.6-1.69-37.34,2.32-.9.18-2.69.12-3.39-.14s-2.77-2.46-2.02-2.58l5.94-.91,21.81-.8c5.76-.21,9.9,0,14.99,2.11Z"/>
  <path class="cls-1" d="M1324.45,25.35l-15.61-2.28,28.42-1.91c.8-2.29,1.68-5.74,2.98-5.51,1.42.24,5.66.98,5.47.95l-3.88,3.29c-.43.37.72.32,1.15.6l5.14,3.26c-7.75,2.64-15.04,2.87-23.66,1.61Z"/>
  <path class="cls-1" d="M1112.14,477.29l-39.3.35,24.39-4.58c4.02-.76,10.43.34,14.91,4.23Z"/>
  <path class="cls-1" d="M1303.47,470.86l-5.36,8.22c-1.53,2.35-10.54,1.44-11.41-.26,1.61-6.88,6.79-10.44,16.76-7.95Z"/>
  <path class="cls-1" d="M541.49,549.1c3.74-1.62,7.02-1.11,12.23-1.79l19.07-2.47c1.69-.22,4.01.59,6.77,2.34-12.11,2.76-22.65,3.86-38.08,1.93Z"/>
  <path class="cls-1" d="M1302.71,532.25c-7.88,3.48-13.91,3.35-22.3,1.35l5.66-6.63,16.64,5.28Z"/>
  <path class="cls-1" d="M1571.91,25.96c-1.4.57-9.67-2.39-11.24-3.8l11.72-6.52,5.36-2.98c1.6-.89,5.41,4.03,5.03,4.9l-8.4,1.31c-1.41.22-1.78.77-2.47,7.09Z"/>
  <path class="cls-1" d="M1031.21,468.11c-.79,4.05-14.01,1.51-14.15-4.2,1.39-3.82,14.67-4.31,14.15,4.2Z"/>
  <path class="cls-1" d="M1124.47,529.64l7.88-2.14c1.2-.32,2.45,2.51,2.75,4.52l-25.44-.22c4.29-8.39,11.48-1.25,14.8-2.16Z"/>
  <path class="cls-1" d="M1378.67,26.45l-14.73-2.81,12.29-4.78,6.41,1.13c1.87.33-2.01,6.83-3.97,6.46Z"/>
  <path class="cls-1" d="M1013.58,476.08c-4.69,1.54-10.32,1.67-13.56.75l.17-9.87,13.39,9.12Z"/>
  <path class="cls-1" d="M1412.54,22.17c-5.47,1.1-9.12,1.76-14.87,3.74l-10.29-4.87c6.5-2.18,19.5-.4,25.15,1.13Z"/>
  <path class="cls-1" d="M1322.27,475.33l-10.96-3.97,3.69-4.75c1.17-1.5,7.16-1.21,8.15.41,1.19,1.95,1.27,5.79.78,8.01l.06,1.14,8.15,2.88-6.38,2.09-3.72,1.22c-.74.24-1.57-2.31-1.12-2.95l1.64-2.37-.29-1.71Z"/>
  <path class="cls-1" d="M1318.65,493.97l-14.58,3.87-5.43-.79c-1.3-.19,1.39-4.87,2.63-4.75l17.38,1.67Z"/>
  <rect class="cls-1" x="1229.02" y="22.27" width="32.98" height="2"/>
  <polygon class="cls-1" points="1103.32 24.53 1074.74 23.61 1099.85 20.49 1103.32 24.53"/>
  <path class="cls-1" d="M1165.09,485.04c-3.15,3.46-8.49,2.97-14.14,2.1l-2.99.36-2.84.06c-.66.01,2.25-3.66,2.91-3.61l17.05,1.09Z"/>
  <path class="cls-1" d="M1248.96,501.07c-1.94,3.09-4.27,5.67-6.42,6.66-1.8.82-6.13-2.77-4.9-5.67s9.05-2.63,11.32-.99Z"/>
  <path class="cls-1" d="M1025.86,512.53c-2.88,6.65-8.96,7.44-13.15,1.55l13.15-1.55Z"/>
  <path class="cls-1" d="M1266.85,484.39c-4.81,3.46-10.74,7.35-17.42.33l17.42-.33Z"/>
  <polygon class="cls-1" points="1047.16 510.6 1026.11 509.99 1025.02 508.36 1046.21 507.96 1047.16 510.6"/>
  <polygon class="cls-1" points="1345.19 474.34 1329.25 472.82 1334.18 467.46 1345.19 474.34"/>
  <path class="cls-1" d="M1115.27,484.86c-3.52,3.24-11.08,3.97-14.39-.27,2.8-2.76,7.61-2.87,14.39.27Z"/>
  <path class="cls-1" d="M1274.87,530.48c-2.21,4.24-8.38,6.8-13.07.26l13.07-.26Z"/>
  <path class="cls-1" d="M1093.02,481.97c-3.82,6.22-9.92,5.11-14.11,2.76l14.11-2.76Z"/>
  <path class="cls-1" d="M1143.26,27.72l-12.93.31,5.79-4.19c1.29-.93,4.96,1.62,7.14,3.87Z"/>
  <polygon class="cls-1" points="1155.29 534.4 1139.63 531.45 1153.39 528.04 1155.29 534.4"/>
  <path class="cls-1" d="M1304.48,491.09l-11.71-3.95c3.6-4.7,10.03-3.43,11.71,3.95Z"/>
  <path class="cls-1" d="M1063.02,491.73l-12.92,2.06c2.9-5.2,7.23-4.85,12.92-2.06Z"/>
  <path class="cls-1" d="M1047.03,25.91l-12.92,2.06c2.9-5.2,7.23-4.85,12.92-2.06Z"/>
  <path class="cls-1" d="M1452.64,24.57l-11.87-2.9c4.65-2.6,9.26-2.98,11.87,2.9Z"/>
  <path class="cls-1" d="M1594.83,511.6l-12.17.47c.84-1.51,2.34-4.37,3.37-3.96l8.8,3.49Z"/>
  <path class="cls-1" d="M1235.95,501.8l-15.06.51,1.1-2.31,9.99.14c1.07.02,2.88,1.02,3.96,1.65Z"/>
  <path class="cls-1" d="M1558.01,20.41c-.28,4.84-6.49,5.59-7.62.94l7.62-.94Z"/>
  <path class="cls-1" d="M1051.03,30.7c-3.74,4.5-8.16,4.37-12.01,2.4l12.01-2.4Z"/>
  <polygon class="cls-1" points="688.39 471.57 676.31 472.24 675.21 470.51 686.35 469.97 688.39 471.57"/>
  <polygon class="cls-1" points="1512.98 21.85 1501.86 22.39 1500.77 20.69 1511.88 20.15 1512.98 21.85"/>
  <path class="cls-1" d="M1598.62,511.54l4.55-2.1c.76-.35,1.16-1.29,2.98-4.16.34-.15,1.56,6.69-.2,6.6l-7.33-.34Z"/>
  <path class="cls-1" d="M1338.68,487.81l-7.84-.14c.62-1.04,4.08-4.74,4.88-3.7l2.96,3.84Z"/>
  <polygon class="cls-1" points="1237.32 487.56 1224.91 488.1 1225.98 486.07 1234.07 486.02 1237.32 487.56"/>
  <path class="cls-1" d="M1153.49,24.33l-3.62,4.04c-.71.79-3.13-1.6-4.83-3.47l8.45-.58Z"/>
  <path class="cls-1" d="M747.96,529.25c-17.09-4.37-26.13,6.07-40.81,4.6,1.85-1.77,3.21-2.65,3-3.05l-1.76-3.38c.71-1.28,2.69-3.47,2.47-4.86l-1.05-6.51c7.31,1.39,14.34,1.42,21.04-.4l5.3.11c1.48.03,3.11-4.07,2.89-4.71-5.6.45-9.35.83-14.46-1.49l12.15-2.47,17.16-5.43.3-12.32c.03-1.12,2.7-3.2,3.81-3.43s4.13,1.73,3.43,2.62l-4.06,5.15c5.82,2.65,9.21,5.23,10.97,11.29l17.18,3.4c-.89.75-3.03,2.22-3,3.24l.26,6.68c-3.96-1.65-11.01-4.74-13.6-2.66-1.92,1.54-5.97,6.38-8.17,6.26-3.05-.16-3.72-8.14-.28-11.19-.72-.7-4.41-2.37-6.27-2.41-2.23-.05-5.35,4.36-6.1,6.57l-2.15,6.32c-.53,1.56,2.48,3.63,5.06,5.85.34-.23-2.49,1.66-3.3,2.21ZM741.69,520.15l-8.43.56c1.7,1.87,4.11,4.27,4.82,3.48l3.61-4.04Z"/>
  <path class="cls-1" d="M698.72,514.14c-4.44,6.16-13.37,10.85-22.32,6.56-2.44-1.16-3.38-7.73-2.02-10,9.01,6.33,11.61,6.81,24.34,3.43Z"/>
  <polygon class="cls-1" points="869.49 498.57 858.51 506.96 855.69 498.19 869.49 498.57"/>
  <path class="cls-1" d="M735.7,501.36l-12.31,6.24,3.12-7.76c.8-2,5.79-.51,9.2,1.52Z"/>
  <path class="cls-1" d="M853.42,482.89l5.15.73c1.18.17,2.8,2.1,1.78,2.63l-4.82,2.51c-1.42.74-3.73-6.1-2.11-5.87Z"/>
</svg>