<?xml version="1.0" encoding="UTF-8"?>
<svg id="Layer_1" data-name="Layer 1" xmlns="http://www.w3.org/2000/svg" viewBox="0 0 499.45 411.17">
  <defs>
    <style>
      .cls-1 {
        fill: #5a8a1f;
      }
    </style>
  </defs>
  <path class="cls-1" d="M331.22,379.13l-34.8-22.47-38.17-23.65-3.2-2.19c-.83-.57-2.07,1.16-4.17,3.64l-19.3-12.41c-3.51-2.26-11.98-.16-14.69,2.17l-30.26,26.13-23.5,17.29,2.71-7.7c-10.46,9.44-19.82,6.79-28.05-.63l-17.7-15.96c-8.29,1.77-16.74-5.67-16.71-6.42l.28-7.36-5.84,5.07-15.75-12.41.33-14.14-9.32,12.59c.78-11.67,4.06-20.26,8.05-32.95l-7.83,10.62c.71-4.8,1.46-10.62,2.97-14.33l21.58-52.92-10.88-9.18-11.45-10.3-38.08-32.08c-4.46-3.76-12.45-6.99-16.91-8.8l-4.54-8.53-.64-13.14-5.29-9.69c-.7-1.28-4.3-4.59-3.47-5.77l2.92-4.18L0,115.54l11.05-6.01-6.63-1.53,13.31-8.39c.76-.48,3.1-3.4,3.18-2.56l.54,5.69,13.25-2.42,22.13-1.55,37.86-2.95,78.73-7.29c-.71-5.13-3.73-1.17-5.55-4.58.34-.22,2.78-.56,6.75-1,10.04-18.19,16.35-39.76,21.11-61.33,7.52-5.05,15.29,1.23,21.21-5.74,4.66-2.21,14.85,2.54,18.73,5.8l11.27-7.43,9.02-8.54,23.03-5.71c17.05,21.18,29.99,43.69,41.63,68.2l21.54.13c1.42,0,4.73,4.12,5.65,5.55l72.58-5.04,18.66-11.29,1.87,1.61-6.68,6.13,20.06-7.95,8.96,2.85c2.16.69,6.2,4.54,7.25,5.18l-4.84,4.68,13.91-2.04,11.68,5.64-6.22,3.34,3.01,7.44c.78,1.93-2.05,4.86-3.38,6.73l4.77,1.81c.6.23.65.48.27.95l-3.41,4.24,13.13,3.89-10.22,11.53,5.58,6.28c1.46,1.64-3.28,5.83-4.98,7.01.06,1.06.84,5.42-.37,5.61l-7.06,1.1,3.12,5.55-2.74,9.62-22.25,6.61c-7.52,2.23-14.66,1.93-21.34,4.92-17.8,7.95-38.39,18.5-50.14,34.06l17.45,34.46c3.46,6.83,5.56,15.26,6.81,22.07-3.21.72-4.27.63-4.32,1.59l-.32,6.06c-.04.76-2.53,2.69-2.81,1.99l-2.37-5.87c-.06-.12-2.97-.29-3.17.47l-1.65,6.23-15.55,17.72-8.21-9.14-1.3,10.45-8.68-10.02.32,15.43-7.88-10.78,3.5,12.51c-1.08.08-5.86,1.12-7.11-.2l-6.72-7.04,1.14,12.92-4.23-7.9-24.32-45.51-23.64,18.25,8.98,7.97-4.38-.78c-.85-.15-1.84-.34-1.69.19l1.11,3.86,53.22,32.47,30.14,19.96c19.14,12.67,38.95,24.62,54.65,41.06-1.12,1.96-1.71,5.22-1.22,6.86l4.47,15.06-7.57-9.62,2.57,22.74-8.2,3.32c-3.19,1.29-7.86-7.31-15.27-7.68-2.11-.11-2.97,4.56-3.45,7.93l-7.86-4.92,5.35,13.37-13.46-10.25,5.59,11.61-14.33-11.96c-1.54.79-4.93,2.05-6.02,1.53l-14.84-7.12-13.7-8.7-50.05-32.86-1.49,1.95,33.95,22.89,1.52,1.03,22.54,14.73,1.87,1.21,14.04,12.32c-5.64-2.4-12.38-7.09-16.1-10.05l-1.14-.91-22.37-14.92-1.6-1.17ZM403.98,77.55c2.55-.03,5.82-1.78,8.66-4.48l-45.76,1.92c-4.64.19-11.55,1.89-16.38,3.1l53.48-.54ZM384.66,85.27l-25.66-1.14c-2.36-.06-2.13,4.75.14,4.45l25.51-3.31ZM266.52,145.09c-4.14-1.04-9.22-.84-14.2,1.97,3.83,2.13,7.88,1.75,14.2-1.97ZM222.48,211.53l12.67-12.32c.76-.74,3.52-2.23,4.18-1.75l3.42,2.5,18.87-15.4c-1.35-2.59-1.69-5.12-.15-6.65,2.17-2.15,4.23-2.46,8.14.04,2.85-1.18,8.37-5.58,11.9-9.01l-10.04-19.16-15.05,2.43,13.09,3.3-10.32,1.21c-2.2.26-5.5,6.58-7.5,5.74l-8.98-3.79c-3.9,9.71-12.82,1.69-19.72,12.08l-18.13,27.34c6.51,6.07,11.34,9.89,17.63,13.44ZM385.96,268.78c.93-2.22,1.5-4.04,1.48-5.73-.01-1.35-5.31-2.92-4.75-1.65l3.27,7.38Z"/>
  <path class="cls-1" d="M251.81,187.42l-4.03,4.96c-.4.49-3.25-.27-2.87-.77l3.58-4.59c1.32.16,5.19.63,3.31.4Z"/>
</svg>