<?xml version="1.0" encoding="UTF-8"?>
<svg id="Layer_1" data-name="Layer 1" xmlns="http://www.w3.org/2000/svg" viewBox="0 0 981.36 865.29">
  <defs>
    <style>
      .cls-1 {
        fill: #5a8a1f;
      }
    </style>
  </defs>
  <path class="cls-1" d="M978.13,731.3l-12.58-12.96c-6.71-6.91-10.34-10.5-18.86-14.16l-21.99-9.45-12.31-5.18-17.58-7.11-26.38-10.19-18.01-17.1-11.08-9.64-12.62-10.31-34.76-37.93c-11.4-12.43-19.7-26.89-28.84-41.28l-7.77-12.22-7.06-13.42c-3.97-7.55-7.16-15.55-9.34-24.06l-4.38-17.05c-1.38-5.36,15.36-21.42,15.31-21.49,8.3,10.61,13.18,2.11,28.42,11.29,2.62,1.43,8.17-5.14,8.18-8.17,0-2.69-5.33-7.37-8.05-7.76l-24.58-3.52,8.69-21.58c3.46-1.45,13.56-2.71,18.35-3.3,2.26-.28,3.1-7.54,1-8.5-1.74-.8-4.57-1.29-10.35-2.4l4.76-18.28c4.46.03,9.46,2.55,14.64,3.09l27,2.83c7.73.81,14.51,3.26,20.57-2.9,1.09-1.11,2.38-3.68,2.17-4.97-.2-1.3-3.95-3.12-5.25-3.28l-51.87-6.26,9.46-33.76-10.64-9.32c-7.83-6.87-14.91-11.66-25.11-15.08l-20.01-6.7-19.83-5.23,5.59-24.26c2.32-10.07,4.32-20.8-1.97-29.44-2.23-3.05-9.13-6.63-12.52-6.62-3.39.01-8.66,4.47-11.15,7.85l-11.89,16.14c-14.5,19.68-21.13,42.75-27.86,66.09l-18.14,13.23-3.1,3.08c-.51.5-2.33-2.41-2.66-3.51l-12.45-41.89c-3.38-11.38-1.8-23.03-2.2-34.8l-.77-22.48-7.82-67.69-.17-32.05c-2.95-31.48-8.42-61.24-23.56-88.88-6.21-11.33-10.56-23.09-21.95-30.69l-16.89-20.12-24.55-16.21c-9.91-6.55-22.89-8.76-35.41-11.75-4.92,1.06-10.41.79-15.06,2.12-7.8,2.23-14.78,6-22.66,7.54v.13s-24.27,10.59-24.27,10.59l-19.88,11.93-28.17,15.52c-10.84,5.97-21.06,8.95-30.54,18.04-5.63,5.41-12.47,10.75-15.2,18.52l-9.18,26.18c-2.82,15.07-7.95,26.59-13.68,40.45l-11.86,28.71c-6.38,15.46-11.65,29.13-14.68,45.79l-4.61,14.25-4.06,17.48-10.36,38.14c-2.02,7.43-5.11,14.55-9.1,21.2l-20.49,34.16-15.04,22.64-29.74,34.45-12.14,9.39c-4.99,6.29-11.12,9.17-17.37,12.77-18.99,10.93-37.02,12.67-58.5,10.61-14.48-1.39-26.73-7.58-26.31-25.25.32-13.6.71-29.95-4.1-43.33l-11.39-18.18c-3.65-5.82-9.61-5.64-15.37-3.73l-13.59,4.5-20.11,20.97-4,16.92c-8.97,9.16-7.92,27.13-1.56,41.02l13.51,29.52c3.74,8.17,8.08,19.31,18.24,24.7,30.64,16.24,68.97,22.61,104,15.2l43.99-12.34c17.99-5.05,32.8-16.51,47.62-28.45l15.13-16.28,26.22-29.32-2.76,61.45c-1.56,34.71-3.15,68.42,4.01,102.58l4.04,28.68,9.96,48.07,14.32,50.77,8.81,23.06,7.95,15.95,6.35,13.23.63,12.21c14.85,11.93,7.05,29.32,28.34,47.31,3.78,3.19,6.95,6.7,9.52,10.78l10.84,17.22,14.27,9.11c30.34,19.36,99.73,3.41,95.78-30.93l15.41-18.9c-.68-5.93-3.08-15.5-6.53-20.36-4.18-5.89-15.88-6.37-21.09-8.58-8.99-5.57-4.04-19.53-3.6-27.38.96-17.46-.31-34.08-2.51-50.99l-9.46-72.73,55.44,42.83c26.53,20.5,54.43,36.3,83.35,52.36l58.18,32.33,47.3,22.47,35.54,14.65,108.74,42.93c4.4,7.97,33.14,11.31,43.5,9.68l22.35-3.52c29.44-4.63,10.55-34.78,44.15-44.11l14-14.65c12.89-13.49,12.71-34.55,7.63-50.75ZM633.93,386.32l21.28-16.23c0,17.62-.5,30.07,2.83,44.84,5.34-2,8.59-4.34,11.48-6.74-1.99,5.53-3.23,11.93-2.02,17.6l3.88,18.13c9.86,3.88,18.32.3,26.46-6.69,7.94-6.82,6.47-22.88-2.18-28.96-2.33,1.54-9.3,3.83-10.14,1.7-1.3-3.29.96-12.46,3.92-14.09,15.58-8.54,21.38-2.96,26.35-6.71,3.02-2.28,5.5-7,6.4-10.71l-13.96-1.63-27.22,10.05-10.24,19.01.08-28.02c.05-18.36,2.15-35.87,10.26-52.01l15.5-30.86,10.27-13.78c2.61,8,2.12,11.92.77,18.69l-7.67,38.33c4.28,5.05,4.96,7.15,7.4,14.63l10.49-14.23c18.19,3.93,41.74,15.2,55.73,28.14l-11.3,31.6-17.84,42.25-42.28,67.4c-4.16-5.16-6.34-11.14-6.13-17.23.32-9.1,11.56-11.8,11.52-17.68-.02-4.38-14.43-6.41-28.91,4.03-3.29-5.93-4.74-13.49-6.64-20.76-1.76-6.75-13.82-2.4-18.39,1.61l-17.18,15.09c-.9,1.32.31,6.76,2.23,7.14l8.67,1.75,16.33,2.24c-5.08,5.55-5.09,12.11-.16,18.73l-3.55,11.46c.44,1.71,6.43,4.56,8.98,4.78,5.77.51,12.06-15.9,15.06-11.71l5.16,7.2c1.23,1.72-5.28,5.16-7.29,5.61l-16.01,3.61-56.66,11.02c-15.65,3.04-31.75.11-47.4-.59-9.4-.42-15.54-.31-24.56-5.01l3.34-59.82c.75-13.45.65-24.88,11.31-29.68-17.04-16.66-25.4-24.93-18.33-47.98,3.85-12.57,17.35-23.61,31.33-17.03l17.71,8.35c1.1,6.11,5.12,12.1,12.16,13.2l20.46,42.88,11.23-11.06-10.67-26.1,18.15-15.76ZM474.28,791.98c7.47.5,14.48,3.51,16.03,11.84l-10.29,8.04c-9.01-11.53-20.9-20.15-34.67-23.02l-.48-24.85-4.93-62.04-2.77-22.24-8.9-46.4-12.83-52.04,22.8,25.9c3.29,3.73,4.52,6.2,5.12,10.94l4.32,34.09c4,31.58,8.99,61.68,9.42,93.47l.51,38,16.65,8.3ZM958.1,772.2l-13.13,10.73c-1.36,1.11-5.08,2.88-6.58,3.24-1.87.45-4.09-4.28-5.18-5.96l-8.22-12.66-9.02-11.83-25.67-14.48-15.52-3.33-23.39-5.66c-7.68.93-14.43-.88-19.8-6.18-6.78-.04-11.99-1.42-17.05-5.64l-12.19-1.39c-5.05-7.34-12.24-11.84-21.25-12.75-4.39-7.15-9.69-12.62-18.45-13.66l-8.5-13.29c-9.74-4.77-16.99-10.42-24.23-17.85l-13.94-14.32c-6.05-6.22-11.9-12.03-15.5-20.81l-10.04-5.75c-6.85,12.48,4.57,29.82,17.23,43.17,4.52,4.76,9.07,7.74,14.08,12.26l18.64,16.82,21.48,18.57,18.81,11.2c11.35,6.76,23.92,10.91,36.24,15.79,12.76,5.05,24.92,6.72,38.23,10.38l34.38,9.46,14.41,7.14,13.96,18.48,1.44,14.02-2.72.51-1.92-10.74c-.38-2.11-7.69-2.63-8.55-.72-3.84,8.57-.67,23.19,7.91,33.12-3.35,3.79-6.85,5.67-12.83,8.01l-9.3-19.39c-1.31-2.73-6.59-6.16-9-6.74-7.45,9.76-4.78,16.43,3.28,26.79l-17.54.82c-6.27-5.33-11.18-8.46-18.07-11.24l-63.86-25.77-26.06-9.85-24.85-10.6-38.38-15.82-46.33-24-47.27-26.76c-28.52-16.15-55.13-32.61-81.52-52.27l-14.93-11.12-10.32-8.16-37.01-28.46c-.79-.09-4.71-.16-4.53-.83l1.43-5.43-34.65-37.16c-4.06-5.83-3.78-20.18-15.75-20.98-.02-5.52-1.54-9.75-4.23-13.96-12.32-19.25-20.67-38.57-27.72-60.9l-15.21,5.77,3.2,2.78c.61.53-1.72,2.97-2.32,3.69,2.66,6.46,2.64,11.05.55,18.13.35,5.22,5.68,13.8,8.38,19.23l11.34,22.81,18.47,51.51,10.92,41.45,6.61,29.74c5.91,26.6,6.87,53.75,8.97,81.09l3.69,48.07c.52,6.75,4.67,11.04,12.14,11.38,3.76.17,8.27,4.85,11.28,6.72,10.17,6.3,17.58,15.05,13.96,27.39l-8.24-18.14c-.63-1.39-5.86-1.79-7.34-1.4-1.85.49-3.95,5.73-3.23,7.84l7.09,20.81-19.14,5.75c.62-9.7.42-15.75-3.2-21.13-4.43-6.58-10.37-9.55-19.11-7.18,2.79,10,11.08,26.09,20.79,28.65-42.39,11.69-75.31-43.74-90.71-83.43l-23.33-60.14-7.58-24.5-3.04-13.68-6.83-21.38c-8.51-26.62-13.52-52.97-14.91-81l-2.21-44.53c-.9-18.08-2.08-33.15.9-51.34,2.88-17.53,1.27-36.58,1.59-54.6l.36-19.72c3.37-4.83,7.3-16.26,2.92-20.29-6.38-5.87-13.15,2.68-15.21,7.43l-5.65,13.07c-6.63,4.27-14.5,9.97-18.13,17.53-8.3,17.26-21.31,28.33-36.17,40.07l-12.15,9.6-29.62,14.78c-33.12,16.53-89,17.95-124.01-.33-9.66-5.04-14.83-16.48-20.34-25.55-8.94-14.69-17.08-31.29-13.85-49.06,3.35-18.46,16.86-34.31,32.16-43.82,21.4,25.16,3.85,54.78,18.4,76.67,3.61,5.44,13.59,13.32,19.73,14.68,22.62,5.03,44.89,6.43,66.78-.54,26.16-8.34,62.35-47,81.85-72.08l17.52-27.58,11.32-19.08,13.09-22.98c11.13-19.55,13.07-67.32,32.29-114.47l13.76-33.77,9.32-24.46,6.96-26.89c8.29-32.01,38.08-45.75,64.54-61.84l24.9-15.15,25.23-10.94c8.9-3.86,21.29-9.75,30.67-7.94l15.85,3.05c22.35,4.3,37.8,19.18,51.91,35.93,7.01,8.32,13.8,15.75,17.89,26.1l13.67,34.62,7.42,32.47c3.79,16.59,3.29,32.41,2.7,49.69-.59,17.36,4.94,34.56,5.49,51.83l1.68,52.19c.42,12.96,2.15,25.66,6.04,37.67l13.88,42.89c-1.93,3.9-6.96,8.98-11.61,11.78-11.46-17.16-25.61-30.2-46.84-33.39-8.41-1.27-22.38,5.17-28.86,11.67-7.43,7.46-14.14,17.15-18.32,27.17-3.35,8.02.91,23.37,5.04,30.84,1.93,3.48,9.84,8.17,10.27,11.79.66,5.47-3.81,14.68-4.97,19.74,0,23.43-.56,44.76-4.24,67.79-4.09,25.57,50.69,17.03,58.94,22.08,1.81,1.11,1,7.16.34,9.21l-11.54,35.79,9.27,5.09,8.56-24.09c2.94-8.28,6.37-19.77,11.05-26.18l21.78-2.73,2.21,14.98c6.61-.5,7.9-3.82,8.75-8.17l1.84-9.4,21.82-2.49-1.59,32.6,6.34,14.23,7.29-.78c2.36-5.62,2.36-8.21.33-12.33l-2.55-37.37c24.28-2.31,42.53-13.07,58.01-30.83,1.03,8.32,2.56,16.91,6.62,24.66l24.83,47.34,25.09,30.82,25.39,28.95,22.7,20.72,13.18,13.31c10.86,10.97,26.28,18.67,41.13,24.39l47.39,18.27,19.79,8.75c7.02,3.11,12.19,10.27,12.66,16.86l-7.2-5.37c-3.25-2.43-1.5,6.06-10.1,11.42-5.8,3.61-6.36,12.85-3.85,19.49,2.13,5.64,9.41,8.45,13.38,5.65l-2.51-19.88c4.35,2.62,7.86,5.04,9.78,7.23,1.98,2.25-.5,10.27-2.85,12.18Z"/>
  <g>
    <path class="cls-1" d="M596.12,480.47c-1.1-7.6-.18-15.72.89-23.02-16.22,3.28-26.13,18.01-25.44,34.01l-6.87-2.11c-.91-.28-3.29-22.28,4.18-30.03,14.22-14.76,36.02-19.99,54.84-11.89,1.78,10.66,2.01,21.67-.74,31.86-3.26,3.41-10.99,8.31-15.39,9.75-3.06,1-10.99-5.28-11.47-8.56Z"/>
    <path class="cls-1" d="M621.99,526.66l-7.44-.38c-1.38-.07-3.21-3.94-2.11-4.73l6.49-4.65c1.7-1.22,6.53,1.28,7.61,2.97s-2.1,6.92-4.56,6.79Z"/>
    <path class="cls-1" d="M627.21,507.13l-6.92,1.68c-1.58.38-3.8-3.63-4.5-5.11s2.22-4.05,5.05-5.25c1.66-.71,6.57-.3,7.73,1.08,1.4,1.65.9,7.05-1.36,7.6Z"/>
    <path class="cls-1" d="M645.38,515.9c-1.43,1.49-5.82.38-6.2-1.29-.51-2.28-.97-5.47-.73-7.15.29-2.03,6.58-3.29,8.94-2.5s1.4,7.37-2.01,10.94Z"/>
    <path class="cls-1" d="M733.75,436.65c-1.52,2.02-5.66,5.47-6.67,4.27l-4.66-5.56c-1.22-1.45,3.63-4.45,5.51-4.51l5.8-.21c1.35-.05.84,4.93.02,6.02Z"/>
    <path class="cls-1" d="M712.93,460.42c-1.08,2.41-4.57,8.67-5.48,7.58l-5.06-6.03c-1.19-1.42,2.87-4.45,4.94-5.17,1.74-.61,6.34,1.96,5.6,3.63Z"/>
    <polygon class="cls-1" points="711.48 441.43 705.03 431.87 718.43 428.59 711.48 441.43"/>
  </g>
</svg>