<?xml version="1.0" encoding="UTF-8"?>
<svg id="Layer_1" data-name="Layer 1" xmlns="http://www.w3.org/2000/svg" viewBox="0 0 705.77 111.66">
  <defs>
    <style>
      .cls-1 {
        fill: #5a8a1f;
      }
    </style>
  </defs>
  <path class="cls-1" d="M699.48,76.61l-119.57,3.26c-1.05.03-4.33.6-4.49,1.45l-.74,3.88c-23.62.3-46.79.89-69.86,4.61l17.97,2.89-39.23,2.41c-10.18.63-21.11,1.31-30.87,3.93-8.3,2.23-14.77,1.4-23.24,1.6l-40.99.94-10.7-9.02c-1.68-1.42-1.43-5.96-.44-9.57-7.24,2-14.25.48-16.92-7.68l-46.69,3.17-14.37,1.52-18.33,2.07,1.74,1.14,11.91,1.7-26.96.54-19.2,3.01c-56.32,4.01-110.97,10.87-166.49,21.78-17.48-2.72-33.33-3.63-50.22-.23l-22.59,1.67c-1.64-5.18-4.39-6.1-9.18-7.64l.11-12.51,8.79-59.09c22.65-19.52,63.34-10.23,84.95-13.37l39.85-5.8c32.37-4.71,63.24-7.89,95.88-8.56,8.86-.18,19.18-2.48,27.28-.68,14.07,3.13,25.31.6,39.37-1.66l19.33-.35,60.05-2.01,46.24.14,40.9,1.9-9.36,7.47,35.3.68c27.58.53,54.98-3,81.85-3.87l1.89,2.92-65.8,3.77-1.67,2.58,64.6-2.62,39.13-.78-1.01,2.7-11.08.38-1.51,1.96,36.45-.2,1.99,4.64,26.64.55c-7.47,2.52-14.2,3.31-22.37,4.41l-32.3,4.35,54.3,1.16c-11.44,13.57-29.03,2.28-38.75,10.41l25.26,1.45-7.43,2.6,23.67,2.62-77.78,2.68c3.61,6.93,10.79,3.82,17.11,3.8l102.76-.39,1.13,1.93-32.13.16-4.06,6.1-34.95-.12-1.1,1.91,70.68.33-1.55,1.81-20.11-.06-1.08,2.93,17.5,1.61.52,4.7ZM361.61,13.75l-14.36-.02c1.78,2.16,5.46,4.85,7.18,3.92l7.19-3.9ZM379.87,13.73l-13.68.34c6.74,3.22,11.12,3.99,13.68-.34ZM333.24,16.59c-11.7-1.73-23.34-3.18-33.91,2.34l33.91-2.34ZM611.74,64.25c-1.18.24,1.56,3.83,2.69,3.41l3.2-1.2c.75-.28-.34-3.35-1.14-3.19l-4.75.98Z"/>
  <rect class="cls-1" x="582.65" y="83.4" width="31" height="2"/>
  <rect class="cls-1" x="325.39" y="73.41" width="2.52" height="17.98" transform="translate(230.02 405.13) rotate(-87.49)"/>
  <polygon class="cls-1" points="691.76 48.99 680.64 49.54 679.54 47.84 690.66 47.29 691.76 48.99"/>
</svg>