<?xml version="1.0" encoding="UTF-8"?>
<svg id="Layer_1" data-name="Layer 1" xmlns="http://www.w3.org/2000/svg" viewBox="0 0 884.86 193.72">
  <defs>
    <style>
      .cls-1 {
        fill: #5a8a1f;
      }
    </style>
  </defs>
  <path class="cls-1" d="M512.21,146.96l-45.03,7.35c-23.78,3.88-50.83-17.86-62.43-39.79-3.09-5.84-10.97-13.9-16.67-8.82l-5,4.45c-1.41,1.25-5.84-.56-8.67-1.73-39.7,22.27-78.55,44.92-115.67,71.52-24.06,17.24-50.83,20.02-69.18-1.62l-11.37-13.41c-9.07-10.7-14.27-26.79-25.94-35.54-10.12-7.58-25.25-6.01-37.85-2.55l7.07,3.51-18.7-1.3,3.18,2.23c.57.4.74.59.18.91l-3.61,2.04-36.73,23.12c-9.79,6.16-16.2,17.74-27.01,24.14l-13.93,8.25-3.05,2.35c-.61.47-3.3.27-2.94-.41,4.39-8.34-4.32-17.92-11.4-29.41-8.88-14.41-8.72-32.4-5.22-48.76l18.71-20.94c9.16-10.26,20.07-19.41,31.68-26.01l25.96-14.75,21.49-7.52c22.64-7.92,44.83-7.66,66.08.56,13.6,5.26,18.88,14.38,27.92,25.03l17.27,20.36c4.14,4.88,10.47,7.9,16.99,5.63,18.33-6.39,34.4-15.15,50.98-24.89l17.78-10.44,61.58-36.4c16.25-9.61,33.23-11.4,51.41-7.12,25.25,5.94,30.31,24.46,50.86,37.73,20.59,13.3,80.9-14.7,110.51-28.35l1.03,4.18,70.29-28.55c13.22-5.37,23.95,1.29,37.28,5.16,3.86,1.12,11.42.83,16.37,3.24,12.97,6.29,23.27,15.93,31.37,27.13l-4.82.62c-.5.07-1.75-.81-1.44-.28l2.5,4.25c.41.71,2.66-2.65,3.43-2.38l5.02,1.76c7.13,2.49,17.42-.07,25.56-1.77l21.88-4.55c19.91-4.14,38.58-6.41,58.31,3.41,24.95,12.42,27.29,27.86,44.59,43.24-1.92,1.72-6.45,5.42-5.53,7.37l4.64,9.84c.29.62,2.94,2.54,2.93,2.49s-2.93,1.81-3.5,2.18l-5.86,7.63c1.78,4.21,1.88,11.26-1.16,14.99l3.08,7.54c.88,2.16-5.54,4.84-8.08,5.16l3.81,5.34c1,1.41-3.12,3.68-6.01,5.05l8.65,7.3c-4.44-.27-11.16-.42-13.96-1.44l-17.37-6.37-15.74-17.62c-15.21-9.88-32.65-9.8-48.79-5.24l-6.08-1.99c-1.85-.61-1.28,12.09-30.98,13.36-5.6.24-10.66-1.31-16.1-2.25-10.03-1.74-20.4.25-24.45-12.51l-7.63-3.85c-23.54-30.84-33.14-28.87-70.4-22.89l22.64-8.38c-17.36-.95-32.39,6.4-47.18,15.3-4.95,2.97-9.22,5.47-10.43,8.43-5.06-.11-12.22,1.48-15.48,4.09,3.7,2.55.13,6.43-1.49,6.21l-9.82-1.28-27.05,12-19.09,7.57,13.16-.24c-4.52,3.15-10.44,6.21-17.33,7.33ZM713.17,27.72l-5.66-7.58c-.46,4.18,3.05,7.95,5.66,7.58ZM805.13,120.05l-1.1-1.71-11.12.55,1.09,1.78,11.13-.61Z"/>
</svg>