<?xml version="1.0" encoding="UTF-8"?>
<svg id="Layer_1" data-name="Layer 1" xmlns="http://www.w3.org/2000/svg" viewBox="0 0 496.91 830.8">
  <defs>
    <style>
      .cls-1 {
        fill: #5a8a1f;
      }
    </style>
  </defs>
  <path class="cls-1" d="M227.74,814.83l-.13,13.37c-3.86-3.49-5.72-12.73-2.91-15.6.73-.74,4.29-2.41,5.23-2.87s.96,3.21,1.11,4.95c.09,1.02-2.31.32-3.3.14Z"/>
  <path class="cls-1" d="M196.69,827.85c-6.55,2.19-11.8.42-16.8-5.08l16.8,5.08Z"/>
  <g>
    <path class="cls-1" d="M194.84,524.77l1.72-30.26.6-22.35c-13.64-4.57-25.29-10.67-36.79-19.62-24.76-6.19-45-20.34-63.8-37.84-4.91-4.57-6.62-8.99-6.35-15.81-29.26-28.6-17.23-99.7-1.93-137.73l17.2-42.76c5.46-13.57,13.12-24.91,21.2-36.56,8.76-12.62,13.81-28.45,26.21-37.98l19.1-14.67,65.39-37.08,5.67-81.58C253.22-2.3,277.38.24,296.66.14c2.01,1.89,5.28,6.46,7.26,5.55l10.58-4.86,1.1,8.07,8.03,2.24c2.33.65,3.24,7.14,3.05,9.7l-3.41,46.7c6.92,2.45,13.41,5.47,18.68,9.37l16.32,12.08,15.07,12.79c7.42,6.3,14.43,12.38,19.74,20.36l35.23,52.93,13.61,30.7c10.11,22.8,18.52,45.89,14.48,70.11l-5.48-.9c-1.19-.2-1.7-1.91-3.68-5.39l-2.96,18.65-2.47.14-2.02-10.78-1.01,8.46-10.82-7.72.29,13.34-4.12-7.18c-11.61,13.83-23.05-8.16-35.64,8.02l-6.7-20.9c-.49-.78-4.76-1.55-4.89-.24l-.86,8.79c-2.08-5.69-3.09-10.69-3.23-19.17l3.96,9.69c1.48-16.12-3.49-31.59-11.14-48.16l-3.52,3.75c-4.87-10.74-9.89-19.87-16.46-28.5l-13.9-18.23-14.78-12.11-8.16,59.44-3.46-5.38-3.14,13.2-2.75-5.57c-.67-1.35-6.65-.37-7.03,1.09l-6.07,23.11,9.72-2,4.56-15.5-3.63,26.68c-.11.84,1.75,5.43,2.04,6.23.38,1.07-2,.78-4.93.85l-3.09,20.73,1.98-5.08c.35-.9,3.33-1.31,3.3-.75l-1.66,15.35-1.93,19.89-7.72,80.3c6.9,4.58,16.01-1.44,25.71,5.3,8.79-6.1,22.4-5.28,29,3.87,13.14,2.86,20.68-3.87,26.22-14.44l10.27-12.22c19.27,3.76,37.82,14,54.67,25.66l30.59,21.17c15.35,22.46,14.95,48.64,19.21,74.38l11.03,46.09,4.87,24.57c1.02,5.12-.68,16.3-2.31,21.08-4.73,13.96-16.33,22.24-26.46,31.27l-17.36,15.47c-3.79,3.37-12.43,10.17-17.54,11.01l-18.5,3.05,3.47-2.51c.7-.51-1.1-3.73-1.93-3.48-3.84,1.2-10.26,5.56-14.69,8.32-33.43,20.77-66.76,40.86-103.27,55.96-12.77,5.28-27.6,1.82-41.18,5.14l-6.2,31.74-.41-30.21c-6.55,12.08-6.02,25.08-7.57,38.71l-2.65,23.23c-1.74-7.48-1.12-14.58-1.09-23.08l-4.64-12.47-6.87,14.4-.1,26.48,3.07-7.35,4.78,21.89c.14,2.84.97,4.13,1.68.48l3.41-8.32,2.72,14.33c7.96-4.86-1.33-18.34,5.39-36.31,1.36-3.46,2.48-3.24,2.85.06l-1.61,36.45,4.49,13.39-6.64-4.69c-.66-3.2-.83-5.27-1.99-5.37-1.31-.11-4.23-.71-4.01.39l1.72,8.41-7.6-1.73c-4.98-1.13,0-11.43-4.93-13.9-1.73-.87-4.54-.49-6.6.74l-3.54-5.77-4.54,12.77c-1.82,5.11,2.42,10.18,6.95,16.82-6.62-4.01-15.03-7.08-20.82-.86l-1.98-4.41c-.49-1.09-3.65-.8-5.53-.89-1.99-10.93-4.66-20.66-8.82-31.07l1.65-31.75c-1.95,1.83-3.2,3-3.17,3.04s-1.05-1.15-2.89-3.2l-.1,28.97c-.01,4.13-1.96,13.39.6,16.47,4.52,5.44,6.29,9.9,4.76,15.85l-3.06-7.66-6.33,11.23-1.36-11.78-.55-40.61,2.08-49.93-26.27-1.34c-13.3-.68-25.56-4.63-36.29-12.38-9.46-1.35-17.2-3.82-26.29-7.4-9.1-4.17-15.84-11.79-21.91-20.55-5.66-8.15-23.11-12.57-27.38-20.14l-12.32-21.82c-10.3-18.24-17.23-35.23-21.18-55.54l-3.53-18.15c-1.47-7.57-3.31-13.79-1.29-20.85l5.66-19.77c5.98-3.3,16.54-3.43,24.52-3.03,11.74.59,19.12,4.46,28.19,10.96,16.12,11.56,31.39,13.25,34.55,39.17,2.31,18.98,13.69,31.7,30.57,39.76,4.02,1.92,5.63,6.23,6.37,10.02,1.5,7.65,12.33,8.65,18.92,4.38,3.75,1.16,4.27,3.11-2.18,4.42l33.69,14.55c-.1-14.61,2.02-26.77,3.5-40.73l3.14-29.59,5.86-49.55,1.14-1.87ZM167.19,300.26l-8.24,41.69c-2.26,11.41,5.92,17.59,13.84,22.65,9.62,6.14,18.34,11.14,28.96,13.59l2.71-36.63c1.19-16.08.7-31.92,11.41-47.47l.95,22.61c4.96-12.97,7.83-26.34,10.4-40.42l6.75-37-2.17-1.73-13.38,57.36,1.21-22.75,8.05-49,1.71-24.53c-21.57,15.75-35.19,37.09-44.86,60.8l-15.99,39.2-1.33,1.65ZM230.05,295.44l9.12-43.95c-7.41,8.53-7.05,18.93-9.29,29.61-1.12,4.7-4.67,9.54.17,14.34ZM391.4,276.48l.34,5.73c.05.78,3.25-.35,3.27-1.13l.12-3.91c.02-.78-3.78-1.5-3.73-.69ZM166.65,296.81l4.55-19.01-11.04,18.62c-.63,1.06.74,6.07,1.71,5.32l4.32-3.33.47-1.6ZM285.96,296.43c1.86-5.17,2.85-10.11,3.05-16.7-3.22,5.22-4.25,10.2-3.05,16.7ZM237.8,296.59c2.47-.68,6.67-5.9,5.55-7.44l-4.13-5.7c-1.84,4.99-2.39,8.55-1.42,13.14ZM265.17,323.69l8.88-21.04c1.05-5.32.74-12.45-1.68-19.05l-7.21,40.1ZM252.49,318.24l2.36-18.34c-5.55,4.87-4.65,11.96-2.36,18.34ZM243.48,306.47l.34,5.74c.05.78,3.25-.35,3.27-1.13l.12-3.91c.02-.78-3.78-1.49-3.73-.69ZM144.75,337.2l2.42.2,4.47-29.13-2.34.76-4.55,28.16ZM282.99,400.02l1.6-21.64,1.98-26.8-4,20.58-2.13,23.66-.42,4.63c-.08.92,2.89.48,2.96-.42ZM257.84,394.05c5.42-13.39,8.1-24.99,2.79-37.78l-2.79,37.78ZM258.27,627.84l-1.14,16.92,22.5-3.74c7.53-1.25,12.98-3.39,20.04-6.46l41.48-18.05c1.43-.62,6.17.81,6.88-.49l2.16-3.98c.36-.67,2.14,1.24,3.11,2.41l-14.3,11.99c18.26-8.1,33.45-17.55,48.91-29.53-1.58-3.31-1.91-4.1-2.85-4.03l-4.81.36c5.52-18.72,25.65-19.74,23.87-28.08l-9.95-46.39c-6.38-29.73-.34-38.37-36.83-56.88l-13.87,3.55,9.1,6.23c-5.81-.28-7.21,2.29-.98,3.01.47-1.25.7,2.98-.25,2.77l-4.04-.87c-4.29-.93-9.43,1.01-12.43,4.42l9.46,4.28c-25.53,8.08-48.83-2.78-71.01.94l-4.05,20.46c-1.94,3.55-4.56,8.66-5.07,12.96l-3.14,26.22,5.82,7.12-4.8,32.85c.19,15.08.6,26.25-3.81,42ZM230.79,638.76l1.63,6.51,3.88-19.55,1.23,14.81,5.87-11.83c7.3-14.69-3.47-38.09,6.82-47.61l-1.95-19.77-2.08,13.53c-2.71-5.83-2.52-14.01,4.03-17.85l2.62-13.87,1.8-1.24-1.1,11.98,2.77-.53,6.89-51.22-1.96,1.04-4.84,27.76c-1.22-5.62-2.51-12.59-2.45-16.52l.41-28.41c-3.33,19.05-6.76,37.09-6.69,55.59.02,5.86,1.46,10.08-1.77,14.83l-5.34,9.64.65-26.91-1.43-16.03-7.03,17.14c-2.06,18.66-3.66,40.88-3.11,62.63l4.18-22,7.68-13.42-3.2,36.93c-.69-1.33-1.51-2.86-1.48-3.55l.75-17.63-1.97-2.09-3.25,37.71-2.8-15.88c-3.18,14.86-4.11,28.16-3.59,44.21l4.83-8.41ZM216.43,519.98l1.98,10.59,6.67-38.48-2.76,1.04-3.66,23.99-5.49,2.24c-.75.3.22,3.7.59,4.81l2.66-4.2ZM195.95,528.34l-4.07,38.16-2.49,25.6-1.3,38.67,8.07-24.34c.45,7.02,2.42,5.74,2.94,2.3l8.14-79.58c-2.82,6.12-3.91,11.53-5.16,17.46l-1.32-1.53,4.82-37.19c.43-3.28-1.04-8.64-3.3-12.02l-6.15,30.82-.2,1.67ZM212.68,560.96l1.86,1.3,2.66-28.11-1.91.96-2.61,25.84ZM225.82,558.95c-.96-1.28-3.68-3.96-3.77-3.1l-.45,4.31-4.66,44.92,2.02,1.3,6.85-47.44ZM207.64,612.53c4.56-11.8,6.29-31.95,4.75-46.72-3.26,8.47-3.41,16.7-3.84,26.35l-.91,20.37ZM259.93,575.34l-4.14-7.88-1.81,20.17,5.94-12.29ZM253.98,643.28l.91-23.26c.11-2.84-1.49-6.9-2.9-7.88l-2.67,29.45c-.09.99.51,3.85.64,4.66s3.99-2.15,4.02-2.97ZM365.3,618.76c-6.5-1.41-12.29,2.14-13.57,7.92l13.57-7.92ZM365.52,629.02l2.97-6.08-6.8,3.28c-.95.46.92,1.49,3.83,2.8ZM373.75,632.12l-4.06-5.12-16.26,12.02c8.54.33,11.56-1.62,20.32-6.9ZM221.46,770.29c2.87-7.42,6.81-15.15.68-23.91l-.68,23.91ZM220.65,792.67c3.13-6.94,2.9-12.44,1.76-18.67-3.47,5.74-4.54,12.18-1.76,18.67ZM204.41,822.24l-6.91-19.13c-2.55,12-.78,20.66,6.91,19.13Z"/>
    <path class="cls-1" d="M372.83,252.09c-5-3.77-6.59-10.52-4.67-16.26l4.67,16.26Z"/>
  </g>
  <path class="cls-1" d="M267.9,586.5c-.92-8.22-.18-14.81,1.05-22.31l3.65-22.29-.85,22.2c-.32,8.27-1.29,15.11-3.84,22.4Z"/>
  <polygon class="cls-1" points="265.53 618.24 264.99 607.12 266.69 606.03 267.23 617.14 265.53 618.24"/>
</svg>