<?xml version="1.0" encoding="UTF-8"?>
<svg id="Layer_1" data-name="Layer 1" xmlns="http://www.w3.org/2000/svg" viewBox="0 0 327.79 578.55">
  <defs>
    <style>
      .cls-1 {
        fill: #5a8a1f;
      }
    </style>
  </defs>
  <path class="cls-1" d="M50.6,320.63l-4.2-38.76,1.68-10.67.53-21.86c2.64-2.6,5.35-5.71,6.42-8.27l42.44-4.46,39.9-2.87c21.99-1.58,89.7-22.19,105.29-34.67l17.31-13.85-8.46-13.89c-7.97-13.08-16.07-26.69-29.44-34.53l-45.53-26.69c-20.33-11.92-45.09-16.34-69.31-18.23l-36.42,2.84-29.46,1.44c-7.29.36-12.1,1.5-19.97-2.56l12.45-3.31c-5.17-.97-12.42-1.72-14.44-4.43l-7.61-10.25c2.45-6.39,2.11-12.75-3.85-16.9l-2.86-15.5c-1.61-8.7-1.15-16.27-5.08-24.76C9.87,9.34,24.17,5.6,38.05,4.66L103.23.24c22.08-1.5,43.71,4.39,64.73,10.86,31.86,9.8,58.35,28.79,87.75,43.85l15.76,8.08c15.05,7.71,11.13,18.75,21.87,15.17,9.56,16.79,14.25,36.66,20.53,55.1l9.66,28.38,3.96,33.66c1.8,15.31-4.86,25.64-12.77,37.64l-11.96,18.15c-13.19,13.33-26.25,25.63-42.64,35.79-35.27,21.86-75.3,31.95-117.48,41.1l-2.48,25.59c-.65,6.72-2.99,8.07-6.62,12.56l-10.22,17.27c-4.67,7.89-13.58,10.68-20.76,7.52-1.3-.57-5.12.6-6.01-.32l-5.09-5.29c-12.17,8.64-22.61-5.52-25.23-3.5l-8.09,6.23.3-5.96c.07-1.49-3.49-1.72-7.09-1.34l-.76-60.17Z"/>
  <path class="cls-1" d="M150,564.57l3.61,12.03-19.04.7c-2.62.1-5.3-3.63-6.7-7.59l-3.74,6.16-3.94-11.51c-.36,1.47-1.07,5.29-1.05,6.76l.05,5.14c0,.81-2.55,1.92-3.1,1.33l-3.32-3.56c-.41-.44-.79-4.01-1.41-3.88l-5.22,1.16c-6.26-10.58-9.99-22.11-11.74-35.26l-6.11-21.21-6.59-47.85c-.98-7.13-1.64-11.15,5.56-16.05,4.8-3.27,13.42-10.22,19.06-11.32l32.84-6.45c7.88-1.55,13.6,2.28,16.69,10.72l4.68-4.46,6.33,52.66,9.94,33.55,7.67,29.29-3.72-2.52c-.51-.34-1.47-.52-1.37.07l.72,4.31.9,5.59c.22,1.34-3.75.09-6.2-.59l2.24,9.86-9.23,6.89-9.66-5.62c-2.56-3.32-4.43-5.59-8.15-8.36Z"/>
</svg>