<?xml version="1.0" encoding="UTF-8"?>
<svg id="Layer_1" data-name="Layer 1" xmlns="http://www.w3.org/2000/svg" viewBox="0 0 709.74 933.83">
  <defs>
    <style>
      .cls-1 {
        fill: #5a8a1f;
      }
    </style>
  </defs>
  <path class="cls-1" d="M220.22,445.68l-23.83-5.57,9.75-2.81c-13.84-4.29-29.93,1.58-28.78-1.37l1.77-4.52-7.25,3.56-108.45-30.22-8.08,1.4c-.84-2.23-4.39-4.24-7.71-4.79l-20.54-3.4c-6.54-1.08-15.65-2.97-18.44-8.16l-8.65-16.06,11.55-47.11c1.26-6.77,4.47-12.03,10.89-14.6l20.68-51.94,34.31-97.54c10.4-29.56,15.11-60.08,27.39-88.59l25.24-58.59c2.24-5.19,12.84-11.46,12.27-15.38l8.68,1.88,23.41,7.42,4.06-2.21c3.04,5.59,5.2,8.15,9.89,11.11l1,5.33c2.25-.18,9.76,2.81,10.25,5.94,1.56,9.88-1.8,23.59-5.6,33.41l-19.52,50.44-34.94,110.36,39.97-24.84,1.8-1.32,22.17-13.57-3.31,8.34,15.78-9.06,52.26-28.97.87,2.12-14.73,8.17-.35,2.18,26.09-11.2,25.95-8.86-3.25-4.03c-.85-1.06,1.57-5.47,2.89-5.17l7.57,1.7-3.64,5.23,35.33-14.43-12.03-4.87,24.42-6.04-8.51,5.9,19.82-4.06,1.61.74-11.14,4.93c5.13.04,10.58-1.43,16.16-3.46l-3.83-4.01,38.9-9.88c1.07-.27,5.75-.64,5.06-1.42l-4.34-4.9,18.32-2.86,15.06-1.56,1.38,1.5-13.17,4.13,40.97-2.22h37.99s19.2,2.94,19.2,2.94c21.98,3.35,43,11.36,61.22,22.63-5.14,1.1-11,3.98-10.57,5.76l10.76,3.26c3,.91,9.22-1.08,13-2.47,8.3,12.75,16.71,25.78,31.19,32.18l32.37,44.61,1.3,12.87-4.07,7.2,12.62,29.05,13.57,38.59,4.93,17.53,3.34,20.54c.84,5.15.94,7.95,3.99,11.58l-2.49,4.02c-.7,1.14,1.49,3.79,2.29,4.98-3.5,5.36-3.54,13.05-.44,18.56l4.06-.25c.83-.05,2.14.07,1.75.73-3.6,6.09-6.64,1.78-7.68,5.5,2.56,7.51,3.18,16.01,1.88,23.27l-4.12,22.88c-.15.84-4.27,3.18-3.64,3.74l3.9,3.43-6.6,3.96-8.26,36.27-5.24-2.27c-.98-.42-3.32,2.8-2.25,2.97l4.66.74c.86.14,1.36,3.41.66,3.31l-6.39-.76c-1.4-.17-3.07,3.3-3.95,4.43l-2.62,3.38c-.68.88-2.18-2.23-1.91-2.95,4.42-2.36,2.73-3.42-.81-3.2l-3.04,4.06c-.81,1.08-2.88.83-5.79.43-9.48,6.71-17.74,15.49-24.56,25.37l.78-10.31-13.69,22.06c-5.71,9.2-9.07,20.39-19.92,25.12l21.6-37.16c-6.16,5.79-8.39,9.41-15.93,13.3l13.38-26.55c1.25-2.47,1.54-8.2,2.68-10.89l13.72-32.12,8.34-20.38,7.52-18.44c3.24-7.96,4.1-15.76,5.46-24.5,3.78-24.33,4.61-47.78-3.11-71.72l-22.98-71.22-10.57-22.94c-7.01-15.2-16.31-28.26-27.97-39.7-10.73-10.52-22.81-14.77-37.44-17.29l-15.18-2.61c-38.55-6.64-78.95-3.42-116.78,8.36l-57.62,17.94c-31.56,12.36-60.76,26.83-89.43,44.33-20.5,12.51-41.37,23.19-60.2,37.73l-20.44,15.78-13.24,10.44c-16.47,12.99-31.12,24.65-46.68,41.67l37.73,11.08,31.19,8.69,57.13,14.2,72.48,19.06c.73,4.01,3.13,9.58,5.45,9.8l7.69-.52c2.03-.14,2.3,7.8,1.24,7.35-1.4-2.48-2.82-5.01-2.35-4.16l-9.35,16.11-.87,12.3,4.66,2.42c.86.45-.68,3.66-1.64,3.78l-5.74.72c-2.79,2.07-8.59,9.48-11.95,8.3l-14.33-5.01,6.39-6.08-5.6-2.76c-1.65-.81-3.64,4.76-4.15,6.97-5.68-1.17-10.36-2.27-15.94-.66l14.39,5.09c1.13.97,3.29,3.73,4.68,3.66l8.77-.43-12.3,6.31,21.62,1.89,1.85,5.96-25.93-4.32c-3.96,1.37-10.85,2.79-13.96,1.61l4.15-7.07-31.21-6.65c-3.06-.65-8.86-3.37-13.33-5.18l4.83-4.32c-4.26-1.67-8.57-.7-12.4,2.7l-26.6-4.39,8.82,5.54,1.41.34,14.88,3.53-1.36,2.31-15.07-3.71-1.25-.38ZM504.26,108.16c4.19-.04,10.05-1.66,13.47-2.91l-58.46.36,28.58,2.71,16.41-.16ZM562.99,123.21l-18.57-7.79c-2.54-1.07-8.02.26-10.14,3l10.78,2.93c6.31,1.71,10.56,2.87,17.92,1.86ZM579.22,123.51l-9.55.58.3,4.93,9.55-.58-.3-4.93ZM181.69,199.99l-4.13,5.58,14.37-8.01-9.17,1.44-1.07.99ZM666.97,223.75l-7.07-11.1.89,9.44c.14,1.45,4.46,2.11,6.18,1.66ZM172.27,428.41c-4.05-8.64-10.32-5.69-13.02-1.5l13.02,1.5ZM269.58,429.65l-12.08-2.89c2.68,4.86,7.9,4.98,12.08,2.89ZM246.23,432.46c-4.26-5.63-9.21-4.44-12.76-2.28l12.76,2.28ZM331.67,437.88l-6.87-9.12c-1.07,1.97-2.98,6.2-1.26,6.71l8.12,2.4ZM285.54,447.49l-16.22-2.77c3.88,5.79,10.78,4.93,16.22,2.77ZM670.39,458.39c2.33-1.61,3.44-6.76,1.97-7.31-2.31,1.58-3.42,6.75-1.97,7.31ZM660.89,483.66c5.06-5.32,5.46-7.46,5.1-11.65-4.2,2.48-6.28,8.07-5.1,11.65Z"/>
  <path class="cls-1" d="M446.84,754.78l2.4-4.02c.67-1.17-3.96-1.85-5.25-1.41l-18.99,6.38c2.44,2.48,7.61,5.22,10.27,5.17l-5.86,5.95-2.91-.89c-.22-2.04-3.93-7.49-6.25-6.96l-10.85,2.47c-1.74,3.46-3.74,5.58-7.41,8.45l8.12,3.78c5.51-4.22,11.57-5.41,15.02-.63l-11.6,3.52c1.62,1.48,5.44,4.59,4.15,5.1l-6.51,2.59-21.61,9.93c-1.24.57-4.4,2.6-4.02,3.65l2.26,6.28,32.2-17.11c3.59-1.91,9.05-3.37,13.95-4.04l-24.04,14.94-28.67,16.7-62.98,31.77-10.91,5.86c-2.74,1.47-9.94-1.31-12.41-2.4l7.18-5.57-12.04,2.86c1.48,1.53,4.45,4.11,3.55,4.55l-4.79,2.38c-1.11.55-5.45.99-5.81-.14l-1.15-3.6-31.17,15.1-17.69,8.77c-2.84,1.41-6.95,6.34-8.45,8.49l-15.18,4.17c2.19,1.91,5.08,4.32,4.06,4.68l-5.18,1.84c-.72.26-3.06.45-3.85.51-.53.04-.06-1.91.12-2.94-1.34.21-4.1.4-4.03,1.59.05.89.37,5.14-.47,5.47l-29.42,11.64-5.07-2.77c-.58-.31-1.49,2.11-.95,2.51l3.71,2.81-20.9,10.18,14.7,1.4-18.5,9.87c-.86.46-4.43-.29-5.05-1-.45-.51-.34-1.22.22-1.47l4.85-2.14c1.48-.65-1.31-4.81-2.84-4.34l-5.98,1.82c-5.66,1.72-10.91,1.42-13.85-3.32l11.46-5.3,7.87-3.64c1.8-.83-.95-7.19-1.78-7.59l-8.55,2.96c-1.6.55-1.2,3.81-1.15,7.1-17.69-2.65-15.47-9.57-22.83-14.71-1.01-1.3-1.57-3.76-3.01-4.21l-7.25-2.31,4.71-3.31c.81-.57,1.06-3.24.14-3.53l-7.63-2.4c-.56,1.52.67-1.85,1.08-2.99,2.88-.04,6.3-.73,5.46-1.67l-4.15-4.64,12.58-6.78c1.28-.7-.16-4.54-2.18-6.96,9.3-5.54,19.56-11.07,32.39-12.72l-10.18,7.43c5.96,2.16,11.51-1.72,15.18-5.78,13.99-2.09,27.21-8.87,37.87-17.9,5.12,4.38,11.14,4.52,16.4-.82l-6.39-1.95,9.08-6.26c2.62-.87,4.13.07,2.42,4.92,5.61-.61,11.09-5.88,14.86-11.81l11.21-5.31c.33-.16.83-.94,1.95-2.22,3.36-3.86,9.7-4,13.97-1.17l17.2-9.44-8.81-1.28,83.08-43.59,19.48-10.16-3.65,7.41,9.02-1.3-4.53,5.18c-.67.76.07,1.78,1.87,5.24l20.54-11.3-10.56-1.06c-1.93-.19-1.64-3.91-2.07-8.72,4.75.28,11.47,4.05,16.18,7.83.25-2.85,1.08-7.83,2.04-10.29,1.52-3.89,13.38,4.04,13.67.99l.4-4.18c8.09.38,14.61-2.95,19.12-9.91l-4.71.69-3.05-4.37-10.42.19c2.84-2.63,10.98-7.88,14.69-6.87,3.81,2.25,7.6,5.52,10.15,5.29s7.78-3.15,9.19-4.16c-5.73-2.08-10.65-4.71-12.62-7.18l16.91-12.09,51.27-40.37,14.54-13.51c5.96-8.15,12.25-15.69,23.62-14.28-.93-10.69,7.15-17.42,16.2-19.8l19.27-21.29c3.96-4.37,12.66-9.23,7.47-17.21l12.91-8.29c.47,3.32.82,7.67-.62,8.38l-7.21,3.56,9.95,1.52c-2.73,2.67-4.16,4.78-5.54,8.01-1.16,2.7-7.62,5.28-9.94,7.51l-17.96,17.31c6.28.51,8.61-2.29,10.62-5.34l1.41-2.14c2.72-4.13,10.42,1.6,23.25-10.1-.26,1.06-5.33,7.73-3.37,8.67l9.09,4.38c-7.51,6.88-13.45,14.26-20.35,21.79l-11.46,12.51-15.59,16.35c9.09-.42,20.99-10.62,23.79-20.47.9-.07,4.22.38,4.68-.74l2.66-6.41,4.54,2.92-10.78,12.01-15.16,15.05c13.47,5.29,15.09-14.52,29.48-16.13l-17.65,19.8,14.88-7.45-3.16,9.61-15.94,16.57,7.93.85c-2.41,4.53-6.23,9.64-10.74,13.12l-27.14,20.94-30.08,23.99-5.42,2.31c-1,.43-1.95-4.77-1.06-5.4l13.13-9.26c-5.2-5.14-9.27,2.39-15.64-1.85-3.57,2.73-10.19,8.09-12.23,11.59-3.87,6.19-11.9,10.44-19.74,15.87-3.97,2.32-9.9,3.4-14.71,3.61ZM563.47,603.58l3.21,1.99c.76.47-1.85,3.03-2.73,4.05-.61.71.79,2.99,1.68,2.77l3.47-.84c-.36,2.24-1.05,5.21-2.81,5.33l-8.5.62c3.69,2.63,9.81,2.69,13.53-.04l9.41-6.91c-4.57-5.67-10.62-9.35-16.07-8.7l-1.17,1.72ZM552.22,636.07c1.45.64-.17-.08-3.47-1.54l-5.05,3.08c-.85.52,2.11,3.41,2.88,2.81l5.64-4.35ZM543.19,660.01c.67-.78,2.34-3.66,1.27-3.45-1.59.3-4.9.77-5.56,1.53l-3.31,3.81c-.44.51,2.29.81,2.89.5l4.72-2.39ZM569.89,666.88c.26-.82-4.67-6.31-2.63-3.45l-9.81,7.04c1.91,1.96,11.4-.21,12.45-3.59ZM472.84,698.73l-25.83,14.85c-12.01,6.91,5.68,5.81,25.83-14.85ZM489.47,706.06c4.48,1.72,9.37-1.74,9.35-5.99l-9.35,5.99ZM492.91,716.83l6.45-5.27c.52-.42-2.23-.78-2.85-.54l-4.69,1.78,1.1,4.02ZM462.64,719.61c1.85.24-2.02-.26-3.31-.43l-3.63,4.66c-.37.48,2.5,1.21,2.89.72l4.05-4.95ZM454.81,736.7c2.34,3.1,7.16,4.79,8.7,3.62l6.51-4.97,17.64-14.11-13.81,5.15c-6.19,1.85-14.4,4.4-19.04,10.31ZM409.4,739.66c7.55,1.76,10.73-3.18,11.31-7.72l-11.31,7.72ZM420.28,743.56l-9.11,5.47,1.94,3.23,9.11-5.47-1.94-3.23ZM417.52,756.83c.92-.54,4.8-3.16,3.79-3.42l-2.96-.74c-.68-.17-2.91.71-3.41,1.31l-3.31,4c-.45.54,2.26.97,2.86.61l3.03-1.77ZM347.12,754.45l-18.28,9.35c8.44,1.08,14.78-2.86,18.28-9.35ZM381.31,785.01l-10.48.52c3.22,5.71,9.13,3.52,10.48-.52ZM247.23,811.93c2.9.54,7.16.54,7.36-1.05l.57-4.55-7.93,5.6ZM229.7,814.11c2.68.29,6.14-.51,8.35-2.46l-7.43.41-.91,2.05ZM214.11,832.04c-1.46-.55-4.96-1.05-5.75-.45l-9.15,6.93c5.84,2,12.56-.71,14.89-6.48ZM197.13,843.62c-1.57-3.4-8.08-3.98-10.97-.27,1.81,2.14,5.78,2.7,10.97.27ZM178.36,889.99l23.69-5.49c1.89-.44,4.33-3.25,4.97-4.87l30.17-13.01-4.4-4.75c12.99,2.79,20.4-2.11,26.67-10.47,6.85-1.87,15.95-4.51,21.79-9.23l-16.53,1.34c-8.45,3.57-14.78,6.57-23.71,6.4l-8.04,11.48-9.98,2.3c-10.98,2.53-21.34,5.38-30.36,11.45l.14,8.11-14.41,6.74ZM216.57,851l-7.23,4.82,6.4.12c1.06.02,1.08-2.88.83-4.94ZM203.33,860.37l-12.25,4.96c5.87,2.14,10.13-.12,12.25-4.96ZM187.68,883.02c1.19.25,2.43-4.61,1.2-4.45l-4.54.57-2.82,2.58s4.6.98,6.16,1.3ZM155.64,904.78l10.56-9.33-14.52,4.83c-1.44.48-2.18,5.59-.75,5.34l4.7-.84Z"/>
  <path class="cls-1" d="M446.84,754.78l-2.9,4.83c-.5.81,1.93,2.68,3.73,4.4l-7.13.97c.03-2.21.25-4.38-.68-4.34l-4.58.25c.43-1.33.82-5.65,2.36-5.72l9.21-.4Z"/>
  <path class="cls-1" d="M425.14,773.07l4.27-6.23,6.77.85c-3.47,2.13-7.33,4.25-11.04,5.37Z"/>
  <path class="cls-1" d="M598.3,611.32c-3.57,4.81-9.76,9.83-16.1,13.77l13.19-21.24,14.5-8.16-11.58,15.62Z"/>
  <path class="cls-1" d="M607.13,613.68l-3.1,5.44c-1,1.76-5.95,2.31-8.69,1.7l6.41-10.44,5.38,3.3Z"/>
  <path class="cls-1" d="M295.42,143.63l-17.27,7.76c4.23-5.72,9.88-9.48,17.27-7.76Z"/>
  <rect class="cls-1" x="596.14" y="629.75" width="15.55" height="2.83" transform="translate(-269.41 611.84) rotate(-45)"/>
  <path class="cls-1" d="M473.36,753.65l11.31-7.72c-.57,4.54-3.76,9.48-11.31,7.72Z"/>
  <path class="cls-1" d="M597.85,625.44l-9.07,8.54c-2.25-4.47.47-11.18,9.07-8.54Z"/>
  <path class="cls-1" d="M209.8,180.08l11.76-5.7c-2.14,5.33-6.49,7.09-11.76,5.7Z"/>
  <path class="cls-1" d="M583.1,558.32l8.01-8.04-1.11,6.23c-.29,1.63-3.72,2.02-6.91,1.81Z"/>
  <rect class="cls-1" x="379.22" y="730.08" width="10.63" height="3.09" transform="translate(-321.59 302.06) rotate(-30.96)"/>
  <path class="cls-1" d="M494.62,741.59l-4.03,4.96c-.4.49-3.25-.28-2.86-.78l3.58-4.58c1.32.16,5.19.63,3.31.4Z"/>
  <path class="cls-1" d="M594.99,543.54l5.93-7.17c.69,3.68-1.24,6.41-5.93,7.17Z"/>
  <path class="cls-1" d="M155.81,843.41c-3.18,1.48-6.3,2.44-10.28,2.86,2.51-1.99,4.59-2.89,10.28-2.86Z"/>
</svg>