<?xml version="1.0" encoding="UTF-8"?>
<svg id="Layer_1" data-name="Layer 1" xmlns="http://www.w3.org/2000/svg" viewBox="0 0 749.51 122.32">
  <defs>
    <style>
      .cls-1 {
        fill: #5a8a1f;
      }
    </style>
  </defs>
  <path class="cls-1" d="M552.51,81.01l-28.23-.76c-13.6-.37-26.24-.4-40.09,1.78-5.28.83-10.53.21-15.94.24l-55.81.3-22.4.23-30.07-.57-15.39,1.31c-10.06.85-20.02-2.66-29.47-.52-13.49,3.05-25.51.77-39.09,2.5l-21.58,2.75-22.39,1.02-35.94,4.37-20.78,2.77-89.38,14.53c-9.79,1.59-16.97,3.22-26.1,6.21-13.5,4.43-41.42,7.61-48.07,2.59-2.29-1.73-4.31-6.77-4.97-10.32l-5.73-30.7c-1.72-9.21-1.01-22.68-.51-31.77.6-11.12,8.27-10.2,15.6-10.76,27.26-2.08,53.05-6.15,80.01-10.01l82.28-11.78,21.77-1.01c37.31-4.69,73.26-9.65,110.79-10.54l89.76-2.12,151.34-.75,20.37,1.4c48.88.64,96.94.04,145.1,6.52l26.82,3.61-1.33,6.15c-.27,1.25,2.31,2.01,6.41,4.27l-11.35,3.02,1.6,9.06c.27,1.51-4.22,1.12-7.02,1.06l1.24,16.05c-1.58,5.18-1.9,7-2.7,12.95l-12.22-.77,5.21-8.9c1.09-1.86-5.07-4.71-6.27-5.2l8.93-2.74s-3.56-3.35-4.21-3.98c-.86-.84,3.45-3.3,3.24-4.48l-3.35-18.88c-5.33,2-8.38,6.22-8.6,10.25-.2,3.71,2.08,9.4,3.71,11.74l-6.9,5.52c3.36,6.88-.52,9.67-3.72,14.38l-2.63,16.82,17.45-1.64.58,6.59c.14,1.63-4.99.2-6.59-.07l-4.42-.75c-1.02-.17.03,3.69.34,5.03l-72.64-4.29-86.66-1.67Z"/>
</svg>