<?xml version="1.0" encoding="UTF-8"?>
<svg id="Layer_1" data-name="Layer 1" xmlns="http://www.w3.org/2000/svg" viewBox="0 0 859.08 1512.99">
  <defs>
    <style>
      .cls-1 {
        fill: #5a8a1f;
      }
    </style>
  </defs>
  <path class="cls-1" d="M239.18,38.27l77.69-5.35-4.06-5.18c4.05-1.72,10.39-.77,14.44,3.9l10.43-1.18-11.01-2.19,4.24-2.28,39.39-3.3,33.46-2.18,1.3,2.45-17.09,1.63,25.69.68.15-4.84c.04-1.23,5.03-2.6,6.37-2.69l53.3-3.48,53.96-4.42,33.01-3.62,11.78-.21c25.22-.45,55.51-5.84,80.99-3.4,6.57.63,16.77-2.69,23.4-2.59l30.94.46-7.41,4.57,12.67,2.4.95-5.75,19.94-1.43,28.6-.15c.9,24.08.52,44.62-.71,67.23l-3.8,69.95-.4,24.06,11.89,165.81c2.16,30.07.96,58.2.7,88.03l-.18,20.15,3.11,97.97.72,12.65,8.27,113.99,5.59,92.32,3.19,31.15,3.22,25.89,2.55,27.96,10.69,129.49,2.66,25.79,4.95,50.87,3.95,35.73,3.5,29.05c1.85,15.37,4.73,27.53,3.44,43.02-1.81,21.78,8.43,46.78,4.54,71.88-1.05,5.41-7.08,14.91-1.82,20.15,3.11,3.1,6.3,6.96,6.48,11.69l.82,21.24-2.14,11.05c-.78,4.01,2.53,9.55,3.55,12.85l8.65,60.99.94,14.93c.04.65,1.62,3.71,2.24,3.66l4.96-.36,5.21,12.42-7.44,3.04c-1.71.7,1.07,6.66,1.03,7.73-2.39,2.07-5.24,4.89-5.43,7.08-.27,3.23,2.54,4.95,5.76,6.58l-4.82,1.73c-.6.22-1.51.92-1.03,1.33l4.46,3.85-7.41,9.57c.03,4.86-2.55,10.02-7.16,11.16l5.98,6.02-10.1,5.37,5.49,2.46c1.35-.95-2.08,1.47-2.94,2.08-2.76-.48-4.69-.76-4.56.05.15.9.35,2.92,1.16,2.83l3.78-.45,3.03-.35c.98-.11,1.99,3.58,1.01,3.67l-4.77.46-11.56.03c-8.36.02-15.17,0-23.36,0l-44.15-.04-42.31,1.6c-4.26-1.29-3.74-3.71,2.04-3.88,3.53.63-3.99-.85-5.71-1.16-1.83-.32-2.36,2.74-3.6,6.56l-34.55.68,9-8.86c2.12-1.23,3.96-2.45,3.47-2.42l-36.32,3.44,21.27,4.44-19.35,1.18,10.04,2.92-19.59,2.48,1.39-8.42c.24-1.47-5.56-2.03-7.03-1.82l-22.91,3.22,24.31,2.21-5.82,3.22-1.69,1.24-38.62,1.52-28.68,1.15-6.5-6.04,16.91-.29,1.61-2-27.12-1.25-5.29,6.84c-1.19,1.54-6.99-.28-8.91-1.14-7.46-1.28-14.23-.03-20.65,2.95-7.79-2.6-15.7-2.15-21.98,2.27-8.58-2.97-17.32-2.82-24.45,2.27l-36.15,3.69-22.04,1.82-29.88,2.01-36.05,1.86-34.7,1.59-97.46,6.97-120.75,16.23c4.05-33.47-14.53-68.68,4.78-86.84l54.05-7.08c20.55-2.69,39.51-4.81,60.13-4.1l12,.41c6,.21,15.23-.19,21.25-1.29l18.42-3.35,36.39-2.3,74.58-4.78,59.9-4.31c37.43-2.69,73.06-7.9,111.27-6.63l15.81-.68c8.68-2.16,17.49-4.99,24.83.7l6.29-4.28c1.27-.86,2.43,3.06,2.57,4.31,5.29-3.28,10.22-5.34,16.34-6.76,9.98-.61,18.55-.63,28.1.62,12.46-4.33,24.73-4.1,37.84-2.59l22.07-3.8,37.95-1.68c11.34-.5,21.96.12,32.94-2.22l-7.05-69.05-4.39-57.11-.35-33.37-4-50.71-4.39-51.89-1.71-21.21-5.02-41.85-4.62-51.03-5.92-59.76-13.12-164.97-5.16-68.86-2.3-37.57-2.72-49.76-4.52-65.39-3.86-115.85c-1.57-47.31.81-92.98-3.45-140.65l-9.72-108.89c-2.32-26.01-2.22-51.28-1.35-77.54l1.63-49.46-53.33,2.06-2.67,3.3c-3.84,4.74,15.75-3.21,24.45,5.02l-58.61,2.52-68.83,3.63,5.5-3.37c1.04-.64,1.7-1.48,2.48-2.33l21.76.83-.23-4.61-19.17.93-26.02,1.98-17.94,1.91c-6.62.7-11.27.64-18.41,5.53l22.21-1.53,22.31-1.54c.22-.77.06.77-.32,3.54l-63.46,5.12c-18.57,1.5-35.42,3.58-55.67,3.27,5.19-2.61,8.67-2.64,16.88-2.91.73.66-.94-.86-3.02-2.75l-9.51-2.52c-2.48-.66-5.41,4.96-6.83,9.11-31.44,3.67-63.08,5.42-93.63,6.23l.06-4.58,18.51-2.87-23.7-.18c-.91,0-3.75-4.34-4.22-3.56l-3.02,5.04-62.55,2.82c6.83,2.71,10.31,3.91,14.71,6.93l-77.27,7.31,21.78,3.31c-25.14,4.59-50.5,3.45-76.6,5.04l-25.66,1.56,1.6,3.08,28.75,1.44c-11.37,1.53-20.22,1.48-33.99,1.45l7.32,61.78c3.55,29.94,5.32,58.41,2.69,88.56l-3.94,14.01-2.17,30.42c-.32,4.42-1.96,8.8-1.83,12.59l.54,16.4.66,48.64-4.29-7.41,2.5,34.64,2.15-1.33-1.08-21.71,2.11-1.91,9.52,119.47.35,1.61c.69,3.23.5,8.98-.16,14.63l-2.11-13.57-.86-.75-.71-17.09-2.69,1.65,8.84,87.13,14.74,166.85,4.03,62.85,2.24,28.85,2.13,35.13,2.96,64.86,2.29-1.81-.7-45.77c3.96,16.4,2.05,32.11,3.11,48.8l1.9,29.98,1.06,63.43c.08,4.65-.35,6.75,1.55,11l1.8,20.84,3.21,37.23-4.11-11.53-.26,19.99,6.42,4.76.57,63.3,2.43,23.56,2.02,41.95,1.77,36.8,1.5,16.54,2.45,47.88,1.87,32.94c3.41,11.23-1.17,21.94-12.38,25.32l-4.69,3.29-4.14-2.99-6.74,3.41c-1.19.6-8.16-8.14-9.52-5.52l-2.47,4.76-19.65-5.31c-2.54-.69-5.95-.56-10.38-.49-3.5.06-7.56-6.52-7.79-10.96l-1.6-30.46c-.77-14.66,1.7-28.79-3.97-43.04l.9,62.73c.11,7.74,6.5,17.2-3.21,23.46l-2.36-55.97-5.93-119.77-1.47-37.79-.29-23-.04-37.65-6.65-65.23-1-49.54-4.12-38.07-.29-45.82-1.5-22.22-2.27-49.96-4.08-45.83-4.08-59.78-2.13-26.8-3.52-47.08-2.98-38.38-14.07-139.79L.98,383.37c-2.21-33.76,3.33-64.92,6.81-98.2C14.37,222.17-3.99,165.05.81,105.89l5.35.76s-.07-2.77-.09-3.5l-.6-18.05c-.26-7.82-1.11-18.01.46-24.79,1.25-5.41,1.93-7.79,1.77-12.94l48.16-2.42-20.66-2.39-6.6-5.11,24.86-.15-1.57,2.19-16.14.02,2.03,1.92,69.14-.26-1.12-1.52-21.99-1.02c9.01-2.5,16.59-2.15,23.28-1.02l1.11,2.04,27.74-1.88c8.24-.56,14.35-1.07,22.86-1.36l48.02-1.67c12.38-.43,23.57-2.28,34.9-1.02l-16.75,3.47,12.5,2.45,1.7-1.35ZM684.56,10.22l-16.54.11c4.99,6.6,12.27,5.37,16.54-.11ZM644.58,12.58l-22.64-1.34c-.68-.04-3.92,3.3-3.26,3.43s4.28,1.28,4.95,1.18l20.95-3.27ZM524.66,13.96l-32.16,2.2c11.01,2.35,22.04,1.81,32.16-2.2ZM544.91,16.23c-1.21.25,1.56,3.84,2.69,3.41l3.21-1.21c.75-.28-.35-3.35-1.13-3.19l-4.76.98ZM472.67,18.06c-9.52-.41-15.41.64-22.1,2.55,8.37,1.25,15.42.11,22.1-2.55ZM637.7,26.07c17.4-11.69,28.74,1.73,44.18-2.56l-5.1-3.35c4.08-.3,6.64-.67,8.87-3.61l-68.85,3.33c-7.35.36-14.97,1.74-22.8,3.4l27.5.54-9.49,3.22,25.69-.98ZM416.85,21.02l-.05,2.3,16.97.36.05-2.3-16.97-.36ZM582.92,28.35l-16.8-1.47,1.66-1.71,14.05.29,1.01-1.66-21.42-1.32-37.12,3.07c.14,1.9,3.8,6.17,5.53,5.53l6.41-2.38c11.87-4.41,24.66,5.54,46.68-.34ZM646.86,22.58l-.06,2.74,13.99.31.06-2.74-13.99-.31ZM386.93,26.96l-1.09-1.67-11.13.41,1.1,1.82,11.12-.55ZM440.15,25.4l-7.85,1.07c1.29,4.49,7.19,4.24,7.85-1.07ZM519.43,33.46l.91-5.16c.23-1.31-16.64-6.17-18.2,5.39l17.29-.24ZM362.76,28.12l-22.07-1.32c-.67,3.98-.58,4.83,0,4.52l22.07-3.2ZM404.47,31.13l-2.94-4.39c-.77-1.15-4.11,3.17-4.92,4.64l7.86-.26ZM448.04,35.57l-4.42,4.33,21.44-2.85c5.62-.75,16.17.26,21.53-1.06l4.58-7.3-47.25,3.4-31.49,3.9,13.17,2.69c1.66,5.51,15.88,4.01,13.08-2.19l9.37-.9ZM650.84,36.21c12.63-.69,23.64-1.33,36.59-4.8-8.72-2.94-16.17-1.4-24.6-.59l-36.31,3.47c8.54,3.06,15.93,2.38,24.32,1.91ZM603.85,37.39c7.28-.47,13.9,3.63,20.2-2.95-18.29-2.71-38.16,3.97-58.49-1.99-5.13,2.9-12.41,5.77-18.47,5.85l-23.69.3c-9.3.12-19.21-1.25-27.1,6.12l62.96-4.42,44.59-2.9ZM392.45,40.34l11.87,2.84-.64-10.13c-16.08,4.86-28.93,6.4-45.09,7.16,4.43,7.15,20.41-3.08,33.86.14ZM239.82,39.47l-.75.79-9.06,2.28,12.17,1.44-2.35-4.51ZM348.34,41.46l-17.08.81c5.64,5.25,11.46,2.56,17.08-.81ZM479.99,44.47c-22.06,1.66-35.01-4.29-34.38,4.86l35.68-2.43c.68-.05,4.23-2.85,3.55-2.8l-4.85.36ZM581.54,58.97c1.31-.02,6.13-1.61,5.43-.65-.47.64-.75,2.33-1.48,2.64l-5.01,2.08c18.55,1.71,37.71-12.76,61.55-5.93l-23.04,3.29c8.44,1.04,16.89.64,26.07-.17l28.75-2.52c-9.55-2.07-15.1.04-23.8-2.67l35.25-2.15c-.84-2.57-3.8-7.63-6.05-7.2l-10.19,1.95-15.73,3.5c-2.23-1.18-7.33-5.25-9.39-4.13l-9.2,5.01-15.22.63c-3.95,1.13-6.47.33-.61-2.87-10.74-3.23-11.31,9.74-27.63,2.02-1.82.7-5.7,3.81-7.29,3l-7.49-3.83-14.05,8.25,19.13-.24ZM268.93,48.99l-1.09-1.74-13.12.5,1.09,1.74,13.12-.5ZM410.82,47.38v4h14v-4h-14ZM244.93,50.95l-1.1-1.7-11.12.54,1.1,1.7,11.12-.54ZM388.2,52.89l6.71-.19c.85-.02-.32-3.58-1.16-3.43l-4.93.92c-3.46,1.44-4.71,2.88-.62,2.7ZM543.14,60.9l13.47-.78c1.04-.28,2.05-3.29,1.21-4.32l-3.66-4.44-5.05,5.73c-.79.9-4.7-.12-4.82-.45-.35-2.25-3.73-4.08-6.56-3.96-1.91.08-2.51,4.25-2.1,6.18.33,1.55,5.3,2.18,7.51,2.05ZM500.68,68.67l4.7-4.52,3.74-3.6c.59-.57-.84-3.49-1.64-3.3l-4.34,1c-6.98,1.61-12.88.87-17.83-4.19l-6.45,6.2,6.32,1.91-7.41,3.47c-1.29.61-.39,4.44.54,5.7,10.58-11.55,18.57.98,22.36-2.67ZM522.55,68.28l4.18-9.09c.61-1.33,2.74-5.22,1.41-5.34-1-.09-4.79-.67-4.79.33v4.07c-.93.93-5.04,2.7-4.34,3.9l3.55,6.12ZM327.12,59.23c-1.81-2.17-3.5-4.1-4.81-3.56l-7.68,3.13,12.49.43ZM338.15,55.39l-7.84,1.08c1.28,4.49,7.19,4.24,7.84-1.08ZM287.42,61.34c.85.05,1.4-4.33.57-4.1l-3.94,1.1-7.45,2.4,10.82.6ZM457.07,68.78c7.62.54,11.71.72,12.44-1.18l3-7.81-10.38-.3,4.6,3.78-9.66,5.51ZM251.25,61.43l-8.45.57c1.71,1.86,4.13,4.26,4.82,3.48l3.63-4.05ZM398.27,76.67c4.46.39,11.01.83,11.2-.88l.99-8.52-17.48.99c-3.67.21-11.04-5.12-14.86-1.91l-1.37,9.8,10.99-3.71,15.96,1.24-5.43,2.98ZM448.12,74l-.64-7.36c-.14-1.55-6.84-1.4-8.34-1.1l-15.49,4.36,24.48,4.1ZM582.61,69.24c-6.12-4.16-12.18-4.75-13.94,1.39,3.3.55,11.01-.37,13.94-1.39ZM603.38,70.95c1.42-.03,4.69-3.98,3.63-4.63-.72-.44-2.63-1.79-3.29-1.31l-3.18,2.29c-3.88,2.79-10.8-5.44-10.84-1.3l-.05,5.26,13.74-.31ZM359.24,76.08c.69-.16.72-3.95-.13-3.85l-3,.36c-1.03.16-5.67.9-5.01,1.75.71.92,1.83,3.18,2.87,2.94l5.27-1.2ZM307.77,80.03c-7.56-8.2-13.69-3.19-21.36,1l21.36-1ZM320.99,75.38l-13.1.52,7.84,5.02c1.38.89,4.24-3.73,5.26-5.54ZM422.95,82.7c14.3.57,24.74-.84,35.92-1.85v-3.35s-26.91-.15-26.91-.15l7.67,3.35-16.68,2ZM360.93,80.98l-1.09-1.74-13.12.5,1.09,1.74,13.12-.5ZM261.08,82.46c-6.23-2.13-12.89-1.46-18.57,2.6l18.57-2.6ZM368.59,84.63c-11.12-2.19-19.53-2.74-27.97,2.32,9.7.39,18.67-.8,27.97-2.32ZM384.65,85.96c-10.11,0-16.7,1-24.05,2.57,8.95,1.36,16.69.08,24.05-2.57ZM151.03,110.27c3-1.61,6.61-3.64,5.61-4.02s-2.49-1.26-3.08-.94l-5.21,2.86c-1.56-1.11-.11-.01,2.69,2.1ZM8.37,153.32l.2-22.27c-4.85,7.36-3.99,14.78-.2,22.27ZM691.2,219.42l1.74-1.09-.5-13.12-1.74,1.09.5,13.12ZM723.45,786.23l-2.14-15.84c1.3-.37,3.5-.99,3.42-.97-.04.01-.37-3.24-.44-4.11l-2.71-35.1-1.57-42.31,5.88,8.03c2.68-7.32,1.72-14.52-2.52-21.68l-2.03,13.29c-5.53-11.84-5.15-22.52-5.09-34.81l.11-20.27-3.08-21.76c-1.19-8.43-1.01-15.54-1.6-23.79l-2.51-34.81c-.62-8.55-2.7-15.66-1.87-24.16,1.42-14.53-1.71-28.32-1.89-43.04l-.4-32.67.3-66.19-.87-50.92-2.35-21.51-4.05-44.14-1.71-22.1-2.57-26.36c-1.54,9.9-.27,19.61.51,30.31l1.75,24.12,4.11,63.75,2.15,57.18-.77,21.12-1.53,27.59,1.64,54.85,2.76,57.15,3.33,50.64,2.99,37.68,1.07,21.75,1.68,49.65,4.54,55.17,10.05,110.59,3.7,47.52c1.16,14.83,2.94,29.08,6.27,43.08l.38-17.62c.07-3.04,1.99-9.47,1.4-12.78l-5.77-32.45-.91-45.79c-2.81-12.91-4.05-22.87-3.4-35.85.68-13.57-4.33-28.17-6.26-42.48ZM16,285.4l.32-42.2c-1.18,4.07-2.96,11.03-2.67,14.43l2.35,27.77ZM47.42,860.29l-2.14-29.25-1.82-18.03-2.19-55.96-2.69-39.2c-1.45-21.16-1.64-42.22-5.24-63.08-4.07-23.62-.84-37.3-5.25-56.6-2.86-12.48-2.5-25.76-4.21-38.44l-4.23-31.36-3.45-45.17-1.62-24.15c-2.78-41.33-8.19-82.04-4.95-123.07l2.93-37.11c-3.59,8.53-3.66,16.94-4.25,26.55l-2.2,35.89-.58,28.12,3.05,53.76,2.79,35.96,1.81,32.19,3.86,39.91,7.23,62.77,2.83,31.19,6.92,85.89,4.94,74.06,3.99,41.99,2.77,42.27c2.85-9.19,2.49-18.13,1.68-29.14ZM746.81,379.25h-2v41.98h2v-41.98ZM720.81,409.24h-2v26.99h2v-26.99ZM84.33,420.69l-2.76,2.03,3.73,46.55,2.37-1.36-3.35-47.23ZM88.58,468.75l-2.59,1.94.65,21.55,2.15,1.56-.21-25.05ZM719.2,561.33c-.05-4.26.2-5.61-1.02-9.92l-1.83,17.97c2.44-1.29,4.29-2.11,4.05-3.11l-1.2-4.93ZM720.83,625.31l4.44-1.05-3.78-17.49-.67,18.54ZM729.2,623.27l1.74-1.09-.5-13.12-1.74,1.09.5,13.12ZM732.87,678.02l-.14-32.5c-.01-2.88-2.33-8.62-3.4-10.69l.46,17.64,1.56,26.61,1.53-1.07ZM734.45,679.15l-1.99.99,1.34,21.29.65-22.28ZM743.15,710.98c4.19-4.99,3.27-10.02.11-15.92l-.11,15.92ZM736.72,746.43c.58-9.03,1.04-15.59-.18-23.42l-2.81-18c-.75,4.82-1.47,12.72-.71,17.59l3.71,23.83ZM729.33,743.43l1.66-3.39-.57-12.95-1.77,1.02.68,15.33ZM739.88,779.14c1.54-4.91,1.65-11.05-1.85-16.42-1.99,4.99-1.23,10.5,1.85,16.42ZM751.92,808.82l2.57-31.52-6.14,3.45,3.57,28.07ZM745.83,846.99c.82-6.77,1.4-13.53.79-17.34l-2.99-18.7c-.67,5.64-1.22,12.99-.53,17.62l2.73,18.43ZM737.2,877.17l1.73-1.09-.5-13.11-1.78,1.1.55,13.11ZM109.25,879.17l1.7-1.1-.54-11.11-1.7,1.1.54,11.11ZM52.36,1017.81l.87,35.31,1.76-1.13-1.01-46.14-2.26-41.78-1.77-61.9-2.96-1.15.45,23.94.45,36.12,1.4,19.8,1.76,22.31,1.31,14.6ZM751.85,932.65c1.94-11.17.98-21.41-2.7-31.88l2.7,31.88ZM741.13,933.15l1.8-1.09-.47-15.12-1.76,1.08.42,15.12ZM756.32,955.77l-2.69-19-.33,15.53,2.69,19c.63-4.39.98-10.95.33-15.53ZM124.86,973l-.49,15.98,2.74.08.49-15.98-2.74-.08ZM758.81,975.03h-2v17.99h2v-17.99ZM751.97,988.48c.4-.8.83-4.14,0-3.81l-4.44,1.77-.21,11.38,4.66-9.34ZM746.43,1019.63l-.99-18.35c-.21-3.95-3.71-11.42-6.13-15.57-.55,19.81.21,36.7,4.81,53.67l-.97-26.65,3.29,6.9ZM127.45,1029.32l1.63-3.17-.53-9.26-1.9,1.11.8,11.31ZM753.18,1052.64c4.8-.9,4.95-7.54.65-7.9l-.65,7.9ZM747.23,1068.32l3.35-3.98c.96-1.14-5.14-4.62-5.14-3.18l.03,7.68,1.76-.52ZM62.64,1173.55c7.48-12.86,1.21-24.45.5-36.76l-1.48-25.8-3.44-26.49-2.61-17.92c-2.45,3.3-2.23,7.52-1.79,12.79l2.18,25.91,4.24,39.77,2.41,28.5ZM747.8,1069.33l-1.24.83,1.2,8.83,1.36-1,4.74-8.45-6.06-.2ZM750.49,1079.02l-2.04,1,1.56,13.32.47-14.32ZM755.33,1125.29l1.66-3.39-.57-12.95-1.77,1.02.68,15.33ZM137.66,1123.81h-2.85s.02,17.16.02,17.16h2.85s-.02-17.16-.02-17.16ZM757.2,1145.07l1.74-1.09-.5-13.12-1.74,1.09.5,13.12ZM773.33,1153.28l1.66-3.39-.57-12.95-1.77,1.02.68,15.33ZM134.85,1144.94l-.28,11.99,2.83.07.28-11.99-2.83-.07ZM71.34,1175.27l1.66-3.39-.57-12.95-1.77,1.02.68,15.33ZM759.2,1175.06l1.74-1.09-.5-13.12-1.74,1.09.5,13.12ZM69.16,1268.32l-3.02-35.19-.2-24.11-2.1-32.43c-3.9,15.5-3.91,31.59-2.86,48.41l4.36,70.04,2.81,26.01,1.01-52.73ZM816.81,1176.95h-2v18.99h2v-18.99ZM762.81,1180.95h-2v30.99h2v-30.99ZM765.96,1270.82l.56-23.68-2.67-28.41-3.34,34.69c.45,3.67,1.69,5.12,3.2-.05l2.26,17.45ZM141.46,1226.92l-2.76.02.14,17.99,2.76-.02-.14-17.99ZM769.18,1235.2l.33,5.79c.04.78,3.26-.35,3.28-1.13l.11-3.9c.02-.78-3.77-1.52-3.72-.77ZM75.25,1261.03l1.7-1.1-.54-11.11-1.7,1.1.54,11.11ZM579.32,1406.94c-2.03-2.63-5.44-5.16-7.19-4.3l-7.58,3.73,14.77.56ZM556.65,1406.47c-8.32-2.65-15.04-3.55-20.16,2.22l20.16-2.22ZM557.26,1415.96l22.52-1.3c-3.25-10.24-9.97-4.27-14.26-3.53l-28.98,5.04,20.72-.22ZM522.77,1414.76l-14.06,2.68c4.26,2.25,10.18,3.64,14.06-2.68ZM628.82,1424.86h-31v2h31v-2ZM528.82,1428.86v2h17v-2h-17ZM516.71,1432.22c-7.04-2.69-11.59-1.93-14.15,2.6l14.15-2.6ZM472.93,1450.43l-1.1-1.7-11.12.54,1.1,1.7,11.12-.54ZM586.14,1452.33l6.75-.2c.78-.02-2.21-1.05-2.98-1.4l-2.81-1.32c-4.03,1.78-4.77,3.08-.97,2.92ZM549.12,1454.71c-1.8-2.17-3.48-4.11-4.78-3.58l-7.7,3.15,12.48.43ZM472.93,1458.43l-1.1-1.7-11.12.54,1.1,1.7,11.12-.54ZM800.44,1460.05l4.62.07c.87.01-1.87-3.09-2.74-3.12l-21.39-.83c-8.37-.32-16.01,1.09-25.12,3.55,8.15,8.21,18.44-.07,26.48.05l18.14.27ZM590.93,1467.97c.82-1.3,2.15-5.68,1.08-5.26l-5.94,2.33c-1.37,3.64-.26,4.42,4.85,2.92ZM629.15,1469.08l-24.79-.52,1.37,2.42,22.08-.19,1.34-1.71ZM390.18,1482.64l6.75-.27c.93-.04-.16-3.66-1.09-3.52l-5.03.75c-3.3,1.37-4.94,3.28-.63,3.03Z"/>
  <path class="cls-1" d="M119.45,800.15l.47,21.2-3.88-35.98-1.79-28.42-2.03-27.82-1.79-22.01-3.46-42.43c3.25,7.94,3.87,15.54,4.57,24.25l1.77,22.21,2.15,29.97,1.79,26.14,2.2,32.89Z"/>
  <path class="cls-1" d="M283.95,96.7l-36.63,1.63-2.63-5.43,48.02-1.85c-1.82,3.49-5.31,5.5-8.75,5.65Z"/>
  <path class="cls-1" d="M680.64,68.33c-7.16,2.47-11.83,3.22-21.04.84l10.24-5.09,4.65,1.83,6.14,2.41Z"/>
  <path class="cls-1" d="M123.46,882.72l-1.66-28.69c5.2,8.91,3.49,19.06,1.66,28.69Z"/>
  <polygon class="cls-1" points="272.96 33.07 246.02 34.23 244.71 31.61 271.84 31.29 272.96 33.07"/>
  <rect class="cls-1" x="286.82" y="29.38" width="21" height="2.36"/>
  <rect class="cls-1" x="102.49" y="609.17" width="2.33" height="18.99"/>
  <rect class="cls-1" x="98.33" y="571.19" width="2.61" height="17.99" transform="translate(-11.08 2.01) rotate(-1.1)"/>
  <rect class="cls-1" x="120.54" y="835.08" width="2.28" height="14.99"/>
  <polygon class="cls-1" points="97.19 567.53 96.81 555.1 98.83 556.13 98.92 564.27 97.19 567.53"/>
  <polygon class="cls-1" points="95.17 553.32 94.37 542.17 96.4 541.09 96.95 552.2 95.17 553.32"/>
</svg>