<?xml version="1.0" encoding="UTF-8"?>
<svg id="Layer_1" data-name="Layer 1" xmlns="http://www.w3.org/2000/svg" viewBox="0 0 471.39 763.79">
  <defs>
    <style>
      .cls-1 {
        fill: #5a8a1f;
      }
    </style>
  </defs>
  <path class="cls-1" d="M71.01,549.51l-18.59-6.3c-1.26-.43-1.49-7.67-2.76-7.26l-7.42,2.38-16.24-3.37c-7.08-8.82-7.71-18.92-7.27-29.79.39-9.65,3.97-14.62,8.83-22l11.16-16.93,25.81-32.09,13.32-15.23,21.2-20.81,23.33-20.31,16.07-14.08,12.16-11.79,25.25-28.92c5.82-6.67,8.56-13.36,12.02-22.51,1.88-12.4,2.05-25.81,1.38-38.35-17.38-27.82-65.45-17.91-75.21,1.11l-10.23,19.96c-3.12,6.08-3.59,18.19-4.77,25.67-4.35-.39-10.01-.09-12.65,2.2-8.66,7.51-19.6,5.37-25.4-3.31-17.51-26.24-10.17-58.04,12.18-78.88l35.47-33.07c6.64-6.19,20.26-7.96,28.58-10.98l20.66-7.48c6.24-2.26,18.6-.93,24.71.02l24.23,13.1c6.02,3.25,10.81,12.2,16.59,16.95l12.38,10.17c9.49-.95,17.84-3.8,25.25-9l15.22-10.68,16.01-14.3,10.57-9.4c12.09-10.75,23.26-22.61,37.47-30.43,6.06-3.34,12.26-5.94,8.93-14.6l-4.31-11.19c-5.73-14.88-1.19-31.56,2.82-46.26,5.36-19.68,11.43-38.32,24.45-54.04,15.85-19.13,45.46-24.12,64.75-8.19,23.97,19.79,26.46,75.94,28,111.01l3.29,74.72c.82,18.7,4.3,37.2,2.73,56.22l-4.95,59.84c-.45,5.39-4.38,12.44-7.42,16.7-.01,13.14-3.28,25.73-16.75,31.81-6.4,11.69-19.03,14.76-32.72,12.46-11.23-2.85-18.92-12.54-26.4-22.69-7.92-10.76-12.54-26.27-12.99-39.86l.72-6.38c.18-1.6-5.93-1.19-7.37.06l-28.32,24.74-37.05,37.13-23.39,22.55-37.02,48.63-14.94,25.26-8.63,21.41c-3.03,7.53-6.05,18.58-6.42,26.12l-.98,19.9c-.65,13.21,10.71,24.11,15.82,35.41,3.54,8.79-8.09,22.69-16.04,23.69-10.11,1.27-18.51-2.63-25.26-8.54-6.96-6.1-18.14,6.54-27.22-8.71-9.38,4.52-18.71,2.13-24.98-8.29-3.7-6.15-5.76-20.79-1.68-28.1l19.15-34.35,6.56-15.8c3.41-8.2,7.21-14.39,8.7-23.77.56-3.56-7.72-8.75-11.49-7.81-8.55,2.13-13.61,7.84-20.52,11.88-15.82,9.24-24.35,25.91-14.45,43.97,10.44,19.05,1.59,38.24-16.55,51.72-2.73,2.03-11.16.52-13.98-1.46l-13.42-9.45ZM390.98,76.64l2.81-6.51c.35-.8-2.97-1.92-3.27-1.1l-1.6,4.44,2.06,3.18ZM422.44,95.4l9.23,2.2c-.54-2.25-2.14-6.55-.8-6.87l7.1-1.71c2.29-.55,5.86-1.22,5.69-2.77-.19-1.74-1.99-5.89-2.26-4.84l-19.37,10.78c-8.77.33-20.44,1.04-20.16,14.17l20.57-10.95ZM360.21,111.24c5.36-5.81,4.06-14.14,2.22-20.38l-2.22,20.38ZM66.78,525.3c3.45,1.45,12.05,3.37,14.01,6.38l7.69,11.8c7.41-3.52,15.78-13.09,13.76-21.8l-5.92-25.58c-2.77-11.96.22-22.82,9.77-30.69l20.79-17.16c7.09-5.85,13.98-9.84,24.14-10.65,14.4-1.15,33.29,19.86,26.87,33.75l-11.32,24.52-13.8,22.61-9.39,14.44c-4.54,6.98-9.17,16.8-2.95,23.32,4.96-4.42,10.13-8.24,13.87-7.65,4.25.67,8.32,4.89,10.6,9.39,4.46,8.79,9.83-2.31,29.24,13.92,1.23,1.03,7.19,2.47,7.88,1.05l2.68-5.55-14.43-32.37c-1.16-2.6.09-9.67.42-12.15l3.34-24.62,8.01-32.32c2.3-9.29,7.69-17.36,12.83-25.23l14.43-22.05,13.77-15.99,21.86-26.34,65.54-64.45,21.98-17.75,48.96-35.48,14.22-7.4,36.2-14.54-3.65-68.02-1.55-41.33-1.56-24.58-13.94,3.72c-5.55,1.48-11.53,2.49-15.53,6.45-7.82,7.72-16.95,10.78-25.78,16.44l-32.89,21.06c-15.14,9.7-28.35,20.14-41.25,32.72l-17.71,17.28-32.82,22.08c-4.51,3.03-7.27,4.74-11.76,8.59-6.14,5.26-19.93,1.52-26.37-2.99-9.77-6.86-15.98-14.67-23.35-23.18-15.47-17.87-40.89-18.12-61.89-9.72-5.72,2.29-17.41,2.32-21.54,6.03l-12.86,11.54-16,14.37-17.69,17.74c-14.13,19.57-13.09,61.61-1.27,58.77,17.72-4.26,17.6-31.84,30.78-50.97,11.41-13.33,35.06-20.39,52.18-20.55,15.4-.15,29.64,8.54,41.55,17.69,15.91,12.23,5.79,56.05-8.76,78.18-7.75,11.79-18.14,22.98-28.56,33.28l-24.05,23.78-24.01,21.89-23.19,21.14-20.87,22.91-20.99,28.9c-4.93,6.78-8.47,11.25-10.75,19.73-1.87,6.97-5.02,16.31-1.58,22.68,8.29,1.28,14.59-6.12,16.96-14.55,3.01-.79,10.06.79,12.5,2.98s2.61,9.81,3.13,14.56ZM394.91,113.35l4.98-7.57-5.49,1.48c-.81.22-.5,1.52.51,6.09ZM370.97,123.08l-7.84,1.08c1.28,4.49,7.2,4.24,7.84-1.08ZM403.39,276.44c6.48,1.28,12.27-2.18,13.58-7.91l-13.58,7.91ZM395.33,334.87l-6.67-26.09c-1.54,8.97.48,19.4,6.67,26.09ZM407.06,355.31c1.24-7.25-4.07-9.55-8.5-9.09l8.5,9.09Z"/>
  <path class="cls-1" d="M146.77,750.58c-.1,4.98-.73,15.47-8.18,12.78-5.62-2.03-8.87-15.39-8.14-21.61l4-34.2,20.81-51.07,14.86-44.04c.67-2,4.92-4.6,6.32-3.92,10.68,5.17,8.56,25.83,2.41,41.31l-10.46,26.34c-9.51,23.96-21.06,46.74-21.62,74.41Z"/>
  <path class="cls-1" d="M18.3,716.84c-.09,4.22-12.51,6.68-14.88,2.78-3.92-6.43-4.28-15.51-2.01-22.44l16.43-50.26,10.64-33.17,10.22-36.39c17.7-6.3,14.77,23.85,6.77,47.47l-14.71,43.41-7.3,21c-3.23,9.28-5.08,17.77-5.14,27.6Z"/>
  <path class="cls-1" d="M102.82,656.76c1.1,2.11-3.71,6.85-6.19,6.83-3.13-.03-6.25-4.8-6.04-8.3l-2.72-8.5c.58-12.33,5.79-23.13,10.93-34.23l12.1-26.14c4.77.91,10.18,2.48,11.89,4.69s.06,8.52-1.33,11.93l-17.67,43.56-2.87,4.77c-.65,1.08.6,2.91,1.89,5.39Z"/>
</svg>