<?xml version="1.0" encoding="UTF-8"?>
<svg id="Layer_1" data-name="Layer 1" xmlns="http://www.w3.org/2000/svg" viewBox="0 0 786.77 841.14">
  <defs>
    <style>
      .cls-1 {
        fill: #5a8a1f;
      }
    </style>
  </defs>
  <path d="M233.55,832.57c.43.48.64,2.96-.02,3.29l-3.04,1.54,3.05-4.83Z"/>
  <path d="M150.53,751.43c-.09-.91.6-2.98,1.03-2.59l2.03,1.84c.57.52-2.98,1.51-3.06.75Z"/>
  <g>
    <path class="cls-1" d="M204.62,71.54c6.38,1.19,8.69,10.07,20.38,17.69,1.1.72,1.59,3.53,2.29,4.89,2.7,5.25,7.25,11.16,11.48,15.69l5.85,4.32,9.46,16.56c2.39,4.18,5.52,8.76,8.82,12.28,3.76,4.02,10.83,4.38,8.32,21.05l-2.69.26c-.63.06-1.24,2.03-1.74,2.5l-9.64,8.94h-3.6c-.79,0-1.04,2.79-1.22,3.74l-1.08,5.68-4.64-3.56-.59,4.56c-.12.89-2.33,2.1-3.22,2.64-.93,1.12-2.32,2.78-.86,1.03-.71-3.21-1.57-2.77-2.03-.9-.41,1.11-1.02,2.85-1.49,2.63l-2.85-1.35c-1.18-.56-2.43-1.83-4.57-4.18l-3.66,14.93c-.62,1.78-5.37.19-6.86-1.37l-1.87,4.16c-.43.95-3.01-.68-4.14-1.07-4.88-1.68-8.69-3.96-11.16-9.25l-6.09-6.99-26.96-39.64c-9.02-13.26-20.39-26.08-31.92-37.16-.94-.9.77-5.06,1.34-5.56l-2.07-5.2,5.33,2.03,1.54-8.57,3.54-.06,1.93-3.17,6.69-1.1,8.09-4.97-.62-3.77,13.5-.24.09-1.49c.1-1.67,4.47,1.56,4.52,1.52l2.6-2.38,8.04-5.06,6.98,5.69-4.68-6.39.77-.8,7,5.99c3.29,2.35,7.25,4.96,9.72,8.14l9.41,12.11,6.69,8.9,6.64,9.1c2.91,3.98,5.17,8.09,9.24,11.18l-10.19-15.76-17.88-23.54-11.91-14.65Z"/>
    <path class="cls-1" d="M141.85,288.01l-3.09,5.97c-.49.86-1.78,2.24-1.72,3.03l.31,3.8-3.63-6.06c-1.4,1.99-1.66,4.89-.86,7.33l1.96,5.97c-5.61-.09-6.99,1.4-9.64,5.26-1.81,2.63-6.65.62-10.81-1.03l5.48,6.37c-2.5.54-5.58-.72-6.64-3.2-1.93-.32-3.81,3.42-2.7,5.32l4.55,7.83-3.16-1.34c-.5-.21-2.17-.6-1.92-.5l1.91,2.97c.49.76-.99,2.95-1.76,2.51l-3.44-1.95c-.64-.36-1.89.93-3.08,1.89l-13.91-7.6-3,.75c-.66.17.15-2.94.14-2.66-6.85-.67-9.51-5.86-17.43-7.63l-6.36-4.69-22.8-13.12-22.88-12.06c-2.41-1.27-5.11-4.15-5.46-6.48,3.24-3.33,2.95-7.51.18-10.49l4.22-6.19c.96-1.4,4.74-2.93,6.28-3.56l3.01-8.22c1.89-5.16,9.73-8.6,7.33-8.66l2.98.07,4.94-4.6c.26-.24-.38-2.11-.47-2.46-.08-.32-.02-.89.33-.85l3.08.38-2.45-3.54c2.7-3.9,6.83-5.39,12.19-3.92l-2.26-3.24c-.41-.59,2.79-1.51,3.04-1.51l-1.85-3.68c4.55,2.38,6.38,4.47,9.58,7.96,2.84,3.11,7.98,5.17,11.89,7.07l19.08,9.26,34.91,19.72c6.04,3.41,13.55,4.58,16.92,12.19l-7.26-1.53,4.33,3.04c0-.1-.69,2.6-.1,3.36l2.66,3.43-3.88-.58c-.74-.11-2.07,2.07-1.58,2.63l2.83,3.29ZM128.21,297.87c.08-1.1-.05.65-.16,2.1l2.3,2c.37.32,1.41-1.55,1.01-1.84l-3.15-2.27Z"/>
    <path class="cls-1" d="M91.38,480.73c-.28-.05,1.88-.03,1.61.24l-2.72,2.71,9.29-1.27c1.45.98,3.9,3.18,4.57,4.46s-1.68,3.85-3.32,5.54l7.76.13-3.09,5.93c-2.21,1.06-4.95,2.57-6.01,3.88,2.24,1.85,4.66,1.54,7.22.82l5.74,2.5-9.03,2.4,8.71,2.07c-1.01.95-3.34,2.37-4.55,2.27l-2.37-.19c-.41-.03-1.37,1.2-.98,1.34l3.79,1.44c.06-.15-.55,1.35-.64,1.56l-4.11.23c-.75.04-1.12,2.93-.36,3.03l10.18,1.36-9.02,5.49c-9.53,5.81-17.4,2.98-24.99,7.12l16.43-.23-4.23.8-.96.72,10.58.7-10.91,2.46c-5.2,1.17-10.65,1.03-15.77.59l.48,2.84c0,.05-8.2,2.67-14.45,1.47l8.39-3.36-5.31-1.8,10.71-2.28c-3.53-.9-7.5-.61-11.51.44l-21.43,5.62-15.09,4.53c-3.97,1.19-7.73,1.41-12.05.5l5.29-4.42-6.91-1.2,1.98-5.22c-4.5-3.01-5.66-6.74-5.66-11.98l-4.17-9.72-1.59-8.85-1.54-10.6-1.3-7.39,5.72-4.42,39.5-9.88c6.17-1.54,11.66-2.95,17.85-3.66l17.92-2.04,8.65-1.67-3.56,4.32,4.86.64-6.2,2.46c9.75,3.11,11.44-4.44,15.46-2.98.4.14.62.92.24,1.14l-1.99,1.16-3.95,2.31c-.88.51,0,3.22.35,4.09l-4.22.88.77.94ZM89.86,479.96l-5.73,1.47c2.82,1.69,5.01,1.08,6.51-.2l-.78-1.27ZM101.97,487.9c-3.8-4.59-8.19-3.14-11.94-.21,4.21.89,8.37.9,11.94.21ZM100.85,497.1c-.5-1.18-2.7-2.22-5.41-2.39l1.59,3.93c.33.82,4.16-.74,3.82-1.54Z"/>
    <path class="cls-1" d="M199.88,194.88l-7.52-4.94c-.07-1.99-.75-5.15-1.78-6.81l-5.86-9.48c4.23,2.93,6.33,6.68,8.51,10.93l6.65,10.29Z"/>
    <path class="cls-1" d="M137.31,112.43c4.47,1.56,12.93,11,14.99,16.72l-14.99-16.72Z"/>
    <path class="cls-1" d="M260.84,587.2c-3.12,2.03-6.54-.91-5.91-4.99l5.91,4.99Z"/>
    <path class="cls-1" d="M54.8,544.82c-2.74,1.29-5.91,1.97-9.25,1.23,2.42-1.59,5.65-1.6,9.25-1.23Z"/>
    <rect class="cls-1" x="138.15" y="260.68" width="2.01" height="7.79" transform="translate(-159.72 270.71) rotate(-63.43)"/>
    <rect class="cls-1" x="84.24" y="323.57" width="2.01" height="7.79" transform="translate(-245.77 257.26) rotate(-63.43)"/>
    <path class="cls-1" d="M35.51,547.82c-1.62,2.42-4.5,3.35-7.94,2.93,2.41-1.31,4.13-2.13,7.94-2.93Z"/>
    <path class="cls-1" d="M557.58,620.82l-4.38-4.36c2.31-.32,4.33,1.14,4.38,4.36Z"/>
    <path class="cls-1" d="M611.44,705l-3.37-5.26c2.39-.01,4.33,2.74,3.37,5.26Z"/>
    <path class="cls-1" d="M193.08,193.43c1.14-.13,2.79-.09,2.78.51l-.08,3.57-2.7-4.08Z"/>
    <path class="cls-1" d="M44.6,544.56c-.01.59-.43,2.75-1.1,2.78l-3.5.17,4.61-2.95Z"/>
    <path class="cls-1" d="M159.69,138.31l2.79,2.26c.28.23-.16,1.82-.43,1.61l-2.58-2.01c.09-.74.35-2.91.23-1.86Z"/>
    <path class="cls-1" d="M268.63,686.17l1.27,5.76c-1.73-.84-2.16-2.4-1.27-5.76Z"/>
    <path class="cls-1" d="M286.63,716.21c5.25,4.11,5.2-6.96,9.73-6.52,1.92.19,4.59,3.92,3.73,5.25l-6.95,10.74-1.69,2.53c-.52.79,1.5,3.37,1.44,2.6l4.47-5.58c-3.06,7.74-6.29,14.29-10.35,21.27l-6.85,6.66c.8,4.76-2.76,6.53-4.81,9.44l-10.15,14.49-5.04,7.62c-4.7,7.11-8.56,14.81-11.97,22.49-2.12.91-5.53,2.3-6.4,3.8s-.24,5.17.07,7.58l-1.03-1.78c-.29-.51-2.35-.3-2.06.21.66,1.18,2.37,2.97,1.86,3.67l-2.28,3.12-.35-5.71-4.8,7.99-7.54,15.05-1.46-.86,2.2-7.13-6.23,3.97c-.25-1.25-1.4-4.05-2.41-4.87s-3.47.97-4.19,2.04l-1.33,2c-.34.52-.88-.93-1.41-2.39-.69-1.88-3.44-2.84-5.74-3.28-7.19-1.39-8.92,2.36-9.43,1.3l-1.64-3.42c-.59-1.23-1.72-4.74-3.02-4.52l-6.28,1.09,1.3-5.54-3.46,2.95c-.7.59-2.38-.54-3.81-1.52l-2.9,2.52c-1.25-1.17-2.87-2.35-5.29-3.86,1.49-1.17,1.29-7.68-1-7.91-.64-.07-2.58,1.39-3.15,1.68s-1.8-1.6-2.33-1.36l-4.77,2.11c-.75-5.02,2.47-7.12,6.57-8.34l6.9-15.58c2.76-6.22,9.5-10.29,11.46-18.99.89-3.93,6.14-8.07,7.85-11.75l7.59-16.28c.89-1.92,4.59-4.85,6.05-6.29.23-2.41.9-5.51,2.58-7.1l7.34-6.95c1.59-1.51,1.76-5.04.98-7.57l11.71-17.96,1.38,1.81c.44.58,1.91-1.72,2.39-2.38,7.52.65,6.36-9.22,14.99-16.26l.1,10.75,2.47-4.16,5.88-7.43,2.03,1.78c.81.71-4.39,4.97-2.78,5.97.85.53,2.97,1.18,3.99,1.22l2.75.1c.52.02.5,1.12.31,1.6l-1.31,3.34c1.72-1.16,3.54-3.82,4.83-6.64l1.94,7.31,2.67-.39c.72-.1-.13,2.49-.63,4.05l3.57-1.49c1.09-.45.29-3.09-.22-6.14,2.57.93,4.79,3.71,7.49,6.06l5.65,4.93-2.05,6.93c2.96-1.02,4.42-2.3,6.44-6.96l5.2,3.42-8.77,11.47ZM296.64,711.46l-4.02,4.38,4.29-.03c.98,0,.02-4.57-.26-4.35Z"/>
    <path class="cls-1" d="M619.42,720.96l.53-2.92c.07-.37.46-.57.66-.27l1.35,1.96,11.72,21.75c-.79,2.14-1.33,4.91,0,6.76l-6.93,7.6-2.82-5.37-2.27,7.68-1.65-2.17c-.67-.88-1.19,4.16-5.66,4.28-1.73.05-2.75-2.01-3.24-4.64l-3.67,5.01c4.36,3.84-.92,9.31-.76,9.4l-2.41-1.43-2.39-1.43c-.67-.4,1.05-2.38,1.93-3.52-1.52-.08-5.8.88-6.75,2.5-1.19,2.03-.45,4.92,1.39,8.08-2.48-.01-5.31-1.37-7.09-4.24l-6.96,5.9-2.54-3.57-2,3.92-2.4.12c-.77.04-.93,2.39-1.13,4.16l-9.97-3c-.04-4.93-3.54-7.72-5.33-11.67-7.15-15.71-15.74-29.87-24.98-44.6l-6.93-11.05-9.2-15.88-6.2-9.14-9.08-12.57-13.53-17.84,5.29.5-3.36-5.78c2.86-1.67,4.25-4.61,5.08-7.73,5.12-.65,10.55-2.15,12.71-7.34l7.36-.6c1.54-1.76,3.48-4.11,5.05-4.69s5.13.64,7.15,1.01l5.31.97c1.08.2,2.01-2.03,2.68-3.1.66.12,2.71.52,2.58,0l-1.03-4.15,9.37,1.96,8.4.26-5.37-4.74.74-1.54,10.13,7.77-.71,1.96c-.42,1.16-3.8-3.14-4.08-2.19l-.52,1.75c-.35,1.19,11.49,1.03,11.04,6.83-.06.77-2.3,2.7-1.86,3.24l1.92,2.39c.45.56,1.68-.75,2.61-1.63.15-.12,2.19,1.21,1.87,1.68l-2.13,3.1,8.06,11.36c.21.3,1.3,1.2,1.35,1.16l1.33-1.51c.59,8.01,5.63,11.24,9.6,22.4,2.13,5.99,6.27,11.59,9.7,16.92l5.23,8.12,5.89,8.89,6.94,8.9ZM553.56,727.63l-8.73-14.12c-3.12-5.05-3.85-11.42-11.25-13.2l10.51,18.37,4.99,8.48,1.58,2.7c.36.61,3.35-1.49,2.9-2.22ZM565.69,749.64c-2.84-6.58-5.28-11.87-9.84-16.71l2.72,10.05c2.25,8.31,9,10.99,8.05,8.81l-.93-2.15ZM559.04,713.17l-4.08-1.19,4.44,7.75-.36-6.56ZM564.93,723.81c-.29-.57-2.03-2.6-2.22-1.95l-.52,1.73c-.12.4.54,1.71.85,1.96l2.28,1.79c.31.25.73-1.33.55-1.69l-.94-1.85ZM575.15,760.81l2.02,6.06,2.02-.67-2.02-6.06-2.02.67ZM593.04,712.65c-4.96-7.41-7.98-12.96-11.4-20.93-3.54,3.91.95,6.64,2.28,9.33,2.34,4.73,4.34,9.53,9.12,11.6ZM587.63,760.42l-2.01.14,1.89,6.38c.75-.78,1.95-2,1.64-2.75l-1.52-3.77ZM612.69,748.29l-2.1-6.1c-.18-.51-1.93-1.34-2.25-.91l-.95,1.26s1.11,1.38,1.26,1.7l3.11,6.56c.24.51,2.06,1.42,2.34.97.42-.68.9-1.33.52-1.7-.25-.25-1.8-1.42-1.92-1.77ZM620.84,722.94c-.92,4.59,1.04,8.42,4.29,11.6,1.25-4.5-.69-8.28-4.29-11.6Z"/>
    <path class="cls-1" d="M772.57,287.88l1.11,3.25c-4.71-.29-8.77.13-13.1,2.49,7.06,1.96,12.22-3.78,16.87,4.66-.56,1.58-1.21,3.56-1.16,4.09l6.75,6.06-5.24,4.38,3.64.97c.61.16-1.06,2.21-1.59,2.75-.45.46,0,1.13,1.28,3.37-.91.45-5.33,1.09-7.79,1.23-.57-.2-.96,2.72-.13,2.81,5.24.57,9.17-4.55,12.75,1.14l-7.38,1.64.08,2.41-5.5,1.69,11.11.57c.43.02,2.02.63,2.37.74.52.17-.72,1.47-1.09,1.59-4.04-.59-7.81-.4-12.36.55-1.8.2-2.29.69-.29,1.66l8.63.06c-1.6,3.14-5.72,3.89-9.54,3.96l.05,3.13c.01.68-1.58,1.55-2.29,2.06.16,1.14.08,4.16-1.01,4.25-1.21.1-3.18-.53-4.61-1.31l-16.3.75c4.18-2.63,9.13-2.87,14.42-2.11l5.94-4.66-17.69.52-46.24,5.27-18.03,2.44-27.92,4.64-20.94,4c.58-2.02,1.27-2.82,3.52-5.44l-9.66.97c-.18-.17-.84-2.54-.38-2.59l4.37-.55c1.08-.02,1.09-2.6-.1-2.31-1.94-.19-2.57-.19-2.55-.49l.11-2.05-5.91-1.74.88-6.35c.21-1.52-2.89-3.38-4.46-4.17l5.74-5.1-6.48-.45c-1.43-3.19-2.98-4.78-5.77-6.24.22-1.59.47-5.73-.05-7.53l-2.63-9.07-3.14-4.93c-.75-1.17,1.14-4.12,2.46-5.43,3.49-3.47,10.77-3.79,15.54-2.57l.33-1.85c.06-.34.76-.92.93-.63s1.31,2.26,1.64,2.2l11.71-2.18-6.23-1.69,23.2-3.53-9.71,3.01c12.71,2.43,16.89-8.03,25.78-5.16l-10.57,3.16,28.81-2.82,9.46-2.22-5.42-1.03c4.7-3.02,10.32-3.11,15.04-.08l40.11-3.67c3.38,2.71,7.94,2.09,11.75.83l5.63,4.49-6.66,1.33c-.5.1-2.35-.1-2.37.34l-.09,2.05c-.03.65,1.77.25,2.41.34l1.74.25c.33.05-.64.66-2.02,1.79,2.05,1.22,5.8,1.44,7.14-.12l.82-.96-.35-1.94c-.11-.58,1.93-1.35,2.26-.86l1.39,2.05c.44.65-2.15,1.27-2.51,1.1l-.52.84ZM724.42,334.55l-4.41.87c-.94.19-.63,3.96.28,3.73l4.47-1.11c.62-.15.19-1.34-.34-3.5Z"/>
    <g>
      <path class="cls-1" d="M541.79,485l-7.6,17.99-8.9,18.87c2.21,4.97-2.54,3.93-7.12,13.44-2.66,5.53-9.46,8.51-13.79,12.79l-9.65,9.56c-7.81,7.73-19.18,10.67-26.61,18.63-3.85.06-7.61,2.17-10.15,5.33l-11.03,4.31c-2.17,2.03-3.89,2.78-6.56,3.91l-22.85,9.75c-11.74,5.01-23.56,8.41-35.91,11.09l-15.73,3.42c-24.24,5.26-52.82,9.44-75.34,4.76l2.62-1.84c.35-.25.71-.5.41-.76l-2.06-1.79,2.66-.88c.54-.18.94-1.75.39-1.93s-2.87-.56-3.34-.9l-7.58-5.48,5.46.62c2.38-3.9-.56-6.05-2.94-8.79-3.12-3.58-4.8-6.47-10.37-5.62l-9.17-7.25c-3.85-3.05-6.93-5.59-10.64-8.68l-9.88-8.23c-5.33-4.44-9.77-10.62-13.74-16.45l-4.91-7.2c-2.97-2.68-4.38-5.03-6.87-7.94l-6.7-7.83c-2.02,6.01,2.23,6.92,6.26,12.13l-4.93.12c-1.66.04-1.93-3.95-2.73-5.23l-6.92-10.99-10.72-15.48-7.58-11.37-5.73-8.71-2.57-2.52c-.55-.54-.27-2.33-.29-3.2-2.63-3.14-4.2-10.48-3.07-14.89l4.68,5.18c-.99-7.07-2.91-13.38-3.51-19.96l-1.52-16.49-2.75-24.73c-.44-3.99,1.42-9.75,3.8-11.63,6.92.25,13.44-.73,19.58-3.96-7.08-2.87-12.19-5.04-16.78-9.55-.94.03-3.12.11-3.16.11l-.17-4.46c-.04-.98-2.95-.72-4.64-.56l-4.07-8.28,15.67-26.59c2.41-4.1,3.81-6.83,9.29-7.95l7.62-10.98,6.45-7.33,9.12-9.9,14.11-13.89,20.86-15.15c11.45,2.54,5.17-8.55,14.93-7.21,4.92.68,7.33-5.55,15.04-5.7,5.91-3.75,11.89-6.21,18.35-8.78l9.51-3.78,9.38-4.06c3.75-1.62,6.9-2.6,11.01-3.77l13.06-3.71,23.97-6.18c2.92-.75,8.63-2.21,8.88-4.75v-4.92c0-1.24,3.83-2.28,5.17-2.18l35.55,2.69,7.02,1.6,16.57.49,12.49,1.01,8.71.71c8.89.73,28.28,12.82,37.25,20.35l9.97,8.37,2.76,6.17c3.24,7.24,8.23,14.01,10.39,21.65l4.52,16.02c2.09,7.42,2.81,16.22,4.15,24.14,1.22,7.23.66,13,0,20.57l1.1,11.53c.03.33,1.2,1.91,1.4,1.65l1.69-2.17c.81.88,2.57,3.19,3.61,3.44,1.21.3,2.88.1,5.32-.06.68-.52,1.15-2.38,1.76-5.54,8.15,10.98,12.64,24.32,13.26,38.39l2.61-8.87c3.95,7.08-2.41,12.31,3.22,21.2l1.2-5.19c2.19,3.57,1.96,7.45.22,10.83l-2.39-4.48c-2.05,4.87-2.73,9.48-2.07,13.61l4.45-7.33-3.17,14.45-13.96,39.84-5.32,13.35ZM497.54,388.74c-1.1-3.1-1.73-6.87-1.44-10.61l-1.74-17.9c-.62-6.41-3.08-12.91-5.39-19.06-.95-2.52-6.31-4.83-5.12-9.06,7.47,4.47,9.03,12.2,12.18,20.91,2.18-4.49-1.03-9.34-3.12-12.99l-4.6-8.02c-4.46-7.77-9.57-5.44-13.66-12.29l-6.6-4.38c-.43-.28-2.33.49-2.14.98l.77,1.99c-3.31-2.42-7.11-6.05-10.73-7.53l-13.36-5.46c-10.49-2.53-21.04-2.77-31.93-3.48-7.17-.47-16.36-.63-21.4,3.81-4.15,3.66-8.19,4.73-13.43,6.32l-18.06,5.49-9.36,2.85-14.31,5.22,3.5,1.61c.42.19-.25,1.4-.7,1.47l-2.52.39c-5.5-1.25-10.47-.32-12.86,5-5.78,2.19-11.97,5.89-17.95,6-9.3.17-11.07,8.38-18.69,10.25l1.73,2.01-20.83,17.42,7.7-9.41-1.48-.03-7.7,7.98c-.32,3.6-1.65,6.34-3.59,8.98-1.55-1.37-2.21-2.24-2.78-1.9-.43.25-1.92,1.51-2.31,1.99l-14.88,18.63c1.61,4.91,2.26,8.85,1.62,13.84-.85,6.63,3.44,12.11,2.24,22.03l.17,6.31,8.44,22.04c.26.67,2.3,2.15,2,2.74l-1.25,2.49,12.82,19.81c4.71,7.28,9.94,14.79,16.41,20.6l8.86,7.96c2.1,1.88,4.49,3.15,7.44,4.29.09-.1-2.02,1.1-1.56,1.59l2.08,2.22c6.87,7.33,13.78,16.33,23.19,21.89l20.47-1.18c5.43-.31,11.39-1.37,16.37-2.72l14.49-3.91,29.74-9.31,16.39-7.4c7.52-3.39,15.45-7.99,23.58-9.8l4.77-.08c.97-.02.41-3.8,1.25-4.34l7.08-4.53-1.42,3.14c-.17.38,1.17.83,1.52.6l1.79-1.2,10.21-5.83-4.25-3.45,5.77-3.71,2.11,5.69c2.06-1.4,4.36-3.2,6.06-5.04,1.28-1.38.35-5.82.07-7.33l7.02-.66-2.21-4.24c2.31-4.09,4.31-8.3,5.36-12.74l2.61-11.08c2.53-10.75,3.02-21.25,4.55-32.34l1.09-7.93-.15-9.31.07-16.32ZM498.58,357.43l.16-3.61c.03-.59-2.57.04-2.45.62l.67,3.13c.57,1.97,1.26,1.82,1.63-.15ZM545.44,376.65l-1.16-6.48c-.17-.95-.72-2.88-1.07-3.63s-2.69-.06-3.28.62l2.29,15.27c.09.62,2.21,1.65,2.29,1.03l.38-2.8.54-4.02Z"/>
      <path class="cls-1" d="M544.96,23.37l1.03,5.34,5.49-6.91c1.31,1.57,1.84,2.14,1.49,2.54l-1.86,2.13,2.19-.61c.53-.15,2.41-.37,2.24.14l-.96,2.83,4.23-1.15-3.22,8.88,4.6,3.12-8.92,13.96-10.79,14.05c-2.05,2.67-3.74,5.27-5.37,8.25l-21.38,39.16c-6.43,11.78-13.04,22.13-16.32,35.31-1.91,2.15-3.78,5.66-3.95,8.73l-7.59,15.1-.41,7.59c-.15,2.87-4.12,7.39-5.6,10.26-2.44,4.76-3.46,8.67-8.45,11.53l1.92-7.57-4.99,6.41c.02-2.46.39-4.36,1.12-6.66l.74-2.37c.12-.37-.72-.39-.96-.07l-1.29,1.77-1.25,1.72c-.21.29-.78.39-.72.03l.48-2.84c.39-2.29-6.74-2.97-8.5.05l-7.43-6.67c-1.19.84-4.75,2.4-5.66,1.56l-7.91-7.41-4.68-5.19c.14-.08-2.48,1.47-3.12,1.85l-1.32-3.31c-.3-.75-2.49,1.35-3.17,2.21l-3.78-5.45c-.49-.7-1.36-3.61-2.15-3.33l-4.85,1.76,4.73-17.69,8.35-23.18,9.21-20.75,9.74-20.65c1.75-3.7,3.6-6.3,6.62-9.42l1.58-6.15,8.07-13.05,9.88-20.52,7.48-12.66c5.78-2.71,8.56-8.19,10.1-13.48,3.75-3.64,4.77-6.83,7.73-12.59.83,2.69.53,3.82-.25,8.88l8.81-4.76-3.12,5.17,8.68-5.72-.96,3.38c-.19.65,2.65-.11,2.66-.08.63,2.43,1.89,6.48,3.04,8.34.48.79,4.49-1.09,4.16-1.97l-1.35-3.71c.08-1.07,2.24-3.64,3.48-4.26s5.09-.74,5.25-.04l-2.25,4.49c-.41.82.65,2.12,1.39,3.21l-1.76,2.31c-.41.53.49,2.21,1.11,3.01l4.75-5.41,8.36-1.66-5.04,6.37,3.96-.75-.49,2.76c-.1.55,2.72.29,3.12-.1l7.45-7.37,1.59,5.33-5.05,5.95Z"/>
      <path class="cls-1" d="M242.19,566.48l8.09,10.18-3.08.11c-2.83-6-7.23-9.64-12.75-12.36l-7.28-10.24c-.49-.68.29-3.25,1.09-3.01,3.06.96,3.25,3.06,7.23,7.63l6.7,7.68Z"/>
      <path class="cls-1" d="M534.9,513.49c-.67-8.87,4.41-18.74,7.25-13.88-1.64,4.19-4.63,10.16-7.25,13.88Z"/>
      <path class="cls-1" d="M227.45,548.87l-5.54-2.91c2.24-.92,4.5-.4,5.54,2.91Z"/>
      <path class="cls-1" d="M368.75,316.32c-2.1,2.68-5.66,4.1-9.84,2.96,2.99-1.26,4.34-1.92,9.84-2.96Z"/>
      <path class="cls-1" d="M390.49,311.68l-6.77,1.48c1.11-2.56,3.09-3.23,6.77-1.48Z"/>
    </g>
  </g>
</svg>