<?xml version="1.0" encoding="UTF-8"?>
<svg id="Layer_1" data-name="Layer 1" xmlns="http://www.w3.org/2000/svg" viewBox="0 0 1070.64 977.22">
  <defs>
    <style>
      .cls-1 {
        fill: #5a8a1f;
      }
    </style>
  </defs>
  <path class="cls-1" d="M495,844.66c-21.93,3.84-36.55-1.61-46.72-.48l-22.5,2.51,10.46,2.38-12.53,3.75-39.43,92.29-15.7,27.41c-.95,1.66-5.97,4.3-7.64,4.69-2.48.58-20.56-12.49-22.17-14.71l-11.81-16.29-6.51,1.34c-5.12-14.16-3.4-27.08.73-41.19l27.12-71.99-2.51-3.17c-.67-.85,2.15-1.58,5.6-4.03l-18.04-6.1-1.99,5.01-16.53-5.72c-2.38,1.74-4.55,3.37-5.68,2.85-1.42-.64-7.13-3.25-4.79-2.18,1.8-3.88,1.22-7.75-.72-8.77-2.5-1.3-9.33-2.47-10.23-2.12l3.99,1.68c1.23.52.93,2.9.27,7.21l-20.44-10.82c-.43,6.65-3.39,13.2-8.39,17.32l-34.37,41.52c-2.46.28-8.59,1.89-9.1.22l-1.89-6.16c-4.17-4.33-6.58-8.84-9.41-14.62l-8.53-17.4c-1.62-3.3-7.07-9.76-7.57-13.45,1.87-13.3,7.34-27.78,20.27-36.88l-25.26-15.49c-19.32,12.49-35.17,25.56-52.97,39.45-21.93,17.12-41.75,34.79-59.19,56.91-5.12,6.5-22.05,14.88-28.13,8.73-12.38-12.55-31.39-41.05-26.29-51.04,9.58-18.77,23.03-32.48,39.13-45.12l35.81-28.11,18.95-13.15,16.8-12.12c-14.27-11.01-29.44-22.85-41.53-37.17l-16.54-19.59-17.54-20.53c-5.41-6.34-13.43-12.77-18.06-19.37l-15.23-21.67c-2.48-3.53-3.42-10.47-1-14.09l13.97-20.87c2.95-4.41,4.77-9.44,3.25-14.3l-4.74,11.79-3.37-4.22c-.54-.68-3.16,2.64-3.89,3.42l-16.51-10.47-3.25,3.1c-.54.52-1.28.86-1.52.22l-1.93-5.13c-.39-1.05.22-6.26-.79-5.85l-8.39,3.43,17.98-56.99c22.37-61.84,60.66-114.78,109-158.73,15.4-14,30.66-24.5,49.25-33.34,6.34-3.02,10.91-8.5,19.72-9.11l-9.17,8.79,20.7-4.57-7.06,7.5,13.39-3.81-7.93,8.49c5.39-.57,9.19-1.4,14.2-3.04,1.33-37.9,1.93-81,17.22-114.46l21.47-46.97c2.07-4.53,8.31-12.18,12-15.13,8.58-6.87,14.73-14.99,22.3-22.26l39.91-38.31,15.68-10.07c3.14-2.01,5.16-4.99,6.37-7.69l12.8-6.54c.9-.46,4.41-1.36,5.53-1.6.98-.21.96,2.44,1,3.45l3.88-.22c1.19-.07,1.95,4.62,2.87,5.45,3.94,3.56,11-.11,15.45-2.35l13.98-7.05c8.09-4.08,16.94-7.7,26-9.42l47.05,56.01c14.67,17.46,26.91,37.33,34.76,58.98-1.09,6.2.15,11.82,1.6,18.18l10.05,43.89,30.25-1.66c3.83-.21,9.19-6.19,9.43-10.33,2.05-36.49,12.08-69.39,28.3-101.77,1.81-7.17,5.93-12.45,11.87-15.45,10.69-13.5,23.24-23.48,36.18-34.45l12.9-10.93c7.91-6.71,14.6-10.78,24.47-14.17l13.31-4.57-1.08,5.96c-.18,1,3.57.29,4.55-.11l18.71-7.51c5.36-4.75,11.88-9.86,18.99-11.59,34.67,36.1,76.68,55.85,97.06,103.25,6.87,15.98,8.53,33.58,12.81,50.08,4.49,17.31,5.97,32.16,6.07,50.99l8.96-3.68,30.48,10.7,16.56,7.32,25.5,11.26c9.15,4.04,17.35,13.31,25.24,19.97,16.84,14.2,32.36,29.57,44.83,47.43l15.49,28.68c11.36,21.03,17.57,45.19,17.76,69.28l-2.8,26.16-7.66-29.42-1.41,19.5-8.35-.81c-3.03-.29,2.18,11.48,3.62,10.41l4.42-3.29,1.07,8.33-3.82,1.33c-.81.28,0,3.2.35,5.07l3.48-2.29c5.42-3.56.43,16.11,6.46,31.79-4.51,3.29-6.65,6.4-8.65,10.72l-13.86,29.91c-13.89,29.97-29.23,56.46-49.75,82.94,7.27-4,11.41-10.15,16-15.67l1.84,1.35-13.46,17.25,12.55,11.32,15.78,14.5,26.86,21c.79,6.32,5.28,9.25,11.23,8.33l31.51,23.2,6.6,16.12c-2.3,1.32-6.9,4.42-5.93,5.99l4.17,6.75-7.26,2.11c-1.46.43-2.53,4.16-2.76,5.71l-.99,6.47c-.18,1.19-5.26-1.82-6.27-1.16l-14.58,9.71-4.55,3.83c-.91.77-.54,2.66-.52,6.03-7.03.07-11.07-5.2-16.43-9.36l-31.69-24.61-39.17-26.38-31.35-20.79-14.46,14.53-36.35,35.42c11.32,16.25,33.78,16.68,33.8,27.25,0,3.93-2.25,9.47-4.51,12.88l5.34,6.94-15.1,6.91-4.53,2.24c-.92.46.23,3.46,1.02,5.98l-14.18,4.27,7.17,3.84c-7.89.47-12.71,1.76-16.35,5.61l4.91,2.5c.69.35.48,1.46-.28,1.78l-4.41,1.89c-19.98.73-37.39-10.34-49.93-26.09l-4.79-4.4c-1.31-1.2-5.37.3-7.51.92l3.57-6.36c-8.83,4.72-18.03,9.13-25.02,15.4-4.58,4.11-6.47,4.74-12.07,8.06l-29.48,17.52c3.48,24.22,15.16,44.51,30.21,63.53,5.74,7.26,6.28,30.17-.25,32.32l-6.27,2.06c-1.24.41-1.36-4.97-1.35-7.65.11-.32-3.06.67-2.93,1.65l.95,7.09c.28,5.9-6.98,11.3-12.42,10.4-.82,5.03-8.54,6.5-13.2,8.43l-13.68-18.78-13.98-20.03c-.94,12.53,13.69,15.53,11.98,30.06-10.93-12.59-17.5-26.18-26.34-42.92l-1.67,3.02c1.79,3.41,1.16,4.79-3.1.87l-.06,10.05c-4.8-7.55-7.84-14.6-11.06-23.15l-8.11-21.5c-5.67-.22-13.65-.09-18.44,1.42l-49.54,15.66c1.33,4.26-8.61,5.28-12.96,5.5-7.58,4.29-15.01,6.64-21.82,4.99l10.12-3.2-11.6-.84-7.15-14.74-33.45,4.21c9.83,5.25,20.67-1.66,33.55,3.56-5.52,13.7-16.29,1.87-22.04,2.88l-30.53,5.34ZM990.42,441.58l-2.1,6.52-8.87-9.56-3.29-14.5c-6.5-13.73-9.63-27.51-8.14-43.04-7.61-16.59-15.66-34.73-29.18-46.97l-17.99-16.28-36.77-28.63c-15.11-9.23-33.28-12.81-49.48-18.76l-12.07-4.43,6.79,5.28c.62.26-6.11,1.58-6.64-.06l-2.29-7.1-1.65-5.06c-.21-.63-.97,0-1.19.36.01,5.61-2.19,10.95-5.12,10.52l-2.66-5.47c-.4-.83-2.57,2.45-4.19,3.96l-3.91-10.67-4.77,11.11c-3.39-10.89-2.84-20.3-4.12-30.98l-2.55-21.31-2.67-20.7c-4.1,9.62,3.31,18.76-3.74,24.83-4.22,12.74-2.23,29.34-4.13,43.35-2.24-70.83,1.32-124.75-60.52-172.68-18.55,14.14-34.72,28.37-49.43,45.77l-15.5,45.88c-10.23,30.28-.41,77.15-9.04,121.06-3.16,16.07-2.22,32.66-1.79,50.32,13.44-19.54,31.5-31.72,53.17-41.11,9.08-12.08,16.9-8.42,32.1-19.22,12.24-8.7,27.87-7.61,42.11-8.61,16.05-1.12,31.11-2.29,46.64,1.14l27.95,6.17,5.61,10.89-5.76,4.07,12.59,8.94c-7.26.9-14.21,4.27-13.43,8.39,1.92,1.74,7.04,6.79,5.32,8.01l-6.6,4.67,11.5,5.46-10.32,8.46c-2.73,2.24-6.04,10.51-6.52,12.67l3.34,9.76-48.78-9.41-9.73-2.81c-16.67-.85-35.3,1.84-50.07,8.13l11.17.56-6.9,4.11c7.17,13.69,9.14,27.7,9.13,43.09v20.69c-.02,8.19-3.97,15.91-7.59,22.43l-1.94,17.41-5.14,29.59c-3.53,20.34-14.49,34.56-31.05,49.57l16.41-9.66-2.99,7.25c24.24,19.58,21.45,35.7,13.73,63.45-1.03,3.71-9.82,8.56-13.62,8.03s-9.68-5.21-13.4-7.31c-2.49-.4-9.28-.58-9.59-2.01,5.26-7.3,7.51-12.34,7.37-19.81-.32-17.5,7.52-37.31,3.52-37.11l-6.87.34c-15.5,3.06-32.36,6.56-48.33.92l10.42-.52c-14.25-6.26-7.68-18.97-10.9-18.7l-6.15.5c-5.19.43-10.93-11.6-11.85-17.21-.89-.81-5.74-3.45-4.71-4.21l5.91-4.35c-7.69-13.16-13.66-30.12-11.64-45.7l2.78-21.38,3.76,14.71c1.38-10.49,2.48-19.01,5.92-27.34l12.56-30.41-3.32,4.05c-.47.57-2.11.39-2.48-.29l-2.04-3.76c-.27-.5-.73-.17-1.13.24l-3.47,3.6-1.96-9.13c-.14.31-2.4,4.53-3.24,3.67l-4.39-4.5c-.98.73-2.86,2.57-3.68,1.92l-2.95-2.35-3.54,10.15c-6.63-9.46-14.89-12.19-24.16-11.47l-3.14-6.28c-.48-.96-4.12-.32-4.27.72-.16,1.11-.78,5.7-.72,5.73.05.03-2.48.16-4.82.33-6.91-10.5-11.19-23.71-11.17-37.49l.06-52.11.44-31.64-29.29,6.32c.41,20.36-1.84,40.95.44,61.38,1.38,12.42,5.96,23.71,1.61,35.89l-11.12,31.07-2.31-8.87c-.38-1.46-4.59,2.53-6.1,2.73l-5.09.68c-1.05.14-.67-3.16-.32-4.26l1.7-5.32c.27-.85-2.52-1.58-3.27-1.08l-4.07,2.71c-.88,6.31-2.22,11.45-4.99,17.94v-15.12s-9.11,13.13-9.11,13.13l-8.31-9.21-7.47,10.74-.75-6.16c-.13-1.06-3.63-1.81-4.14-.89l-2.84,5.23c-1.15,3.96-2.69,2.33-2.97-2.67l-6.38,6.64-1.27-19.06c-2.33,4.9-3.01,4.02-2.75.78l2.27-49.31.64-89.61c.21-29.16-4.71-56.97-12.83-84.41l-7.25-6.95c-9.13-20.16-18.98-37.9-36.01-54.15-19.7,15.35-37.33,31.21-53.46,49.38-11.75,13.24-18.85,28.33-26.28,43.9-11.13,23.32-17.48,45.94-15.42,72.4,1.13,14.52-1.25,29.44-4.69,42.29l-3.81-9.67-.54,22.07c-7.33-10.31-20.47-10.44-30.3-4.74-.85-2.5-2.18-6.69-3.48-6.15l-4.35,1.8c-.98.4.53,4.02-.19,4.8l-4.72,5.04-4.89,9.29c-1.23,2.34-8.06,1.73-10.41,2.71-3.02,1.44-8.91,5.45-11.66,7.58l-29.38,22.74-10.99,8.75-42.03,42.18c-14.19,14.25-23.47,32.46-33.99,49.99-11.93,19.9-19.45,42.16-26.19,65.44,7.22,15.09,17.89,27.89,30.05,39.14l11.91,15.46c9.91,8.14,16.03,15.62,23.23,26.17,9.19,13.48,24.42,25.31,37.88,34.57l17.67,12.16c7.57,5.21,13.21,8.47,17.87,16.52,2.91,5.04,11.46,8.58,15.21,11.17l29.76,20.55c44.13,26.96,92.79,44.27,142.31,54.52-2.15,1.46-6.35,5.96-4.75,6.34l6.15,1.49c.88.21,4.46-1.24,4.49-2.15l.17-4.54,29.55,5.41,12.65,2.6c12.12-.53,24.38-.59,33.93,1.92-3.71,6.73,8.98,5.36,10.68,5.82l27.45,2.95-19.93,2.98,22.06,2.98c.99.13,5.68-2.85,4.86-3.46l-4.67-3.46-.57-19.03c-8.35-4.52-7.12-12.1-9.99-11.76l-5.37.65,1.34-18.94c.67-9.42,2.73-20.02-.21-29.27-1.07-3.37-11.17-2.12-13.97-.75-1.38-2.34-1.54-3.77-2.77-3.97l-7.34-1.17-3.06-20.25c-1.53-10.12.28-19.03-2.2-28.98-2.06-8.3-2.71-17.71,1.13-25.57l80.43-20.47,3.92,7.13c-.62,2.79-.9,4.94-.49,6.42.34,1.22,4,2.17,5.26,2.1l14.51-.85-13.61,7.62,6.13,8.05-8.62,4.7,9.45,1.15c-.63,5.17.13,11.03,1.54,15.58-4.81,7.8,1.86,12.8-6.32,21.32l6.71,6.1-24.66,10.2c.15,19.36-.35,37.97-3.84,56.49,46.48-11.02,91.36-25.78,137.41-42.97-4.8,6.97-14.08,5.23-18.73,13.28,22.14-6.56,40.71-15.84,60.44-27.33l-5.76,11.53,21.68-12.87-10.67.4c6.81-7.79,10.8-13.05,22.6-17.04l-5.53,12.01,21.03-14.58c-.28-4.44.92-9.88,3.57-11.12,4.06-1.89,7.46-4.88,10.76-7.58l24.79-20.34,1.72,1.77-22.32,18.53c6.76-.33,10.4-4.58,15.79-8.33l12.75-8.86c20.31-16.79,37.06-36,55.54-54.51l11.96-11.99,16.15-16.12c-2.46,10.75-14.04,15.23-18.53,27.31-.28.74,3.23-.18,3.78-.75l15.33-15.78c8.07-8.31,14.69-18.97,23.96-25.89,6.37-4.75,10.25-8.34,15.12-15.22l11.5-16.24,34.41-58.05c-6,19.93-16.4,36.72-26.12,53.98-.29.81-1.03,4.4-.17,4.19.69-.17,2.81-.6,2.79-.61-.04-.04,1.29-2.22,1.67-2.87l16.02-27.69,12.81-28.98,5.61,15.3c1.52-5.14.08-9.83-1.2-14.04.63-2.27,4.91-8.86,3.32-11.07l-5.18-7.2c-1.12,6.31-2.34,10.37-7.4,14.17,1.45-5.61,3.24-10.7,5.65-14.81,2.53-1.71,6.83-8.72,4.17-10.43l-12.47-7.99c-.29,4.22-.24,7.03-1.07,8.43l-5.2,8.83-1.26,1.18ZM513.5,324.25l1.66-3.39-.57-12.96-1.77,1.02.68,15.33ZM106.1,359.67l23.54-19.33c8.34-8.26,16.45-15.57,23.16-25.03l-23.93,20.36c-8.83,7.51-16.62,15.64-22.77,24ZM244.34,328.97c1.18.43.11.04-3.58-1.32-1.46-.64-3.66-1.61-3.6-.62.08,1.37.15,5.61,1.06,5.14l6.12-3.2ZM17.99,517.63c13.25-45.95,32.85-87.95,62.35-124.4,5.54-6.85,10.92-13.83,14.61-21.68-37.3,40.61-64.4,89.24-79.66,142l-7.78,26.92c5.08-6.55,7.85-13.72,10.48-22.84ZM991.21,439.04l-1.51-9.22c-1-.03-3.85,3.84-3.19,5.16l2.41,4.85,2.29-.79ZM960.2,543.86l-4.95-1.83-9.06,14.42,14.01-12.58ZM943.75,557.92l-9,9,2,2,9-9-2-2ZM1057.23,678.81c-2-1.95-13.32,7.07-12.08,9.96l4.12,9.61c1.4-12.32,14.83-12.86,7.95-19.57ZM754.79,729.13l4.09-.07,10.02-7.94-1.7-2.01-12.42,10.02ZM717.29,728.55l3.03-5.81-6.85,3.3c-.88.42.75,1.25,3.82,2.51ZM303.39,747.32l-26.37-15.62c.91,4.55,4.83,8.14,8.49,9.41l17.87,6.21ZM732.83,747.57l2.22-4.59c.34-.7-2.78-1.74-3.24-1.11l-3.47,4.7c-2.46-.32-.05.15,4.49,1ZM307.04,762.36l-13.72-4.27,12.45,6.47,1.27-2.2ZM308.26,763.54l-1.13,1.82c2.63.97,7.42,2.01,10.01,2.13l-8.88-3.95ZM370.27,772.21c-7.06-3.39-12.66-5.55-20.1-7.14,4.58,7.5,12.66,10.2,20.1,7.14ZM332.86,807.82l-9.97-1.87,4.81,2.73-2.31,2.64-17.1-6.21c-4.65-3.39-8.51-5.01-14.66-6.4-4.61-.34-6.41-3.52,1.12-3.94l-15.36-6.47,10.05,6.95-9.41,1.79,32.79,13.13c13.39,5.36,26.12,10.25,41.52,12.47-6.93-10.23-16.65-2.7-26.5-11.57l5.01-3.25ZM486.51,821.21c-6.89-6.09-15.3-4.99-19.85.55l19.85-.55ZM535.11,819.38c-4.18-2.7-9.69-2.61-12.16,2.63l12.16-2.63ZM483.11,831.48l-1.1-1.7-11.11.54,1.1,1.7,11.11-.54ZM454.81,836.74l-27.18-1.63c9.63,4.66,18.62,3.16,27.18,1.63ZM511.28,834.62l-28.37.32c-7.13.08-13.64-.29-20.19,2.14l25.89.39,22.66-2.86Z"/>
  <path class="cls-1" d="M487.13,849.17l-27.51,1.5c8.94-4.62,18.15-3.25,27.51-1.5Z"/>
  <path class="cls-1" d="M710.86,902.13l2.7-5.99c.56-1.24,4.81,1.42,4.34,2.7l-1.96,5.35c-.47,1.27-5.63-.85-5.09-2.06Z"/>
  <path class="cls-1" d="M984.7,561.72c.58-4.8,3.71-9.01,8.19-11.85-1.45,4.61-3.8,8.13-8.19,11.85Z"/>
  <rect class="cls-1" x="516.98" y="843.25" width="13.99" height="2.73" transform="translate(-16.51 10.47) rotate(-1.13)"/>
  <path class="cls-1" d="M428.64,671c15.19,15.75,18.3,44.9,4.89,56.59-2.55,2.22-11.82,2.2-14.09-.29l-9.9-10.88c-3.47-3.82-1.01-14.57-.9-20.28.23-12.21.47-24.49,10.89-32.18,2.83-2.09,6.83,4.67,9.12,7.04Z"/>
  <path class="cls-1" d="M762.98,650.02c-5.52-7.37-9.99-8.31-17.84-7.98-.03-1.68-.02-4,.8-4.06l5.08-.41,5.14-14.32c-2.41-10.17-1.16-21.04,7.83-27.94l4.43-11.29,13.56,14.83c7.19,7.87,6.72,15.36,4.77,25.52l-4.12,21.38c-4.75,2.17-14.6,4.18-19.64,4.26Z"/>
  <path class="cls-1" d="M320.18,734.99l2.65,2.12c.58.46-1.1,2.43-1.84,2.34l-5.82-.68c-2.98-19.3-20.86-24.45-18.08-27.46l5.63-6.08-2.52-19.24c-.78-5.96.26-15.27,3.41-17.77l15.43,2.97c6.51,8.09,13.86,24.22,10.67,35.2-1.95,6.71-4.17,11.13-3.06,18.25.51,3.25-3.4,8.23-6.47,10.35Z"/>
  <path class="cls-1" d="M636.29,677.58l-17.81-.17,8.93-6.19,2.31-12.34,1.82-15.64c.74-6.34,9.85-15.01,14.63-19.82,13.43,7.75,17.13,18.95,16.03,32.4-.45,5.5-1.53,10.07-5.49,14.37l2.9,13.6-15.17-2.57c-2.26-.38-5.13-1.71-8.15-3.64Z"/>
  <path class="cls-1" d="M827.29,641.44l9.79-9.19,36.79-36.22,1.91,1.81-34.63,34.59c-2.83,2.82-7.39,5.41-13.86,9.02Z"/>
  <path class="cls-1" d="M950.12,522.54c-1.88,10.33-7.49,13.5-14.39,16.91l14.39-16.91Z"/>
  <path class="cls-1" d="M967.26,502.47c1.23-5.05,3.58-10.66,6.46-15.13.71,6.05.46,10.63-6.46,15.13Z"/>
  <rect class="cls-1" x="662.9" y="567.92" width="9.99" height="4"/>
  <rect class="cls-1" x="706.56" y="711.37" width="10.63" height="3.09" transform="translate(-265.29 467.64) rotate(-30.95)"/>
  <path class="cls-1" d="M526.94,791.35l-12.14-.3c3.66-.8,6.53-.75,12.14.3Z"/>
  <path class="cls-1" d="M738.57,701.64l-7.84-.14c.62-1.04,4.08-4.75,4.89-3.69l2.95,3.83Z"/>
  <g>
    <path class="cls-1" d="M366.66,663.3l5.7-37.03c.35-2.25-1.49-6.41-2.86-7.66l4.22-1.15c.79-.22,1.16-1.72,1.39-2.51,1.07-3.74-9.8,2.82-17.55-1.84-3.96-2.38-5.7-6.18-5.81-11.63l-12.66-7.11-7.23-16.68c-6.46-2.38-9.35-6.48-9.25-13.25-7.24-4.28-10.87-11.18-8.77-19.17-1.24-11.77-2-23.48.46-35.44l4.27-20.72c3.4-.44,4.65-.04,4.33-.92l-2.57-7.05,17.58-49.59c-37.77,6.9-71.02,23.93-97.99,49.02-4.11,3.83-8.54,7.07-12.67,7.52l1.7-7.23c.25-1.05-3.81-.59-4.83-.2l-4.06,1.53c-.98.37.35-4.38-.15-5.29l-8.48-15.49c-6.19-11.32-4.27-36.21,2.18-49.75-.72-7.97,6.56-14.04,14.03-12.95,7.09-8.98,15.85-14.03,25.72-18.57,22.52-10.33,44.07-22.61,68.2-28.9l-7.13-3.06,24.79-2.77c26.9-3.01,54.43,4.61,77.37,18.39-1.16,5.63.12,11.12,6.7,13.04l-8.65,8.6,9.47,2.58c1.96.53-.7,6.66-2.8,7.1l-6.14,1.29c8.91,3.61,12.88,9.56,13.2,17.32l-7.33.86c-1.12.13,1.49,3.58,2,4.15l1.11,5.57c.27,1.36,5.25,1.72,7.17,1.87l13.03,30.05,12.87,39.62c4.61,14.2.84,28.62-.63,42.55-2.3,21.78-11.75,36.71-30.01,49.5l-15.84,11.1c13.15.79,20.5-9.75,32.62-15.36-5.73,8.15-14.93,12.2-22.95,17.62-9.72,6.57-16.87,10.94-29.5,13.55l2.3,13.77,3.52,20.11-6.36,15.63-14.15,6.51-9.55-7.51ZM389.24,538.29l-5.91-4.29,1.44,5.19c.3,1.09,5.38-.24,4.47-.9Z"/>
    <path class="cls-1" d="M323.49,585.94c-1.47-2.38-2.29-7.18-1.93-10.15l3.73,9.04.82,1.11,3.73,7.35,4.67,9.2c-6.3-2.13-8.97-9.29-9.5-15.47-.94-.51-1.32-.75-1.52-1.08Z"/>
    <polygon class="cls-1" points="313.51 578.03 312.97 566.91 314.67 565.81 315.21 576.93 313.51 578.03"/>
  </g>
</svg>