<?xml version="1.0" encoding="UTF-8"?>
<svg id="Layer_1" data-name="Layer 1" xmlns="http://www.w3.org/2000/svg" viewBox="0 0 579.26 709.65">
  <defs>
    <style>
      .cls-1 {
        fill: #5a8a1f;
      }
    </style>
  </defs>
  <path class="cls-1" d="M484.04,620.46l-16.4,3.48,8.34-5.29-14.43,2.55,7.82,2.59c-15.51,8.01-17.44-4.27-24.97-2.71l-32.13,6.68-44.9,9.9,11.66,4.73-36.14,8.34-24.81,6.44-15.01-2.29,7.79,2.89-34.88,9.09-76.09,14.38-70.73,17.23c-22.45,5.47-42.96,13.63-66.52,10.46-7.25-13.44-10.97-26.19-14.34-41.48l-3.47,7.6c-.8-1.41-2.49-4.33-3.11-3.69l-3.05,3.12-4.98-6-2.02,5.22c-.27.69-.9.88-1.37.43-.51-.49-2.7-3.23-2.82-3.9l-3.99-20.98c-2.28,4.72-3.48,3.75-3.73.42l-2.12-29.92,4.4,5.44-2.13-22.29-3.44-41.84-3.99-54.87-4.76-85.34-3.69-64.52L0,291.04l8.05-3.59c7.55-3.37,17.21-11.72,25.78-12.06l25.72-1.01,7.74.21,11.95,2.58c3.19.69,5.59-6.88,6.77-10.22,5.09-14.49,3.96-27.28,5.79-42.23l5.23-42.85,7.36-19.75,7.9-26.58c4.85-13.91,11.34-26.46,22.86-35.39,11.35-18.35,25.67-33.12,44.02-43.97,6.57-9.21,14.61-16.16,24.32-21.9,16.67-12.5,34.9-20.97,54.95-25.17l5.36,4.82c1.27,1.14-2.31,4.86-3.25,6l6.27.9c1.67.24,2.67,2.29,4.94,5.8,10.73-1.53,9.92-20,16.85-20.79l14.26-1.63-12.21-2.57c6.24-3.04,13.86-1.45,20.89,1.47l43.95,18.25c3.01,1.25,7.42,5.78,9.51,8.42,22.02,9.72,41.55,22.49,56.61,41.36l10.73,13.44c16.67,20.89,28.32,43.94,36.51,69.52l7.31,35.43.79,13.86,23.62.6c1.26-2.01,6.25-7.1,7.69-5.53l7.3,7.97,5.53-3.75c4.93-3.34-2.05,13.27,3.87,24.69,4.65,8.98,4.26,17.6,6.25,26.97l6.57,31.02c8.03,37.93,11.86,74.33,13.09,113.01.23,7.34,5.34,17.22,1.42,24.54-1.42,2.65,2.28,7.97,4.86,8.81-5.24,7.27-5.17,20.24,4.44,25.64,6.33,21.4,10.16,40.92,12.67,63.7l-5.94-3.67c-.96,13.99,5.83,23.08,7.81,47.01.35,4.28,2.68,12.87.52,16.78-7.33,4.96-17.75,6.78-24.07,4.14l.89,6.84c-5.86-4.2-13.59-2.78-16.56,1.49l10.77,4.63c2.24.96,2.85,8.38,1.97,11.1l-4.52-7.08c-1.21-1.89-8.38-.93-8.37.76,1.29,4.61,2.44,8.82,2.25,13.61l-11.62-12.58c-1.45,5.76-4.98,10.82-9,10.82-11.96-.01-22.42,2.19-33.02,4.79l-1.32.75ZM366.63,237.32c-15.84,9.42-33.55,4.57-52.17,12.48,29.57-1.29,62.4-6.31,92.52-15.18l-13.78-2.57,12.32-4.26-4.65-2.57c-.65-.36-.9-2.64-.17-2.74l4.8-.67c2.41-20.63-1.67-41.73-13.02-59.43-4.34-4.08-7.58-8.45-10.94-13.33l-14.57-21.09-12.79-11.38c-20.58-18.3-45.76-29.39-72.22-38.47l-32.94,20.07-27.49,24.14c-21.36,18.76-35.48,41.49-40.31,69.82l-3.83,22.49-4.61,45.09,41.66-7.83-9.15-2.31,40.14-4.17c5.86-.61,31.46,0,31.4-.25l.88,3.59,45.37-4.96,43.56-6.49ZM446.3,248.86l.74-4.55-18.01,4.7,17.27-.14ZM303.59,251.99c-3.14-3.96-11.56-3.05-13.83,2.22l13.83-2.22ZM420.32,252.15c-10.48-8.05-18.42.74-25.78,2.85l-16.66,4.77,1.25,1.87,41.19-9.48ZM368.68,257.81l-9.65,2.96,1.15,3.74,9.65-2.96-1.15-3.74ZM315.74,315.06l4.32,3c.66.46-.75,1.92-1.51,2.14l-5.25,1.56,9.27,3.57c0,1.02-.14,4.4.58,3.9l4.21-2.96-5.34-14.95,9.5,3.62c.7-2.98-5.1-10.01-9-9.64l-32.14,3.08-31.1,6.14-33,5.64-37.83,6.23-40.53,6.74c-23.37,5.89-43.16,13.58-68.26,15.58l2.8,34.45,3.38-5.25,3.6,43.03,4.4,83.84-.32,22.05c-.07,4.67-2.11,9.77-4.06,14.3l1.25,20.6c.06,1.06,3.23,3.5,3.39,2.45l.7-4.69c.71-4.75-1.16-14.28.56-19.55l3.88,33.33c-2.48-1.29-3.77-2.11-3.89-3.12l-.67-5.83c-1.78,4.87-2.65,11.21-1.73,17.18l5.55,35.88.85-20.24c6.78,10.07,5.78,18.62,6.67,30.12,18.41,1.95,34.62-4.52,51.28-11.16l20.66-3.71,68.23-13.38,16.33-3.41,57.62-12.29,77.46-19.34c10.15-2.53,18.76-3.34,29.27-2.6,9.19.65,19.23-7.07,28.58-8.73l41.94-7.45-2.34-12.36-2.76-22.02-4.87-25.1-10.71-76.65-.24-16.66-6.25-59.56-3.12-19.11-9.33-35.98-7.76.3c-1.01.04-.79,2.71-.92,5.25l-23.34.51c-7.98.17-17.48,2.92-26.44,5.38l5.37,3.88-11.09-1.36c-3.82,8.98-13.19.43-32.42,6.56-8.79,2.8-16.72,3.57-26.42,4.1l.86,10.54c6.69,2.67,10.33,6.12,12.32,12.37l10,31.37c-2.72,4.73-5.79,11.25-5.55,16.25.94,19.25-3.12,38.59-15.01,53.56-.82-.12-3.67-2.96-2.96-4.06l2.64-4.13-6.9-11.06,1.28,16.73c.41,5.34,11.39,10.4,14.77,14.37l22.89,26.97c7.54-1.95,13.03.93,14.47,5.19l-7.86-1.27c-.99-.16-1.66,2.9-.95,3.62l3.06,3.07-6.89,1.94c-.74.21,1.45,2.41,1.97,2.98l3.09,3.42c-.61.61-4.54,3.76-3.35,4.65l4.83,3.64,2.94-13.33,9.01,6.4-3.15-10.11,20.28,5.71c3.24-.57,8.9-.79,12.24-.11l-9.23,4.42c-4.67,2.24,3.24,28.65-23.28,34.38l-16.73,3.62-16.96,6.22-22.51,7.35-87.14,32.85c-3.65,1.38-11.79,12.88-34.13,3.1l1.56-25.58,10.94-33.47,9.18-28.9,9.99-34.06-14.22-11.1c-14.59-11.4-20.22-28.23-17.13-47.44l3.02-18.75,32.36-33.02c5.25-5.36,15.69-9.62,23.39-14.58l-3.23,11.23c17.24-11.22,32.35-19.96,51.07-22.3ZM327.81,297.22l-12.15,2.62c5.08,1.3,8.85.12,12.15-2.62ZM257.78,342.86c.71-.51,2.11-4.35,2.46-5.07s-4.75-1.39-5.22-.76l-13.06,17.19,15.82-11.36ZM239.16,362.46c.31-2.37.71-4.82-.08-5.5l-2.55-2.21-3.87,23.44c3.94-5,4.77-9.28,6.5-15.73ZM275.84,410.68l-6.02-11.58-6.4-12.74c-5.18,7.44-4.14,14.51,3.37,20.14,2.16,1.62,7.39,3.78,9.06,4.18ZM503.27,450.84l-.33-19.48c-5.67,6.98-4.51,15.28.33,19.48ZM549.16,453.08c.79-7.65-.29-14.03-2.7-20.46-.79,7.65.29,14.03,2.7,20.46ZM255.82,513.88c9.19-7.3,9.42-14.85,8.66-23.35-1.01-11.28,3.06-20.87,5.12-33.22l-10.79,27.89-12.72,45.7,17.33-7.11c-2.92-2.5-6.96-7.34-7.6-9.92ZM494.31,483.14c2.52-8.42,3.83-18.62-4.25-25.27l4.25,25.27ZM566.75,514.03l3.65.86-8.15-44.38-2.89,1.43,7.4,42.09ZM513.55,508.76l-2.24-14.07c-2.67,4.87-2.66,11.24,2.24,14.07ZM306.85,511.97c14.9-.08,26.04-5.94,37.76-11.34-3.72-1.93-7.62-3.76-9.37-3.37s-3.97,3.24-5.65,5.04c-8.01,2.97-16.18,3.86-22.74,9.68ZM536.78,513.06c6.07-5.87,1.57-11.81-2.97-14.26l2.97,14.26ZM348.15,509.42l-.17,4.25,9.86.41.17-4.25-9.86-.41ZM503.76,537.77c3.46-10.27.55-18.52-3.04-26.62,0,9.26.64,17.16,3.04,26.62ZM553.04,547.09c1.21-6.07.09-12.13-3.44-16.52-1.38,7.02.11,12.84,3.44,16.52ZM542.71,554.15c1.95-11.58,2.34-16.81-2.44-21.71-.64,8.43.36,15.4,2.44,21.71ZM552.3,567c2.97-7.04,2.4-13.35-2.66-18.82-.99,6.46.14,12.82,2.66,18.82ZM430.4,565.68c-9.39-1.38-17.95.06-25.11,4.28,8.93,1.36,17.14.37,25.11-4.28ZM396.25,571.86l-5.62-1.28c-1.22-.28-2.11,1.6-3.05,4.6l8.67-3.32ZM441.72,574.36c-8.85-2.78-15.72-3.52-21.03,4.43l21.03-4.43ZM548.01,574.45l-3.6,1.2,3,9,3.6-1.2-3-9ZM418.07,577.49c-5.74-.89-10.1.11-14.39,2.76,5.79.79,10.06-.19,14.39-2.76ZM285.84,598.32c-5.67-2.47-9.91-2.73-12.95,2.02l12.95-2.02ZM328.52,600.32l.32-3.85-29.16,6.94,1.3,1.68,27.54-4.77ZM446.97,616.85c.31-1.29.15-8.1-.21-8.2-4.21.62-4.22,8.13.21,8.2ZM483.13,617.76l7.31-2.74-13.31,2.45,5.29.71.72-.42ZM405.82,618.2c-6.41-2.68-10.1-1.53-12.1,2.77l12.1-2.77Z"/>
  <path class="cls-1" d="M571.96,599.4l-7.78,2.52c-2.17.7-5.07-8.53-2.58-7.37,4.61-1.3,8.16-3.41,12.28-6.54,1.87-1.42,4.99,1.89,5.36,4.57.28,2.02-3.02,7.87-3.87,5.91l-1.88-4.37c-.28-.65-1.88-.66-2.85-.78-1.06-.13-.29,1.87,1.31,6.07Z"/>
  <path class="cls-1" d="M556.8,607.47l-4.51-4.58c-1.09-1.11-.04-4.4,2.06-7.79l2.45,12.37Z"/>
  <path class="cls-1" d="M96.41,587.16l.42-5.8c.07-.99-.68-1.58-2.68-3.75l3.61-3.34,2.64,7.5c.53,1.51-2.8,4.6-3.98,5.4Z"/>
  <path class="cls-1" d="M306.12,241.78c-7.99,1.71-15.27,2.98-25.85,2.71,7.69-3.63,16.3-4.54,25.85-2.71Z"/>
</svg>