<?xml version="1.0" encoding="UTF-8"?>
<svg id="Layer_1" data-name="Layer 1" xmlns="http://www.w3.org/2000/svg" viewBox="0 0 142.33 620.68">
  <defs>
    <style>
      .cls-1 {
        fill: #5a8a1f;
      }
    </style>
  </defs>
  <path class="cls-1" d="M122.22,523.36l-3-12.44c3.23,3.43,4.43,7.53,3,12.44Z"/>
  <path class="cls-1" d="M3.44,100.65c2.49-4.33-1.57-14.61-.61-19.67l4.74-24.98c1.59-8.39,4.35-18.52,7.58-26.1l8.2-19.25-1.31,20.7,6.99-10.43-.76,4.9c-.19,1.19,3.7,2.73,4.06,1.63l3.79-13.33,9.76-2.69.29,7.64c.06,1.69,3.63,1.03,5.56,1.03,4.75,0,.49-12.01,9.22-20.09l1.26,13.45c1.42.55,5.17,1.61,5.15,2.69l-.15,8.11c-.02.15,1.57-3.49,2.4-5.57l1.48-3.68c.27-.68,3-.31,3.22.39l1.95,6.18,5.9-12.49c4.36,6.69.94,19.55,5.33,19.02,2.88-.34,4.63-1.1,10.81-3.58l-4.27,32.35c-13.38,101.49-15.53,144.69,14.13,245.31,8.33,28.26,14.03,56.76,13.76,85.91-10.58,14.56-3.64,31.12-23.22,33.23l1.09-7.78-14.19-.89c-16.76-1.06-41.74-6.53-51.13-15.59l-3.85,5.1-.53-19.61c-.61-22.43-5.56-43.09-11.07-64.55l-4.69-18.23,1.71-14.71-9.09-49.93c-4.61-25.35-5.5-50.34-5.07-76.5l.94-56.5c-1.54-.78-2.89-1.48-2.84-1.45l.61-12.76,1.57,11.72,1.26,1.03Z"/>
  <path class="cls-1" d="M103.34,612.11c-8.33,5.37-18.6,5.71-26.51-4.59l-4.67,13.16-5.51-11.28-6.31,2.3c-1.63.59-3.17-3.7-3.79-6.06l-5.38-20.52-4.79-33.37c-2.94-20.44-10.46-38.95-4.97-61.43l3.67,6.54,3.59-8.57,5.03,3.75c1.15.86,4.46-.35,5.92-1.13l9.29-4.98,6.79,2.51c2.53.94,6.76-1.87,7.68-5.58l10.78,5.8c1.01.54,3.42,1.83,4.04,1.1l4.41-5.18,6.39,8.55,1.33-8.67c2.73,6.49,7.97,12.55,13.57,15.99l8.85,42.52,9.59,57-10.02,16.45-5.47-8.32-6.56,6.07c-1.54,1.42-5.33-5.33-5.63-6.14l-3.18,7.55c-.7,1.66-5.18-.83-8.13-3.46Z"/>
</svg>