<?xml version="1.0" encoding="UTF-8"?>
<svg id="Layer_1" data-name="Layer 1" xmlns="http://www.w3.org/2000/svg" viewBox="0 0 1236.21 735.1">
  <defs>
    <style>
      .cls-1 {
        fill: #5a8a1f;
      }
    </style>
  </defs>
  <path class="cls-1" d="M1067.35,106.99l31.43,28.06c17.35,15.49,32.04,31.56,50.47,46,17.77,13.93,33.43,28.86,45.99,47.61.7,1.04,4.4,3.83,3.77,4.92l-4.59,7.98c12.65,8.08,14.57,18.93,18.25,31.85,5.69,19.95,16.91,38.29,19.13,58.95,3.35,15.72,4.86,30.31,2.35,45.77,2.39,20.13,2.79,40.53.64,61.09-1.22,11.68-22.63,21.68-5.52,21.9l-15.14,20.09c-7.28,1.22-9.71,4.86-14.41,11.51l-4.69,6.63c-.87,1.23,1.98,3.7,2.76,4.49l-20.25,19.6-14.54,16.02-39.47,40.2c-1.12,1.14-9.73.5-9.96,1.79l-1.2,6.76-10.88,14.57-7.58-2.66c2.36.83-15.33,21.86-29.08,31.58l-22.56,10.49-29.94,12.08,11.26-12.63-25.89,9.42,7.34,5.42-27.39,8.14,20.72-12.05c-18.39,3.33-31.65,8.79-47.37,14.27l-88.93,31-34.89,13.4-29.66,8.18-38.49,7.01-16.34,2.24-56.52,6.02-49.66.41-96.62-11.08c-53.01-2.93-102.94-9.74-155.06-18.62l-126.64-21.56-57.76-12.53c-34.16-7.41-66.87-17.71-98.61-31.84l-32.19-20.94c-12.06-7.84-24.13-15.25-31.68-27.28l-21.7-34.62c-8.27-13.19-11.8-31.25-14.37-46.92-4.36-26.59-.73-54.38,5.79-79.94,5.32-20.85,18.58-36.06,29.33-53.65l30.42-49.77,11.78-17.67,34.25-48.9,54.19-60.26,27.53-28.65c23.52-24.48,47.24-48.26,76.76-64.86l18.81-10.58c22.43-12.61,45.36-24.32,70.2-31.73l126.21-37.61L581.11,0c1.32,4.24,2.91,8.77,4.78,11.34,2.03,2.77,10.96,1.07,14.15.95l43.86-1.62,48.02-.68,23.27-.67c68.53-1.98,99.1,18.69,134.44,23.51l24.96,3.41,55.14,14.83,49.93,13.96,35.9,10.98c10.45,3.2,19.84,5.72,28.17,12.31l23.62,18.69ZM409.99,655.16c-39.75,2.92-77.84-2.76-116.86-10.05-65.53-12.26-145.17-53.93-181.25-110.44l-14.39-22.54c-12.74-24.84-12.21-52.93-9.35-79.92,2.29-21.64,9.32-39.59,19.05-58.38l21.88-42.22c12.25-23.63,26.76-45.55,45.24-64.43l63.59-64.95,48.45-42.62c54.42-47.87,120.9-77.52,192.17-91.59l33.79-6.67c3.82-4.13,11.15-11.69,16.48-12.76l41.14-8.25,63.93-6.95,63.47-2.05,96.54,6.29c-33.18-12.45-66.05-13.78-99.59-13.08l-74.01,1.54-61.37,6.49-50.1,8.91c-13.69,2.43-29.33,6-43.77,10.29l-60.77,18.04-63.36,24.44-35.55,14.94c-14.71,6.18-24.08,18.66-37.75,27.05l-21.02,12.91-31.01,31.1-70.5,73.66-29.05,37.89-17.98,25.29-16.7,25.63-37.91,61.06c-8.48,13.66-12.99,26.77-16.13,42.95-2.4,12.35-5.64,28.73-4.06,41.83,5.34,44.12,17.45,70.66,43.62,106.01,26.9,22.33,53.54,38.56,87.89,47.94l78.57,21.47,71.03,14.42,24.99,5.07,46.48,7.52c59.32,9.6,116.85,15.69,176.41,22.6l75.88,8.8c51.06,2.32,102.15-.21,151.48-12.13l69.74-16.86c25.38-6.13,49.49-16.53,74.1-24.88l36.6-12.43,27.04-9.94,14.76-5.87,37.52-15.68c21.27-8.89,36.83-23.25,53.04-38.98l51.59-50.06,13.96-15.3,32.91-36.3c22.76-25.1,30.98-52.85,29.92-86.38-.95-29.74.3-58.48-7.95-88.99l-3.97,7.18.97-11.13-10.26-16.46c-3.24-5.2-4.32-9.95-3.37-16.93l-3.69-.98c-.89-.24,1.6-5.54,1.17-6.34l-12.26-22.67c-6.88-12.72-9.75-20.11-20.65-29.38l-25.68-21.85-39.93-35.06-41.92-38.33c-17.87-16.34-56.18-36.27-76.81-35.31l55.8,43.22c24.55,19.02,48.63,38.76,67.79,62.82l29.83,37.45,25.76,43.63c20.82,28.87,26.5,59.85,18.06,93.95-9.62,38.85-20.19,68.42-46.78,100.45-13.94,16.79-27.44,32.9-45.32,45.92l-46.43,33.8c-10.61,7.72-22.68,13.02-33.92,19.83-33.63,20.36-67.46,37.3-106.47,43.65l-51.09,8.32c-21.19,3.45-42.13,9.75-63.51,14.31l-36.49,7.8-35.87,6.09-29.26,2.56-55.5,6.8c-17.07,2.09-33.07,4.22-50.06,5.35l-17.95,1.19c-16.86,1.12-35.93,1.63-52.27-1.01-9.61-1.55-15.34-2.19-25.36-1.28-32.07,2.9-51.81-2.17-67.39-1.02ZM336.68,147.82l-17.36,10.22c-55.62,44.29-107.08,92.14-150.29,148.66l-20.34,33.11-12.76,21.41-17.76,39.56c-12.74,28.4-12.81,65.61-2.51,95.52,4.78,13.9,13.76,27.69,21.77,39.6,10.94,16.26,26.63,26.24,42.8,38.27,4.24-11.93,4.22-21.55,3.24-33.1l-2.5-29.54,5.8-66.63-1.66-91.1-1.04-51.4,35.24-14.34,33.75-13.5,23.33,8.44c7.27,7.2,6.92,23.4,8.52,34.88,4.17,29.86-3.91,54.05-23.14,75.62-13.68,15.33-27.5,31.19-43.99,43.64-11.34,8.56-12.49,18.55-12.62,31.62l-.97,91.23-4.05,26.8,27.51,14.18c58.59,30.2,139.58,36.29,207.31,35.25,54.71-.84,108.25,6.06,162.8-.36l125.2-14.74c38.44-4.52,82.21-21.32,120.61-25.72,77.22-8.83,136.78-37.67,198.39-83.07-3.45-5.16-6.99-12.42-6.72-16.31l4.04-59.09,7.22-125.97c.76-13.26-.11-26.6-2-39.49-19.2,4.94-30.52,8.76-46.25-1.62l11.66-17.16c17.88,1.65,32.31-7.23,48.81-7.88l61.9-2.43c-32.24-52.5-98.44-113.91-151.75-142.25l-39.83-16.52c-12.26-5.08-24.1-9.62-37.21-11.62l-18.41-2.8-52.83-9.92-42.88-2.98c-48.77-7.92-96.72-7.38-146.01-3.06l-44.68,3.91c-2.92,6.41-7.72,14.95-12.22,17.71l-58.17,6.71-48.81,9.6c-35.96,7.07-68.78,21.36-100.65,39.39l-30.52,17.26ZM1117.9,266.46l-42.72,1.45c-5.91,12.2-1.22,25.19-1.86,37.12l-5.04,93.24-6.79,98.71c8.63-5.46,17.03-11.81,22.48-17.63l27.94-29.88c29.02-39.3,48.22-85.18,44.23-133.79-1.79-21.79-20.2-41.09-26.4-59.61-3.16,3.68-8.62,10.29-11.84,10.4ZM262.29,328.04l-5.52-37.87-55.15,27.8,4.18,106.56,29.37-28.92,14.77-18.94c11.47-14.71,15.18-29.14,12.35-48.63Z"/>
  <path class="cls-1" d="M418.92,143.4c9.01-14.29,19.91-9.02,31.38-11.85l32.21-7.94c1.04-.26,5.39.45,6.46.55,2.26.23-1.48-16.97,10.68-19.05,4.8-.82,10.91,4.18,15.12,9.37l52.61-6.27,27.93-2.26c12.33-1,22.5-.17,35.9,2.51,1.56,21.6.34,39.4-2.09,60.64-6.86,60.07-14.51,118.54-29.96,176.86l-10.21,38.55-11.31,44.94-6.33,27.74c-10.51,46.07-20.02,89.43-19.46,139.17,23.15-3.02,44.24-8.45,65.54-17.32,29.84-12.43,69.74-10.72,67.79-1.88-1.37,6.22-13.57,14.19-28.56,15.05-9.94.57-19.08,2.55-28.02,5.44l-34.83,11.3c-18.65,6.05-37.18,9-57.15,12.15-5.27.83-12.28-7.15-11.94-12.25l4.62-69.81c7.89-43.84,14.76-86.74,27.06-129.41,26.86-93.18,43.81-185.85,49.66-283.27l-39.3,1.6c-18.83.77-35.78,6.16-52.5,14.71l-3.33,86.69-9.42,109.08-3.61,101.58.95,56.15c.67,39.65,1.37,76.38-11.79,114.47-6.59,1.4-15.12.16-21.65-4.29,9.76-35.34,9.21-67.53,7.37-102.82-3.26-62.5-.67-124.8,5.45-187.23l7.25-74.08,4.04-100.12-41.21,7.68c-8.37,1.56-19.5-1.88-29.38-6.39Z"/>
  <path class="cls-1" d="M291.47,357.18l4.54-44.34,6.04-97.15c1.31-21.13,10.27-34.33,31.25-39.8,35.06-9.15,65.98-21.19,78.15,12.84,7.31,20.43,14.86,41.17,5.44,63.39-15.35,36.19-32.83,71.99-53.6,105.36l-23.78,28.77c16.22,8.64,36.67,17.85,44.14,37.35,16.96,44.31,30.53,89.83,36.24,137.4,2.12,17.69-3.31,35.05-4.23,53.13-8.53,1.23-17.01-.44-23.49-5.36,3.79-43.67-2.55-85.28-15.55-126.69-14.13-44.99-15.45-73.09-67.76-83.93l-3.65,61.91c.22,49.34,2.61,95.13-7.79,145.07-6.33,1.22-17.23-.21-22.98-2.6l5.63-43.45,1.15-58.65-1.13-28.09c-1.57-39.06,7.41-76.46,11.37-115.16ZM385.02,183.69c-19.5.71-40.61,6.21-55.65,11.83-13.37,5-5.94,15.26-6.16,21.64l-2.87,85.16-9.65,88.43,22.01-28.23c14.03-18,24-34.98,33.87-54.64l25.05-49.89,6.85-21.81c5.07-16.12-.22-39.61-13.45-52.5Z"/>
  <path class="cls-1" d="M999.28,198.43l-44.95,83.65-22.13,53.3c-2.64,6.37-3.99,14.08-2.65,21.51,6.95,38.28,14.58,74.58,18.88,113.06,3.34,29.9,6.53,57.94,14.88,87.1l-13.43,1.95-6.5,3.78c-2,1.16-7.29-4.29-7.79-6.68l-8.13-38.7c-4.07-41.75-8.37-85.26-19.92-123.98-22.62,39.78-38.1,77.98-53.09,119.39-7.41,20.48-13.09,39.47-24.34,59.33l-17.28-9.83c16.09-54.32,36.98-105.95,61.1-157.36l27.37-58.35-15.89-94.07c-6.39-37.82-9.52-73.81-17.89-109.92,6.73-5.08,12.09-9,16.08-7.76,6.95,2.16,11.48,7.62,12.71,14.39l8.18,44.85c6.19,33.97,6.5,64.95,14.88,100.45l18.65-34.38,33.93-64.72c1.98-3.78,9.41-10.83,13.71-12.5,5.73,1.74,11.24,9.49,13.62,15.5Z"/>
  <path class="cls-1" d="M852.76,104.79c3.04,2.73-2.6,13.73-6.61,13.53l-42.95.28-44.63,2.11,3.61,45.66-3.37,65.93-4.52,56.24-3.57,35.23-15.96,99.32-2.42,36.85-3.06,30.14c-1.59,15.67-.31,31.1.4,47.36l-2.83,20.29-4.06,37.34-25.76,4.64,4.5-64.72,1.03-42.19c1.56-63.53,12.54-124.08,22.32-186.86l5.72-65.89,4.62-81.65-4.73-33.38-35.16,5.43c-10.38,1.6-28.9-1-32.37-8.45-1.36-2.92,5.38-9.67,8.86-10.12l77.67-10.06,16.32-1.87,56.09-4.64c10.1-.84,21.11,1.62,30.85,9.5Z"/>
  <rect class="cls-1" x="1214.17" y="364.33" width="3.56" height="25.41" transform="translate(2434.4252 745.8601) rotate(179.6134)"/>
</svg>