<?xml version="1.0" encoding="UTF-8"?>
<svg id="Layer_1" data-name="Layer 1" xmlns="http://www.w3.org/2000/svg" viewBox="0 0 769.05 121.37">
  <defs>
    <style>
      .cls-1 {
        fill: #5a8a1f;
      }
    </style>
  </defs>
  <path class="cls-1" d="M357.39,64.07l36.57-.75,16.51-.33-7.62,5.89,16.79-.58,1.56-5.74c.3-1.12,4.61-1.52,5.82-1.63l30.84-2.82,22.29-1.82,41.13-1.71c7.63-.32,14.9-1.72,22.63-1.48,1.4.04,6.46.12,6.69-1.16l1.08-6.03c-4.78-1.78-9.35-1.2-13.74,2.09-6.48,4.85-18.69,4.41-26.76,2.22l17.77-.86,1.34-1.95-35.98-.11-4.34,5.63-30.63,2.51c-3.07.25-6.56-1.72-9.03-4.25l-40.01,3.02-23.47.94,15.92-6.76,9.42,2.61c1.1.31,4.95-.07,5.04-1.24l.48-6.25-17.08-.13c2.33-1.58,7.59-4.61,9.98-4.78l25.92-1.92,5.68-.42c1.17-.09,1.68,4.27,1.42,4.58l-22.5,2.62c2.29,2.8,6.07,5.26,8.6,4.98l38.84-4.35h38.3c20.37-2.75,37.93-5.08,58.1-4.57l26.83-2.87c15.27-1.64,29.7,1.94,45.08-3.97l-33.38.89-34.48,1.4-41.27,2.42,5.99-6.89c1.02-1.18,4.64,2.43,6.26,3.36l31.33-3.53,14.2-3.94,41.45-2.07,31.45-1.86,31.51-1.34.07-2.95-93.8,4.99-16.22.76-20.1,1.1-26.95,1.47-2.27-2.93,60.78-4.73,34.39-2.28,20.08-1.06,55.7-3.96-41.76.94-32.93.24-2.24-3.2,101.18-6.56,34.47-2.92-4.44,8.48,13.17-1.15-7.73,5.12c-.46,2.18-.54,6.75-2.46,7.66l-9.79,4.64c.53,1.41.87,2.48,1.65,2.9l6.33,3.39-19.46,9.43,12.99,1.46-8.48,6.11,11.65-.1-5.67,7.85-15.04,3.57-18.55,3.98c-6.3,1.35-11.62,2.18-18.98,2l-14.32,3.25-76.24,5.11-1.45,2.4,128.91-7.93c6.72-.41,11.33-4.58,16.12,4.03l-82.03,6.73-30.12,1.99-39.64,1.86-105.6,5.93-61.08,4.61-48.25,4.1-155.59,10.4-56.29,3.63-28.15,2.49-23.02,1.21-54.75,5.29-57.84.92C-2.16,95.15-2.92,62.68,9.26,39.34l50.29.89,153.17-7.59,15.2.24,22.17-.49,53.74-2.47,24-1.48,20.47-1.68,37.68-2.61,18.3-.07c15.75-.06,29.99-5.11,46.81-1.79l-61.97,6.62,63.46-1.41c-5.23,6.17-11.31,5.32-18.69,5.87l-72.29,5.4c-10.88.81-21.79.45-31.08,3.15,8.84,5.96,16.33.4,23.53.46l35,.26-21.84,5.94,19.39,3.27-10.88,9.04-25.77,1.05,1.98,2.81c.59.84,3.62-.63,5.46-.67ZM752.09,18.47l6.35-3.75c.92-.55-2.52-3.03-3.53-2.73l-4.4,1.29c-.25-.8.74,2.43,1.59,5.2ZM621.93,27.21h-15v2.6h15v-2.6ZM692.51,44.2c-8.11-8.28-18.07-2-26.18-3.19-8.24-1.21-14.09-3.74-21.06,2.46l-18.71,1.66c-4.75-3.71-13.12-5.41-16.08-2.4-.91.92.5,7.55.94,6.99l81.1-5.52ZM727.95,43.37c-4.15-6.72-11.35-5.13-14.18-.04l14.18.04ZM605.88,41.46l-14.06,2.68c4.26,2.25,10.18,3.64,14.06-2.68ZM555.12,51.51c4.79.01,10.6-.3,12.06-.7l.32-6.51c.05-1.06-3.95-.58-5.89-.2-3.75,1.28-4.5,3.05.63,3.98l-7.12,3.43ZM358.9,46l-7.26,4.81,6.39.13c1.06.02,1.11-2.9.87-4.94ZM605.75,48.31l-33.67.69c12.44,5.48,23.1,1.92,33.67-.69ZM342.37,49.16c-5.61.45-10.74,1.65-15.89,3.76,5.22,5.03,12.74,4.95,15.89-3.76ZM563.86,56.91c-6.41-2.67-10.11-1.53-12.11,2.77l12.11-2.77ZM512.13,60.74c-9.25-3.2-18.84-3.33-28.5,1.22,10.66,1.21,18.76.1,28.5-1.22ZM531.25,60.87c-5.35-6.36-12.61-4.76-15.5.61l15.5-.61ZM320.12,67.2c7.18.06,14.21-1.06,23.18-2.79-2.27-2.27-8.84-4.29-12.12-3.59l-29.35,6.24,18.28.15ZM479.59,62.4c-16.67-1.34-30.22-.76-44,2.05,15.91,2.14,30.45,1.74,44-2.05ZM666.08,65.75c1.2.14,2.24-4.35,1.06-4.19l-4.51.62-2.85,2.55c-.44.4,4.54.8,6.3,1.01ZM637,67.03c4.78-.12,11.88-1.78,17.05-2.89l-35.92.85-31.73,1.29c5.42,6.82,12.13,1.74,17.31,1.61l33.28-.85ZM396.03,69.17l-1.09-1.74-13.12.5,1.09,1.74,13.12-.5ZM551.93,67.56v4h10v-4h-10ZM256.25,71.04l-3.39-1.66-12.96.57,1.02,1.77,15.33-.68ZM371.98,70.42l-24.47-1.14,3.88,4.34,20.6-3.19ZM512.08,72.5c-14.5-1.73-28.43-.96-43.31.91.08-1.13.76-4.21-.19-4.2l-5.38.05c-.97,0-.34,2.99-.33,3.16l-9.41,4.8,18.54-.84,40.07-3.89ZM547.81,70.02l-33.63.41c6.97,5.13,13.94,3.35,20.48,2.1l13.16-2.51ZM600.22,75.29c-5.6-5.67-11.41-2.83-14.37,2.07l14.37-2.07ZM323.45,88.82l-25.71,1.83,40.46-.23c5.61-.03,11.76-3.35,16.1-6.11l17.98,4.82-9.38.68-.92,3.11,18.62-.71,25.51-3.73-27.36-2.7,9.19-5.41c-5.06-1.61-3.85-2.77,2.2-4.69l-22.76-.71c-3.9-.12-7.79,2.15-10.72,5.97l-19.08.98c-2.51,1.8-4.43,2.23,1.07,5.15l-13.37,1.27-1.82.5ZM432.14,77.02c-4.13-2.58-9.63-2.01-12.29,1.97,4.54.73,8.49.29,12.29-1.97ZM560.16,79.82l-3.48-4.04-25.12,3.12,28.6.92ZM576.03,77.13l-1.1-1.7-11.12.54,1.1,1.7,11.12-.54ZM352.05,79.13l-1.11-1.7-11.11.55,1.09,1.88,11.13-.72ZM323.95,86.57l6.53-7.37c-12.12,3.53-20.64,4.9-31.89,4.73l-2.58,2.82c-.46.5,3.16.53,3.9.51l22.64-.65c.92.24,1.18.19,1.38-.04ZM496.61,82.75l19.47-2.36c-17.91-3.42-34.99,3.38-55.82.17l-13.98,2.81c-5.93-1.38-12.76-1.42-15.22,3.53l24.95-1.58,40.59-2.57ZM428.24,87.03l-3.39-1.66-12.96.57,1.02,1.77,15.33-.68ZM323.93,93.55v2h17v-2h-17Z"/>
  <path class="cls-1" d="M478.08,22.45c-7.52.77-13.83.93-20.61-1.98l26.47-2.44,22.02-2.03,34.1.34-34.16,3.26-27.82,2.84Z"/>
  <path class="cls-1" d="M501.59,28.74c-8.43,1.55-18.93.87-28,.26,12.98-6.8,27.16-5.84,42-6.38,4.26-.16,7.84-.88,11.88,1.35l-25.87,4.76Z"/>
  <path class="cls-1" d="M463.67,40.98c-3.88.53-8.27-.54-10.03-2.33l27.52-3.77c8.55-1.17,16.88-2.04,25.36.3l-42.86,5.8Z"/>
  <path class="cls-1" d="M624.39,13.12l-26.54.14c8.04-1.93,16.77-7.9,26.54-.14Z"/>
  <polygon class="cls-1" points="564.03 15.19 550.91 15.7 549.82 13.96 562.94 13.46 564.03 15.19"/>
  <rect class="cls-1" x="425.68" y="49.47" width="2.51" height="13.99" transform="translate(353.17 480.75) rotate(-87.67)"/>
</svg>