<?xml version="1.0" encoding="UTF-8"?>
<svg id="Layer_1" data-name="Layer 1" xmlns="http://www.w3.org/2000/svg" viewBox="0 0 634.29 771.19">
  <defs>
    <style>
      .cls-1 {
        stroke: #5a8a1f;
        stroke-miterlimit: 10;
      }

      .cls-1, .cls-2 {
        fill: #5a8a1f;
      }
    </style>
  </defs>
  <path class="cls-2" d="M486.71,21.15c-30.93-2.05-61.9-3.24-92.87-1.37-29.29,1.77-58.43,5.48-87.56,8.91-28.96,3.41-58.26,6.67-87.52,7.59l-30.36,134.51c-4.22,22.8-10.54,43.45-17.95,65.56-10.19-5.23-9.18-17.05-29.05-29.8-8.98-5.76-17.66-13.75-26.46-16.59-21.06-6.27-42.01-6.1-61.24,1.82-8.32,3.43-14.71,9.71-20.53,15.61C11.83,229.04-.74,263.14.03,292.27l.69,26c.19,7.29.67,19.16,6.19,23.85l15.48,13.17c3.56,1.65,12.71,3.11,16.79,3.7l9.71-8-.68-20.23c-2.41-6.52-5.17-13.71-3.12-21.14l4.35-15.8,6.13-17.79c1.13-3.28,8.63-8.84,12.09-9.94l28.24-8.99c18.47-5.88,49.78,9.28,47.3,19.46-.71,2.89-3.73,8.97-5.82,11.19-34.38,36.41-61.96,84.46-67.14,134.18l-6.05,58.1c-1.93,18.51-1.09,37.21,1.33,55.12l4.52,33.46,1.59,15.88c.35,3.52-.29,6.21-1.54,10.2-3.94,12.56,2.24,26.78,2,39.62l-.6,32.66-24.26,33.1c-8.77,11.96-16.1,27.49-9.38,41.28,4.37,8.96,13.02,19.91,22.06,19.46,17.07-.84,30.63-7.54,42.12-19.74,1.39,10.6,5.6,23.21,13.59,28.51,23.45,2.92,42.7-10.23,53.34-31.26,7.67,10.82,11.14,21.92,22.58,26.23,7.16,2.7,21.23-2.61,24.45-9.41,5.38-11.37,3.21-24.12-.11-34.92l-9.87-32.1-6.91-25.47c-2.56-9.44,4.17-23.66,3.28-34.34l-5.74-68.94c-1.5-17.98,2.25-35.92,3.74-53.97.36-4.3,1.21-7.57,3.11-10.91l9.03-15.92c4.3-7.59,17.69-13.22,25.22-6.51,19.3,17.2,25.35,44.64,29.31,71.09l7.02,46.91,1.88,30.24,2.85,17.18.1,26.48c.11,30.72-15.23,35.63-19.33,56.56-1.23,6.27,4.86,30.39,16.73,32.73,16.69,3.28,19.94-9.95,32.41-9.11,3.31,13.03,10.25,23.24,23.3,26.35,5.43-1.33,12.72-9.18,16.75-12.3l10.78-8.35c1.14-.88,3.57-4.1,4.61-3.21l3.66,3.1.32,8.04c.45.36.87.82,1.22,1.4,2.61,4.31,11.1,6.73,15.53,8.5,2.77,1.11,5.63,2.59,8.53,3.28,4.02.95,8.03-.59,11.41-2.75,5.85-3.75,9.72-9.71,12.87-16.16-.09-15.12-.4-25.09-1.01-26.72l-8.39-22.31c-2.77-7.36-9.72-16.71-10-24.39l-.71-19.4-6.84-63.31-4.21-33.04c-1.68-13.14-5-26.01-.77-38.82,3.26-9.86,1.97-20.95.94-31.51-2.43-25.04,1.22-47.82,4.73-72.43l4.56-32.04c1.58-11.08,3.52-22.14,6.68-32.96l11.71-40.11,10.66-33.4,6.85-15.54,8.7-19.54,14.27-40.23,3.53,3.84c.7.76,3.45-3.18,3.71-4.18l3.66-13.76c7-8,30.59-92.3,50.49-168.95-9.84-.7-19.67-1.42-29.51-2.07ZM20.46,345.73c-1.41-3.32-3.02-7.13-2.94-6.93,1.9.32,4.25,1.18,4.73.28l2.77-5.18.75,7.09c.21,1.97-3.58,4.05-5.31,4.73ZM23.96,242.46l5.47-9.12,3.23,1.94-5.47,9.12-3.24-1.94ZM38.77,347.62c-2.5.63-7.49.5-7.03-.68l2.27-5.82c3.68-.56,6.44-1.11,6.73.29.29,1.4-.58,5.86-1.97,6.2ZM37.86,286.44l.75-13.36,5.97,3.35-6.71,10.01ZM39.96,221.95c.32-5.17,4.32-9.36,10.06-9.62l-10.06,9.62ZM71.36,690.86l5.21-11.53,2.88,6.96c.79,1.91-3.26,4.51-8.09,4.57ZM143.25,504.21l-4.4,13.38c-2.28-3.46-2.45-11.62,4.4-13.38ZM133.98,756.74l3.48-6.88c1-1.99,7.18-1.72,12.21-.79l-15.69,7.67ZM161.97,644.14l2.69-14.47,1.25,13.53-3.95.94ZM190.7,301.91c1.61,0,2.92,1.31,2.92,2.92s-1.31,2.92-2.92,2.92-2.92-1.31-2.92-2.92,1.31-2.92,2.92-2.92ZM177.06,553.16l3.68-8.77.85,11.88c-1.9-.4-4.98-2.02-4.53-3.12ZM183.15,633.98l.06,34.19c-6.01-11.49-4.38-22.25-.06-34.19ZM183.24,620.02c-2.09-1.7-4.55-3.99-3.78-4.71l4.01-3.71-.23,8.41ZM175.9,345.19l12.31-7.81-2.48,7.94c-.67,2.15-4.46,3.67-9.83-.13ZM190.64,686.35l2.19,17.24c-9.76-1.96-7.21-13.16-2.19-17.24ZM195.92,331.97c-1.6.37-3.46.79-4.63,1.06-.39-7.8,5.11-5.32,4.63-1.06ZM207.83,752.83l-4.81-20.49c-1.55-6.61,10.45-1.11,4.81,20.49ZM205.73,311.45l-1.72,4c-.46,1.06-5.01.61-4.61-.47l2.33-6.39c.36-.99,4.46,1.81,4.01,2.87ZM213.75,331.12l-2.81,6.51-2.06-3.18,1.59-4.43c.29-.82,3.62.3,3.27,1.09ZM241.57,453.7l13.58,3.96c-5.59,3.87-10.88.89-13.58-3.96ZM283.31,743.23l-1.76-2.94,12.65-7.59,1.76,2.94-12.65,7.59ZM284.26,708.1l-8.26-.15,11.12-14.84,9.07-19.22,3.15.56c-2.4,16.17-13.91,21.12-15.08,33.65ZM312.99,361.84l-1.62-5.09c-.41-1.3,2.57-3.7,4.41-4.72l-2.78,9.81ZM328.21,436.3l-.38-14.3c2.83,3.87,5.98,8.86.38,14.3ZM337.19,760.4l-2.65-1.59,5.47-9.12,2.65,1.59-5.47,9.12ZM341.38,749.71l3.28-14.02,9.57,3.13-12.85,10.89ZM356.82,539.31l-1.07-13.43c4.8,2.52,6.31,8.63,1.07,13.43ZM389.79,750.7l9.95-.1c.18-.04,1.17,3.92.33,4.37l-3.88,2.1-5.6,1.1c-1.22.24-.9-4.52-.81-7.46ZM370.88,477.92l1.26,23.33c-3.91-7.48-3.14-15.38-1.26-23.33Z"/>
  <ellipse class="cls-1" cx="369.67" cy="66.26" rx="245.94" ry="53.18"/>
  <path class="cls-2" d="M199.5,103.79c-17.05,3.72-32.2-7.93-45.77-16.45-3.36-2.11-6.77-4.13-10.3-5.94s-7.63-3.35-10.66-6.12c-5.03-4.6-6.35-11.69-4.34-18.02l-2.3,2.99c9.12-6.11,18.36-12.39,28.54-16.63,11.16-4.64,22.88-5.44,34.79-6.17,23.45-1.43,46.68-5.12,69.75-9.44,46.61-8.72,93.53-20.16,141.3-17.66,27.81,1.46,54.56,8.89,81.19,16.52,6.2,1.77,8.84-7.87,2.66-9.64C451.35,7.76,418.53-.37,383.94.01c-32.99.37-65.62,6.38-97.9,12.66-33.25,6.47-66.36,12.93-100.23,14.99-16.1.98-30.71,3.86-45,11.62-6.62,3.6-13.88,7.53-19.71,12.33-4.38,3.6-4.08,11.43-3.1,16.55,1.38,7.24,5.78,13.39,11.9,17.39,3.7,2.42,7.87,4.06,11.73,6.2s7.85,4.71,11.7,7.18c14.72,9.46,30.74,18.44,48.84,14.5,6.28-1.37,3.63-11.01-2.66-9.64h0Z"/>
  <path class="cls-2" d="M485.78,27.63c11.81-.04,23.62-.09,35.43-.13,5.26-.02,10.65-.38,15.89.11,5.53.52,10.42,3.28,15.65,4.96,20.08,6.45,41.46,3.14,61.98,6.54,3.96.66,11.06.89,8.85,6.56-1.69,4.33-6.01,7.39-8,11.67s-2.33,9.28-3.57,13.96-3.81,8.21-7.46,11.26c-7.37,6.15-17.18,10.06-26.11,13.27s-18.89,5.75-28.64,7.19c-22.88,3.39-46.33,1.15-68.23-6.18-6.12-2.05-8.74,7.61-2.66,9.64,21.81,7.3,45.19,9.7,68.03,6.93,21.25-2.58,45.21-8.89,62.52-22.07,3.39-2.59,6.43-5.56,8.74-9.18,3.2-5.03,3.75-10.64,5.09-16.29,2.24-9.53,14.84-16.83,9.86-27.76-4.35-9.56-19.63-9.47-28.46-10.13-11.74-.87-23.58-.49-35.28-2-6.49-.84-12.77-2.44-18.86-4.81-6.6-2.57-12.4-3.69-19.49-3.7-15.09-.01-30.18.11-45.27.16-6.43.02-6.45,10.02,0,10h0Z"/>
</svg>