<?xml version="1.0" encoding="UTF-8"?>
<svg id="Layer_1" data-name="Layer 1" xmlns="http://www.w3.org/2000/svg" viewBox="0 0 698.48 797.49">
  <defs>
    <style>
      .cls-1 {
        fill: #5a8a1f;
      }
    </style>
  </defs>
  <polygon class="cls-1" points="603.87 606.5 603.44 577.55 605.4 576.45 605.71 605.56 607.19 606.59 606.83 618.9 605.28 607.6 603.87 606.5"/>
  <g>
    <path class="cls-1" d="M522.62,358.84l.58-11.96c.12-2.46,9.16-3.46,9.86-1.5-3.43,21.33-22.09,18.67-45.32,21.47,4.35-8.26,6.97-14.25,7.39-22.71l15.88-3.69v4.97c-.01.87,2.59,1.5,4.31,2.03l-5.67,11.46,12.97-.07Z"/>
    <path class="cls-1" d="M464.16,350.08l-21.47,3.68-5.74.92c-1.14.18-1.1-3.54-.13-4.2l4.51-3.1-2.09-1.55c-.92-.69-2.82-3.99-1.71-4.32l6.12-1.85c4.97-1.5,9.28.09,13.38,4.03l-11.75,2.37,18.88,4.02Z"/>
    <path class="cls-1" d="M570.22,353.15c-4.33,4.11-9.35,4.78-15.48,4.99l-13.88.47,8.79-9.04c3.43-3.53,14.23-3.79,20.67-2.6l-20,7.21,19.89-1.03Z"/>
    <path class="cls-1" d="M484.01,348.09l-16.57,2.33,2-7.58-11.86-.73,1.13-1.5,8.3-1.13c6.22-2.99,13.2-4.6,18.64-4.94l-10.41,10.78,8.75,2.77Z"/>
    <path class="cls-1" d="M493.15,373.62l-4.35,2.67c-.71.44-3.9-1.91-3.17-2.61l3.84-3.71,18.1-2.42c4.13-.55,11.6-.6,15.18,1.37l-29.61,4.71Z"/>
    <path class="cls-1" d="M657.8,386.66l-16.73,1.74,6.61-9.48c1.32-1.89,9.16-.3,9.83.12-1.39,1.37-2.87,2.87-2.93,2.73-.09-.19.7,1.08,3.23,4.9Z"/>
    <path class="cls-1" d="M605.04,376.43c-4.1,1.48-9.67,1.71-10.92-.15-1.8-2.67,3.54-7.19,6.27-5.96,1.99.89,4.14,4.13,4.65,6.11Z"/>
    <path class="cls-1" d="M685.39,351.85l2.77-6.29,4.43-.13,2.72-5.11c.98,1.76,1.51,5.65.74,7.75-1.08,2.95-7.45,5.16-10.66,3.78Z"/>
    <path class="cls-1" d="M641.45,382.1l-18.05,2.19c4.34-5.24,10.44-4.82,18.05-2.19Z"/>
    <path class="cls-1" d="M495.6,380.08c-3.05,2.58-9.3,3.03-14.06,1.61,3.56-3.71,7.67-4.17,14.06-1.61Z"/>
    <path class="cls-1" d="M550.64,335.02c.21,2,.11,4.96-.95,4.93l-6.31-.15,7.26-4.78Z"/>
    <polygon class="cls-1" points="673.69 384.15 662.58 384.7 661.48 383 672.6 382.45 673.69 384.15"/>
    <path class="cls-1" d="M477.8,329.03l4.94-.48c1.07-.1.09,2.83-.91,3.04l-5.08,1.07c-1.04.22.11-2.05,1.05-3.64Z"/>
    <g>
      <path class="cls-1" d="M312.81,150.97l-2.22-5.09-7.61,10.91-21.82,26.04,1.61,1.75,4.86-3.34-3.63,6.69c-.38.7-1.6-.71-2.09-1.72l-1.91-1.93-33.99,42.49-14.81,21.68-10.26,12.42,8.04-5.82,1.08,1.02c-8.73,16.13-18.38,17.98-26.98,26.66l1.91,1.83,5.02-3.69c-1.19,2.55-4.75,7.16-5.33,6.57l-2.51-3.07-6.75,9.41,3.35-1.52c.8-.36,3.13-.27,3.37.13l-49.19,68.88,44.61-4.22,62.27-6.4-4.14,8.13c14.27-.66,20.62-11.68,40.39-7.77l-6.99,3.62c5.77.41,12.39-.88,18.81-2.49l15.48-.53,51.33-3.52-9.52,5.75,10.93,5.22-11.43,6.27,33.99-3.25c-5.14-2.4-10.11-2.1-15.57-.97l-3.96.82c-.97.2.05-3.41,1.1-3.54l33.88-4.04c2.56-8.4,8.82-13.91,17.6-11.53-2.44,3.35-5.03,6.76-3.2,11.12l-28.03,5.74,20.79.64-2.73,7.6,5.82,2.06-11.27,3.76c8.16,2.55,16.07,2.45,22.91-6.86l-4.03-2.7,3.05-6.2c.83-1.69,7.71-2.14,8.06-1.38l-2.38,6.5c-.64,1.75,5.75,6.05,6.62,4.41l3.79-7.18c.49-.93-2.45-4.81-1.39-4.94l5.74-.66,20.24-2.33c-1.94,4.38-5.01,8.27-9.04,11.58-.27-.45,1.13,1.89,1.56,2.61.55.94-.52,1.91-2.8,5.93l16.03,1.08c.32.24.35,4.74-.99,4.89l-10.42,1.16,15.52,7.5-13.22,2.64,17.49,2.12-9.07,3.54,8.64,5c-8.85,5.81-12.54,12.23-8.7,20.69-1.79,2.9-.78,5.92,1.66,3.58,4.69-1.08,8.06-1.51,9.94-3.01,6.61-5.28-1.27-15.71.38-27.6l17.69-13.21c4.43-3.31,8.34-5.87,13.75-8.4,8.99,1.72,14.46-1.37,18.47-9.23l38.21-3.45c0,3.24-.33,5.17.44,5.56l4.92,2.48-8.43,5.18,5.24,5.91-4,9.02,19.12-.62-13.14,4.46,12.06,1.25-19,7.01c11.31,31.51,14.93,61.76,16.99,93.75l2.42,19.54-4.93-15.51c-2.55,11.77,3.01,23.31,3.91,35.58l7.3,99.18c.74,10.11,2.94,21.06,6.01,29.95l1.33,20.16c.46,6.98,3.61,12.37,8.69,16.11l-4.07,2.93c-.57.41.36,3.08,1,2.83l5-1.95-7.03,23.17-4.15-21.73-3.23,20.47c-1.89-2.34-6.15-6.71-7.26-5.4-2.22,2.81-1.92,7.75-1.8,14.43l-8.73-10.82-2.02,10.16c-.49,2.45-1.71,5.84-3.02,8.06-5.25-6.99-7.27-11.72-9.87-18.72-3.72,7.54-4.94,13.34-1.01,19.82l-8.69,1.79-8.05-14.08-1.57,8.12c-13.7-3.73-13.5-15.62-14.77-26.38l-8.81-74.96-4.9-75.5-14.96-84.64c-3.43-19.4-8-36.87-15.08-55.73-4.55,2.77-6.01,7.48-5.55,14.44-9.78,4.46-23.46,5.07-34.99,6.04l-19.18,1.62,1.68,2.18,36.12-2.64,1.79,2.41-84.91,6.63-40.86,3.78,5.7-5.43-29.88,3.93,22.05.78-61.84,9.04-1.76-2.4,25.73-2.99-2.28-2.52-33.93,5.81-13.1,6.69-26.1,3.26c-11.17,1.39-22.25,1.31-32.42,9.99.18,10.55,2.85,23.69,4.64,35.23l9.35,60.14,8.19,53.1,3.07,16.53,8.67,55.49c2.89,18.51,6.01,37.61,1.87,55.7l-2.2,9.64c-.2.88-4.8,1.84-4.22,2.52l3.49,4.11c-2.77,1.76-7.73,4.91-10.65,4.52-4.1-.56-8.3-4.24-11.14-7.7l-.83,9.57-6.89-4.3-13.58,14.26-1.48-14.42-3.3-.09c1.22,3.67,2.52,9.92.29,10.58l-9.54,2.83-.15,8.48-6.28-17.35-8.36,15.07-5.16-40.36-5-40.39-13.04-74.46-6.5-45.71-8.39-52.45-15.87-69.57-4.62-13.64-23.02,6.9c-4.88,1.46-9.3,12.04-12.69,16.94l-4.77-2.77-6.03,3.16c-1.32.69-3.25-3.97-3.99-6.21l-20.17,4.2-.07-4.95c-.01-.84-2.28-1.67-3.96-2.8-3.61-2.42-3.91-13.06-6.55-16.55l-18.86-24.85-5.22,2.61,17.08-26.84,2.1-13.29c7.34-3.55,11.94-7.81,16.48-13.95l15.91-21.51,17.32-28.79.27,9.14,32.64-46.77,23.78-32.19,29.39-38.64,57.55-74.13,46.29-57.77c12.31-15.36,24.24-29.08,33.89-46.65l-9.45,7.18c3.6-9.5,8.6-16.55,16.39-23.93l-5.5,14.02,15.14-12.28c1.16-.94,4.28-2.45,5.61-2.77s2.76,2.81,3.86,5.17c8.23-8.59,17.34-16.77,28.53-22.02,3.85-7.31,9.86-9.17,18.92-7.96l32.89,27.08,9.81,9.85,19.43,16.71,17.82,14.9,2.9-1.61c-2.37-4.51-2.63-5.01-1.95-3.72l5.7,2.97c1.04.54-2.33,3.13-4.02,4.64l10.15,6.43c3.52,2.23,12.23,5.29,13.78,9.3,3.12,8.07,8.35,12.93,17.25,13.4,3.31,9.71,10.17,14.71,20.02,18.68,1.78-.25,3.39-.61,4.9-.34,2.74.49,5.1,5.33,1.69,7.63l16.97,18.36,4.77,11.24c.71,1.68,3.17,5.52,4.41,6.74,1.49,1.46,5.42.86,8.27.97l6.83.26c1.49.06,1.99,4.41,1.41,5.8-.7,1.66-3.5,3.45-5.96,5.05l5.92,6.49.95-9.07,10.84,10.98c-1.1.81-5.06,5.08-3.75,6.1l6.6,5.13,5.66,5.81c4.37-.23,12.35.59,13.2,2.44-1.8,3.48-3.09,6.47-2.85,8.3,1.07,7.9,12.8-4.48,16.42,7.39,1.4,4.6,6.3,7.79,11.07,9.04l-3.96,5.13,10.34,19.31,8.45-3.12c2.59,10.16,7.17,16.14,13.8,23.47l14.27,15.79,6.03,7.08c1.39,1.63,6.63.25,9.24-.02l1.36,11.11c.36,2.94,6.1,4.25,9.22,5.36l-6.01,2.46c-.89.37-2.44,2.49-1.17,1.2l10.56,6.47-7.08,1.03c-1.1.16.54,2.8,1.47,3.27l14.6-.81c-.76,9.43-7.75,8.22-13.21,8.84l-13.09,1.48c-1.56.18-4.09,5.38-2.63,5.98l6.88,2.84c1.42.59,6.77,2.29,5.7,3.38l-6,6.08,15.54,2.28-15.06,3.81,15.47,1.97-22.63,1.5,1.3,1.52,21.24.95-30.26,3.79-16.53.13,25.03-3.82-2.48-1.5c-17.9,1.82-31.83-5.78-31.29-1.85l1.36,9.95-23.76,2.65c1.77-6.32-2.6-15.01-6.39-13.51l-9.21,3.65c-2.38.94-7.14-6.17-4.88-7.29,3.58-1.77,6.8-3.25,8.23-4.63,2.85-2.77-9.71-22.8-24.55-17.43,3.87-5.45,5.66-11.5,2.51-14.75l-19.07-19.69c-7.2-7.44-15.96-15.48-20.69-24.95-9.47-18.97-19.38-15.01-20.74-23.06-.26-1.53,3.7-2.69,5-2.68l.86-1.13c-1.84-7.12-4.43-13.87-13.26-15.13l1.72,9.63c-5.55-1.51-14.8-7.51-13.27-14.09.61-1.81,4.77-6.57,3.44-7.89l-4.72-4.68-15.06-14.93.78,11.2,2.02.28c.02-.29,4.41-.08,4.85.92l5.41,12.26c-5.86-3.5-9.25-7.09-11.76-10.75l-1.05-1.28-10.33-8.66-23.76-24.96,10.32,4.39c-4.94-7.04-10.88-13.06-17.3-17.6l-.58,1.32,2.4,7.23-47.61-38.19-12.36-11.08-20.35-13.74-13.4-9.8-38.44,47.01ZM269.37,85.44c4.7-.76,6.63-3.49,5.93-7.17l-5.93,7.17ZM433.72,139.59l-2,2,8,8,2-2-8-8ZM425.52,153.24l-10.06-10.58c-4.33,8.49,5.39,9.28,8.95,11.67l1.11-1.09ZM449.71,151.59l-2,2,10.99,11,2-2-10.99-11ZM427.31,153.98l-1.46,2.05,14.09,12.94,1.8-1.76c-3.56-5.42-8.81-10.9-14.42-13.23ZM465.7,189.58l-2,2,9.99,10,2-2-9.99-10ZM503.15,210.42l.65-2.92-7.6-6.75-.65,2.92,7.6,6.75ZM517.67,223.58l-2,2,9,9,2-2-9-9ZM573,227.33l-5.13,3.06,6.76,11.34,5.13-3.06-6.76-11.34ZM141.24,246.45c6.68-3.6,10.81-8.9,12.43-16.35l-12.43,16.35ZM527.14,249.97l-1.51,1.87,11.63,11.28c-.03-2.39-.95-7-1.98-9.18s-6.17-3.8-8.14-3.97ZM549.24,280.14c4.45-7.51-1.26-9.92-5.65-11.25l5.65,11.25ZM337.89,356.45l4.04-.61c.87-.13-.39-3.73-1.23-3.45l-3.76,1.3-4.15,1.42c-.63.22-.59,1.14.09,1.17l5.01.17ZM630.38,371.68c-3.14-6.12-6.02-10.55-9.78-14.69-2.86,7.73,1.44,14.82,9.78,14.69ZM318,368.04c-4.12-2.58-9.62-2.01-12.29,1.97,4.53.73,8.48.29,12.29-1.97ZM384.25,365.93l-.76,6.01,10.08,1.27.76-6.01-10.08-1.27ZM377.42,372.2c-1.11-4.7-7.25-5.14-8.06-.6l8.06.6ZM486.66,433.51l-10.64-2.5c-1.29-.3-2.17,5.24-.82,5.11l4.83-.45,6.62-2.15ZM323.9,456.29l-1.1-1.85-11.12.55,1.1,1.71,11.13-.42ZM590.01,542.67l1.74-1.09-.5-13.12-1.74,1.09.5,13.12ZM599.28,629.56l-2.19-31.11-1.93-32.05-2.86-20.03.78,32.08,2.2,37.98,5.14,42.07,1.49-3.23-2.63-25.71ZM604.64,688.75c1.79-9.53.45-18.04-2.77-26.42l2.77,26.42Z"/>
      <path class="cls-1" d="M302.98,156.79c1.82-2.17,7.31-4.58,9.82-5.82l-20.7,25.46,10.88-19.64Z"/>
      <polygon class="cls-1" points="195.3 159.43 214.45 134.29 216.62 136.22 198.07 159.94 195.3 159.43"/>
      <polygon class="cls-1" points="167.09 195.17 174.71 186.48 176.48 188.12 169.81 196.03 167.09 195.17"/>
      <path class="cls-1" d="M147.44,221.43l5.93-7.17c.69,3.68-1.24,6.41-5.93,7.17Z"/>
    </g>
  </g>
</svg>