<?xml version="1.0" encoding="UTF-8"?>
<svg id="Layer_1" data-name="Layer 1" xmlns="http://www.w3.org/2000/svg" viewBox="0 0 572.58 602.26">
  <defs>
    <style>
      .cls-1 {
        fill: #5a8a1f;
      }
    </style>
  </defs>
  <path class="cls-1" d="M332.81,602.26l-42.68-.1-33.64-3.38-20.04-3.52-37.93-8.32c-16.24-3.56-20.11,1.26-25.52-2.31-5.46-3.6-13.51-6.03-20.73-5.75l-14.91-6.48c-20.6-8.95-40.81-19.08-56.08-35.52-19.24-20.7-28.31-45.52-33.25-72.81-2.29-12.64-1.27-23.93,1.35-36.73,3.12-15.21,15.78-13.71,13.95-20.07-2.79-9.67-11.33-2.66-31.76-5.12-2.35-.28-5.09,1.84-7.71,4.86-1.95,2.24-7.97-1.56-9.68-4.17-1.63-2.48-1.78-10.72,1.18-11.61,14.28-4.41,28.33.07,38.82-3.7l-4.91-21.71-3.47-21.91-4.06-31.68C7.87,281.29-6.52,235.27,2.76,190.48c8.18-11.21,19.02,2.3,49.75,8.96,6.68,1.45,11.81,6.67,17.02,10.49,6.78,4.96,12.61,9.82,17.8,16.58l12.98,16.9c4.13-12.13,6.41-19.3,16.03-26.41-13.29-19.44-23.02-40.65-27.84-63.87-.57-2.73-1.08-5.51-.74-7.21.4-2.04,5.72-3.75,7.88-3.87l24.86-1.32,29.39,1.04c19.32,8.11,36.31,18.88,50.52,33.71,4.04,4.22,9.02,11.46,13.27,13.95l26.76,1.71c8.21.53,22.81-1.2,28.91,4.9l17.31,17.3c14.27-8.99,23.84-5.26,40.87-15.09,3.5-2.02,8.58,4.46,9.27,8.98l24.32,15.44c9.08,5.77,16,12.24,25.18,17.04,17.07,8.92,33.46,8.38,52,11.76l59.96,10.93c13.78,2.51,30.81,12.5,39.74,22.83l25.45,29.42,5.06,20.71c4.44,18.18,4.98,37.56,2.88,56.11l-2.55,22.59c-1.99,17.65-7.91,33.16-15.04,49.2l-9.86,22.21-13.79,20.25-8.91,11.87c-1.52,2.03-5.55,5.04-8.02,7.11l-31.57,26.42-26.16,16.08c-9.98,6.14-16.66,10.72-29.89,11.08-7.74.21-17.22,9.94-24.59,11.59l-38.11,8.55c-8.66,1.94-20.32,3.88-30.09,3.86ZM58.23,339.12l2.96,18.12,6.52,23.31,7.99,15.26c4.7,16.58,17.31,25.31,30.24,34.01,9.1,6.13,13.95,7.51,25.5,7.39l26.26-.28,2.57-18.69c-5.28-2.41-11.1-5.81-12.77-9.4-3.99-8.54,1.62-27.29,7.51-29,4.8-1.39,9.28-.87,15.57-.56,4.43-.58,13.12-4.91,17.06-7.81l23.22-17.09,23.61-14.51c6.98-4.29,14.69-6.51,22.84-8.92l20.4-6.02,3.63-17.81,5.72-33.87c1.29-24.79-11.42-48.95-29.41-65.05l-49.38-2.75c-5.91-4.41-12.38-9.21-17.21-14.59-9.3-10.36-20.87-17.96-32.11-25.9-12.17-8.59-24.4-11.12-39.25-8.63l-15.45,2.59c6.13,18.13,11.62,32.65,22.52,46.25,11.08,13.82,21.18,29.94,37,38.7l32.55,10.18-4.95,4.92c-.66.66.06,2.7.42,4.96-23.93-2.28-46.9-7.93-59.44-28.4-2.39-3.9-7.42-7.39-10.42-5.61-4.07,2.41-5.53,6.59-6.7,10.78-3.48,12.44-1.88,20.73,1.34,31.55l8.97,30.05c1.53,5.13-3.13,14.62-7.17,12.34-11.59-9.84-11.71-24.69-15.88-37.76l-14.24-21.05-12.3-16.5c-4.72-6.34-13.38-14.58-19.35-19.53l-45.18-14.39c-1.07,7.93-1.18,16.69,0,24.73l2.78,18.92,17.99,36.55,9.9,18.19c3.1,5.69,6.2,8.41,14.03,8.3l2.11,27.04ZM310.47,217.51c-8.9,1.03-13.54,3.06-18.42,6.89-.19,3.44,2.54,8.73,5.4,12.14l13.01-19.03ZM456.46,401.37c5.31,4.69,11.75,8.49,15.22,14.89,9.42,17.37,16.86,37.25,14.27,56.48-4.12,3.73-6.53,7.42-9.33,11.93-17.04,27.35-54.24,46.58-86.37,53.68-31.29,6.92-63.49,11.08-95.5,8.83l-47.01-7.95-22-4.69-36.41-9.98c-8.86-2.43-15.11-6.63-22.74-11.14l-23.77-14.07-19.59-16.69-20.59-21.6-11.52-14.3c-5.02-6.23-9.36-10.51-16.93-10.43-1.11-3.32-3.12-6.98-5.13-7.23-8.35-1.07-1.74,14.03-9.04,21.5l9.9,37.74c3.48,13.28,13.47,26.52,22.78,36.68,20.36,22.23,47.65,35.51,76.85,41.13l75.38,14.5,15.84,1.79,35.64,4.94,13.47-1.28c23.75-.17,45.64-1.33,68.79-5.49,13.5-2.43,25.26-9.27,37.81-13.78l33.08-11.87,16.26-9.24,22.44-15.88c9.36-6.62,15.41-16.94,21.72-26.22l9.73-14.3c2.36-3.47,10.57-7.6,12.05-11.26l10.41-25.8,12.84-46.74.18-18.87c.39-41.29,1.75-65.41-34.71-97.14-11.84-11.12-26.09-16.86-42.36-15.57-11.43-5.85-23.38-8.48-35.94-8.67l-24.13-.97c-12.91-.52-22.35-4.51-33.32-11.39l-16.89-6.5-18.38-14.13c-6.99-5.38-14.69-9.33-22.53-12.88l-23.32,34.27c-3.11,4.57-6.05,12.43-2.36,16.21l26.08.02c2.32,0,7.01,3.89,7.64,5.87s-1.45,6.7-2.77,7.5l-33.74,2.54-2.96,18.62c21.61.88,65.3,10.35,63.65,16.95l-2.15,8.57-24.91-5.73-49.88,12.21c-12.22,2.99-25.8,6.91-36.27,12.88l-21.76,12.42-24.37,16.19c-21.35,14.18-28.33,10.51-34.63,14.26-4.12,2.46-6.26,9.47-4.95,13.87,3.7-3.86,12.83-8.05,15.48-1.28,2.79,7.14-2.9,17.22-5.55,24.72,4.09-3.34,8.46-6.21,11.7-4.57,5.03,2.54,6.78,6.54,6.93,13.31,1.36-.57,5.21-2.88,6.33-4.34s-.13-5.89-.96-7.82l-6.29-14.6c6.05-1.05,12.28-.55,17.73.11,6.51-4.54,14.19-9.94,22.08-11.94l70.54-17.89,15.66-2.26c47.12-6.78,53.27-28.9,60.32-25.73,2.53,1.13,5.45,5.44,7.47,9.19-9.89,17.29-29.42,26.18-50.22,27.99l-26.24,2.28-29.49,8.19,4.2,5.13c.88,1.08,4.32.83,5.92.71l14.71-1.08c2.3-.17,6.43,1.37,7.61,3.11l7.78,11.53c1.78,3.85-3.59,12.39-7.78,15.49,5.83,6.27,4.67,12.65.5,20.42l-10.91,20.3-40.04,8.44-20.59,7.86c-16.6,6.34-33.01,8.91-51.93,9.24l18.32,7.33,40.95,10.63,23.8,5c-4.31-10.64,1.74-21.35,9.89-27.48,7.11-5.35,14.24-9.98,22.67-.65l.92-12.91c8.58.97,10.51-3.67,17.12-5.95l34.26-11.85c-4.97-13.08-1.62-23.73,2.08-35.43,12.3-38.92,71.96-55.73,101.25-29.87ZM294.17,314.75l-2.8,4.68,6.07,3.63,2.8-4.68-6.07-3.63ZM280.79,516.61c8.67,2.2,15.69,6.79,24.57,12.93l31.95-.39,18.45-2.19,29.79-4.45c4.01-.6,11.4-2.81,15.13-4.29l20.23-8.02c21.43-8.5,40.09-24.36,51.7-44.56l-6.19-24.78c-2.91-11.64-11.32-23.46-20.77-30.53-21.59-16.16-52.91-.93-74.12,16.68l-4.49,11.71c-5.19,13.53-7.91,28.04,3.81,39.61l-33.78,8.36-16.62,4.67,1.06,12.68-10.83-2.35-1.43,10.32-6.11-3.47c-1.11-.63-4.28,3.48-5.5,3.32l-9.78-1.27c-2.13-.28-5.23,4.16-7.06,6ZM223.13,433.04c6.75-14.39,31.19-9.18,35.54-27.72l-21.83,5.63-28.43,17.03-.04,15.71c7.85.92,11.17-3.01,14.76-10.66ZM155.75,487.2c10.37,3.45,23.15.07,33-.37,26.6-1.19,49.58-11.02,73.67-19.95,8.06-2.99,14.76-2.87,22.23-8.32l14.05-10.26-15.29-4.75c-2.7-.84-3.68-8.35-2.99-11.14l22.44-11.18c-7.32-3.82-13.83,1.43-20.51,4.65-3.69-4.42-11.7-10.19-16.92-6.85-.32,4.34-1.68,12.78-5.07,15.11-1.61,1.11-7.42-2.52-9.54-4.4l-17.65,8.6c3.47,6.15,4.84,9.64,3.99,14.47l-25.73,6.57-27.07,3.58-54.62-1.11,8.92,12.67,17.08,12.67ZM178.17,445.99l-17.95-5.52c-.18.81-.36,4.89.9,5.09l6.65,1.05c4.05.64,10.66.64,10.41-.62Z"/>
  <path class="cls-1" d="M427.91,109.18l-22.97-14.41-24.78-14.93-17.15-13.4c-2.09-1.63-5.57-6.86-5.15-9.47s4.6-6.29,7.36-7.86l35.36-20.13-34.66-18.86c-1.03-.56-3.15-2.73-3.9-3.57-1.03-1.15,1.73-6.82,3.42-6.54,13.92,2.34,41,18.32,53.73,29.58.38,9.14-8.72,10.25-14.54,12.56-10.65,4.21-18.85,9.43-29.16,16.15,5.41,5.25,10.45,9.88,16.52,13.48l25.21,14.95c7.53,4.46,16.37,9.11,10.72,22.46Z"/>
  <path class="cls-1" d="M298.89,107.3c-3.21.06-9.81-3.92-9.6-6.7.24-3.1,3.45-7.22,5.22-10.34l19.2-33.76-27.46,6.99c-2.03.52-6.26-.52-7.57-1.52-1.63-1.25-.49-7.47,1.59-7.99l39.12-9.82c2.06-.52,7.37,2.07,8.1,3.88s.12,6.39-.82,8.13l-20.01,37.15c15.54,0,29.17.7,40.75,6.77.15,2.42-1.67,7.3-3.61,7.19l-10.52-.58-34.39.62Z"/>
  <path class="cls-1" d="M276.79,148.82l-34.89,2.87c-2.67.22-8.4-1.77-10.21-3.86,1.98-6.57,6.23-12.86,10.27-17.95l8.84-11.15c3.83-4.83,7.33-8.2,9.43-12.56l-8.04.19c-1.19.03-1.1,1.14-2.14,4.28l-15.29-6.13,33.54-1.42c1.28,19.56-15.65,23.01-18.82,36.02l27.17,1.2c1.33.06,4.6,3.82,5.1,5.08s-3.06,3.28-4.95,3.43Z"/>
  <path class="cls-1" d="M448.08,142.15c14.09-6.54,9.82-21.81,15.22-24.55,1.76-.89,5.79,2.42,6.39,4.41,2.71,9.03.44,15.98-5.6,21.45-17.93,16.28-43.25,8.27-43.2,1.65.15-20.63,20.91-39.49,31.51-36.98,2.61.62,6.64,4.13,7.78,6.36-15.23-2.39-25.18,9.5-31.16,21.91l-5.54,4.15c-3.39,2.54,8.41,9.1,24.6,1.59Z"/>
  <path class="cls-1" d="M363.23,125.41l5.22,14.57c-8.1,7.97-18.55,7.47-28.61,1.22-5.08-3.15-3.66-10.44.17-15.17l3.53-4.37c.98-1.21,6.06.48,5.88,2.04l-.79,7.17c-.21,1.95.84,6,2.49,7s5.19-1.98,6.28-3.63l5.82-8.83Z"/>
  <path class="cls-1" d="M284.03,171.54c-3.16-.95-8.45-5.16-10.16-9.12,8.53,5.06,18.03,3.87,24.3-3.82l-3.98-4.1c-.74-.76,1.64-4.45,2.69-4.42,2.76.07,6.57,5.82,6.77,9.26-5.26,5.47-12.1,9.85-19.63,12.2Z"/>
  <path class="cls-1" d="M203.03,283.86l-10.61,18.53c-1.3,2.27-3.56,6.02-5.22,7.21s-7.29-4.13-7.95-6.2c-3.19-10.04,4.8-23.3,12.5-31.84,16.25-18.03,45.07-23.64,51.6-14.35,1.43,2.04,1.71,7.48.25,9.85-16.89-1.68-32.2,2.19-40.57,16.8Z"/>
  <path class="cls-1" d="M129.29,339.79c-21.59,3.98-23.83,31.08-33.9,39.12l-6.39-16.99c4.97-17.33,15.83-28.17,31.98-35.96,11.77-5.68,37.12-2.61,34.93,8.92l-26.63,4.91Z"/>
  <path class="cls-1" d="M205.39,351.72c-6.41,9.25-31.24,14.98-30.06,4.84,1.11-9.6,17.8-5.06,24.68-23.51.93-2.49,6.27-5.36,8.88-4.86,2.97.57,6.85,8.59,5.06,11.17l-8.56,12.35Z"/>
  <path class="cls-1" d="M127.72,384.49c1.36,1.03.79,9.82-.84,9.42l-7.49-1.86c-4.67-1.16-7.15-6.65-4.38-12.85,3.1.71,10.09,3.31,12.71,5.29Z"/>
  <path class="cls-1" d="M109.97,423.82l-11.89-5.82c-.9-1.87,1.67-9.85,3.82-9.25l8.5,2.36c2.14.59,1.5,5.88-.43,12.71Z"/>
  <path class="cls-1" d="M242.63,305.26c-6.12-.13-11.74-5.9-10.07-11.73,1.76-1.22,8.79.22,11.18,1.81,2.23,1.49.68,8.62-1.11,9.92Z"/>
  <path class="cls-1" d="M141.09,403.92c-4.47-1.83-7.84-3.42-9-5.43-1.38-2.39,2.18-10.19,4.28-8.51l6.75,5.48c1.35,1.1-1.01,6.22-2.02,8.46Z"/>
  <path class="cls-1" d="M272.19,301.24c-3.81,5.77-7.99,5.27-10.63,1.92-2.07-2.63-3.24-6.52-2.12-10.54,4.88.71,11.82,5.05,12.75,8.62Z"/>
  <path class="cls-1" d="M236.57,328.42l-8.6-8.92c.3-1.34,4.75-6.3,6.2-4.96l6.56,6.04c1.71,1.58-2.45,6.88-4.17,7.85Z"/>
</svg>