<?xml version="1.0" encoding="UTF-8"?>
<svg id="Layer_1" data-name="Layer 1" xmlns="http://www.w3.org/2000/svg" viewBox="0 0 533.18 904.92">
  <defs>
    <style>
      .cls-1 {
        stroke: #5a8a1f;
        stroke-miterlimit: 10;
      }

      .cls-1, .cls-2 {
        fill: #5a8a1f;
      }
    </style>
  </defs>
  <path class="cls-2" d="M77.77,583.99c13.28,9.31,27.13,16.64,41.87,24.42,5.71,3.01,15.13,7.9,17,13.73l-2.53,27.96-6.34,39.76-4.99,28.44-30.24,133.98c3.08-.11,6.16-.24,9.23-.4,58.83-3.05,116.93-14.33,175.81-16.66,37.65-1.49,75.16,1.58,112.69,4.23,14.84-57.6,27.05-108.72,27.74-116.59.25-2.86,4.59-7.48,6.69-9.51l4.42-21.57c4.77-9.22,9.15-19.13,8.26-29.42,6.92-7.49,10.31-18.01,10.8-29.43l4.55-13.86c3.67-11.19,2.98-20.12,2.72-32.05-.17-7.83,8.92-20.85,7.84-29.95l-4.54-38.14-.43-16.93-1.4-33.02-2.25-36.85c-.71-11.67-10.52-22.65-3.72-42.65,1.65-4.84-6.94-38.13-6.5-70.66l.42-30.79c.18-13.34,3.37-29.43-.85-42.2-2.44-7.4-2.59-11.9-3.76-19.38l-3.68-23.42-6.45-27.57-7.78-50.01c-.48-3.11,2.18-11.25-.75-13.2-7.5.66-15.21,5.78-18.54,12.47l4.33,17.41c1.19,3.62,1.81,5.62.18,1.25-3.51-3.09-8.14-6.49-11.18-6.38-2.52.09-5.63,3.98-8.56,6.44-5.24,4.38-15,.96-19.79-3.59l-8.62-.6-4.42,11.03-3.14-19.91c-30.8-9.09-29.76-30.58-32.96-62.09-3.09-2.07-10.88-1.63-14.68,1.19-3.6,20.51-.49,42.53,15.03,57.12,3.47,3.26,11.92,6.81,14.99,10.71,4.62,5.88-3.41,17.87,5.53,25.84-2.91,4.31-3.2,10.51-1.99,16.19l3.94,18.5,1.02,17.2,1.7,25.54,1.58,18.48.49,25.41c.23,12.05.28,22.98,3.14,34.23l.25,17,3.85,57.51c-10.56-9.26-16.48-14.23-25.89-19.57-.44-8.44,1-22.46-3.1-29.95l-13-23.72-12.13-17.58c-6.96-10.09-14.17-19.44-25.63-23.91l-10.52,10.09-4.88-48.04c-1.59-15.61-4.51-29.14-5.82-44.71l-1.77-20.89,6.48-7.18c-4.08-5.31-10.11-9.11-16.55-7.12-6.08,1.88-11.31,6-12.98,13.4l-20.73.43-1.15,10.34-9.11-1.82c-1.92-.38-3.09-5.68-4.18-8.75l-11.1,7.94-.85-11.42c-.16-2.1-5.98-4.44-7.96-3.71-4.3,1.58-10.84,7.46-15.47,11.37-8.35-3.66-14.96-11.26-17.77-20.08l-6.56-20.62-4.76-19.62,23.48,8.16c5.08,1.76,11.74-.73,13.86-5.2l-7.5-10.84c-3.16-16.72,5.07-28.16,16.76-38.29,7.46-6.47,18.07-12.64,26.77-3.57,13.99,14.58-6.72,37.49,7.6,40.07,11.91,2.14,21.61-8.45,23.32-18.92,5.57,1.52,14.14-1.33,19.27-6.62.14-3.91,3.43-7.97,6.56-10.16,4.9,9.21,22.13,6.88,23.83,18.37,4.35,29.36-12.53,44.39-29.61,65.25l8.46,5.45c3.86-2.98,9.57-8.47,12.92-12.4l9.44-11.09c13.79-16.19,21.41-39.07,11.46-59.63-9.74-20.12-46.62-13.08-69.22,2.82-6.88-4.73-.74-21.86-12.66-25.19-10.65-2.98-23.88-3.77-33.25-.09-21.81,8.56-36.47,26.39-40.2,47.81l-16.55,13.91-5.82,5.94c-1.33,1.36,1.69,5.19,4.13,7.53,5.15,4.94-5.88,12.6-1.44,16.81l5.01,4.74c-3.34,8.13-1.57,13.94,3.67,20.21,4.49,5.36,7.84,11.13,15.06,13.13,6.44,1.78,12.21,4.54,17.25,8.32-.29,16.68,5.54,30.65,6.87,46.05l4.45,51.6,3.11,44.82-7.72-14.86c-4.97-9.56-10.98-17.15-21.18-23.13l-15.39,5.56-19.4,36.51c-4.83,9.09-6.39,20.59-8.82,31.04-4.54,19.5-7.14,38.03-5.91,58.44.37,6.13-1.17,13.55-5.12,18.03-15.94,18.07-24.51,39.05-28.36,62.47-1.49,9.07-3.75,17.84-4.32,27.37-1,16.72,4.44,35.55,18.64,45.5ZM434.44,638.2c-2.23-4.82-1.44-9.69,2.77-12l-2.77,12ZM440.34,616.34c-1.3-1.54-.52-5.54,2.04-7.62,1.25.89.27,5.23-2.04,7.62ZM446.41,594.29c-2.02-6.11-1.01-11.36,2.75-16.17l-2.75,16.17ZM448.04,553.52l-1.3,16.92-3.71-.14,4.65-28.15c2.87,4.55,2.08,7.5.37,11.37ZM443.32,531.42v-15h4v15h-4ZM451.34,487.64l-2.95-.02-3.49-26.11,2.18-1.27,4.26,27.4ZM445.57,438.54l-1.04,20.08c-2.43-7.88-3.24-14.99-3.44-24.34.21-.06,4.52,3.56,4.48,4.26ZM440.34,412.9l-9.75-10.54c-.78-11.79-1.64-23.09,3.47-34.82l1.39,19c.66,9.02,1.67,14.51,4.9,26.37ZM435,328.31l2.52,23.41-3.32,3.23-1.21-25.53,2.01-1.1ZM431.32,284.42v19h-2v-19h2ZM424.73,204.4l1.01,10.83c2.06,10.48,5.76,19.64,3.06,29.97l-7.66-40.68,3.59-.13ZM407.19,720.3l-3.06,10.07c-1.56-3.43-.91-7.73,3.06-10.07ZM403.91,265.18c-3.59-6.82-5.6-9.67-11.45-16.07,7.79.15,15.38,7.13,11.45,16.07ZM281.84,672.74l-.68-15.33,1.77-1.02.57,12.96-1.66,3.39ZM384.45,489.77l-2.74-18.49c6.01,5.03,7.93,11.47,2.74,18.49ZM373.67,407.17l3.78,33.53-4.92-11.63c-2.92-6.91-6.58-15.34,1.13-21.9ZM371.91,457.78l-2.82,4.71-5.88-3.53,2.82-4.71,5.88,3.53ZM364.17,244.99l-1.55,43.05c-.79-3.98-3.25-13.23-2.82-17.65,2.99-30.23,1.32-57.66-2.14-88.79,10,20.2,7.28,41.97,6.51,63.39ZM355.86,166.22c2.31,3.72,3.32,7.41,2.92,12.41-2.29-3.73-3.29-7.4-2.92-12.41ZM250.93,318.86c-2.32-4.97-3.44-8.87-4.24-13.26l2.26-1.19,1.98,14.45ZM246.11,292.08l1.54,11.29-1.94,1.02.39-12.3ZM248.05,368.15l5.64,1.29-8.69,3.31c.94-2.98,1.84-4.87,3.05-4.6ZM239.98,179.22l.52,13.08c-3.79-2.23-5.26-8.57-.52-13.08ZM237.34,196.97c3.25,16.1-4.02,28.46,4.54,43.24l-7.52-1.85c-.98-.24-.1-26.73,2.98-41.39ZM191.9,354.53l-2.47-16.31c5.57,3.8,4.93,10.88,2.47,16.31ZM174.54,199.86c-6.69-.73-8.04-.82-12.2-1.88l14.66-4.19-2.46,6.07ZM75.25,523.04l5-23.54,7.96-22.25c4.13-11.53,16.12-29.8,27.98-34.8,2.41-8.88,1.29-21.72,1.45-32.08.37-23.29,7.72-45.02,14.99-66.65,2.58-7.68,6.21-14.02,11.6-20.25,9.29,13.86,12.16,26.38,18.23,39.83,14.61,32.37,21.52,65.23,13.81,101.2-.67,3.15,2.3,11.97,5.3,11.45,3.32-.57,8.74-4.28,10.91-6.56l4.01-21.62c2.4-12.91.75-26.04.68-39.61l33.74-20.33,25.12-2.99c1.81,25.03,8.48,48.67,23.4,69.82l12.23-4.74-5.42-14.52c-6.23-16.67-12.3-32.55-13.29-50.49l-1.02-18.46-1.64-28.18c-.62-10.66,3.91-21.08,7.2-33.33l20.6,28.84c18.66,26.12,6.74,46.25,16.69,51.03,10.16,4.88,17.54,13.07,23.53,22.69,11.68,18.75,20.92,37.66,23.45,60.34.98,8.78,4.39,19.84,3.95,28.48-.92,18.33-7.06,36.76-15.66,52.13-1.17,2.1-6.95,7.67-4.96,8.83l9.63,5.62c-.04,2.3-2.45,10.93-5.01,13.52l-10.26,10.36c.72-6.3,1.2-11.04-1.22-15.69l-13.05,8.36.98,27.99c-.59.54-4.22.38-4.31-.77l-.5-6.03-.24-6.94c-.05-1.34-5.01-1.81-6.64-1.22-4.74,1.71-7.2,10.23-7.72,16.13-1.24,3.4-12.1,3.91-13.07.42l-2.64-9.57c-.55-1.99-8.04-1.56-9.46.17-3.95,4.83-.85,16.29-.84,22.65v27.82c-9.6-5.31-.52-18.72-11.51-23.08-1.95-.77-3.82,4.89-4.56,7.45-3.71-2.26-7.99-4.99-10.88-5.87-11.04-3.36-6.87,17.46-11.55,31.75l-15.07-3.97c.52-3.57-1.05-12.03-3.97-11.95-7.88.19-11.42,11.79-7.83,20.89-3.2.63-8.51-1.73-8.67-4.3l-.82-12.8c-.14-2.17-2.03-6.84-3.81-7.84-6.98-3.93-5.44,11.4-11.71,12.75-2.04.44-6.42-3.27-6.42-5.72l-.07-24.85-6.19,1.47c-1.47.35-1.66,3.68-1.72,7.06-.16,9.72-8.62,3.33-16.52,8.93l-.8-12.65c-4.72-3.46-5.77-8.96-5.24-14.84-19.31-16.98-45.4-24.43-66.23-38.05-15.85-10.37-15.11-36.44-11.93-51.41Z"/>
  <path class="cls-2" d="M403.55,120.07l16.46-10.28-3.42-6.52c-.85-1.62,3.22-4.87,4.86-5.58l-2.89-16.51-14.69-7.52-7.32-4.06-4.5-28.39,18.25-2.19-2.92,17.78-3.02,9.37c15.34-2.62,29.99,7.34,30.38,23.56l-5.23,18.15c-4.94,3.91-8.59,7.12-11.65,10.94l-6.56,8.17-7.75-6.92Z"/>
  <path class="cls-2" d="M324.33,57.66c-1.16-3.81-2.14-7.97-2.71-12.49-.63-4.93-14.9-5.15-15.6-.41l.83,13.71c.75.59,1.33,1.41,1.62,2.49.26.96.18,2.05-.17,3.05.48.23.94.54,1.37.97,1.2,1.2,1.74,3.27,1.3,5,.14.49.2,1.04.16,1.65-.15,2.93.39,5.92,1.57,8.62,5.04,4.69,10.99,7.06,16.98,6.28,8.67-1.14,1.06-9.99-4.34-25.72-.64-.91-1.02-2-1.01-3.14Z"/>
  <path class="cls-2" d="M297.42,76.8c-.77-.58-1.38-1.43-1.71-2.61-.33-1.19-.59-2.48-.74-3.79l-4.93,1.57,7.29,7.65.35-.79c-.18-.51-.3-1.05-.29-1.61,0-.14.01-.28.02-.42Z"/>
  <path class="cls-2" d="M332.89,42.98c3.82-.09,6.18,1.3,8.52,3.34l68.9-7.31c-9.74-20.12-25.79-27.17-48.39-11.27-6.88-4.73-.74-21.86-12.66-25.19-10.65-2.98-23.88-3.77-33.25-.09-21.81,8.56-14.65,27.08-18.38,48.5l30.27-3.21c-.02-2.65,2.49-4.72,5-4.78Z"/>
  <path class="cls-2" d="M343.51,48.28c.23.22.46.44.7.67,2.07,1.98,4.1,1.94,6.88,2.28,2.19.27,4.19.69,6.17,1.39,5.55-3.13,9.65-8.98,11.17-15.04l-24.92,10.7Z"/>
  <path class="cls-2" d="M294.86,69.16l-2.83,1.21-4.02,2.15c2.3.8,4.92.7,7.3-.04-.22-1.08-.38-2.2-.45-3.32Z"/>
  <path class="cls-2" d="M324.51,56.43c.19-.7.55-1.39,1.12-2.04,1.53-1.75,2.41-4.13,2.27-6.42-.17-2.76,2.42-4.94,5-5,3.27-.08,5.46.93,7.49,2.5,1.15-8.64,6.51-21.47-2.49-30.86-8.7-9.07-19.31-2.9-26.77,3.57-11.69,10.14-19.92,21.57-16.76,38.29l2.7,3.9c1.17-1.45,2.86-2.52,5.25-2.92,2.67-.45,5.37.67,6.15,3.49.2.74.2,1.55.03,2.35l16-6.87Z"/>
  <path class="cls-2" d="M368.81,35.77c-.1.6-.23,1.21-.38,1.81l3.3-1.42c-1.03-.03-2.02-.15-2.92-.39Z"/>
  <path class="cls-2" d="M388.07,29.14l-16.34,7.02c5.34.13,12.05-2.58,16.34-7.02Z"/>
  <ellipse class="cls-1" cx="250.96" cy="839.58" rx="245.94" ry="53.18"/>
  <path class="cls-2" d="M100.53,790.08c-29.06-6.68-60.49,1.66-82.44,21.88-10.44,9.62-22.24,25.17-16.65,40.22,5.28,14.21,21.55,16.75,34.61,19.01,19.11,3.31,38.07,7.46,56.81,12.44s36.37,11.67,55.52,13.05c39.12,2.83,78.62.6,117.8,1.64,21.67.58,43.26,1.98,64.78,4.64,19.1,2.36,38.88,4.29,56.56-4.96,5.7-2.98.65-11.62-5.05-8.63-14.29,7.48-30.9,6.03-46.38,4.21-17.09-2-34.12-3.76-51.31-4.58-35.59-1.71-71.23-.89-106.85-1.4-17.52-.25-34.96-.22-51.97-4.9s-33.9-9.87-51.14-13.86c-15.92-3.68-32.25-5.69-48.09-9.55-5.66-1.38-12.22-3.51-15.19-8.97-3.76-6.92.33-15.29,4.4-21.08,17.66-25.15,52.61-36.25,81.93-29.52,6.26,1.44,8.94-8.2,2.66-9.64h0Z"/>
  <path class="cls-2" d="M363.41,891.63c29.85,4.56,59.41-2.2,87.07-13.38,13.65-5.52,26.9-11.91,40.13-18.35,13.75-6.7,27.48-13.45,40.19-22,3.73-2.51,2.89-7.62-1.19-9.14-21.94-8.17-43.78-16.94-66.26-23.57-10.97-3.24-22.11-5.86-33.44-7.43-9.98-1.38-22.64.12-31.32-5.69l-3.85,9.14c26.03,3.75,52.17,10.81,75.9,22.3,4.96,2.4,9.84,5.1,14.28,8.37,2.37,1.75,4.6,3.69,6.65,5.81,1.23,1.27,4.84,4.4,4.95,6.25.09,1.56-2.78,4.66-3.74,5.91-1.79,2.33-3.8,4.49-5.93,6.51-4.3,4.08-9.2,7.27-14.51,9.88l6.06.78c-.87-1.06-1.74-2.13-2.61-3.19-4.07-4.99-11.11,2.12-7.07,7.07.87,1.06,1.74,2.13,2.61,3.19,1.46,1.79,4.2,1.7,6.06.78,6.05-2.98,11.62-6.81,16.53-11.44,4.46-4.21,9.59-9.72,11.84-15.51,2.46-6.33-1.97-11.67-6.06-16.17-4.29-4.73-9.53-8.67-14.97-11.98-12.36-7.53-26.43-12.75-40.13-17.23-15.39-5.04-31.19-8.66-47.21-10.97-5.46-.79-8.82,5.8-3.85,9.14,8.74,5.86,19.48,5.19,29.52,6.22,12.15,1.25,24.13,4.01,35.85,7.39,23.11,6.67,45.52,15.71,68.04,24.09-.4-3.05-.8-6.09-1.19-9.14-11.93,8.03-24.77,14.47-37.67,20.77-12.72,6.21-25.44,12.48-38.54,17.87-26.27,10.8-54.93,18.44-83.48,14.08-6.3-.96-9.01,8.67-2.66,9.64h0Z"/>
</svg>