<?xml version="1.0" encoding="UTF-8"?>
<svg id="Layer_1" data-name="Layer 1" xmlns="http://www.w3.org/2000/svg" viewBox="0 0 980.68 752.88">
  <defs>
    <style>
      .cls-1 {
        fill: #5a8a1f;
      }
    </style>
  </defs>
  <g id="kunxRi">
    <g>
      <path class="cls-1" d="M737.65,415.69l3.92-8.21c1.92,3.89.97,7.48-3.92,8.21Z"/>
      <rect class="cls-1" x="275.26" y="455.26" width="11.44" height="1.35"/>
      <polygon class="cls-1" points="148.99 577.82 148.66 568.99 149.83 568.25 150.16 577.09 148.99 577.82"/>
      <path class="cls-1" d="M237.51,25.47l-6.5,1.83c.5-2.39,2.84-3.63,6.5-1.83Z"/>
      <path class="cls-1" d="M980.68,266.3c-1.74.26-4.1-2.29-3.8-5.03l3.8,5.03Z"/>
      <g>
        <g>
          <path class="cls-1" d="M771.67,505.38l-6.83-.62c2.12-3.94,5.12-8.48,5.82-11.9l2-9.84.7-2.83c.14-.55-1.73-1.2-1.96-.69l-1.23,2.71c-.42.93-2.39,2.34-3.76,2.7,1.83-5.8,6.19-8.29,2.71-14.72l-6.45,12.21c-.85,1.61-4.36,3.02-6.21,2.51-5.63-1.56,3.02-10.35-1.25-13.51l-8.88,10.21-1.56-1.71,3.88-5.77,2.14-16.4-17.24,24.76c-.08-1.52.3-2.52,1.8-5.66-3.38-1.94-7.34-2.23-14.05-1.83l7.28-13.29,10.36-21.82c2.96-6.23,6.48-10.75,9.22-16.79l4.09-9.05,10.05-19.59c3.09-6.03,8.65-11.98,10.84-17.99,1.26-3.46,1.77-5.87,3.79-9.13l9.32-15.09,4.11-8.68-8.97.42-46.27,3.32-61.49.81-15.35-1.16c-2.09-.16-5.01-3.6-4.83-5.58l14.77-2.89-7.84-1.65-10.13-4.57,3.72-6.52-4.13-17.7c-2.24-6.1-2.53-11.36.59-17.14-4-10.79-6.81-17.15-.33-22.94.5-.45.84-2.18.24-2.49-.8-.42-4.6-1.35-4.57-2.24l.55-18.66c.16-5.29-1.63-7.45,3.24-10.73l-4.21-2.99c6.12-7.93,14.21-2.01,16.27-8.53l32.88-2.04,17.93-.5c1.32-.04,3.57,3.01,2.71,3.32l-24.41,1.33c17.23,1.82,34.14,1.28,52.26-.56l-21.53-2.12c5.07-2.6,10.55-1.42,16.39-1.64l52.49-2-10.23-13.34-19.17-24-14.65-20.21-15.08-23.26c1.08-1.71,2.89-4.01,2.42-5.18l-3.05-7.6,9.34,8.87,10.52-4.88-3.64-4.75-1.93-3.08c-1.78-2.85,7.33,1.86,7.54,1.77l2.86-1.19-10.8-14.06c8.86-5.71,7.7,8.64,16.59,6.97,1.2-.99-1.98-4.94-3.47-5.49l1.62-2.42c.27-.4.38-.63-.08-.63h-4.04c-1.9-2.31-3.58-7.1-4.62-12.05,11.23.24,12.71,10.74,19.12,11.43,3.23.35,6.95.06,8.93-3.63l22.28,22.32,9.67,8.52,2.67,1.39c.63.33-.36-2.58-.86-3.04-1.53-1.39-4.64-3.18-3.77-7.25l8.9,6.9,2.53-1.72,18.4,19.18,1.78-3.09c.22-.39.88-2.06,1.13-1.69.38.55,1.85,2.68,2.45,3.24l16.15,14.99,6.62,8.38,9.68,10.84,15.56,16.4,9.33,11.07,7.25,10.39,15.78,18.79c2.96,3.52,6.18,13.82,18.18,19.85l.53,4.05c.14,1.1,3.55,1.05,4.69.95l4.82,7.68,1.2,1.91c.37.59-1.63,2.59-1.87,1.92l-1.48-4.17-1.3,7.75,9.09,5.79c5.52-.01,11.06.16,13.09,7.74l-7.79-4.1c-1.71.43-2.66,5.58-2.6,8.87l-4.44,11.85,10.69-.17c.99-.02,3.19,2.93,2.73,3.78l-2.87,5.41,6.03,9.85,3.62.93c.98.25.8,3.42.59,4.41s-3.44,2.08-3.8,1.2l-2.65-6.39-3.56,13.19c-4.01,14.84-10.42,29.28-17.86,42.8-1.49,2.71-3.39,3.15-2.39,6.99l-4.08,6.32c-1.41,4.47-3.25,8.56-5.47,11.82l-2.56-7.34c-.61-1.76-5.62-.02-6.5,1.54l-8.75,15.44-7.03,9.92-7.19,13.37c-3.27,6.09-6.99,9.72-12.82,13.33l-11,12.69c-4.33-.33-6.72.64-9.09,3.76l5.05,2.48-10.22,14.62-8.53,14.17-12.1,19.75-1.02-11.73-15.65,6.67.98-8.59-8.45,11.06c-.27.36-2.14,1.47-2.53,1.73s-.23-1.14-.02-1.54l.88-1.74c-1.53-9.74,8.73-15.7,5.29-23.14l-8.93,12.39-4.03-1.21,1.72-8.71-6.67,6.76c-.4.4-2.89.63-2.74.09l1.2-4.31c.88-3.16,2.97-7.54,3.04-10.3l-12.07,10.15.91-10.45c-5.17-3.43-8.18,10.29-15.94,13.22l-10.73,4.05ZM771.95,107.47c-.33.93,3.02,4.19,3.16,3.21l.4-2.98c.1-.73-3.31-.94-3.56-.24ZM677.72,223.33h-12.79v1.76h12.79v-1.76ZM941.94,265.02l-11.46-2.09c-1.17,1.51-2.58,6.98-2.34,7.79l13.8-5.7ZM856.77,449.09l1.4-2.42-2.78-5.28-1.62,1.22,3,6.47Z"/>
          <path class="cls-1" d="M746.71,176.71c-3.92-1.14-6.56-4.14-6.04-8.82,3.08,2.2,4.65,4.14,6.04,8.82Z"/>
          <path class="cls-1" d="M751.85,184.19c-1.74.26-4.1-2.29-3.8-5.03l3.8,5.03Z"/>
        </g>
        <g>
          <path class="cls-1" d="M134.75,730.15l-6.1-31.9c-2.82,7.34-1,14.18.42,21.14l1.68,8.23c.45,2.22.83,7.45-.5,9.22s-5.45,3.93-7.53,3.44c-2.26-2.93-4.51-7.45-5.91-10.31l-5.37,1.31c-1.25.3-1.85-2.65-4.06-4.92l-.41,12.65-3.87-.33c-.87-.07-1.76,4.02-2.62,4.2l-13.01,2.74-4.58,3.03c-3.55,2.35-12.69-8.63-18.83.5l-11.77-6.1-1.51,9.83-4.53-7.22c-.55.62-2.76,3.53-3.26,2.82l-2.73-3.94-1.39,7.81-6.88-9.17-1.55,8.44-6.99-10.38-4.7.75-4.99-18.31-1.56,7.99-2.85-7.63-2.71,7.72c-2.72-5.49-3.44-11.83.7-17.14l-2.99-22.62,1.96-11.3-.11-8.02-.67-42.2c-.06-3.68-6.38-8.98-2.63-13.22.76,0,2.38.04,2.49-.57l.58-3.19c.15-.81-3.48.27-3.64.36.35-4.13.41-7.04-1.54-11.17-.85-1.8.42-4.33.69-6.62,1.06-9.23.82-19.33-.16-28.63-.61-5.83.74-9.21,2.01-14.53,2.44-10.22.93-21.86,1.58-33.24.11-1.93-2.29-5.41-3.74-6.76,3.09-5.93,4.15-14.14-1.19-19.98l2.42-13.94c1.2-.7,4.44-2.9,4.53-4.25l1.32-20.45c.51-7.96,1.29-13.07,3.18-20.22,2.29-8.63,1.94-18.8,3.58-27.64l4.56-24.63c1.53-8.29,1.76-16.46,5.78-24.29,1.2-2.34,1.91-5.29,2.59-8.3,2.34-10.33,8.16-20.34,9.42-30.12s3.68-16.93,7.43-25.38l16.09-36.24c3.17-7.13,5.59-15.62,13.46-19.14l-.94-5.59c-.2-1.21,2.45-2.73,4.39-3.42-.81,7.79-4.81,13.62-7.41,20.86-1.86,5.18-.74,11.91-5.13,16.5.67,1.51,1.34,2.99,1.1,2.47l9.3-18.7,9.61-17.33,27.73-46.23,29.96-44.16,26.14-34.39,16.6-19.91c2.16-2.59,7.42-3.1,8.02-8.52.24-2.1,4.46-3.27,5.96-4.33l5.41-3.83,2.88-5.95c.75-1.55,4.6-1.34,6.6-1.32l10.37-7.82c.72-.54,2.76-3.02,1.95-3.15l-5.43-.87c4.06-2.82,9.63-7.87,14.71-10.1l12.55-5.51c5.4-2.37,12.89-3.07,16.83,2.03-4.45,2.7-7.61,6.23-6.09,11.1l13.18,1.54-6.41,5,11.43-.71-.8,2.98c-.17.64,2.49.21,3.15.03l2.57-.7c1.02-.28,1.19,5.91,2.07,5.97.94.06,3.29-.21,4.34-.7l11.83-5.56c3.7-7.05,9.87-11.5,16.92-15.51l15.42-8.78,5.05-9.31c.72-2.26,1.69-5.57,2.99-7.32l4.09-5.53c.97-1.31,5.85-.8,7.34-.11l10.61,4.9c.31-.16,2.33-3.45,1.91-4.59l-2.18-5.77c7.03,3.54,13.7,7.51,19.39,12.38l19.01,16.26c3.31,2.83,6.54,7,9.78,11.02,2.07,2.57,7.4,4.73,10.6,7.74l12.35,11.63,19.05,17.3,30.42,35.44,7.86,11.42c1.88,2.73,7.54,6,8.25,9.86,1.19,6.47,5.54,9.55,8.36,14.81l11.71,21.89,11.76,25.23c1.61-2.81.6-3.77-.48-6.66l-7.39-19.89c-1.53-4.12-5.81-7.47-2.47-13.48l11.97,26.04c7.4,16.1,11.11,33.9,14,51.56l4.34,26.54,3.01,22.77,3.15,30.54,3.01,26.58,9.65,60.52c2.86,17.96,2.85,35.47,2.31,53.12l-.44,14.58c-.22,7.14,1.32,15.02,2.76,22.52l10.3,10.33,10.97,11-5.04.6c-.47.06-1.2,1.09-.84,1.42l2.91,2.63.47,10.66c-1.22,3.74-1,4.88-1.25,10.08l-3.24-8.38-8.89,3.97c3.98,3.97,7.72,6.19,12.84,8.78l2.15,1.08c.63.32-.14,2.88-.82,2.69l-2.97-.86-10.76-3.1c3.7,13.19,6.11,26.39,5.34,40.64-.24,4.47.54,8.23,2.25,12.2l1.69-6.18c-1.28-2.11-.29-1.9,1.28-.54l1.16,28.7-.06,21.62-3.23-13.56c-1.78,8.47-2.31,21.69,2.94,26.67l-3.69,12.72-2.82-8.33-1.85,13.51-1.88,8.26c-.43.12-2.26.22-2.09-.21l.95-2.42-4.64-11.03-2.27,1.31c-.79.46-2.57-.97-4.56-2.14l-3.93,6.84-7.26-6.8-2.26,7.73-.94-5.25c-.21-1.15-1.82-.57-3.81.06l-2.97-8.99-2.32,10.49c-.25,1.13-3.73,2.53-4.6,1.73-1.1-1-2.29-3.58-2.59-5.11l-.76-3.87c-.15-.78-4.18-1.04-4.61-.38l-6.99,10.76-8.97-4.83-10.01,3.19-1.47,2.75c-.25.47-1.67-.27-1.83-.78l-.93-3c-.3-.97-3.16-1.16-4.14-1.55-1.22-.49-1.63-3.03-2.08-6.17l-1.58.25c-.27,5.38-4.01,7.76-7.47,8.3l-2.54-5.45-1.39,8.2c-.16.93-3.19,2.83-3.32,1.89l-.65-4.48-.75-5.15c-.16-1.1-4.34.26-4.32,1.21l-.38,15.12c-1.37-2.89-4.26-7.28-4.51-9.51l-2.31-20.6-2.21,1.88c1.09,3.69.7,6.33-1.21,7.93.11-9.5.13-16.8-2.54-25.16l-2.82,16.17-1.79-31.59-.8-26.43-2.74.72.67,17.64.52,17.38-.09,22.19c-6.38-9.17-4.63-18.78-4.92-28.96l-.86-30.18c-.11-3.81.58-7.88,1.47-10.68-2.6-4.93-3.5-10.54-3.49-17.2l2.85-11.83,1.72-24.21-.32-21.58c-.02-1.61-1.5-5.08-1.18-6.7.84-4.25-.3-8.66-2.63-11.92,3.75-8.68.37-16.01-2.61-24.24-1.96-5.4-2.26-13.24-3.19-19.31l-1.33-8.72c-.11-.73.24-3.08.31-3.8s-2.58-1.37-3.34-1.3l-17.47,1.71-7.95.94-20.28,1.82c-9.04,3-17.21,5.72-26.52,5.15l4.73-3.53-36.01,1.98-32.43,3.19-31.22,3.54-18.44,2.97-38.3,7.32-28.18,6.88-20.63,7.2c-.96-2.06-1.8-8.42.1-9.37,2.82-1.4,6.44-2.19,9.91-3.1l-14.11-1.79-.65,8.01c-.25,3.13-.26,4.89-2.75,6.82l-.65-14.5c-.04-.94-3.04-1.54-3.14-.69l-.59,4.78-3.09,25.16-1.4,14.92c-.96,10.27-4.26,16.28-5.06,28.02l-1.01,14.86-.48,31.81,1.83,23.49c.09,1.11,3.87,4.3,2.93,4.73l-4.64,2.09-4.52-13.07-.65,13.52,1.19,17.49c-1.26.87-3.58,2.09-3.28,3.08l1.45,4.68c.93-3.85,2.63-3.57,2.86-.13l-3.72,1.69c-1.03.47-.87,2.98-.81,4.72l.98,29.75c.53,16.03.84,31.04,3.01,47.05.52,3.81-.04,8.65-.85,11.42l.04.36,2.44-1.59v12.72s-3.53-5.22-3.53-5.22c-.29-.43-1.49-1.86-1.24-2.32l1.39-2.53-1.57-.4ZM203.06,104.77c4.23-3.77,1.67-6.75-.4-8.93l.4,8.93ZM237.42,110.56c3.36-3.9,4.11-6.84,1.62-10.24l-4.62,10.44c.14.29,1.14.23,3-.19ZM233.3,112.27c-.75-3.27-2.99-6.38-4.15-5.78l-6.38,3.29,10.53,2.49ZM248.91,114.05c0-1.36-1.1-2.46-2.46-2.46s-2.46,1.1-2.46,2.46,1.1,2.46,2.46,2.46,2.46-1.1,2.46-2.46ZM275.66,123.69c1.06-6.41-5.46-6.85-6.37-3.2l6.37,3.2ZM256.87,123.17c0-1.67-1.36-3.03-3.03-3.03s-3.03,1.36-3.03,3.03,1.36,3.03,3.03,3.03,3.03-1.36,3.03-3.03ZM268.16,124.34l-11.25.58c1.24,3.94,4.13,5.5,7.17,5.74,1.98.16,5.16-3.85,4.08-6.32ZM282.1,128.96c-.07.91,3.21,4.2,3.12,3.25l-.22-2.43c-.06-.68-2.85-1.5-2.9-.82ZM292.41,137.32c-4.6-2.69-11.86-2.91-14.79.7-.91,1.12.55,5.12,1.87,4.56,1.5-.63,3.92-2.97,4.42-2.19l2.35,3.6,6.14-6.67ZM254.01,141.78c-.71-.24-2.65,3.48-1.91,3.45l3.12-.15c.75-.04,1.91-2.26,1.2-2.49l-2.42-.8ZM295.28,147.66c0-1.13-.92-2.04-2.04-2.04s-2.04.92-2.04,2.04.92,2.04,2.04,2.04,2.04-.92,2.04-2.04ZM288.41,151.75l-3.41,1.4,2.02,4.94,3.41-1.4-2.02-4.94ZM270.48,325.54l7.93-2.86-6.29-1.91,59.74-5.77,29.57-1.62,24.39-1.36,32.82-2.59c1.18-.09,4.02-1.87,4.34-2.3l-4.96-15.18-13.69-33.2-7.28-14.9c-2.03-4.16-6.43-9.82-9.52-13.85l-9.45-12.31-12.85-15.4-14.56-16.44-10.27-12.54c-3.04-3.71-6.06-4.75-9.98-7.59l-10.88-7.86c-1.82-1.31-4.56-3.26-7.12-3.02-1.74.16-2.79,2.9-4.48,4.73l-9.68,10.57-9.53,10.49-21.6,25.64-12.38,17.28c-8.31,11.6-17.38,23.26-24.08,35.88l-12.71,23.94-14.52,26.9-7.74,16.62-2.81,6.91,15.06-2.65,24.2-4.05,13.28-2.94c7.14-1.58,13.37-.6,19.77,2.51l-13.08,4.85c9.06,4.73,16.92.57,25.88-1.33l16.4-3.48c-7.45-2.6-14.58,3.24-23.92-1.16ZM429.01,288.04l-3.48-6.63c-1.78,2.65-.8,6.62,3.48,6.63ZM385.24,321.43l35.94-3.68c1.03-.11,3.08-1.51,3.67-1.99s-2.27-1.63-3.2-1.55l-26.65,2.36-28.79,1.34c-.5.68-.95,3.98-.13,4.11l4.61.73,14.54-1.32ZM344.19,323c-8.53-2.45-16.01-.3-24.39-.17-4.03.06-9.3-1.32-11.08,4.16,12.85-.77,23.6-.69,35.47-3.98ZM425.77,333.83l-1.26,4.29,3.41,1,1.26-4.29-3.41-1ZM589.16,627.49c1.18-4.12,1.28-6.68.25-9.56l-.25,9.56Z"/>
          <path class="cls-1" d="M441.47,60.99c-.77.49-3.12,1.57-3.53.74l-2.13-4.3-32.49-26.35c-.74-4.89-4.4-4.96-7.29-7.36L367.52,0c10.16,1.95,16.57,9,23.58,14.9l25.61,21.55,20.04,17.71,5.95,5.4.4,1.08,3.35,2.06c.77.47,1.12.64,1.25.79l16.89,19.09,7.74,8.73,11.24,13.14,14.53,19.81.66.74c3.61,3.54,6.96,8.5,9.99,13.67l9.38,16.02,1.82,3.79c.4.82-3.58,2.35-4.03,1.59l-8.29-17.43-2.87-.38c-.83-.11-1.98-2.06-2.45-3.07l-5.75-12.42-.25-1.35-9.74-12.13-7.5-8.61-7.84-7.98-13.17-14.15c-4.96-5.33-9.37-11.96-12.38-17.99-.1-.19-.25-.53-.21-.45l-3.69.4c-.89.1-.59-2.73-.24-2.92l-.09-.61Z"/>
          <path class="cls-1" d="M143.27,127.22c3.82-6.9,8.59-13.38,14.56-19.59-.3,7.82-4.93,17.12-14.56,19.59Z"/>
          <path class="cls-1" d="M377.34,450l-17.29-.56c4.85-1.87,11.97-3.21,17.26-2.34l3.08.51c.44.07-2.61,2.41-3.05,2.39Z"/>
          <path class="cls-1" d="M357.85,450.73l-14.05-1.34c4.22-1.2,9.3-2.26,14.05,1.34Z"/>
          <polygon class="cls-1" points="395.27 446.84 384.95 447.3 384.26 446.1 392.98 445.72 395.27 446.84"/>
          <path class="cls-1" d="M176.93,88.82l5.23-5.25c.38,2.76-1.36,5.19-5.23,5.25Z"/>
          <polygon class="cls-1" points="138.23 668 137.89 659.17 139.06 658.44 139.4 667.27 138.23 668"/>
          <polygon class="cls-1" points="299.41 176.27 314.92 160.44 316.16 161.69 302.11 175.98 299.41 176.27"/>
        </g>
      </g>
    </g>
  </g>
</svg>