<?xml version="1.0" encoding="UTF-8"?>
<svg id="Layer_1" data-name="Layer 1" xmlns="http://www.w3.org/2000/svg" viewBox="0 0 3593.86 640.24">
  <defs>
    <style>
      .cls-1 {
        fill: #5a8a1f;
      }
    </style>
  </defs>
  <rect x="1334.93" y="186.72" width="17" height="2" transform="translate(1531.1426 -1155.7093) rotate(90)"/>
  <polygon points="1772.91 601.52 1772.23 586.19 1774 585.17 1774.57 598.13 1772.91 601.52"/>
  <polygon points="1346.94 235.53 1346.26 220.2 1348.03 219.18 1348.6 232.14 1346.94 235.53"/>
  <path d="M1335.42,135.57l-3.32-8.66c3.01.93,4.87,1.82,4.6,3.02l-1.28,5.64Z"/>
  <g>
    <g>
      <rect class="cls-1" x="1120.09" y="404.2" width="17" height="2" transform="translate(1533.797 -723.3913) rotate(90)"/>
      <g>
        <polygon class="cls-1" points="1129.89 388.85 1132.26 368.66 1135.71 368.83 1133.03 386.77 1129.89 388.85"/>
        <path class="cls-1" d="M1145.43,287.04c-1.75-1.29-4.69-3.87-4.01-5.22l3.68-7.41.33,12.63Z"/>
        <g>
          <path class="cls-1" d="M1279.55,494.29c1.39-6.25-1.13-15.11-1.29-21.69l-.96-39.68c-.16-6.56-1.44-10.57,1.12-16.25-1.09-1.04-2.6-7.16-.84-8.18l7.53-4.36c-4.05-12.58-1.48-27.56,8.71-37.86-.08-3.52-1.33-4.73-4.23.42.59-9.1,3.11-18.61,6.9-27.7,1.87,7.08,4.49,1.06,4.04-.02l-2.41-5.76,14.57-51.09,5.44-17.44,7.14-20.68,4.94-13.04,9.94-30.1,8-13.33c1.48-5.84,3.44-9.55,7.95-12.95l5.23-13.88c3.39-8.99,5.17-16.41,15.65-18.87l4.72-12.71c8.18-4.55,14.17-9.42,20.04-16.17l2.5-2.87c.5-.58-.76-3.87-1.38-3.44l-4.99,3.42c-.23-.94,2.68-5.48,4.53-6.38l13.43-6.5c7.25-4.45,11.27-10.23,10.7-19.27,9.67-8.82,20.93-14.46,32.74-19.66l22.82-10.04,11.93-3.83c4.71-1.51,11.18-.29,13.19,2.69l-4.14,6.57c-1.88,2.99,12.65,9.4,28.83,4.85,8.43,7.38,18,13.64,28.5,17.95l12.71,8.88,25.55,18.39,12.18,9.87,13.77,21.51c3.58,5.6-.36,13.07,9.82,15.8,4.22,1.13,2.95,10.14,3.81,13.64l4,16.26,3.72-4.34,5.23,25.16,5.62,18.67c1.86,6.18,4.25,11.34,4.05,17.88,3.87,6.14,5.13,13.04,3.24,20.2,2.82,7.87,2.03,14.39,2.66,22.95l1.24,17.05,4.73-.85c2.12-.38,3.62,7.31-1.53,21.13-4.31,11.57,1.2,37.52-7.07,63.21l5,.84c6.05,1.02-2.18,11.47-1.54,21.58.68,10.75-3.04,17.13-5.48,26.68l-3.81,14.94,5.46,1.41c.67.17-.15,2.73-.79,2.76l-3.82.2c2.19,9.83-1.34,18.51-9.03,22.3l-3.02,19.15-3.99-4.03c-.62-.63-2.93.93-3.16,1.81l-2.81,15.66-1.75-1.45,1.3-11.06-10.28,15.55,4.66-21.9c-3.36.73-7.54,4.21-8.1,7.16l-3.82,20.26-2.47-6.25c-4.74,3.96-13.12,6.96-20.37,9.3.62,5.18,1.12,15.89-7.25,16.41,2.42-10.06,3.76-18.98,2.24-27.05l-6.5,22.26c-7.82-7.52-9.57-12.21-6.21-18.54l1.56,5.56c.19.66.85.79,1.3.35.73-.72,2.22-4.24,1.6-5l-5.07-6.32c-1.4-1.75,1.37-7.1,1.74-9.32l5.42-33.01,4.42-46.02,2.28-17.19,1.29-14.66-26.38,3.63c-1.34.18-5.33-2.3-6.56-2.85s-3.6,3.69-4.97,4.06c-10.34,2.8-26.04,5.59-36.8,4.18-6.55-.86-7.65-.73-13.75.4l-72.36,13.45-24.99,4.65c-13.01,2.42-26.43-3.82-39.82,3.9-3.91,28.76-3.24,58.55,1.47,87.48l-2.51,7.46c-.46,1.36-4.62-2.65-6-4.05-3.2,10.63-11.03,20.65-24.13,21.24l-32.57,1.48-14.42-10.9c-2.25-1.92-5.73-7.76-8.7-4.94-3.09-5-2.81-11.48-1.1-19.17ZM1661.98,322.81l1.7-1.1-.54-11.12-1.7,1.1.54,11.12ZM1658.23,380.75c5.31-6.79,3.89-14.43,2.07-20.24l-2.07,20.24ZM1655.57,400.51c5.48-2.9,4.94-8.4,2.7-11.94l-2.7,11.94ZM1643.49,478.76c6.75-4.28,4.86-11.29,2.67-16.18l-2.67,16.18ZM1629.37,462.26c3.57-3.3,4.31-5.53,3.33-9.98l-3.33,9.98ZM1616.54,502.88l3.2-11.48-8.99,8.58c-.45.38-1.33,2.68-.47,2.71l6.26.19ZM1606.94,402.35l2.54-18.55c-7.05,3.69-7.58,12.7-2.54,18.55ZM1603.27,433.1c1.85-3.22,2.88-11.78,2.03-14.04-6.52,1.86-9.2,11.53-2.03,14.04ZM1595.35,472.74c4.17-2.23,6.19-6.45,4.25-11.43l-4.25,11.43ZM1594.73,490.96l2.84-14.4c-3.7,4.08-4.84,8.55-2.84,14.4ZM1592.36,438.65l3.06-10.07c-3.97,2.34-4.63,6.64-3.06,10.07ZM1586.35,350.9c2.16.08,7.82-.04,7.51-1.39l-1.21-5.23c-.21-.9-4.8-1.28-5.51-.62l-4.11,3.82c-.62.57,2.48,3.39,3.32,3.42ZM1578.87,323.52l13.1-8.62-18.56.67c-1.37,2.22-4.46,6.83-2.79,7.32,1.34.39,7.09,1.4,8.26.64ZM1588.41,472.66l3.07-12.07c-3.27,3.93-4.3,8.24-3.07,12.07ZM1400.01,294.38l-13.06,42.52,13.86-3.32,15.54-4.57c1.25,3.06,4.21,6.96,5.49,5.64l4.58-4.75c1.77.77,6.93,2.03,9.35,1.65l23.26-3.59c-.12-1-1.18-5.34.06-5.44l6-.48c11.62-.93,13.9-4.77,20.96-1.35l23.87-3.66c1.52-.23,5.75-3.09,6.2-1.77l2.1,6.2,4.42-6.51c6.34,1.96,9.42-1.4,14.57-2.28l34.94-5.95c1.52,3.5,2.69,6.49,4.44,6.48h7.39c1.88-.02,6.99-1.52,6.61-3.3l-1.37-6.48-14.34-57.76-10.83-33.76c-1.26-3.92-5.15-8.22-7.71-11.96-8.43-12.31-14.49-26.15-24.78-37.54-11.12-12.3-26.8-20.81-41.32-28.49l-10.28,7.74,4.09-10.23c-5.46,2.98-8.86,5.13-11.08,7.08,3.61,1.88,7.47,3.77,6.47,4.79l-3.6,3.7-20.04,23.86-21.61,32.82-8.14,15.74-9.67,24.67-6.69,17.21-5.16,16.8-4.54,16.28ZM1575.67,378.43l15.49-3.06c-6.3-5.6-12.36-1.8-15.49,3.06ZM1541.54,337.36l1.2,1.89,18.57.3c6.85.39,13.42,1.26,19.21-3.01-9.33-6.68-17.35-3.03-25.71-.61l-13.28,1.42ZM1569.99,355c2.17,1.06,7.13,1.14,8.93-.44,1.5-1.32.43-8.12-.76-8.89l-15.02,5.97,6.85,3.37ZM1542.95,363.49l18.23-3.29-7.58-8.8-10.65,12.09ZM1539.55,326.96c5.78,3.55,9.92,4.27,13.27,3.22,1.9-.59,5.27-5.94,3.79-7.14l-4.42-3.56-12.64,7.47ZM1518.87,341.12l13.2-.92c-2.13-2.03-4.99-3.8-6.54-2.91l-6.66,3.83ZM1518.86,361.45l7.48,3.63c.73.35,2.96-1.11,2.98-1.32-1.51-2.03-3.51-5.38-4.8-4.81l-5.66,2.5ZM1520.71,369.67c4.07,5.85,7.8,2.61,8.76-.89l-8.76.89ZM1515,329.15c-.15-1.09-5.6-.54-5.13.44l2.04,4.28c.48,1,3.87.92,3.71-.19l-.63-4.53ZM1505.74,366.96c3.48-.41,7.55-.85,7.48-.89s-1.51-3.4-1.91-4.33-1.41-.29-5.54.89c-2.01-.3-1.85,4.53-.03,4.32ZM1503.57,332.7v-4h-10v4h10ZM1447.32,339.94l10.38-1.89c-3.3-2.45-10.02-2.02-10.38,1.89ZM1443.82,146.75c4.95-2.54,5.79-4.95,4.97-8.48l-4.97,8.48ZM1439.92,76.3l-1.94-3.24-7.35,4.41,1.94,3.24,7.35-4.41Z"/>
          <path class="cls-1" d="M1671.7,350.42l.13-7.93c1.18.71,4.94,4.23,3.84,5.03-1.18.86-4.14,3.03-3.97,2.91Z"/>
          <path class="cls-1" d="M1783.46,199.18c-1.38,7.41-4.59,15.65-2.11,23.37,2.15,6.69,3.25,14.61,3.37,20.6-7.23,3.04-8.22,11.68-5.4,12.71,2.4,1.25,5.23,5.8,4.2,7.72l-4.6,8.55c-1.56,2.89-2.52,10.4-2.78,13.32,1.56.98,5.53,4.2,5.53,5.65l.06,29.02c0,4.19-2.41,6.56-2.85,5.99-.6-.78-2.58-3.37-2.31-3.01l-3.3,18.74c-.18,1.01.3,5.31,1.07,4.71l4.81-3.76.51,21.26c-4.3,2.26-7.11,6.35-6.67,11.15l5.48.31c1.27.07,2.66,4.4,2.62,5.73l-1.59,65.2,23.02,4.16,6.21-5.9,28.53,1.35-4.89-3.86c11.84-1.73,22.91-1.66,32.22-.45l4.5-2.43c1.2-.65,3.67,1.63,5.91,2.98s7.81-1.37,10.86-3.43l15.35,4.3,6.24-5.66c1.26-1.14,5.26,1.18,6.62,1.88,5.37-1.18,10.11-1.87,15.7-1.6l26.61,1.28-9.69,2.69,13.81,3.77-15.53,4.58,13.56.21,1.48,1.54-6.59,1.85,5.78,4.16-5.47,12.43c4.59,1.25,9.54,6.04,8.28,8.99l-2.7,6.33c-1.5,3.52,9.69,8.09,8.25,9.97l-4.56,5.93,15.27,4.36-13.3,5.7,4.38,8.85c-15.99,1.71-31.67,4.01-47.78,1.28l-20.3-3.45c-3.64-.62-11.78-.56-15.48-.16l-50.2,5.36-16.21.2-66.88,11.96-40.33,8.35-17.96-7.76c-1.75-.76-8.07.97-8.5-.65l-2.33-8.81c-4-15.15-4.69-28.44-2.9-44.07.31-2.68.09-8.71,1.89-10.61l11-11.6,2.61-29.53c-.98-42.92-.27-83.62,3.35-126.19v-34.03s-.38-20.23-.38-20.23l1.87-15.89,1.78-25.83c.39-5.66-.17-10.74.92-16.18,2.18-10.83,2.04-20.69,1.21-31.47l-1.14-14.78.94-17.59,2.03-17.9c1.81-15.97,4.41-32.19,3.47-48.71l13.77-5.74c14.49-2.85,20.33-12.85,39.81-3.62l19.56-2.46c15.92,11.83,14.43,27.59,11.42,45.13l-4.03,23.48-4.13,37.6c-1.02,9.3,1.32,19.57-.34,28.53l-2.61,14.08ZM1943.26,441.07l-5.78.33c-.78.04.35,3.26,1.13,3.28l3.91.11c.78.02,1.54-3.77.75-3.73ZM1915.22,479.22l3.39,1.66,12.96-.57-1.02-1.77-15.33.68ZM1917,447.12c2.1,2.04,5.5,4.36,7.4,3.91,1.52-.36,3.37-2,5.77-4.09l-13.18.18ZM1909.43,455.08l1.09,1.74,13.12-.5-1.09-1.74-13.12.5ZM1909.61,498.58l10.07-2.58c-3.57-2.34-8.2-1.65-10.07,2.58ZM1907.54,468.7v-2h-18v2h18ZM1891.07,497.03c6.58,1.44,11.95,1.38,17.06-.09-4.67-6.43-12.25-5.72-17.06.09ZM1896.95,479.33l3.98,5.08c.74.95,3.47-.74,4.06-1.79s.66-4.19-.56-4.18l-4.99.02c-2.52.89-6.38,2.25-2.5.88ZM1903.64,486.51l-6.7-.56-.4,4.75,6.7.56.4-4.75ZM1891.54,449.58c1.25.76,8.1.62,8.18-.17-.61-3.89-8.05-3.86-8.18.17ZM1884.69,481.66c4.07,5.85,7.8,2.61,8.76-.89l-8.76.89ZM1849.41,467.82c-2.28.91-1.67,3.73,1.24,5.62l35.13-4.49-1.28-2.37-20.24,1.64c-5.21-3.71-7.77-4.03-14.85-.39ZM1872.73,485.72l10.55,5.11-5.19-9.93-5.88,1.29c-.69.15.07,2.28.53,3.53ZM1877.54,504.7v-2h-19v2h19ZM1842.25,449.41c7.73,6.14,13.72,2.09,19.41-.53l-19.41.53ZM1855.57,492.94c2.22.06,6.65-3.97,6.15-4.97l-26.24,1.2.17,3.22,19.91.55ZM1822.24,458.17c7.52,3.48,12.43,2.57,18.62,2.11l3.68.2c.74.04,1.31-1.83,1.1-2.54s-2.76-3.37-3.49-3.25l-19.91,3.48ZM1821.44,471.08l1.09,1.74,13.12-.5-1.09-1.74-13.12.5ZM1811.58,459.28c1.54,1.84,4.05,4.4,4.77,3.56l3.27-3.79-8.05.23ZM1779.47,308.9l-5.88,2.83c-1.15.55.34,4.25,1.61,4.16,1.35-.1,4.36.82,4.35-.46l-.08-6.53ZM1771.65,431.74c-.29,1.92,2.32,7,3.01,7.08l2.31-18.26-2.46-8-2.86,19.18ZM1770.7,278.8c-.24-1.17-3.84,1.55-3.41,2.68l1.2,3.2c.28.74,3.35-.35,3.19-1.14l-.98-4.74ZM1767.97,318.81l1.7-1.1-.54-11.12-1.7,1.1.54,11.12ZM1762.06,325.02l1.66-3.39-.57-12.96-1.77,1.02.68,15.33ZM1757.92,362.38c4.7-1.11,5.14-7.25.6-8.06l-.6,8.06Z"/>
        </g>
        <g>
          <path class="cls-1" d="M1383.46,111.7l-.82-6.84,6.13,3.84c1.29.81-2.48,3.46-3.49,3.44l-2.34,1.53-8.84,5.8,1.06,6.07-11.51,1.29c-1.24.14-3.69,4.3-2.67,5.06l6.53,4.81-11.03-2.22-22.48-.24c-14.43-2.57-26.3-1.23-40.61-1.07l-12.78.15-37.85,4.54c-4.51,17.21-7,33.14-7.62,50.44-7.6,31.28-6.49,62.57-2.03,94.54l-1.74,19.62-1.64,18.49-1.99,15.7-1.08,17.83c-.03.57-3.27,3.49-3.24,3.52.05.06-1.45-1.78-3.09-3.79l-3.58,14.84-2.2-12.92c-3.33,5.2-1.67,11.85,2.09,17.14l-.8,10.42,5.54-4.9c-.03-.48.33,4.45.47,6.32.11,1.43-3.1.88-4.67.82-6.25,6.75-3.42,15.15,3.18,20.49l-6.39,7.88c-1.36,1.68,1.89,6.97,3.23,8.7l2.14,2.76c.61.78-3.88,3.35-4.81,3.03-3.27-1.1-6.07-6.85-8.42-12.55l-2.07,17.74c-.2,1.67,1.46,6.27,3.11,6.46l7.45.85,2.89,21.72c.75,5.64-2.64,15.09-.32,21.66.49,1.4.63,6.06-.53,5.79l-6.64-1.53-.58,6.8c-.14,1.61,3.23,3.11,5.65,4.24l2.18,31.13-1.25,18.83c1.82,6.86,3.12,13.12,2.94,18.91l-5.7-2.66c-.95-.44-1.8.8-3.27,2.25l-3.41-5.99c-1.26,1.78-2.81,4.18-3.62,3.67l-3.85-2.42-10.15,3.24-12.46,7.05-2.62-2.27c-.61-.53-1.86,1.12-3.74,3.25l-3.52-8.43c-2.39,4.58-3.71,6.95-3.35,5.71l-6.72-11.31c-1.58,7.36-2.13,11.3-1.88,15.74l.22,4.02c.04.78-2.58,2.21-2.69,1.43l-.77-5.48-.03-4.17c0-.85-1.8-.83-2.84-.95-10.53-4.47-16.09-11.95-16.42-23.05-.78-26.96.67-52.79-2.34-81.88-3.26,16.16-2.98,32.61-1.9,50.03.46,7.49.81,14.77-2.39,20.96l1.38-117.58c5.22,6.81-.94,17.72,1.67,20.44l1.96,2.05c.73.77,2.42-3.82,2.5-4.99l2.31-33.75,3.85-28.54c1.02-7.53,1.15-14.48.32-21.39l-5.53,9.2.55-15.72,9.45.64-.44-17.88-6.23,11.02,1.92-22.35,3.71-28.68.58,29.91c2.88-4.48,3-7.56,3.16-13.88l1.12-43.67c.02-.76-2.74-4.5-3.07-3.93l-2.67,4.63-.16-20.86,5.18,11.01,1.79-22.66.26-31.83.17-20.44-3.36,4.08c.18,18.44.19,34.28-3.3,50.84l.59-30.63,2.01-43.89.41-16.74-21.5,2.17-35.86,5.6-18.6-.34-12.65-.19c-6.33-16.08-10.3-32.9-9.25-50.18-4.65-12.5-2.87-26.88,6.91-33.98l31.96-3.39,13.1-1.54,54.1-6.75c6.14-.77,16.11,5,22.19-.34l3.68-3.23c.89-.78,3,2.08,4.18,3.44l24.98-.22-5.5-4.27c8.46-.83,15.57-.17,21.97,4.14,22.68,1.12,43.83-1.94,66.31-3.69l35.17-2.74,11.84-4.9,6.27,5.54c15.23.28,28.35,2.06,41.14,9.04l-13.09,4.3,4.81,4.93-11.55,3.93,18.95,3.36,1.19,19.26c-4.27,3.88-7.52,7.09-9.17,10.39-1.35,2.7,2.8,8.84,5.04,10.31l1.22-.94ZM1212.01,302.81l1.7-1.1-.54-11.12-1.7,1.1.54,11.12ZM1211.67,451.34c-.18-1.28-2.18,3.18-2.34,4.54-.11,1.02,2.86,2.98,2.9,1.95s-.2-3.83-.57-6.5ZM1210.01,480.65c2.64-4.52,3.84-6.51,3-7.7l-3.26-4.67.25,12.37ZM1211.33,350.97l-.1-22.36c-4.24,8.28-4.49,15.62.1,22.36ZM1203.81,464.84l3.65-.92-1.15-14.23-2.52-1.04.02,16.19ZM1204.99,482.53l2.12-10.65c-4.77,2.47-4.48,6.95-2.12,10.65ZM1200.01,406.81l1.7-1.1-.54-11.12-1.7,1.1.54,11.12ZM1197.99,440.57c4.26-2.18,6.89-8.4.25-13.07l-.25,13.07ZM1188.45,488.01l1.28-9.79-4.3,3.78c-.89.78,1.21,4.15,3.02,6.01ZM1186.01,504.81l1.7-1.1-.54-11.12-1.7,1.1.54,11.12Z"/>
          <rect class="cls-1" x="1237.58" y="48.67" width="18" height="2.46" transform="translate(.37 -8.59) rotate(.39)"/>
        </g>
      </g>
      <g>
        <path class="cls-1" d="M84.67,626.23c.39.21-2.92-1.53-4.16-2.18-1.15-.61-2.5,3.95-3.07,5.23l-4.83,10.96c-4.06-5.02-5.38-6.37-10.35-10.14l-1.09-10.11-5.01,1.13c-1.3.29-2.71-2.79-3.73-4.71l-13.33.67,2.55-7.37,2.25-6.49c.57-1.64-3.59-2.43-6.01-2.59l-.95-14.85c-1.01-6.93-.97-12.35,1.65-18.74-1.1-4.14-4.66-4.83-4.13,1.93l-2.69-4.53c-1.39-2.34.62-4.7,5.62-3.54l-6.5-46.42-2.01-18.63-5.99-53.29-2.08-26.79-.05-26.05-4.3-46.47-1.41-31.65-2.59-34.01-2.87-23.05-2.08-24.57-3.56-24.63c-1.6-11.06-.49-20.83-1.05-32.1L0,115.37c-.22-4.44,3.81-12.94,6.39-17.45,2.34-.81,6.77,1.99,9.37,5.47l34.02-8.82,57.89-7.02,22.41-2.47,33.52-3.27c19.66-1.92,37.91,5.47,56.97,8.69,15.01,2.53,31.43,2.38,42.98,13.09l-.94,5.36c-.17.97,4.44.88,4.3-.1l-.78-5.76c19.79,8.29,12.59,31.11,31.86,32.26l-3.09,6.16c-.69,1.37,1.12,4.46,2.34,6.93.68,1.38,5.05,3.31,5.86,1.99s1.18-2.7,2.68-7.41c10.46,7.91,20.5,23.49,17.67,25.73l-5.63,4.45,9.22,42.27,8.41,22.34,5.81-34.82,8.65-30.16,6.98-22.7,7.18-24.44c3.63.14,5.25.64,5.81-.46l2.84-5.58,9.86-17.75c-2.97-2.46-2.95-7.41-.68-9.73,1.63-1.67,4.72-2.31,9.31-3.13-2.16-4.2-.63-14.52,5.04-14.86,6.83-.41,11.29-2.94,15.09-8.03-2.15-1.52-3.56-2.43-3.53-2.5.71-1.46,7.1-7.97,11.71-6.15l21-13.08,24.63-14.38c19.84-11.59,36.64-14.85,58.83-7.41l17.27,5.79c14.75,4.95,25.06,18.18,38.43,24.49,3.88,1.83,9.66,6.7,10.36,9.72-3.46,8.01-2.66,21.5.92,22.76l20.02,7.08c7.21,2.55,12.7,3.52,18.67,8.66,3.4.55,9.07,1.42,11.19,3.79,2.56,2.87,3.78,9.27,4.16,13.55l1.75,19.88c.72,8.13.39,13.33,1.41,21.3l2.96,23.13,3.1,16.47,5.08,19.06,8.97,40.83,5.89,32.06,4.08,22.16c1.9,10.35,2.87,21.7,7.55,31.67.69,1.46-.25,3.28-2.13,6.57-.13,17,8.01,24.69,5.18,44l-.74,5.05c-.15,1.02,3.86,1.4,3.25.85l.95-26.51c.04-1.21-2.38-5.85-2.89-7-.48-1.08,3.38-.53,5.11-.33l3.96-35.5.03-11.62c.02-7.98-.78-14.48,4.28-21.93l.93,55.72c2.55-13.4,5.66-26.55,5.59-39.76l-.45-87.05-2.08-56.59-2.08-15.78-4.05-24.97-6.96-47.66,7.91,3.14c1.44.57,2.97-2.15,4.84-4.11,1.52-.28,7.42-.44,7.28-2.23l-.82-10.56c-.79-10.29,26.98-14.99,38.75-18.8l24.13-7.81,11.01-2.29c12.75-2.65,27.4.6,40.59.33,26.87-.56,50.09,3.69,74.68,14.14,16.99,7.22,33.67,13.57,47.95,26.04l17.19,15.01c7.88,14.74,13.08,31.54,17.78,47.99l7.54,26.4,5.49,14.44c2.93,7.71.49,20.85,2.42,29.39l.94,4.19c.22.97-3.11.09-5.39-.46l-5.45,36.72c-4.38,6.21-11.83,12.28-11.46,21.98l-11.55,6.6c-11.66,10.67-23.01,19.12-37.22,27.76l16.95,42.51,14.02,30.18,22.27,39.53,28.24,47.69,3.98,5.9c1.11,1.65-6.01,2.85-8.06,2.92l.94,3.52c.17.64-.1.8-.91.8l-10.37,3.66,4.19,5.9-12.21-5.5c-.62-.09-1.41-.28-1.45.37l-.31,4.15c-.08,1.03,2.73-.37,4.39-1.24.3-.12,2.31,2.24,1.74,2.52-.85.42-3.65,1.91-3.17,2.73l2.31,3.95c1.29,2.2-9.88,1.28-10.03,1.47l-5.17,6.54-15.52-3.43-1.95,15.51c-7.2,1.05-11.68-10.54-12.93-6.85-.21.62-.91,2.73-.81,3.38l.73,4.8c.15.97-4.47,1.73-4.47.75v-6.22c-18.28-7.81-13.93-23.49-26.97-19.83,4.54-11.49-4.28-18.05-8.9-26.4l-30.07-54.45c-6.61-11.98-12.46-22.14-17.08-35.64l-7-16.02c-1.2-2.74-2.57-6.71-4.62-6.99s-7.09.68-9.09,1.48l-47.21,18.89-1.8,23.89.16,75.99c.01,5.05-.56,10.43-1.59,14.79l2.56,4.6c.64,1.15-3.19,2.78-5.03,3.56,3.65,13.31,4.41,27.92,3.65,41.71l-3.39.27c-.89.07-.81,3.11-.67,4.02s2.79.15,5.81-.41l-3.24,18.82c-.23,1.36,2.44,4.96,3.03,6.21,1.11,2.33-8.34,10.03-16.18,6.23-1.42-.17-3.73.12-4.6-.43l-5.45-3.49-.43,12.42-6.83-17.28-1.31,12.87c.26.3-5.69.4-6.55-.92l-4.26-6.51c-2.24-1.21-5.49-2.96-1.39-.75l-4.44,11.45-1.77-14.95-4.06,8.48c1.86,3.35.44,2.85-1.57.93l-5.77-10.12-2.28,4.02c-.46.82-3.36,1.94-2.23,1-.32-7.48-3.43-4.18-3.29-.62.77,4.64-2.22,5.2-3.26.4-2.49-3.89-7.53-5.26-13.2-5.43l-1.1-26.5c-14.02,1.07-2,15.66-9.66,19.97-2.79-10.8-2.97-20.51-.92-30.97l3.3,3.14c.86.82,5.83,1.55,5.6.39-.71-3.64-4.39-10-6.82-14.4-2.37-4.29-.16-15.91-3.68-19.33l-9.3-8.78-3.52,9.53-2.65-7.83c-.28-.84-2.04-2.11-2.65-2.59s-.63,2.13-.62,3.03c-7.32,1.85-10.45,5.92-13.24,15.19l-4.58-18.21c-2.1,3.6-2.23,8.02-1.95,12.7l-11.07,7.33c-5.52,2.36-10.12,4.86-15.48,8.53l-31.56,21.63c-7.48,1.97-15.9,6.38-22.65,12.1l-18.83,9.53c-5.53,2.8-10.8,4.97-16.64,6.54l-18.08,4.85-16.25,3.68-16.56.6c-11.96.43-22.79,1.28-34.16,3.58-4.39-1.23-11.68-1.52-17.31-.82l-37.03-15.84c-8.98-3.84-18.38-12.73-24.58-20.72-8.78-11.32-12.36-25.67-17.67-38.4-3.94-9.43-6.55-18.18-7.98-28.5l-3.61-26.16-1.79-20.34-3-31.84-2.54-28.13-2.01-32.01,13.95-12.94,11.76-1c1.11-4.51-1.99-12.33-5.42-12.76l-10.96-1.04-7.25-.69c-1.95-.19-4.04-5.22-4.32-7.4l-2.53-19.94.51-11.61c-6.96,2.99-11.68-13.75-9.56-5.69l-31.25,35.22c-5.47,6.17-9.19,12.74-16.04,17.96l-30.88,23.54c-9.42,7.18-18.57,14.99-30.02,19.66l-29.81,12.15-16.32,7.2-38.69,15.85c-12.3,5.04-16.38,1.89-17.5,7.25l14.37,142.13c-6.2-18.48-5.82-37.69-9.85-57.14l-2.91-31.36-3.07.13,2.62,46.82,6.73,45.9c.16,1.07-2.03,3.09-1.99,2.18l.25-6.28c-.97-1.44-4.13-2.95-3.93-1.06l4.57,22.59c1.64,8.09.96,16.75,8.21,22.89l3.52,20.98c.56-4,.99-7.31.83-10.45l-1.17-23.67-.52-6.57,1.64,1.22,6.1,41.81-12.58,3.8-4.1-1.98c-1.06-.51-2.27,3.83-3.41,7.38l-7.7-13.34v8.9s-11.1,8.15-11.1,8.15l-6.97,2.62c-1.76.66-2.02,3.47-2.86,8.86l-3.77-.33,4.28-12.35ZM951.37,372.64l-6-10-3.53,2.12,6,10,3.53-2.12ZM796.35,242.71l1.47,36.9,27.59-9.17c7.01-2.33,17.81-3.26,22.49-8.85,7.7-9.2,15.4-13.38,27.44-13.37l13.84-10.25,9.06-5.13,20.9-11.34c7.06-3.83,14.84-18.01,15.45-25.94.62-8.15-.05-12.84,5.63-18.67,2.04-2.1,4.15-8.37,2.84-11.22-5.37-11.78-17.04-17.21-28.21-20.79l-1.72-6.53c-.29-1.1-4.81-.89-4.45.18.77,2.35-7.11,2.92-8.41,1.16l-4.77-6.46c-8.71-8.02-20.51-6.96-31.03-7.68l-38.77-2.64c-3.96,1.12-7.98,1.66-11.74,2.03l-24.48,2.43,1.46,27.48c-1.78-5.32-3.39-4.41-3.71-.47,6.44,6.97,6.44,13.52,6.75,22.4l2.35,65.95ZM931,330.63c-1.53,9.91,2.84,15.5,9.01,20.19l-9.01-20.19ZM789.31,275.73c1.85,6.18,5.82,1.58,2.94-1.37-1.64-4.5-3.1-3.03-2.94,1.37ZM787.77,376.46c3.34-6.65,4.92-10.05,1.14-15.22l-1.14,15.22ZM786.67,396.97l2.55-11.23c.06-3.41-.87-3.69-2.02-.3-3.51,5.03-4.05,8.86-.53,11.53ZM696.57,370.89c-2.06,5.55-1.99,9.87,4.76,16.65,3.07-9.3,4.09-19.21,2.26-28.81-4,1.81-6.47,3.01-6.1,4.56l1.59,6.7c.85,2.83.38,6.95-2.51.9ZM696.24,480.83l3.25-.96.53-52.16c-8.24,10.97-3.02,23.38-3.31,34.77l-.47,18.35ZM698.05,422.81l1.7-1.1-.54-11.12-1.7,1.1.54,11.12ZM696.8,484.52c-2.13,3.15-1.7,9.92,1.98,10.54l-1.98-10.54ZM692.5,480l1.27-9.8-4.34,3.82c-.86.76,1.24,4.11,3.07,5.97ZM605.19,477.2c2.03-4.76,3.04-7.84,2.03-8.28l-4.06-1.81,2.03,10.1ZM426.54,240.03l-9.83,41.54c-1.12,4.73.03,15.69-2.64,19.78-8.13,12.46-6.02,25.47-4.55,26.31l8.05,4.61c3.53,2.03-.67,12.13-.01,16.32l4.38,27.84c-3.57,7.81-2.79,15.55,1.51,22.51-.96,19.89,1.4,38.17,4.34,57.41.89,5.79,3.45,11.7,7.46,17.3-4.91,8.99.58,13.77,5.85,22.03l13.65,21.42,15.21,15.9c5.8,4.08,18.59-1.36,24.78-4.15l14.21-6.41,17.75-8.37,14.23-7.4,16.76-9.73,18.93-14.27c7.33,1.98,17.9-.05,21.29-8.55l-1.82-27.33c-.19-2.8,3.68-6.73,7.33-9.58.05.04-4.24-3.15-6.28-4.69-3.87-2.91-1.08-14.85,1.06-18.21l2.67,4.28c.4.64,2.89.01,2.72-.72-1.86-8.12-12.36-13.57-6.9-27.55l2.37,8.93c5.92-11.27,5.66-23.61-.08-32.89l-2.43,6.09c-.27.66-1.92-1.17-2.11-1.87l-1.08-3.9c-.41-1.47-.48-7.46,1.04-7.34l5.58.42-.43-14.34-4.45,8.31c-3.88-4.07-5.18-11.27-3.28-14.87l6.7,1.91c1.17.33,1.45-5.07,1.04-6.97l-6.87-31.73-2.14,13.13-8.9-29.17c3.31-1.57,8.92-8.35,6.18-11.64l-8.44-10.12,6.02-3.06c1.08-.55-.1-4.43-.38-5.64l-8.79-37.93c-1.27-5.49-3.91-11.89-6.63-17.58l7.93,42.91c-8.33-5.64-2.95-20.2-13.08-38.11,1.06-12.53-6.67-19.2-5.02-24.67.68-2.27,4.19-5.06,6.83-7.61l-3.65-30.42c-2.44-.1-5.44.21-5.16-1.03.29-1.3,2.3-6.78,1.96-8l-6.93-24.89c-24.3-25.51-72.57,11.15-91.32,37.83-14.88,21.17-23.25,45.8-29.14,70.69l-5.5,23.22ZM582.55,490.9l15.59-1.41-2.82-7.23-12.77,8.64ZM371.83,320.73c5.12.95,7.92.9,14.22-.49l-7.81-5.43c-1.41-.98-4.59,2.68-6.41,5.92ZM362.05,324.21c9.08-6.46,3.15-13.54-1.78-13.7l1.78,13.7ZM313.09,153.96l-5.08,1.57c-1.11.34.44,3.74,1.54,3.67l4.33-.26c.77-.05-.05-5.21-.78-4.99ZM89.53,316.39c3.2-.21,7.83-1.11,9.77-2.34,1.55-.98.76-5.99.49-7.84l-2.01-13.76c-.63-4.29-5.48-9.53,2.07-12.87l2.84,32.62,30.15-9.85,15.08-7.1c2.3-1.08,6.95-.06,9.59,1.55,2.09-6.98,9.35-12.13,18.51-10.62,6.63-8.88,16.32-12.91,28.14-11.39l3.13-9.92c19.04-2.67,25.67-15.41,33.2-24.71l20.23-24.97c2.91-2.32,11.88-7.43,10.61-11.1-4.24-12.26-11.48-22.77-21.52-30.62-6.62-5.18-19.63-1.75-26.86-3.12l-33.78-6.37c-11.96-2.25-23.14-1.97-35.33-.23l-36.11,5.17-29.86,3.6c-.6,5.78-.73,13.16-.1,18.96l2.47,22.68-7.6-4.88,2.99,26.14c1.2,10.53,1.87,19.66.17,30.5-1.71,10.93,4.01,21.53,9.08,31.79-1.14,4.46-3.91,5.36-4.66-1.62l-.7,20.31ZM137.93,101.65c4.5,1.44,8.45,2.34,9.38,1.44,1.39-1.35-2.74-6.72-4.52-5.94s-5.35,4.13-4.86,4.5ZM114.74,611.61c.7-8.25-.31-12.88-2.58-18.15-.13,6.94.85,12.64,2.58,18.15ZM106.6,561.59l1.8,20.09,3.16.04-3.7-34.66c-5.36,4.62-2.7,8.6-1.26,14.53ZM91.73,441.3l1.46,7.62c.39,2.06,6.61,4.31,7.35,2.36l2.08-5.47c.24-.63.96,1.77,1.35,2.33l3.19,4.48-.51-18.63-6.38.84c-2.5.33,1.27-13.91-8.7-18.01-3.69,9.27-.85,15.47,6.37,20.91-1.56,2.4-.55,2.21-6.21,3.57ZM104.53,416.28l.25-11.64c-3.53,2.23-5.73,5.37-4.66,6.6l4.41,5.04ZM105.72,431.75l-2.62-14.69c-2.16,4.55-3.73,10.36,2.62,14.69ZM105.45,545.16l-.44-13.7c-4.27,3.59-2.84,9.01.44,13.7ZM98.73,503.93c1.65,2.96,3.76,6.56,4.06,5.57.21-.71,1.25-2.49.92-3.08l-2.85-5.2c1.13-1.57.02-.12-2.12,2.71ZM98.66,570.05l1.28-5.62c.27-1.19-1.61-2.12-4.6-3.05l3.32,8.67ZM95.45,615.85c-.2,1.21,4.32,2.25,4.19,1.06l-.48-4.57c-.07-.67-2.89-2.12-2.72-2.78s-.72,4.67-.99,6.28ZM93.84,546.91l2.05-.11-2.89-17.15-2.77.08,3.6,17.17ZM81.11,286.94l.31,14.88c.14,6.61-1.8,14.3,6.94,17.08l-4.8-33.25c-.93-6.44,3.12-13.7-3.93-19.98l1.49,21.27ZM79.54,244.87l-.94-7.62c-4.65,1.13-3.91,7.35.94,7.62ZM42.61,563.79c2.05-3.36,1.4-8.19-3-10.19l3,10.19Z"/>
        <rect class="cls-1" x="690.13" y="256.21" width="25" height="2" transform="translate(959.83 -445.42) rotate(90)"/>
        <path class="cls-1" d="M594.76,334.33l-7.14-11.72c2.94-.13,6.79,1.62,6.86,3.68l.28,8.04Z"/>
        <g>
          <path class="cls-1" d="M125.37,565.57c-3.83-4.76-4.78-10.52-2.4-16.09l2.4,16.09Z"/>
          <path class="cls-1" d="M97.7,267.85c-6.24-4.45-6.79-11.66-2.04-17.18l2.04,17.18Z"/>
          <path class="cls-1" d="M95.38,247.58c-3.83-4.76-4.78-10.52-2.4-16.09l2.4,16.09Z"/>
        </g>
      </g>
    </g>
    <g>
      <g>
        <path class="cls-1" d="M3557.53,26.23c.54,1.19,3.58,5.05,5.36,4.4l8.25-3.03c.22-.34.67,4.45-.54,5.31l-7.08,5.01,12.01,4.86-6.09,9.85c-.47.76-4.48,2.88-3.65,3.39l6.41,3.93-12.07,2.6,11.14,3.81c.09-.44-.63,3.08-.83,4.04s-2.19,2.5-2.86,1.81l-4.81-4.97c-1.2,8.28-8.43,9.34-18.19,10.01l11.8,5.22-19.14.9c-2.55-.61-7.91-2.51-10.71-2.07l-30.59,4.79-18.77,7.02-.85-3.6c-.26-1.1-4.5-.73-5.56-.32s-.27,2.63.12,5.05l-11.49.45c4.47-1.86,6.65-2.27,9.55-4.95l-33.13,6.32c-7.3,1.39-13.98,6.75-17.85,12.3l4.95-1.12c.98-.22-.17,5.01-1.16,5.13l-24.09,2.84-74,4.9-84.84,3.6-34.07,1.64c-2.72,3.18-8.43,6.88-11.63,4.73-7.27-4.89-11.89-2.21-18.6-.99l-37.92,6.87-23.3-2.67c-8.12-13.81-9.56-28.64-10.23-44.53-.88-20.91-.32-35.48,18.25-38.48l36.08-5.83,22.63-1.25,13.49-.54,56.9-4.62,43.42-1.45c1.67,9.11,13.86,4.74,27.58.17l1.71,3.16c.41.75,3.02.91,4.19.86l32.86-1.58,24.35-3.08-11.58-2.45c13.19-.8,25.65-1.85,38.23-6.07,8.34,1.91,16.71,1.38,24.68-2.36l6.34.26c1.55.06.61,3.28-.21,6.66-.09.66,6.87,2.78,8.43,1.43l8.09-7.02.21,3.92c.05.93,3.91,1.16,4.8.83l3.78-1.4c.61-.23,2.22-1.35,1.71-1.74l-3.49-2.69,8.86-1.57.21-4.72c.05-1.13,3.84-1.75,4.83-1.21,1.32.73,1.21,3.65.64,7.25l12.94,8.71-4.16-8.54,43.92-5.05c-2.82,3.6-11.32,4.99-14.95,4.83-.94-.04-1.01,3.82-.09,3.66l18.01-3.16,20.51.08,1.71-3.57-24.85-1.6,26.82-4.72-1.27,8.66c-.07.45-.25.72-1.11,1.71ZM3503.91,45.3c3.35,7.26,11.33,6.4,11.96.44-1.65-1.55-9.61-1.34-11.96-.44ZM3488.03,36.38c6.57,3.83,10.91.6,13.63-3.62l-13.63,3.62ZM3479.68,40.64l8.34-2.64-5.61-1.5c-1.2-.32-2.89,3-2.73,4.14ZM3415.33,36.65l12.01-.14,5.84.2c1.13.04,1.84-1.35,3.15-5.33-15.16,1.2-28.89-.45-43.26,4.44l22.25.83Z"/>
        <path class="cls-1" d="M3298.33,504.91l-8.09,10.23-4.09-6.35-12.57,6.92-8.2-3.7c.41-.38,3.09-2.93,2.51-3.96l-3.93-6.98-3.94,9.73c-3.79-5.52-5.4-11.4-5.49-21.08.18-2.97-1.87-3.1-5.28.85l1.63-32.7-5.26,11.66.18-18.27,8.97,2.21.07-36.6-2.81-65.83-1.9-29.67-3.72-53.68-8.01-67.35-5.45-41.63c1.04-1.36,6.37-2.91,8.62-3.15,11.05-5.14,23.02-9.59,35.69-8.98l20.26.98c6.36-2.08,10.58-2.55,16.26.29l1.92-1.93c.65-.66,3.03.48,3.15,1.59l2.88,26.35,2.32,25.95,1.72,18.08,3.06,18.63,1.6,22.96c.28,3.97,1.96,10.15,2.97,13.25-2.05,5.21-1.91,11.55-1.21,18.48l1.68,16.79-3.16,11.69c-.75,2.77,4.51,7.03,5.85,8.31l-3.84,14.99-2.6,10.15,7.19,19.12c-4.27,6.46-1.82,13.46,1.87,17.89-3.62,4.6-5.28,9.52-5.04,15.03l.98,22.03-2.94,47.18,2.08,20.8c-2.1-.61-5.95-2.22-6.15-1.25l-1.66,8.11-2.48-6.69-5.87,3.08c-1.22.64-2.76-3.1-4.6-6.17l-4.57,14.99-8.94,3.56-1.14-4.86-.51-1.02ZM3327.54,478.37c2.32-13.76,1.84-24.9.91-37.69-3.18,12.17-6,24.32-.91,37.69ZM3308.16,443.22c1.62,2.85,3.77,6.47,4.06,5.5.22-.75,1.25-2.51.91-3.11l-2.89-5.16c1.19-1.67.08-.17-2.09,2.78ZM3309.27,480.69c3.4-2.38,5.83-7.88.9-10.52l-.9,10.52ZM3300.38,504.96h3.74c1.16.02.68-3.08.09-4.08s-3.69-3.03-4.02-1.91l-1.36,4.59,1.56,1.4Z"/>
        <path class="cls-1" d="M3529.01,7.97l39.34-5.9-.29,4.54c-.05.74,2.61,1.71,2.73.97l.93-6.05,22.14-1.53-15.67,4c-3.07,10.07-14.61,3.49-19.76,5.21-10.28,3.43-19.58,9.75-29.42-1.24Z"/>
        <rect class="cls-1" x="3372.34" y="22.53" width="2.29" height="16" transform="translate(3381.2399 -3343.0811) rotate(89.6133)"/>
        <path class="cls-1" d="M3479.26,18.36l12.36-3.02c-3.35,3.68-7.48,5-12.36,3.02Z"/>
      </g>
      <g>
        <path class="cls-1" d="M3068.29,90.55l5.4-6.4c.34,2.57.71,5.18-.27,5.8l-3.81,2.42-1.08,1-1.25,15.41-5.93,2.63c.17,1.96.03,6.97-1.61,7.14l-7.23.78-15.56,17.55-25.67,32.23-15.99,20.05-22.55,29.72-14.76,22.48c-8.86,6.04-13.37,11.45-14.4,22.72l-17.75,21.21-6.87,11.07-19.12-14.07-14.93-10.98-3.22,8.74c-.3-3.64-1.24-10.56-3.53-12.33-2.3-1.78-5.4,5.67-4.27,7.8,1.31,2.47,2.32,4.22,1.59,4.97l-4.11,4.28,5.9.35c1.26.07,2.32,3.4,3.37,6,.64,1.59,4.32-.57,7.14-2.47l-1.58,8.91,12.77-.88-1.34,5.36c-.17.69-1.32,2.12-1.91,1.72l-4.37-2.95c-1.78-.02,1.96,4.81,4.61,6.4l-10.52,13.17,19.76-6.44c2.89-2.7,7.07-7.73,12.74-8.04l8.59-.46c2.11-.11,3.96,5.88,4.89,8.02l13.86,11.37c2.43,6.96,3.96,10.86,8.13,15.99l-.74-7.04,7.6,1.21c-.94-.15,13.32,15.35,16.16,23.79-4.22.88-4.32,2.27-3.46,3.94.66,1.29,3.89,2.31,6.35,2.37l18.29,27.51c2.59,3.9,3.87,8.2,7.36,10.71,5.69,4.09,7.43,9.42,6.4,15.59,4.33.19,9,1.67,11.39,4.43l17.23,19.92.06,16.86-11.51,8.2-10.48,4.68c.48.4-1.84-1.52-4.1-3.38l1.89,13.85c-2.68,1.85-9.87,1.26-13.76.06l-12.67,4.1c-1.51.49-5.01.78-4.89,1.94s.69,3.96,1.14,5.05l1.77,4.3c.38.93-1.67,3.08-2.15,3.44l-3.56-10.45-3.71,2.55c-.72.5-3.77,1.53-2.11.85l-2.54-5.29c-.38-.78-3.26.37-3.14,1.22l.61,4.33.6,4.26c1.49,10.61-26.4-21.66-40.23-42.03l-21.17-31.2-21.74-34.18c-5.92-9.31-11.6-19.15-23.67-20.96l-16.81,34.24c-4.8,9.77-9.39,16.96-11.69,27.94-2.74,13.1-11.57,27.51-17.92,40.21l-15.35,30.69.74-11.34c-8.88,5.05-2.45,17.27-8.16,28.03-3.07-7.39-1.85-14.09-1.36-23.44-2.17,7.42-4.59,11.34-13.35,16.94l-.28-9.22-1.72-1.42c-2.05-1.32-6.62-4.62-8.72-3.31l-10.18,6.34c-1.33.9-7.26-4.04-7.44-6.73l-1.23-17.97-7.1,16.58-1.74-5.61c-.32-1.02-1.41-3.54-2.26-2.89l-4.95,3.76-3.96-6.36-1.14,5.01c-.19.82-2.19,1.99-2.55,1.24l-2.43-5.04c-.91-1.88-3.98-6.69-3.4-8.84,6.54-24.51,18.83-45.23,28.75-68.08l47.17-108.62,14.14-32.5,6.05-.77c1.02-.13-.93-3.44-1.75-3.47l-6.13-13.98-15.24-33.03-15.07-38.28-3.55-.74c-.92-.19-1.62-3.04-1.91-4.45l-3.68-17.76c-5.55-4.62-7.09-10.91-7.09-17.04-14.09-14.52-28.69-45.42-21.18-56.64,20.94-31.28,34.33-26.43,45.13-33.65,12.66-8.47,26.31-12.93,30.02-5.66l24.93,48.91,6.49,13.1,10.02,16.62,7.29,17.03c2.19,5.11,6.72,12.47,7.22,17.37.52,5.16,1.28,7.45,4.23,9.27-.94,5.53,1,18.36,9.12,17.62l10.56-8.29,23.88-32.39,38.04-47.81c3.05-3.84,5.21-6.48,7.56-11.05l8.12-9.25,23.28-25.03c.78-.84,2.5-2.97,3.25-2.54l3.89,2.28,7.12-10.08c1.94,6.35,3.29,10.07,6.36,12.02,5.63,3.57,12.4,3.56,16.7-.47l1.75,4.83,8.11-6.14,6.15,17.98c1.38,3.02,4.19,4.03,2.63-1.43.59-.74,2.67-2.13,2.64-1.23l-.22,6.67c.82,3.2,3.86,3.58,5.12-2.65l3.62,6.75,6.83-4.96-7.33,17.09,2.16,3.1,1.53-2.37ZM3009.18,482.35c2.15-4.11,1.75-9.67-2.64-12.33l2.64,12.33ZM2866.58,280.98l2.39-13.46-13.11,4.34,10.72,9.12ZM2782.01,503.99l1.99-10.64-4.03,9.63,2.03,1.01Z"/>
        <g>
          <path class="cls-1" d="M2523.96,56.63l6.91-7.32,26.81-3.16c1.76,1.61,6.51,6.66,8.73,6.12l22.35-5.39-5.34-1.89c-.84-.3-1.65-1.28-2.8-2.67l48.67-5.93c8.84-4.72,17.94-6.07,27.24-.06l16.09-.23-7.13,6.63c6.88-.44,8.29-2.16,14.28-6.83l-3.57,8.5c-.97,2.3,1.78,7.84,3.49,10.06l-2.57,4.9c-.54,1.03,1.36,2.99,2.03,4.06-.66.62-3.7,3.51-2.75,3.88l5.84,2.24c2.6.22,6.1,2.07.46,2.11-6.36,5.04-3.79,14.53,2.71,17.86-3.45,4.02-7.2,15.04-7,20.49.09,2.27,5.78,4.81,7.88,5.37l-20.11,3.74-58.81,3.93-50.96,6.33c-21.08,2.62-42.25,2.37-61.62,11.35-3.83,1.77-7.2,3.6-11.45,2.7-2.42-.51-9.44-.7-10.17,1.45l-5.07,15c1.24,12.57-2.93,24.13-4.22,34.77l-2.99,24.55c-.75,6.14.48,15.74,4.79,18.4.93.58,6.23.12,6.63.91l1.84,3.59c9.77-2.88,20.52-6.21,30.83-7,6.52-.5,9.62-.51,17.03-3.86-.11-.25,1.96,4.45,2.79,6.31.77,1.73-4.15,3.93-6.18,4.49l-4.19,1.15c-.89.25.2,4.12,1.09,3.84l4.27-1.35c.95-.3,3.18-1.05,3.19-1.02l.87,2.59,3.35.95c.67.19,1.51,2.7.86,2.95l-4.94,1.87c-1.08.41-4.7,3.04-3.99,3.94l3.92,5.02c.95,1.21,3.54-4.72,3.76-5.08,2.7,3.73,8.01,6.45,12.34,6.26,1.6.12,3.38,3.9,2.67,5.49-.83,1.86-5.12,5.36-5.86,5.28l-4.3-10.4-2.01,5.38c-.21.57-.37.73-.84.4l-4.63-3.36,3.43,16.63,8.62-4.26-1.53,7.39c-.3,1.47,2.35,2.34,5.71,4.03l-14.87,6.72c-2.87,1.3-5.69,7.41-11.1,5.36-8.97-.03-15.93,1.75-22.75,4.8-10.59.91-20.82,4.36-30.98,8.31-8.55,3.33-6.8,15.16-8.62,21.21-1.4,4.63-6.31,8.53-1.54,14.21,3.51,4.18-1,8.94-1.15,12.87l-1.48,37.68c-.45,11.36-.51,19.06-3,32.11l8.25-4.29c8.59,1.52,18.58,2.4,27.69,1.03l16.06-2.4,33.58-.98c16.08-.47,33.65-.14,48.06-3.69,8.34-2.05,10.14-4.81,18.35-.86,9.24,4.43,23.15,3.66,34.19,3.45l-7.49-5.02,20.26.55-7.93,5.16,17.93.38c.99.02,4.27-2.1,4.48-1.18l.94,4.01c.21.89-1.73,1.05-5.93,3.4-.94-.49-.7-.37,4.03,2.11.28.17.61,1.12-.07,1.15l-6.53.27c-1.01,5.75,4.22,12.21,11.59,14.68l-6.03,2.61c-1.36.59-1.9,4.34-1.96,5.49l1.11,1.45,4.14,3.67c1.52,1.35-3.28,12.45.29,13.39l6.76,1.79-13.96,13.47-7.65,11.74c-2.73-2.23-3.58-3.35-4.57-2.81l-3.91,2.14c-6.46-8.54-14.06,4.71-18.62.92l-7.54-6.27c-5.51,4.96-12.21,6.77-19.19,5.5l-13.78-2.51,19.78-2.6-30.23-.7c-1.08.86-3.59,3.63-4.41,2.97l-3.07-2.43c-2.72,1.64-5.55,3.76-7.3,3.25-1.4-.4-5.22-2.79-6.67-2.64l-30.94,3.12-32.07,4.37c-10.38-.67-17,.76-26.81,2.62l-45.59,8.63c-21.19,4.01-32.07-14.35-35.88-9.86l-2.75,3.24-9.97-6.95c-3.73-20.78,4.08-39.52-.58-53.1l-3.91,32.01-4.46,17.18.59-35.12c.15-9.19-.47-18.81,2.32-27.91,2.32-7.56,2.3-13.99,1.53-21.91,2.17-.44,7.31-1.09,7.51-2.84l.95-8.22c1.04-9.06,1.45-17.38.64-25.27l-5.05,16.89c-8.13-11.63.38-20.06.4-30.33l.06-27.07,2.36-28.64,1.88-21.9,2.96-33.86,4.88-39.01,3.77-21.92c1.58,7.35,1.16,11.94.91,17.85l2.18,1.54,2.63-25.23c-3.19-1.36-6.97-3.87-6.83-5.51l2.4-27.1c.05-.61,1.57-3.43,1.93-3.96s.71-.23.94.4l1.99,5.5c5.53-8.99-8.25-13.91-4.14-19.92.89-1.31,2.21-1.39,6.98-2.07l.95-28.44c.17-5.09,3.15-11.57,7.38-13.48l20.75-9.41c7.12-3.23,9.29-8.37,12.95-14.16,5.04-7.94,20.41-7.97,29.19-9.5,8.62-1.51,18.13-4.88,24.84-.56l4.76,3.07c.59.38.48-1.28.34-2.06l-1-5.42,32.97-3.67,2.59,3.76,1.84,1.62ZM2650.09,477.48l5.53.76c1.3.18.91-3.76.45-6.34l-5.97,5.58ZM2654.25,461.77l-1.31-1.53c-.85-.38-2.73-1.63-2.53-2.72l1.15-6.17-7.13,5.71c-1.31,1.05,2.96,4.39,4.74,5.47,1.35.82,3.25.31,5.08-.76ZM2628.17,114.73c5.11,1.98,7.29.29,7.92-2.6l-7.92,2.6ZM2593.43,82.93c2.69,1.77,5.53,3.52,5.56,3.71.04.2.24-1.53.36-2.11l.47-2.35c2.65,1.91,7.94,4.5,10.14,3.33l7.97-4.24c.92-.49,4.44.38,5.46.54s.52-2.86-.19-3.61-3.58-1.85-4.73-1.75l-26.87,2.38c-2.31.2-7.54,5.36-6.26,7.07l4.97,6.64,3.11-9.59ZM2604.65,487.04c-.18,3.95.38,7.61,1.81,7.32,1.56-.31,6.27-1.24,5.24-1.04l-7.05-6.29ZM2574.25,107.01c5.82,1.87,12.06,2.45,17.26-1.55l-17.26,1.55ZM2578.24,68.76c2.01,2.23,5.64,4.68,6.7,3.59l3.96-4.08-10.66.49ZM2581.31,80.29c-.51-1.23-3.85,1.74-3.26,2.94l1.5,3.02c.4.8,4.11-.32,3.76-1.16l-2.01-4.8ZM2567.78,87.03l5.54,3.7c.96.64,3.77-2.18,3.1-3.11l-2.42-3.34c-.83-1.14-4.35-1.93-5.76-1.8-1.03.09-1.4,3.92-.46,4.55ZM2540.16,77.76c8.92-.84,15.68-2.4,24.66-5.55l-4.11-7.57,9.92-3.18-1.5-2.21-24.05,6.4-1.19,6.98c-.2,1.17-3.8,1.55-4.99,1.78l-4.18.82c-.76.15.1,3.03.88,2.96l4.57-.43ZM2534.63,54.1l12.18-.3c-.96-5.51-9.47-6.29-12.18.3ZM2517.99,445.99c10.38.32,14.51-.06,23.81-2.09l-10.99-2.84c-4.45-1.15-10.12.7-12.82,4.93ZM2516.15,77.04c4.05,3.85,8.95,3.94,14.27,2.19-4.47-2.29-9.74-3.3-14.27-2.19ZM2522.49,57.55l-1.39-2.02-10.23,1.06,10.88,5.36.75-4.4ZM2505.02,264.53l8.53-4.83c1.17-.66-2.7-4.19-3.87-3.51l-4.13,2.4-.53,5.94ZM2496.31,60.4l12.23-2.77c-5.35-2.78-9.92-2.23-12.23,2.77ZM2479.42,250.37c-.53-.82,1.25-4.62,1.75-3.82l2.85,4.56c2.37,2.04,5.7,1.91,2.55-3.41l10.06-4.89c-1.78-2.99-7.41-2.15-11.81-.61l-13.44,4.68c-2.26.86-4.56,9.03-2.23,9.81,9.52,3.17,14.14-.29,13.31-1.58l-3.04-4.74ZM2371.11,290.32c2.74-2.22,3.61-5.62,2.5-10.19-2.74,2.22-3.61,5.62-2.5,10.19ZM2370.78,316.33l1.7-1.1-.54-11.12-1.7,1.1.54,11.12ZM2370.36,340.22v-19h-2v19h2ZM2367.71,369.82l.25-9.86c-1.14,1.45-3.64,4.78-2.79,6.06.8,1.2,3.21,4.8,2.54,3.8ZM2363.77,433.42l.48-13.25c-5.01,2.16-7.41,8.61-.48,13.25Z"/>
          <rect class="cls-1" x="2684.31" y="80.04" width="5.18" height="6.34" transform="translate(256.087 -1064.6182) rotate(23.5029)"/>
          <g>
            <path class="cls-1" d="M2356.64,103.14l2.51-15.46c3.05,5.39,3.55,13.88-.92,16.71l-2.29.85c-3.3,3.93-6.43,8.49-8.72,13.56l-1.95,4.32c-.38.84,2.97,2,3.85,2.37l5.32,2.17c1.54.63-.24,6.38-1.9,6.53-2,.18-7.39,2-7.82,3.64-.53,2.02-.42,5.32.74,7.87l-13.46,5.79-25.54,1.63c-7.81.5-14.65-2.39-22.22-2.35l-50.82.24c-7.94.04-16.95-5.94-24.4-.62-6.04,4.31-17.76,2.54-26.19,1.89l-7.88,15.14-.13,12.13c5.42,10.05,4.1,19.8-2.37,28.55,1.49,2.3,3.68,7.4,3.33,9.59l-4.8,29.37,4.82-.51c3.95-.42-8.53,11.67.05,21.15l-2.23,3.65c-.6.99,2.33,4.61,2.25,5.95l-2.13,36.75.07,20.23c-3.14,10.66-7.6,24.18.99,33.62-2.83,3.31-5.68,7.13-6.78,9.86-1.01,2.51,2.95,6.78,5.56,9.81,1.43,3.86-2.87,11.72-6.9,15.13-7.67,6.48,5.47,8.57,3.07,15.2-.64,1.77-3.11,3.02-6.6,4.12-6.25,21.85,4.1,32.44.61,38.29l-4.01,6.71c-1.02,1.71,4.41,6.07,4.23,8.04l-2.96,33.88c-.12,1.34,4.16,3.51,4.73,4.72s-.86,5.02-2.2,5.02l-7.56-.02-18.21,11.92-8.61-4.89,1.27,12.03-3.35,1.8c-.54.29-3.1.03-2.7-.44l2.96-3.41-7.31-16.95-2.23,11.45c-.68,3.52-2.78,8.11-4.72,9.64l.83-6.26c.67-5.09-7.76-3.02-17.75,6.63l-1.66-3.19c-.47-.9-2.09-3.37-2.63-2.55-.61.93-2.93,4.41-2.5,3.77l-6.51-10.65,1.22,10.41-14.36-8.71,6.55-1.96c1.1-.33,2.59-4.09,1.51-4.45l-7.14-2.36c-2.74-.91-9.91-36.66,4.75-53.68l-6.53-6.64c-1.49-1.51,1.73-6.36,1.96-8.95l3.57-40.99,7.31-72.01-.51-17.85-.19-18.13-.14-17.78,1.1-16.39,3.21-69.58.34-17.04.33-23.94c-7.08,1.12-12.13,1.73-15.26,3.11l-27.22,2.94-14.91.98-36.08,2.36-30.15.4-17.35,3.73-41.05,5.97c-11.48,1.67-16.84-8.49-17.27-17.57l-2.02-43.47c-.2-4.36,1.7-11.55,3.9-14.84,2.25-3.36,11.15-4.89,15.59-4.49l22.69,2.08-4.06-5.85,15.57-3.86c7.18-1.78,8.93,11.33,31.02.55l-4.4-2.96c-.94-.63,2.25-3.77,2.82-2.78l3.19,5.61c4.92.99,13.93-.1,21.36-2.33l-10.18-4.64c4.77-1.17,11.34-.91,16.38.79l5.43-2.86c1.65-.87,5.76,2.03,7.5,3.29,5.66-2.99,11.95-4.7,18.84-5.23l42.36-3.25c6.09-.47,12.85-.21,18.41.21-4.88,1.71-10.54,2.11-13.85,1.89-.87.25-2.85,2.36-2.14,2.93l3.95,3.13,2.67,2.65c.54.54,3.12,0,2.87-.72l-1.56-4.67c-.48-.04,4.04.39,5.34.51,1.13.11.96,1.53,1.99,4.83l4.54-6.74,25.04.86,7.53.15c2.05.04,2.95-4.74,3.33-9.35h16.51c-.23,2.1-.95,5.04.09,5.11l6.9.46,4.86-.21c.81-.03,2.19-2.36,1.47-2.68l-6.86-3.11,21.27-1.18c7.82,3.69,14.56,6.12,22.93,5.83l23.17-.79c1.53-2.58,3.18-5.51,4.6-6.04,1.78-.66,5.01,2.33,6.91,3.62l2.75,1.87c.8.55.17-2.25-.52-5.19l17.61.35-7.29,1.57c-2.9.62,7.89,13.27,19.25,11.28l-1.48-5.55c-.24-.9,1.16-1.67,2.56-2.28.87-.38,2,1.97,1.99,3.25-2.85,3.01-1.16,6.49,2.13,4.62l2.87-14.64,64.58-3.28-6.87,4.38c5.51,2.36,13.52,2.66,20.4,1.56l-6.39-5.48c4.66-2.97,8.98-.16,11.19,4.48,1.72,3.61-2.08,7.53-7.11,10.29l7.12,3.86c1.85,1-.12,7-1.36,9.35-1.73,1.65-6.28,4.68-4.91,6.15l5.58,5.97,2-1.28ZM2334.39,97.86l8.41.22-3.69-4c-.7-.76-3.02,1.68-4.72,3.77ZM2299.35,72.73l17.37-2.26c-5.2-4.36-13.06-8.37-17.37,2.26ZM2262.15,114.69l1.07,3.78,13.34-.18c.81-2.48,1.51-5.02,2.88-4.34l6.01,3.01c.8.4,4.21,1.02,5.49,1.22.61.09.3-.85-.03-1.47l-2.21-4.12,17.58-2.37c1.43-.19,2.02-5.38.65-5.07l-5.34,1.22-15.41.6c-10.4.41-18.95.17-28.36,4.28l14.31,2.15.12,2.01-10.08-.72ZM2301.64,81.62c1.65-2.52,4.3-6.29,3.01-6.63l-6.23-1.62-4.45,3.13,7.67,5.12ZM2272.21,144.27l1.07,4.68,15.55-4.03-16.62-.65ZM2276.51,75.91l11.57-6.39c-3.36-1.11-7.7-1.36-9.28-.16s-2.52,5.2-2.29,6.54ZM2262.23,85.72c-.97.78,3.95,2.87,5.18,2.98s3.77-3.63,2.74-4.32c-1.28-.86-6.39.11-7.92,1.34ZM2199.68,99.14c3.61,3.13,7.48,5.57,10.12,5.44l23.15-1.16c2.07-.1,8.08-.26,7.53-2.12-.44-1.49-2.11-4.11-3.55-6.33l15.73-1.85,17.76-1.55-1.05-1.21-21.54-.48c-.92-6.36-8.48-6.22-13.79-2.33l10.66,1.62-12.37,4.46c-6.82,5.55-13.92,5.3-19.97-1.65l-12.67,7.18ZM2268.39,146.3l-13.99-.35-.06,2.48,13.99.35.06-2.48ZM2250.05,88.22l10.61-.64c.44-1.66-3.72-5.32-5.07-4.15l-5.54,4.79ZM2251.93,100.3c1.59.04,6.51.22,6.36-1.02-.16-1.36-.56-4.63-.49-4.11l-11.52.51c-1.28.06-2.42,4.39-1.12,4.43l6.77.19ZM2198.39,79.02l12.16.39c-3.96-1.05-8.57-1.19-12.16-.39ZM2210.11,140.59l-5.79.33c-.78.04.34,3.26,1.12,3.29l3.91.11c.78.02,1.56-3.77.77-3.72ZM2200.05,84.59l-5.74.34c-.78.05.35,3.26,1.13,3.28l3.91.11c.78.02,1.5-3.77.71-3.73ZM2182.27,142.6l1.09,1.74,13.12-.5-1.09-1.74-13.12.5ZM2165.27,85.59l-.14,2.73,19.18-.4c3.01-3.97.57-4.09-2.23-2.66l-16.81.33ZM2152.7,113.17c1.41,2.32,6.79,2.67,9.85,2.51l20.33-1.04c-1.9-3.32-3.39-5.48-4.98-5.09l-6.53,1.58c-4.46,1.08-15.06-3.38-18.67,2.04ZM2166.64,98.54c-.91,1.29,1.23,6.33,2.68,5.7,1.08-.47,3.46-1.93,4.5-2.79,1.52-1.25-6.02-4.53-7.18-2.91ZM2148.13,89.46l10.38-1.89c-3.3-2.45-10.02-2.02-10.38,1.89ZM2146.28,98.97c2.22,2.74,5.62,3.61,10.19,2.5-2.22-2.74-5.62-3.61-10.19-2.5ZM2124.72,100.88c7.32,6.91,14.2,3.53,19.82-.54l-19.82.54ZM2135.78,120.4c-.33.68,3.53-1.88,3.01-3.02l-1.81-3.94c-.5-1.1-4.28-1.84-5.67-1.91-1.23-.06-.86,3.46,0,4.35l4.46,4.52ZM2104.35,115.33l20.05.98-.11-4.21-19.93,3.23ZM2104.36,105.42c1.31.13,8.11-.03,8.23-.21-.64-4.4-8.11-4.38-8.23.21ZM2092.32,266.24l4.34-.8-1.15-15.61-3.19,16.41ZM2086.96,271.48c7.08-7.78,2.53-13.85-.4-19.4l.4,19.4ZM2064.09,88.39l9.5-3.64c-1.93-5.56-6.02-5.29-9.59-3.73-1.89.83-1.84,8.1.09,7.36ZM2040.39,109.66l19.48-.33c-6.98-5.67-15.28-4.52-19.48.33Z"/>
            <path class="cls-1" d="M2186.05,72.16c1.34-1.89,3.97-4.96,5.38-4.37l9.33,3.88-14.72.49Z"/>
            <path class="cls-1" d="M2203.19,69.01l11.16-.75c-1.56,4.67-7.46,7.17-11.16.75Z"/>
          </g>
          <path class="cls-1" d="M2554.04,68.59c.81-.05.06,3.75-.72,3.73l-3.91-.11c-.77-.02-1.91-3.24-1.13-3.28l5.76-.33Z"/>
        </g>
      </g>
    </g>
  </g>
</svg>