<?xml version="1.0" encoding="UTF-8"?>
<svg id="Layer_1" data-name="Layer 1" xmlns="http://www.w3.org/2000/svg" viewBox="0 0 649.91 731.41">
  <defs>
    <style>
      .cls-1 {
        fill: #5a8a1f;
      }
    </style>
  </defs>
  <path class="cls-1" d="M582.1,645.01l-3.62-7.02,3.77.69c.76.14,3.28-.76,2.95-.07l-3.11,6.4Z"/>
  <g>
    <path class="cls-1" d="M270.38,727.52l-16.98-7.85-34.44-19.69c-29.44-16.83-54.78-37.12-79.51-60.56l-31.97-30.3c-10.03-9.51-14.33-25.23-29.72-35.9-2.18-8.62-4.97-20.22-11.57-26.07-5.87-5.2-9.23-9.6-12.01-16.88l-9.9-25.93-13.41-36.6-7.66-19.9-11.53-50.89c-5.26-23.22-9.97-45.18-10.81-69.19-1.19-34.09-1.74-67.58,2.27-101.55l6.32-27.93,12.83-45.19,14.36-44.85c13-18.52,26.27-34.61,41.51-51.61,3.69-4.11,13.87-8.21,19.52-11.63l-12.04,13.03,14.51,5.74,14.61-11.31c3.31-4.98,5.59-7.62,10.4-10.13l6.62-5.22c1.92-1.52,7.91.89,10.61,1.53l35.65,8.51c30.09,7.18,58.46,20.62,81.82,42.37,20.32,18.92,35.31,43.27,50.45,66.78,2.11,3.27,5.94,6.71,8.55,7.23l17.91-41.19c2.07-4.76,6.18-8.57,10.7-11.85l-2.99,10.22c3.79-2.25,6.53-11.36,9.72-14.68l14.04-14.59,17.84-16.35-9.88,13.9,3.1.87,26.23-22.76,9.47-9.31-15.24,7.02c3.58-9.54,7.75-14.12,15.36-16.52l9.49-2.99-6.21,8.63c.42.82,2.05,2.99,1.76,4.05l-1.68,5.98,19.59-16.07-7.86.33,10.66-10.03c-.46-.34-3.25-2.46-2.45-3.3l4.79-5.01-7.84.29c16.31-12.01,34.21-20.28,54.55-25.34l-8.42,7.95c8.24.76,11.53-6.65,16.19-12.59,10.37-1.33,21.39,4.68,31.14,9.02,25.36,11.28,47.3,26.35,67.99,44.62,16.23,14.34,27.22,32.63,35.15,52.88,14.93,38.15,20.62,60.63,16.81,102.53-1.63,17.95-3.39,35.12-8.39,52.24l-8.18,28-6.33,3.25,10.46-40.46-1.96-1.66-25.03,74.3c-15.56,46.19-44.27,83.56-74.1,121.41l-28.37,36c-4.84,6.14-9.14,8.66-16.44,9.94l.18,2.44c.75.82,2.67,2.95,1.95,3.81l-4.34,5.18c-15.62,18.62-27.84,18.72-22.53,32.03l-16.13,15.99c2.11-8.03,6.24-10.38,11.67-16.89l-10.13,7.07c-1.18-1.11-4.64-3.48-5.6-2.23l-5.44,7.02c-1.19,1.53,4.38,5.18,6.71,6.86.46.53-3.25,6.4-4.89,5.34l-7.82-5.09-6.44,6.17,7.4,4.42c1.85,1.11-1.92,7.67-3.52,9.17-13.75,12.89-14.38,19.61-20.8,17.04,3.71-6.09,5.49-10.16,7.09-15.77,2.87-2,6.2-5.3,5.71-9.89l-18.21,16.18c3.13-7.2,7.03-11.88,11.72-17.29-.93-.02-3.56-.35-4.04.17l-3.04,3.33-16.27,17.85-16.42,17.6c3.59-7.91,8.77-16.69,15.03-22.95l27.48-27.47,1.33-.85,19.96-22.7,22.53-22.84-.61-2.82-21.99,21.16-26.61,24.14,2.67-8.81-14.94,12.63,2.9-10.83-8.37,5.22-2.04,1.68c-5.26,4.34-10.94,14.57-15.1,23.32l10.04,5.4c-14.18,5.05-13.96,13.14-19.77,22.59l-14.96,24.32c-4.18,6.8-8.93,11.57-16.13,9.11l.74-6.67-27.45,36.92-2.12,2.86c-.54.72,4.57-.63,5.42-.25l27.51,12.48-7.23,2.47,6.83,6.19c.44-.09-3.55.76-5.57,1.2-1.73.37-4.12-3.23-5.49-5.08l-10.11,3.56-1.61,1.06,17.47,8.65-13.5.87,6.61,8.33-19.8-4.75-6.31,5.5,2.73,2.36c.69.59-.86,2.06-2.5,3.89l3.96,5.63c-9.6,3.66-16.65,1-28.52-3.44,1.42,2.83,6.05,6.63,9.54,8.33l3.73,1.82c.73.36.34,2.56-.47,2.55-7.88-.13-15.6-8.56-20.18-2.61l.47,1.85,12.34,1.71c-4.68,4.93-10.44,2.71-13.27-.11l-1.53-.87ZM464.15,42.74c-.53-3.22-7.55-.59-10.32,3.86l8.79-1.15c.31-.04.45-.32,1.53-2.72ZM464.5,44.89l-.97,1.15-12.47,8.97c8.17-1.75,13.21-4.69,19.1-8.82l-5.67-1.29ZM420.4,73.37l-11.23,13.77c13.63-8.49,24.31-16.53,36.97-27.22-6.82-1.09-19.87,13.18-18.22,8.36l1.86-5.43-12.73,7.01,3.34,3.51ZM239.37,639.9l-6.61-6.97,8.14,1.57-3.19-9.66,34.5,23.15,21.92-28.68,20.41-31.32c5.04-7.73,7.64-15.1,15.55-21.39l-9.9,24.57c9.48-13.53,18.32-26.52,29.35-37.82l3.41,2.84c.61.51,2.17-2.54,2.76-3.27l8.89-10.94.38,10.41,14.6-15.26c10.78-11.26,24.13-19.05,30.34-34.27l-16.04,14.18c-6.59,5.82-10.25,11.65-18.9,16.58-1.56-4.7.35-7.78,3.92-11.39l31.8-32.11,13.84-14.22,29.22-32.98,25.79-34.02c8.51-11.23,19.85-19.73,24.13-35.44l-32.62,39.87-1.85-1.53,25.98-33.22c22.47-28.73,38.4-59.95,48.85-94.16l2.96,7.29,11.98-37.72-6.25,7.57,5.45-19.17.81,11.37c6.99-16.24,6.47-32.02,7.88-48.16.93-10.7.64-18.21-2.83-29.12-1.43-4.5-1.11-15.47-4.78-18.45-4.92-4-8.45-7.17-10.31-12.51-6.15-17.63-16.17-33.82-32.48-43.01l-15.42-8.68c-1.77-1-6.64-4.21-7.83-2.72l-5.25,6.51c-12.11,4.44-22.25,10.81-32.25,19.54l-19.01,16.6-20.75,25.63c-9.17,11.32-18.46,25.94-21.08,40.43l-15.4,85.09c-1.45,8.01.48,12.23-7.16,17.24l-14.57,9.54-8.4-8.69-11.68,5.19,1.86,14.83h-2.66s-5.77-17.31-5.77-17.31l.31,22.01-5.62-11.03-2.32,11.25-10.35-12.06-.37,16.02-4.11-7.24-3.62,18.68-6.61-21.17-1.71,9.27-4.91-9.34-5.29,9.49-11.29-38.03c-7.38-24.87-15.73-47.87-28.6-71.33l-11.3-20.59c-9.92-13.07-17.44-27.68-29.64-38.16s-28.03-21.87-43.75-23.06l-21.23-1.6,7.44-3.57-11.54,1.31c-3.07-.09-3.78-.79,1.13-3.2-4.62-1.11-10.51,1.99-15.71,5.59-10.29,7.14-14.27,17.12-18.79,28.13-17.06,41.54-27.61,77.44-23.97,124.92l-4.55-27.67-2.26,22.66,2.18,69.95c.5,16.11,8.91,31.39,5.76,48.75l-13.33-47.21-2.7,2.63,4.18,22.99c-1.39,3.42-2.83,3.35-4.77-2.92l2.29,18.56,1.7-1.71.94-11.69,27.03,95.25c3.22,11.36,11.37,22.43,18.02,31.89-8.98-24.95-25.38-45.3-23.54-73.3l4.45,17.77c2.03,8.11,4.89,15.66,9.86,21.47l.35-11.11,6.8,14.67,20.89,25.5c2.75,3.35,4.31,6.92,4.84,10.18l-4.56-6.04-2.34,2.01,22.49,35.45,37.39,38.27c3.87,3.96,9.03,6.09,10.68,11.16l-22.27-16.26-2.16,5.78-7.45-7.8,9.18,1.72-11.96-12.6-1.52,9.15-29.46-32.6c8.46,15.73,19.66,29.99,33.19,41.15l24.27,20.02,24.1,19.77c7.11,5.83,12.98,11.84,21.5,13.61l.89-1.54ZM361.58,104.57c5.74-.1,8.33-3.7,7.76-7.81l-7.76,7.81ZM66.6,357.74l-5.44-68.79c-2.5,2.53-2.07,4.33-1.95,8.35l1.35,43.71,4.25,17.83,1.78-1.09ZM508.15,373.34l11.38-18.93c11.4-18.95,22.1-37.66,28.92-59.82-1.91,1.59-6.18,6.17-7.14,8.44-8.37,19.74-18.05,39.68-30.31,57.47-3.07,4.46-4.42,9.46-2.86,12.83ZM533.36,420.55c10.16-10.24,19.08-21.62,27.31-34.29l13.36-20.57,8.09-22.83c-11.26,7.24-11.72,20.97-18.44,30.8l-18.5,27.05c-4.26,6.22-8.69,11.52-11.82,19.85ZM538.28,425.08l2.91,2.4,14.87-21.08-1.85-1.62-15.93,20.29ZM526.52,426.28c-5.88,3.64-9.23,7.35-10.86,12.95,3.24,4.2,12.81-5.8,10.86-12.95ZM487.68,480.19l29.18-37.21c-10.24,2.42-14.23,10.83-19.64,17.73l-27.99,35.75c6.64-3.48,13-9.33,18.44-16.27ZM456.96,496.19l15.71-21.17c-11.22,3.01-15.95,12.61-23.09,19.37.56.38,6.68,2.75,7.38,1.8ZM489.93,491.35l9.95-15.76-3.65-.37-16.13,21.07,8.47-3.3,1.36-1.65ZM419.19,536.54l3.29.46,20.88-22.07-7.05-8.36-10.84,14.17c-4.88,2.95-12.56,6.09-12.45,14.74l16.29-10.42-10.12,11.49ZM469.62,508.03l-11.99,12,2,2,11.99-12-2-2ZM411.66,516.03l-9.99,10,2,2,9.99-10-2-2ZM129.1,539.16c.05-6.13-3.44-12.37-9.59-16.14,2.1,5.72,5.22,10.77,9.59,16.14ZM439.26,537.28l2.24,2.32,12.93-13-1.93-1.21-13.24,11.9ZM395.92,545.07l3.17-5.03c.51-.8-3.83-1.41-4.95-1.63l5.17-7-2.79-.17-13.13,12.97,4,6.44,7.17-3.41,1.36-2.16ZM421.71,554.14l-1.71,2.34c-.38.52,1.16,1.96,2.41,2.97l9.67-12.05-9.39,5.12c-.29.16-.51.5-.98,1.62ZM158.73,590.36c1.27-7.31-4.39-11.22-9.7-12.55l9.7,12.55ZM186.98,612.23c.78-8-5.02-11.04-11.76-10.61l11.76,10.61ZM272.63,664.42l17.52-29.59c-7.3,5.09-10.81,10.35-15.54,17.65-2.12,3.27-8.41,7.77-1.98,11.94ZM240.85,640.89l-.38,1.55,22.92,16.86c3.1-1.46,7.18-8.01,4.85-9.32l-9.8-5.51,3.25,8.48-20.85-12.06ZM320.61,685.18c-1.99-6.43-15.75-12.69-18.62-8.24l16.1,10.18,2.52-1.93Z"/>
    <path class="cls-1" d="M512.63,489.06l-20.94,17.88,42.29-53.49,9.12-11.29,11.75-13.06c.07,7.95-4.14,13.32-9.37,19.72l-32.85,40.24Z"/>
    <path class="cls-1" d="M629.82,298.53l-5.48,14.68c-2.48-7.83-2.61-13.41,2.47-18.55.55-.56,3.32,3.03,3.01,3.86Z"/>
    <path class="cls-1" d="M569.42,409.48l8.53-14.25c1.56,4.14,2.22,7.64,1.16,9.94-.88,1.9-4.13,3.4-9.7,4.32Z"/>
    <path class="cls-1" d="M366.81,621.86c-1.58-7.65,2.37-13.23,9.06-14.58l-9.06,14.58Z"/>
    <path class="cls-1" d="M319.27,659.87l5.93-7.17c.69,3.68-1.24,6.41-5.93,7.17Z"/>
    <path class="cls-1" d="M377.55,616.7l5.67-.94c1.05-.17-1.32,4.01-1.89,4.9s-3.77-3.24-3.78-3.97Z"/>
    <path class="cls-1" d="M433.84,456.84c3.43-8.19,8.56-15.07,16.1-19.18-5.13,7.43-9.83,12.98-16.1,19.18Z"/>
    <rect class="cls-1" x="202.36" y="602.96" width="2.83" height="14.14" transform="translate(-371.6 322.62) rotate(-44.99)"/>
    <path class="cls-1" d="M408.01,484.93c.32-5.17,4.32-9.36,10.06-9.62l-10.06,9.62Z"/>
    <polygon class="cls-1" points="418.88 471.62 426.5 462.93 428.27 464.57 421.6 472.48 418.88 471.62"/>
    <rect class="cls-1" x="219.35" y="617.37" width="2.83" height="11.31" transform="translate(-375.82 338.43) rotate(-44.99)"/>
    <path class="cls-1" d="M85.47,418.97c-4.29-2.4-4.72-7.84-2.32-12.08l2.32,12.08Z"/>
    <path class="cls-1" d="M194.62,603.46l-7.17-5.93c3.68-.69,6.41,1.24,7.17,5.93Z"/>
    <path class="cls-1" d="M461.19,421.88l5.93-7.17c.69,3.68-1.24,6.41-5.93,7.17Z"/>
    <path class="cls-1" d="M451.2,433.88l5.93-7.17c.69,3.68-1.24,6.41-5.93,7.17Z"/>
  </g>
</svg>