<?xml version="1.0" encoding="UTF-8"?>
<svg id="Layer_1" data-name="Layer 1" xmlns="http://www.w3.org/2000/svg" viewBox="0 0 809.76 834.77">
  <defs>
    <style>
      .cls-1 {
        fill: #5a8a1f;
      }
    </style>
  </defs>
  <path class="cls-1" d="M453.8,829.2l-2.58,4.8c-.49.92-4.26-.69-4.27-1.73l-.02-4.83c-2.05-5.18-9.92-7.57-17.17-5.93-25.4,5.71-52.21,10.23-77.41,11.82l-3.78-5.43c.11.16-7.16,10.49-24.86,5.51l7.64-5.91-13.69,2.28,6.76-5.11c-9.29-1.73-16.06,1.32-17.23,9.15l-10.66-2.56c3.36-3.05,3.09-3.53,2.13-3.94l-7.03-3.24c-1.2-.55-4.06,2.45-4.73,3.59-.84,1.43,1.89,4.05,3.32,5.69l-39.13-2.73.73-5.84c.15-1.17-5.8-2.03-6.15-.9l-1.42,4.57-10.76-.16c-2.27-.03-3.42-3.51-5.43-7.6l-16.61-.75c-1.02-.05-1.99,5.74-2.95,5.38l-5.99-2.22-20.47-6.09c-11.02-3.28-21.44-13.15-30.91-19.83l-23.06-16.27c-.2-.82.27-3.45-.85-3.95l-5.89-2.68-18.38-11c-7.5-9.2-15.46-14.63-27.41-17.38l-14.81-3.41c-5.7-5.66-15.52-13.63-19.52-20.96-9.35-17.13-19.05-33.79-23.81-52.35l-10.23-39.94-3.27-20.09-3.87-22.36.6-20.75,1.65-24.15c1.1-16.08,14.77-10.95,19.49-16.04,1.39-1.5-.26-6.17-.54-8.71l-7.61-69.13c-2.26-20.54.45-39.68,1.59-60.03,1.42-25.39,2.43-48.9,9.19-73.51,5.41-19.71,9.41-39.39,18.39-57.88,4.76-9.79,8.57-20.7,14.59-29.41l24.59-35.62,29.33-40.73,15.87-17.82,13.05-13.17c11.84-11.95,25.29-22.71,39.27-32.23l22.6-15.39,48.98-27.71c8.73-4.94,18.26-9.1,27.62-12.1l32.1-10.3,24.54-5.33,35.16-9.67.84,4.28c.18.92,3.55,1.19,4.57,1.05l55.37-7.45c12.74-1.71,21.85-2.84,35.35-1.51,13.54,1.33,37.74-6.26,44.52-2.44,8.11,4.57,16.33,2.93,25.33-.18l17.28,2.48,19.55,3.18c1.48.24,7.34,1.43,6.53,2.52l-3.63,4.86,8.4,2.84-11.75,2.36,11.09,1.98-6.58,4.27,6.3,1.88c-5.4,2.61-2.2,3.15.76,2.38l4.2-1.27c.97-.29,3.72,1.86,3.08,2.65l-3.94,4.87,52.4,22.73c17.49,7.59,35.45,20.15,48.2,34.51l12.52,14.09c17.88,20.13,30.2,44.15,41.92,68.8l20.39,42.87,6.2,16.34c18.62,32.81,37.33,94.73,38.92,132.16l1.04,24.54-.55,38.69.95,14.71c.25,3.93-1.69,8.23-3.93,12.01l-4.65,7.86-23.9,93.91-7.73,25.81c-3.78,12.61-7.62,23.35-13.4,34.91l-8.88,17.74,2.91,4.62c.5.79-2.15,3.64-2.92,3.09l-4.58-3.25c-18.01,29.28-37.38,55.58-60.29,80.43l.59,6.49-8.33,4.31c-2.15,1.11-2.04,6.69-2.01,8.75-4.66.73-7.89,2.08-11.38,5.13l-20.36,17.81-13.99,7.44c-.76.4-1.19,5.32-1.86,4.76l-4.53-3.85-21.07,14.6,5.92,1.65c.88.24-.51,2.26-1.29,2.65l-5.55,2.75c-1.18.58-3.25-1.2-6.04-3.24l-13.1,9.12,13.29,1.89-15.49,7.85-14.47,5.98c-10.07,4.16-23.26,4.08-34.11,6.23l-26.98,5.37-.66-9.57c-11.93,3.18-20.11,5.07-29.21,5.77-2.14-4.66-2.67-5.62-2.19-4.22-2.23,3.86-2.85,5.06-2.91,5.05l-3.42-.35-5.7-.6c-1.56-.16-2.96,3.56-3.73,4.99ZM428.73,751.56l29.52-8.05c5.74,4.34,7.69,5.26,13.77,7.74l-8.71,6.43,23.24-1.13c32.65-1.59,63.94-16.7,88.69-37.39l29.04-24.28,8.05,6.93,12.35-10.82,21.47-24.93,9.73-12.4c5.41-6.9,10.66-14.13,13.55-20.89l-4.57-4.3c-2.76-2.59-10.92,18.71-22.21,23.57l28.48-38.83c1.62,4.29,1.81,8.25,1.89,15.12l10.63-12.87-6.42-4.28c-.96-.64,1.93-3.95,3.07-4.14l6.31-1.03,8.05-21.45c2.53-6.74,6.84-12.62,4.36-19.3-5.41,15.15-9.48,27.86-20.64,38.14l14.53-36.98,7.45-20.39,11.87-36.04c5.22-15.86,8.78-31.15,10.39-47.99l3.84-40.08,1.77-34.05,5.06-13.58-5.3-24.74c-4.58-7.33-5.61-16.9-8.35-25.38-11.06-34.21-25.56-66.05-41.47-98.1l-17.28-34.81c-5.2-10.47-12.12-18.09-20.01-25.96-16.94-16.89-34.66-28.87-57.26-37.21-15.2-5.61-29.87-13.95-46.03-17.21l-24.88-5.03-41.51-4.05,5.01-2.79c.53-.3,1.49-.33,1.02-.6l-3.62-2.12c-7.13-4.18-16.23-8.54-14.28-19.81l-19.61,2.45c-19.37,2.42-37.65,3.56-56.66,7.97-40.85,9.47-80.87,19.52-117.38,40.83-17.63,10.29-34.41,20.87-49.64,34.53l-21.92,19.66-13.61,14.47c-20.16,24.14-36.84,50.37-52.3,77.61-6.14,10.82-8.55,21.66-11.62,32.99-3.09,11.38-8.15,22.26-9.45,34.07l-3.96,36.21-2.29,67.83c-.25,7.56-2.24,13.47-1.55,21.07l3.22,35.66c1.28,14.2,3.68,26.88-2,39.97l-17.69.05c-3.63,13.66-4.64,29.22-.76,44.02l9.07,34.52,3.46,24.38-4.6-7.97-2.26-.19c2.96,10.03,7.51,20.36,12.51,29.35l4.64-4.33c.53-.49,1.82,2.76,1.26,3.22l-4.45,3.65c6.46,8.7,16.27,9.82,23.77,20.13-.33,2.78-.75,5.95.58,6.42l6.56,2.3,6.19,2.17c.91.32.52,2.64.53,4.23l22.98,12.98c1.38.78,3.24,7.68,4.67,6.86l5.29-3.04,14.2,4.09-5.56,3.35c-.97.58.19,3.47,1.31,3.5l5.8.12c3.89.08,8.49-.78,10.78.11s4.68,6.57,4.53,8.18c-2.09,2.32-3.21,3.29-2.48,3.9.49.41,3.04,1.94,3.69,1.84l11.08-1.68c19.9,13.89,42.31,17.77,66.52,15.23,7.72,6.38,18.11,4.69,25.52,1.04l9.14,5.85c.82.72,3.09,4.19,4.29,3.47l5.85-3.49c3.07-1.84,10.24-2.21,14.89-2.66l30.6-2.94,23.28-1.39,32.98-7.48ZM754.22,338.67l-5.89-12.04c-3.89,4.62-2.49,12.04,5.89,12.04ZM744.93,366.79c1.17-.96,3.04-2.39,2.3-2.89l-2.18-1.45c-.5-.33-4.55.76-4.47,1.34l1.41,10.38c2.84-2.01,5.18-3.59,4.65-4.49l-1.71-2.89ZM723.92,499.92c.56-1.36-4.22-1.55-4.36-.03l-1.34,14.46,5.7-14.43ZM709.15,541.44l2.79-6.26c.4-.89-1.52-3.69-1.35-2.76l-2.77,6.24c-.41.91,1.47,3.68,1.33,2.79ZM658.97,658.12c4.44-.96,6.62-1.63,8.91-3.07,1.54-.97,1.2-4.42-.62-8.08l-8.29,11.14ZM645.8,678.96c3.52-4.9,13.37-7.12,10.13-17.48l-17.54,18.95-9.01,9.73,6.26,2.94,10.16-14.14ZM625.3,703.33c-2.88-4.79-10.48-.74-10.39,4.61,2.47.59,9.54-2.13,10.39-4.61ZM592.58,716.82l-9.05.07-3.11,10.81,12.17-10.88ZM568.7,736.66c-.05-.4-3.75-1.8-4.38-1.38l-24.24,16.2c9.46-2.82,17.7-8.09,28.62-14.82ZM228.02,805.83l-7.01-5.74c-1.09-.89-4.59,5.9-3.25,6.33,2.65.84,8.75.31,10.26-.59ZM265.64,826.87c-3.36-1.89-6.86-3.71-7.39-2.5l-1.64,3.81,9.03-1.31ZM378.63,828.16l.63-4.69-15.54,3.57,14.91,1.11Z"/>
</svg>