<?xml version="1.0" encoding="UTF-8"?>
<svg id="Layer_1" data-name="Layer 1" xmlns="http://www.w3.org/2000/svg" viewBox="0 0 573.53 514.1">
  <defs>
    <style>
      .cls-1 {
        fill: #5a8a1f;
      }
    </style>
  </defs>
  <path class="cls-1" d="M455.74,466.58l-6.21-1.91,18.52-19.58c-2.31-5.11-7.06-8.98-11.47-12.37l-17.02-13.1c-6.94-5.34-15.3-12.73-23.36-16.18l-90.97-38.87-26.88-11.62-51.44-24.59c-9.66-4.62-19.66-7.12-30.25-10.47l-12.8-4.06-24.12-8.16c5.48,4.84,11.85,8.7,19.26,12.51l25.81,13.29c2.37,1.22,1.23,10.61-1.02,11.83-2.65,1.44-7.25-.91-10.92-2.79l-30.45-15.66-22.92-9.41c-10.44-4.29-19.24-9-30.55-11.38l-23.4-4.92c-1.64,19.36-4.96,35.68-14.42,51.88-3.58,6.12-12.35,10.86-18.09,13.72l-13.6,6.77c-8.74,4.35-17.62,3.34-23.77-4.13l-10.78-13.08c-8.03-9.74-8.93-20-10.42-32.2l-8.64-70.47-1.46-30.35L.26,156.96c-1.22-19.13,1.91-37.53,6.79-56.24-2.57-15.23,3.83-28.11,16.69-37.91,9.19-6.86,29.16-9.65,37.17,1.13,16.96,22.8,17.2,63.2,20.53,62.61l6.15-1.08,54.07-.53,42.24,3.29,37.02,4.13c12.22-20.91,28.5-41.42,50.9-52.81,2.81-.54,10.94-.06,11.95-2.61l4.36-10.98c7.12-17.94,19.41-32.97,34.17-46.03L350.04,0c23.67,3.05,16.12,16.43,26.16,39.19,5.65,12.81,6.05,27.46,3.87,41.98l17.83,5.72,4.89,4.67c1.04.99,2.66-4.26,3.55-5.6l11.79-17.75c10.14-15.26,24.12-2.88,15.88-17.24,3.88-2.36,9.77-3.18,15.12-2.62l-3.07-3.18c-.88-.91,2.51-2.69,4.57-3.81,9.2-.13,16.09,8.29,15.35,17.89,8.12,10.39,9.8,22.83,8.79,35.32,6.58,8.24-2.52,18.51,2.56,23.67,1.95,1.98,6.41,4.42,9.55,5.77l5.02,2.16c1.22.52.85,3.69.8,5.35l8.16,7.26c6.26,5.58,9.21,13.4,13.34,20.75,6.82,12.15,8.33,22.9,6.04,36.6-1.31,7.8-3.36,16.58-7.89,23.21l-7.37-1.76c-1.36-.32.31,3.77,1.41,6.83-3.51,5.39-11.18,10.45-17.95,12.32l-18.64,5.15,28.72,21.18c3.1,2.29,5.12,11.17,4.45,14.73-7.7,5.3-13.48-.42-16.37-6.95-14.02-4.64-26.32-12.23-32.82-25.02l-23.42,5.36c2.06,10.3,8.94,16.59,16.41,22.98,11.86,10.13,23.21,18.2,36.84,25.49l22.29,11.92-2.65,4.18c-.6.95,1.49,3.45,2.5,2.95l5.22-2.57c4.48,2.44,12.56,7.37,17.44,6.72,5.99-.8,10.86-6.7,15.62-12.82l11.49,8.97c8.97,7,10.85,13.74,11.85,24.16.57,5.92,7.65,17.29,5.9,22.93l-8.01,10.15c-1.76,2.23.63,8.08,2.74,11.51-3.51,5.99-11.69,6.43-18.33,5.26l-11.69.16c-7.02-6.89-15.82-15.9-20.8-24-.97-1.58-2.38-6.17-4.2-7.68l-17.92-14.79-21.62,2.31c-1.92.21-5.98,3.33-6.77,4.94-4.41,8.97,16.76,20.87,18.1,22.4l36.4,41.91c9.7,11.17,12.66,28.1,8.36,43.15-.99,3.47-9,4.98-14.11,5.14,2.75,9.93,15.26,14.16,10.68,29.56l-16.67,5.35-.75,6.4c-.58,4.93-34.53,12.09-40.95-2.3l7.25-5.27-17.23-11.73c-5.79-3.94-12.17-5.91-10.42-15.28.27-1.43.89-5.06,2.15-5.15l5.02-.34,1.25-1.24ZM455.05,184.74c1.41,1.7-4.4,9.09-6.28,7.99l-7.99-4.67c-4.18-2.44-6.4-7.73-6.79-12.08l-11.02-3.66c-.96-.32-3.32-3.11-4.38-3.99-.58-.48-1.01.04-2.01,2.55l-17.69,2.53c8.89,14.78,10.8,28.88-.87,33.78-3.19,1.34-.69-10.22-4.81-9.55-.92.15-2.67.55-2.64,1.45l.13,3.95c-6.67,5.34-19.46,3.72-25.73-3-1.97-3.83-2.58-13.69-.55-17.38l8.8-15.98c2.6-4.73,14.85-7.08,19.59-8.93l1.36-22.3-1.61-11.81c-.15-1.12,2.06-5,3.07-4.48l2.94,1.5c-4.61-9.61,3.87-24.23-.12-23.11l-5.46,1.53c-8.17,2.29-14.67,2.92-21.11-4.75-4.56,13.64-11.13,20.96-19.48,29.8-4.77,5.05-8.88,10.1-14.68,13.64,2.12,3.23,7.12,10.77,6.31,14.43-.89,4.06-5.38,8.72-9.68,12.58l.87,12.13-10.11,10.08c-10.61,3.93-22.91,5-33.43.19-6.4-2.93-9.72-17.14-5.33-22.49,10.85-13.24,30.48-12.82,43-3.43.56-3.87-1.5-10.98-4.66-12.05-3.17-1.08-9.13-1.74-12.79-2l-17.99-1.29c-17.3-1.24-18.99,5.6-30.75,4.13,2.85-10.22,9.52-11.68,17.1-14.53,13.08-4.91,25.01-5.98,39.8-.82l28.87-37.96,7.69-29.08,3.01-18.44c.51-3.15-1.41-9.46-3.54-11.44-11.92-11.1-51.52,15.41-55.4,50.57l-13.65,2.57-24.06,14.61c-4.17,2.53-8.35,11.04-12.01,15.2-4.34,4.93-11.1,11.96-9.71,17.63l1.75,7.12c-.11-.46-13.44,9.22,6.22,34.41,18.94,24.26,38.78,45.77,61.01,66.72l10.24-17.17-10.04-5.07,15.28-9.1,20.76,8.38c-2.31,1.62-4.37,2.97-4.27,2.92.07-.03,1.7,1.73,2.44,2.5l14.08-4.82c-6.9,8.79-16.48,9.36-24.73,13.17l-8.32,17,29.25-4.04,24.44-5.67,49.54-9.68,16.67-4.04,44.75-15.15c2.62,1.07,10.32,2.84,10.91.47l2.13-8.59,1.51-21.39c.17-2.34.22-6.04,1.92-6.36l7.11-1.3-7.8-2.7c-1.49-.52-1.57-5.69-2.33-7.29l-8.58-18.17c-2.74-5.81-9.1-11.22-13.27-14.82l-12.74-10.06c-4.09-1.14-8.84-3.56-11.31-5.97-4.32-13.67,9.72-18.04,6.6-19.62l-5.01-2.54,3.68-6.81c-.54.99-5.46-18.58-12.17-28.88l-14.11,12.71-15.36,22.62-13.41,32-5.08,14.65c.63,1.37,2.91,4.82,1.68,5.88l-7.22,6.24c25.6-3.85,37.99,5.33,57.53,28.77ZM455.65,469.6c1.29,23.38,26.12,6.67,32.54,29.62,2.93-.81,7.42-2.78,9.31-3.92l-6.42-3.87c2.16-2.78,5.59-7.75,8.25-7.62l13.46.67-8.99-12.68,5.32-3.39c1.22-.78-9.62-6.38-8.01-8.02l3.98-4.05c3.56-3.62,9.08-7.13,13.75-9.44l-3.16-13.19c-11.82-17.52-26.11-36.08-43.14-48.72-3.13-2.32-4.43-5.73-4.25-8.6-5.26-.56-9.84-3.55-12.32-9.71-2.94-7.31,1.72-20.5,8.39-25.88,5.14-4.15,12.22-3.38,17.46-2.63,5.42-7.05,14.18-1.82,20.62-.21,17.86,4.47,14.15,11.38,26.79,29.82,5.24,7.64,11.42,14.2,23.23,12.22l-13.18-14.5c10.46-11.65,28.61-5.81,19.51-15.15l-14.66-15.03,7.71-5.61c-7.4-.9-11.08,3.61-17.38,7.11-4.47,2.48-16.64-.16-20.67-3.55-12.42-10.45-27.6-17.49-41.19-27.12l-22.07-15.63-13.27-11.36c-7.78-6.66-17.38-12.2-27.23-18.2-5.66-3.44-18.51-.55-21.35,4.18l.77,21.29c1.64,2.57,3.7,6.42,3.44,8.91-.22,2.15-4.98,6.21-7.46,5.85-6.66-.96-6.78-10.46-8.26-14.62l-7.4-20.66-30.99,5.24-23.46,3.51,3.07-3.99c.41-.53.74-.89.17-1.07l-3.92-1.21c-6.75-2.09-11.28-6.29-16.23-11.68l-16.46-17.94-20.62,14.73-7.82,10.74-10.24-6.68,12.19-15.85,13.36-12.09-10.98-16.55-22.62,8.21c-2.95,1.07-9.2-7.07-7.51-8.3l21.72-9.39-6.98-9.43c-1.49-2.01-5.64-6.07-8.07-5.67-2.09.33-5.77,2.19-8.64,3.28l-22.89,8.68-30.54,9.14c.08-2.52.51-5.14-.59-5.73l-5.35-2.87c6.99-5.28,13.93-9.35,21.53-11.61l15.77-4.68,25.16-9.08-9.29-26.18-27.93-3.53c-33.65-4.26-66.25-4.98-100.18-3.02-24.99,1.45-47.87,2.42-72.21,13.43l2.1,53.11,5.12,70.69,43.26-5.28c21.1-2.58,39.5-4.25,60.03,5.19l25.32,6.42,42.35,13.36c20.96,6.61,41.14,13.64,60.7,23.19l42.85,20.91,16.64,9.01c12.81,3.26,24.15,7.89,35.76,14.68l14.48,5.45,38.57,15.39c14.81,5.91,26.36,13.54,38.75,23.61l16.89,13.74c6.47,5.26,18.73,15.44,11.39,26.14l-16.42,15.45-1.35,2.25ZM321.74,174.19l-3.87-7.66-9.41,10.15,13.28-2.49Z"/>
  <path class="cls-1" d="M386.35,227.44c-1.21.04-6.83.06-6.24-.74l2.62-3.54c.6-.8,2.94-1.72,3.52-.9.76,1.09,1.46,5.13.1,5.18Z"/>
  <path class="cls-1" d="M366.06,213.92l4.74-.35c.98-.07-.33,2.22-1.06,2.85l-3.22,2.82c-.73.64-1.42-5.26-.46-5.33Z"/>
</svg>