<?xml version="1.0" encoding="UTF-8"?>
<svg id="Layer_1" data-name="Layer 1" xmlns="http://www.w3.org/2000/svg" viewBox="0 0 789.06 147.38">
  <defs>
    <style>
      .cls-1 {
        fill: #5a8a1f;
      }
    </style>
  </defs>
  <path class="cls-1" d="M119.26,142.38c-12.29-4.47-22.66-14.3-31.04-25.61l-24.73-7.92c-19.78-6.33-33.97,11.7-51.58,13.82l.24-5.48c.04-.99-3.7-1.2-6.34-1.42l1.2-7.59C2.92,87.94-1.13,67.73.29,46.42c15.72-12.96,38.17-23.78,59.28-23.38,11.61.22,26.41-.93,35.51,5.17l21.25,14.24c15.3,10.25,27.76,17.5,46.58,12.79l44.26-11.09,18.57-7.45C259.07,23.32,336.56-3.68,362.03.42l26.72,4.3,46.37,11.18c54.11,18.03,137.09,54.72,182.49,13.16l20.14-18.44,17.25-9.9,50.78,13.92,25.47,4.27,38.68,2.12.9,2.21-10.34,1.07,17.5,9.6-24.01,5.19,15.39,3.56-6.37,4.42c-.7.49-2.91,1.79-2.17,2.06l4.07,1.46,24.15,4.78-15.03,1.38c.07,1.27.44,3.52-.25,4.13l-4.81,4.24,12.83,2.11c-6.02,2.77-7.93,3.07-17.26,5.24l9.15,7.97-5.84,1.79c-4.33,1.32,1.34,3.16,9.4,5.79l-9.21,2.74,12.94,3.68-21.77,3.11,3.37,3.28-13.72,3.02-37.93-1.07c-18.44-.52-34.91-1.33-52.36-9.62l-11.26,9.11-46.92,23.12c-11.46,5.65-38.44,12.04-52.18,7.22l23.71-.87,1.2-2.23-37.61,1.44c-18.94.73-38.42-6.48-57.03-12.23l-28.1-8.69c-11.08-3.43-20.89-9.96-32.97-12.88-36.54-8.82-68.62-21.14-103.38-6.02-12.9,5.61-28.44,6.68-41.03,13.3-12.07,6.35-23.06,9.98-36.49,13.53-25.17,6.66-43.89,27-98.98,25.2l-15.63-2.99.03,1.5,21.62,5.61c-8.93.53-16.06-1.62-23.11-3.9l-1.18-1.02Z"/>
</svg>