<?xml version="1.0" encoding="UTF-8"?>
<svg id="Layer_1" data-name="Layer 1" xmlns="http://www.w3.org/2000/svg" viewBox="0 0 1329.54 706.16">
  <defs>
    <style>
      .cls-1 {
        fill: #5a8a1f;
      }
    </style>
  </defs>
  <g id="aLaSdT">
    <g>
      <path class="cls-1" d="M786.69,685.94l-33.21.06c6.45-3.73,12.98-3.04,20.14-1.99l13.07,1.92Z"/>
      <path class="cls-1" d="M625.11,685.72l-20.96,1.07c-4.77.24-9.45-.1-13.95-1.76l32.36-.5,2.55,1.19Z"/>
      <path class="cls-1" d="M692.37,684.02c-6.33,3.2-14.1,1.99-21.16-.44l21.16.44Z"/>
      <path class="cls-1" d="M648.22,685.05c-6.87,1.69-12.26,1.81-18.59-.37,6.47-2.4,12.87-1.62,18.59.37Z"/>
      <path class="cls-1" d="M724.93,683.15c-4,6.77-8.05,1.22-11.5,1.8-2.89.48-4.78,2.14-7.04-1.37l18.54-.43Z"/>
      <path class="cls-1" d="M741.99,685.63l-16.7.32c5.27-2.81,10.94-5.07,16.7-.32Z"/>
      <path class="cls-1" d="M863.06,685.88c-6.01,1.13-13.14.8-20.31-1.33l20.31,1.33Z"/>
      <path class="cls-1" d="M827.92,686.33l-14.31-.16c-.54,0-3.12-.2-2.8-.59l1.97-2.36,15.14,3.12Z"/>
      <polygon class="cls-1" points="15.13 265.14 14.88 246.32 16.14 245.47 17.01 264.23 15.13 265.14"/>
      <rect class="cls-1" x="694.58" y="683.19" width="9.74" height="3"/>
      <polygon class="cls-1" points="588.92 687.3 576.93 687.17 576.93 684.95 588.94 685.08 588.92 687.3"/>
      <rect class="cls-1" x="942.6" y="681.69" width="8.24" height="3"/>
      <path class="cls-1" d="M41.44,542.46c-3.25-.09-4.41-5.76-.32-8.37l.32,8.37Z"/>
      <path class="cls-1" d="M939.8,683.81c-4.39,1.5-7.74.65-10.79-2.13l10.79,2.13Z"/>
      <polygon class="cls-1" points="911.36 684.3 899.87 684.81 899.11 683.48 908.82 683.06 911.36 684.3"/>
      <path class="cls-1" d="M38.18,570.55c-1.07-.49-.26-4.26,1.48-5.51,1.08.47.27,4.24-1.48,5.51Z"/>
      <polygon class="cls-1" points="37.74 509.42 37.33 501.09 38.61 500.27 39.02 508.6 37.74 509.42"/>
      <g>
        <path class="cls-1" d="M544.16,688.69l-22.44.73-14.59.51-34.03,1.63-66.98,2.16-57.94,2.57-29.01.87-13.88.4-22.11.94-20.9,1.04-42.53,1.42-63.33,1.95-20.03.85-29.33,1.05-22.47-.08-29.31,1.42-27.89-.4,8.94-4.37c-3.8-2.2-8.34-3.24-13.78-3.88l3.79-3.28c-.54-3.99.03-6.55,1.54-9.14l-5.13-1.27c.85-6.08.96-11.95.53-16.45l2.96-3.84c.74-.97-1.17-3.49-1.71-4.73.26-4.47.06-9.14-1.18-13.28l1.75-9.21c2.26-.4,6.33-1.77,6.54-3.87l4.23-41.08.96,19.88c.21,4.31-2.62,9.99,1.05,14.16l4.54-43.82,2.47-16.34.86-15.02c1.74-30.19-2.77-58.98-7.03-88.1l-3.42-23.42c-2.53-17.33-5.43-33.97-6.35-51.76l-2.76-21.55-.84-8.23-1.35-17.24-4.05-91.21c-.74-16.61-3.87-31.82-5.75-48.29l-3.37-29.64-2.07-18.98L.08,108.85c-.51-2.51,1.45-6.55,3.28-7.67l3.59-2.21c.89-.55,3.09,1.55,4.31,2.66,2.39-9.83,12.03-5.98,28.25-12.7l8.59-3.56,7.04-6.16-3.24-6.4c2.3-1.07,7.52-4.69,10.29-5l27.56-3.11,18.22-1.9c.42-.04.54-2.16.68-2.57.13-.39,1.21-1.04,1.39-.67l1.7,3.41,56.67-4.09,94.39-7.23,30.85-1.98c9.78-.63,19.06.28,29.14-2.72-12.55-.89-23.99-.02-35.96.54l-.76-1.76,34.33-3.1c2.42-.22,5.56-3.5,7.13-6.5l17.86-.66c3.29-2.84,4.63-2.78,8.23-3.34l15.31-2.38,10.26-.83c8-.65,16.66-4.28,24.88-3.15,5.54.76,9.06-1.07,14.3-1.39l22.8-1.39,30.86-2.28,43.59-5.86,93.62-6.05c4.78,3.52,9.97,3.4,14.39.72l33-2.41,11.42.61,11.81-.75,16.61-.78,19.75-.24c3.97-.05,9.3-4.16,12.52,1.96l19.37-2.59c5.17-.69,12.26,4.12,17.33-.6l2.35,2.63c.33.37,2.08-.11,1.99-.6l-.71-4.31c3.46.63,8.34,1.79,11.55,3.18,6.6,2.86,10.55-.09,17.02-.54l26.32-1.86c9.13-.65,16.01.98,25.15-1.01,2.85-.62,9.08-.71,12.21-.6l24.61.86,8.91,1.58c8.86,1.57,14.29-5.48,36.67-1.24,4.58.87,7.55.39,11.89.13l20.35-1.24c6.09-.37,14.39-1.13,20.01.18,9.13,2.13,15.94,4.13,25.01.71,5.06-1.91,9.72.34,14.73,2,5.37,1.77,13.36-1.26,19.33-1.68l16.54-1.17,45.13,1.01,14.84-.79,30.92.59,33.21-.7,27.42-1.13c2.09-.09,6.52,1.35,8.22,1.85l8.3.26,8.82-2.41c5.4-1.47,13.66,1.57,14.08,7.44.68,9.51,1.47,17.61,4.33,27.08l-5.22,3.66-1.74,1.22c-.38.26-.42,2.01.04,1.91l4.31-.98c2.44,4.34,6.07,8.24,10.08,10.47l3.48-3.89c2.39-.58,4.14-1.32,4.89-2.64.95-1.7-.75-5.7-2.5-5.58l-10.23.69c-.55-1.99.28-4.25,1.3-3.5l13.53.13c1.65-.04,3.2-2.24,1.25-2.9-3.42-.85-5.97-1.22-7.65-1.25s-3.51-3.15-2.91-4.45c1.28-2.82,11.4-3.52,14.3.58,1.21,1.7.81,4.81.14,7.65l.56,8.16c-1.36.03-4.01-.13-3.95.78l.26,4.19c.06.91,2.65.51,3.77.36l14.2.13.75-2.53c.26-.87,4.62-1.01,4.95.08l10.44,34.6,5.93,22.22,3.89,9.91,3.72,16.24,2.54,13.11,2.65,23.4c1.96,17.38,2.73,34.7,1.33,52.38l-4.23,53.38-4.59,49.97-1.9,19.73-4.22,38.56-2.04,19.3-10.53,82.66-9.06,82.09-1.19,23.98-1.75,22.51c-.53,6.77-.23,11.93-6.44,15.55l2.9,2.01c.46.32-.44,2.21-.97,2.14l-3.49-.48c-7.95-1.08-13.89.78-21.36,2.75l-9.22,2.43-9.54-1.5c.39,2.42.75,3.48.22,3.64l-3.3,1.03c-1.81.56-4.5-.76-6.98-3.02-.62.06-3.14.33-1.24.13l.45,7.06c.09,1.35-2.68.83-4.33.73l-1.31,10.85c-9.01,2.56-10.67,15.44-19.74,9.97l5.46-10.73c.21,0,3.65.45,4.39-.46l3.5-4.33-3.88-3.13c-.62-.5-2.56,1.05-3.31,1.41l-2.3,1.12c-.51.25-1.11-1.78-.64-2.09s2.09-1.43,2.25-1.37c.18.07-1.16-.76-2.15-1.46l-8.44-5.93c-.49-.35-2.68-.87-3.26-1.02-2.18-.58,4.72-3.14,2.66-3.6l-3.48-.77c-1.16-.26-3.86,2.96-3.28,4l3.24,5.84c1.64,2.96,3.54,9.01,4.44,12.59-1.84,3.19-1.6,5.58.15,8.65l1.68,2.96c1.36,2.4-5.68-1.64-14.69-.51l-17.7,2.22-18.01.3-25.3,2.55-35.41,2.43-20.93,1.48-23.81,1.68-17.06.54-24.92,1.68c-2.91-.98-4.53-2.98-.31-2.8,3.47.14,3.75-1.11.82-2.09l-25.44-.36-51.1.33-21.64.8,3.45,4.31-9.46.26,3.45-5.12-38.46.96-39.6-.68-46.11.64c7.65,3.3,14.24,2.44,22.43,2.79.39.32.76.72.37.92l-2.51,1.29-71.39-.62-9.82-.15-32.53-.5-13.38-.11-24.78-.17c9.87-4.57,18.34-.26,28.28-3.8l-28.36-1.07c-.93,2.4-1.85,5.41-3.41,5.35l-8.86-.38-26.62,1.44-15.48-.16-14-.26c-12.61,1.61-25.22,3.03-37.93.22-19.55,2.32-39.35,2.56-59.74,3.39l-12.69.52-24.12.27-14.45,1.19-27.02,1.72-17.14-.95c-8.04,2.65-14.73,3.01-22.42,2.99l-22.78-.06-13.12,2.07-50.36.89-.5,1.92,47.43-.5,50.3-1.87,20.38.27,19.11-.13,33.93-1.21,25.58-2.12,17.9-1.6,26.76-.02,49.85-.72,1.33,1.86-25.84,1.15ZM1238.98,33.4l-.72-11.39c-.14-1.49-5.7-1.41-6.25-.03l-2.57,6.46,5.03-1.23-1.07,6.39c-.21,1.23,5.66,1.01,5.59-.21ZM1236.18,46.32c-.26,1.42,4.02,4.46,4.98,3.44l3.76-3.96c.95-1-1.99-4.71-3.32-5.14-1.83-.6-5.06,3.63-5.42,5.66ZM1192.24,43.65l-10.11.61,4.63,3.45c1.06.79,3.73-1.22,5.48-4.06ZM108.41,595.04l.35,14.23,2.97-10.77c1.08,3.12,1.06,6.75-.32,10.57-1.17,3.22.13,10.81,4.05,10.81l25.21.03,14.48-.57,45.73-2.53c3.95-.22,11.03-.7,13.99.88,10.78,5.77,12.32-5.19,28.29-1.49.93,1.58,2.02,4.14,3.12,3.95l4.77-.84c5.57.59,15.64,1.7,21.83-2.6l-14.93-1.13c7.64-2.14,12.84-1.69,22.01-.99,1.1-.45-1.08.53-4.17,1.9,1.55.87,6.77,2.45,9.64,2.67,2.53.19,6.49-4.06,8.62-5.58l13.17-.44,41.6-1.09,13.9-.21c6.96-.11,15.42-2.01,22.23-.73,6.37,1.2,9.84,0,16.12-.34l30.38-1.68,18.32.03,23.38-1.88,49.84-1.83,61.3-1.75,7.45,3.2c13.9-4.79,27.47-3.86,41.77-4.04l14.57-.19,29.97-.39,15.71-.66,10.59.82,24.11-.05,24.9.02,32.37.24,14.58.18h16.38s19.86-.13,19.86-.13l40.23.6,10.2-.76,25.85-.83,21.13-.26,41.17.08,32.91-.1,31.08-1.76,22.59-1.42,24.47-2.65,22.75-.06,22.53-1.22,58.2-3.56,9.71-1.26,4.61-.75c.82-.13.43-3.51.51-4.35l1.17-12.18,2.28-21.88,2.03-24.12,2.96-25.8,4-25.58,8.51-67.7c1.74-13.81,4.88-25.54,4.16-40.15l4.48-25.06.57-6.85c-.33-1.77-.7-4.92-.39-7.16l2.38-17.73c1.92-14.28,3.11-27.72,2.34-42.4,2.94-6.89,4.71-14.54,2.94-22.12,2.38-17.39,1.14-33.8.88-51.03l-.2-13.4-1.82-21.38-1.27-9.47c-6.76-11.45-4.82-22.68-8.62-31.23-6.8-15.31-6.06-25.62-13.4-34.52l-32.17,1.4-22.87-.09-13.96,1.18-27.4-.34-60.84-.48-17.56-.16-60.78-.04-11.22-.1-26.62-.3-18.18.69-32.1.03-34.17,1.43-16.27.02-17.2.26-40.51,2.19-31.78.86-40.92,1.73-10.63-.02-20.64,1.1-44.67.94-11.12,2.19-29.62,1.67-28.44,1.91-38.93,1.71-42.77,3.79-26.67,2.78-21.95,2.45-43.05,2.69.67-4.49c.12-.79-3.18-1.04-4.2-.91l-31.38,3.91c-8.77,3.11-18.19,3.19-26.92-.78l-37.71,1.55-38.65,1.68-28.76,1.34-31.26,2.97-25.41,1.6-36.23,2.57-38.8,2.82,2.46,26.05c.43,4.6.67,9.74-1.15,13.04,4.11,7,7.72,27.84,5.96,34.7l-3.95,15.42c3.14,5.89,5.28,13.22-1.7,18.48-1.73-5.51-1.37-11.11-.65-14.96-.41-.88-2.51-3.1-2.02-3.96l2.46-4.32c.5-.88-4.23-1.65-4.5-.61s-.28,2.06-.23,4.23l.77,30.92c.19,7.5-.38,14.82,3.1,21.32l1.51-12.79,2.38-.49.44,15.01c-2.88,2.26-5.15,4.1-5.8,5.67s.98,5.58,2.1,7.26l2.85-7.43.52,7.79c.08,1.25-3.42,1.77-5.81,2.4l.69,17.52.58,15.33,2.05,12.43.72,14.5,2.32,18.09,3.35,28.71c.95,8.18,2.94,15.87,1.64,23.86.86.96,2.97,2.96,2.66,4.12l-1.4,5.22c-.35,1.31,3.14,4.09,2.36,5.21l-2.96,4.26c1.64,4.44,3.89,10.89,4.49,15.54l1.83,14.24c-2.67,2.69-6.26,8.68-4.42,12.37,2.46-1.61,6.49-.95,6.48.56l-.05,7.31,3.06,13.33c1.18,5.13,1.14,9.33,1.07,14.41l-.32,22.66c-2.33,1.76-5.7,5.55-5.25,7.92.42,2.17,1.96,5.64,3.51,9.02l-5.01,5.47c.14,9.2.24,16.45-5.77,17.13-.51.06.7,1.39,1.18,1.57l2.62.99-1.61,19.22ZM489.82,100.49l-7.82.39c2.3,4.53,6.86,2.69,7.82-.39ZM481.15,103.03c-4.33-1.58-8.05-.93-12.22-.1-7.72.13-14.62.63-21.1,4.6l33.32-4.5ZM436.6,107.37c-7.54-1.4-14.3-1.29-21.61.09l-13.67,2.59c12.43,1.03,23.24,1.18,35.28-2.68ZM144.01,117.9c14.63-.1,26.56-1.63,38.91-3.54-5.73-.81-11.02-.21-16.57.7-8.13-.03-15.68-.1-22.34,2.85ZM138.63,118.14c-9.88-3.46-18.79-.24-27.9,2.75,9.58-.1,18.06-.65,27.9-2.75ZM108.05,120.58c-4.36-1.52-7.75-.66-10.78,2.13l10.78-2.13ZM1270.61,541.97l-6.87-7.12-3.33,5.76c3.19,3.25,8.93,4.12,10.2,1.36ZM1252.23,545.57c.59-.17,3.06-2.59,2.47-2.73s-3.09-1.45-3.57-1.1l-3.17,2.25c-.71.5-1.3,3.2-.47,2.96l4.73-1.38ZM1281.19,595.78l-9.54-3.32,7.08-1.68c-3.99-4.64-14.92-6.86-18.88-3.05l5.45,1.75c.87.28.89,2.41,1.05,2.67l6.74,3.89c2.48,1.43,5.15,1.78,8.1-.26ZM1251.91,612.25l11.56,3.79c-.61-2.03-1.2-3.77-1.98-4.25l-2.51-1.53c-.91-.56,2.77-6.47.68-7.58-1.02-.54-5.16-.81-5.04.34l.54,5.42c-3.43.15-8.46-3.39-8.37-7.14.05-2.01.21-4.87-.74-4.91l-4.48-.19c-.93-.04-.69,2.92-.13,3.7l2.27,3.12c.45.62-2.45,1.81-3.24,1.75-4.51-.37-7.54,2.53-7.74,6.74s3.29,7.14,8.32,5.27l-4.69-9.08c6.63.09,12.56,5.04,15.55,11.65v-7.09ZM1280.22,604.26l3.24,5.53,3.34-12.41-16.17,8.93c.81,1.37,5.44,3.48,6.27,2.38l3.32-4.42ZM1189.6,608.24l.16-6.3-2.99,2.76c-.59.54,1.26,2.26,2.83,3.54ZM1146.24,604.06l-7.86.39c2.42,4.29,6.85,2.64,7.86-.39ZM1153.71,606.75l-3.59-3.1c-.42-.36-3.08,2.08-2.53,2.16l6.12.93ZM1179.27,604.95c-.65-1.23-6.09-1.16-5.97.08.34,2.36,6.13,2.24,5.97-.08ZM1268.31,609.43c1.24-.02.88-5.07-.37-5.11l-4.72-.15c-.13,1.74,2.97,5.3,5.08,5.26ZM758.68,613.14c.25-.4.94-1.69.56-1.92l-2.63-1.61c-.72-.44-2.37-.87-3.2-.87s-1.47,2.69-.69,2.89l5.96,1.51ZM843.98,612.04c-8.34-4.16-19.37,2.1-34.6-3.33l-.03,3.75,23.7,1.12c2.59.12,7.13-.77,10.92-1.54ZM690.2,609.98l-7.89.3c3.09,2.87,5.78,4.11,7.89-.3ZM719.3,610.16l-13.69-.19c4.65,3.13,9.22,3.01,13.69.19ZM541.36,619.04c.56-3.66.39-4,1-4.33l3.16-1.76-12.6-.37-11.46-.18-30.02,2.78,21.71.97,24.5-.65,3.71,3.55ZM584.01,613.73c-4.6-4.65-10.42-3.59-13.27.43l13.27-.43ZM1197.94,615.45l-17.61-2.2c-1.19-.15-5.25,1.38-5.47,2.46l-.75,3.66,23.83-3.92ZM397.68,618.3c1.09.48-.13-.06-2.6-1.16l-3.76,2.3c-.65.39,1.56,2.57,2.14,2.12l4.22-3.27ZM1187.26,625.76c-2.2-1.92-5.22-4.53-7.33-5.03s-6.82,1.76-8.7,3.03c-.84.56-.57,5.1.36,4.73l3.88-1.51,11.79-1.22ZM1258.86,620.88c-.9.19,1.19,2.87,2.04,2.55l2.39-.9c.57-.22-.24-2.52-.83-2.39l-3.6.74ZM704.35,627.97l-6.86-5.97-12.02,4.76c7.74,1.42,12.19,1.38,18.88,1.21ZM999.13,625.44c-3.87.24-4.97.54-5.38-.08l-2.22-3.37c.38-.4-1.58,1.64-2.31,2.41s1.72,3.08,2.72,3.35c1.89.5,4.55,1.11,5.29.16s2.71-3.54,1.89-2.47ZM674.47,624.09c-.93,1.6,2.57,4.93,3.18,3.83.39-.7.31-1.88.2-2.7s-2.98-1.82-3.38-1.13ZM754.73,628.29c5.06.16,5.58-.87,2.98-4.35,1.11-.65-1.68.98-2.62,1.54-.58.34-.56,2.4-.36,2.82ZM939.84,626.41c-.98-1.59-1.74-3.08-2.44-2.84l-3.63,1.23c-1.74.59-2.65,1.06-5.19,2.88l11.26-1.28ZM972.42,625.59l-6.21-2.07,2.57,4.29c.56.93,3.94-2.24,3.64-2.23ZM557.58,624.78l-1.47,3.73c-.29.73,2.77.71,3.1,0l1.35-2.96c.22-.48-2.78-1.27-2.98-.78ZM734.74,626.93c-6.24-2.43-11.65-1.7-17.28.64,6.21,1.88,12.03,1.26,17.28-.64ZM1161.69,626.18c-5.19-.94-8.57-.39-12.32.98,4.27,2.16,8.45,1.78,12.32-.98ZM1200.45,626.68c0-1.43-1.16-2.58-2.58-2.58s-2.58,1.16-2.58,2.58,1.16,2.58,2.58,2.58,2.58-1.16,2.58-2.58ZM956.12,630.26l-8.59-1.57c-4.02-.73-7.74-.67-11.05,2.13,7.77,1.71,12.87,1.15,19.64-.56ZM410.58,631.47c-4.63-4.03-10.96-2.66-12.3,2.21l12.3-2.21ZM770.56,631.75c-4.81-2.95-9.9-4.17-15.06-.5l12.19,1.5c-.14,4.17,3.32,2.36,2.87-1ZM860.34,631.82c-5.35-4.56-11.84-3.51-13.86,1.76l13.86-1.76ZM1009.41,629.34l-5.7.71c.81,3.44,5.5,2.93,5.7-.71ZM620.7,630.79l-6.31.42c1.27,1.4,3.07,3.22,3.6,2.63l2.72-3.05ZM885.73,631.92l-.82-1.27-8.33.41.82,1.27,8.33-.41ZM1038.95,632.13l-9.51.65c3.19,3.26,6.81,2.22,9.51-.65ZM428.62,634.6c-9.73-3.76-19.38-3.33-17.98,2.57l17.98-2.57ZM1076.72,632.57l-5.44,3.58,4.73.11c.8.02.87-2.2.71-3.7ZM1124.54,636.16l-1.2-2.58-7.98,1.16.39,3.06,8.78-1.64ZM987.81,641.42l-7.07-2.54c-.95-.34.22-2.74-.19-5.06l-6.66,9.33c5.48-.35,10.36-.86,13.92-1.73ZM531.09,639.65c.64.03.87-3.2.24-3.01l-2.86.85-4.21,1.82,6.82.34ZM1005.19,640.81l-8.73-3.79c-1.03,2.22.44,7.09,3.19,7,2.53-.08,6.7-2.62,5.54-3.21ZM797.53,642.46c-4.82-4.71-8.87-3.76-14.18-3.5l-8.27.41-4.27.09c-.77.02.29,4.02.26,2.68l26.47.33ZM1024.71,642.17l7.92-2.78-13.45-.62c-1.4-.06-3.86.53-4.93,1.25-.86.57-1.22,3.78-.19,4.04,2.2.56,5.37,1.75,6.45,1.01l4.21-2.9ZM968.98,643.25c-4.87-4.15-10.15-3.83-14.46-.87,4.64,2.19,9.62,2.65,14.46.87ZM651.94,642.16c-7.56-2.06-13.18-1.88-17.24,4.43,7-.69,11.98-2.42,17.24-4.43ZM1222.6,644.97c-1.27-1.76-4.99-2.56-5.52-1.48,1.29,1.74,5.04,2.55,5.52,1.48ZM611.14,648.41c0-.31-1.22-2.59-1.92-2.4l-2.55.66-12.01,2.5c5.72,2.85,9.89,1.62,16.48-.76ZM708.25,647.85c-5.73-3.68-10.63-2.11-14.73,1.68l14.73-1.68ZM1183.35,647.49c1.08.73-1.73-1.18-2.26-1.54-2.61,1.16-5.39,2.26-4.73,3.09l2.98,3.73c.62.78.75-.61,4.01-5.27ZM1195.51,649.11c-3.08-2.13-5.66-3.4-7.22-2.79-1.38.54-2.8,3.31-3.47,6.78l10.69-3.99ZM551.39,650.76l-10.59-1.39c2.86,4.67,7.58,3.82,10.59,1.39ZM980.83,651.95c4.63-1.39,1.18-4.36-1.03-2.21-3.37,1.23-2.27,2.33,1.03,2.21ZM1172.29,651.96c-.81-1.87-1.54-3.58-1.17-2.73l-3.71,1.67c-.6.27.15,2.55.77,2.36l4.12-1.3ZM512.74,653.09l2.84-2.87-14.02,1.02c-5.76.42-11.95-.69-16.9,2.8l28.09-.95ZM434.07,656.79l23.39-.96c-1.03-2.82-4.53-3.71-7.39-3.55l-22.47,1.26c-.24-.4,1.23,2.1,1.72,2.94s3.22.38,4.74.32ZM1079.9,655.78c.92.06,3.92-1.21,3.5-1.91l-1.46-2.43-12,3.7,9.95.64ZM377.71,654.96c-3.7-.09-6.81.47-10.65,1.77,3.6,1.77,8.23,1.79,10.65-1.77ZM668.25,656.11c-2.79-1.04-6.18-.49-10.12.71,1.79,1.85,2.99,3.13,4.47,3.4,1.23.22,4.64-2.46,5.65-4.1ZM727.98,654.84l-5.55.32.24,4.23,5.55-.32-.24-4.23ZM786.92,658.62c-5.91-3.34-12.69-3.11-17.78-.07,6.71,3.48,11.89,2.87,17.78.07ZM806.49,658.94c-2.97-2.96-8.88-4.53-10.66.42,2.33.74,6.71.35,10.66-.42ZM867.74,658.66c-1.65-1.67-5.12-3.49-6.43-2.95s-2.08,1.46-4.5,4.93l10.93-1.98ZM991.34,664.83c1.94-3.58,1.93-4.16,2.75-4.56l4.07-2.01-12.75-1.55c-.67-.08-2.78.76-3.4,1.04-2.96,1.35,6.89,2.93,7.33,3.67l2,3.42ZM1052.12,657.29l-10.63-1.84c-.73-.13-3.18,1.92-2.74,2.57l1.83,2.68c-1.54-2.25,7.38-1.28,11.54-3.42ZM977.37,661.94c-.38-.57-1.23-1.9-1.41-1.88-.23.02,1.21-1.04,2.6-2.17l-6.85.47,5.68,6.84,11.07-2.56-11.08-.7ZM420.57,664.81l5.06-.15c.58-.02-1.68-.79-2.23-1.05l-2.11-.99c-3.02,1.34-3.58,2.31-.72,2.19ZM716.92,664.03l-9.55-1.88c-1.08-.21-3.55,1.65-4.26,2.42-.54.58.89,3.68,1.63,3.44l12.17-3.98ZM594.98,665.45c-3.49-1.95-7.46-2.09-10.48.05.15,1.53,3.83,4.41,5.07,3.58l5.4-3.63ZM757.03,665.82l-10.44-1.38c-4.31-.57-8.77.12-12.03,1.34,4.13,1.2,8.2,2.36,10.5,1.99l11.97-1.95ZM768.24,667.45c.77-.02,2.34-2.13,1.62-2.32l-2.62-.72c-.47-.13-2.1.43-2.17.92l-.22,1.52c-.07.49,2.34.64,3.4.61ZM879.57,666.39c-.56-1.61-3.98-2.22-6.27-1.95l-15.49,1.82c6.78,4.52,14.45,4.34,21.77.13ZM927.61,663.71v3h8.24v-3h-8.24ZM377.73,666.4l-.85-1.26-20.32.24.92,2,20.25-.97ZM421.39,673.99c-5.23-4.56-10.27-4.45-14.95-.25l14.95.25ZM469.18,672.53l-2.39-1.42-15.12.54c-.49.64-2.07,2.72-1.64,2.16.29-.38,2.73,1.59,3.2,1.51l15.95-2.79ZM366.23,675.69l-5.42-2.78c-.94-.48-2.33,2.37-2.25,3.28l7.67-.5ZM405.92,673.12l-18.4-.48c-.51-.01-2.93,2.59-2.42,2.64l3.05.27c6.25.55,12.28.87,17.77-2.42ZM636.14,674.63c-6.9-1.5-12.33-1.19-17.7.29,6.37,2.78,12.48,2.27,17.7-.29ZM739.96,674.99l-31.24-.88c-9.52-.56-19.04-2.29-27.74,1.53l58.98-.65ZM590.62,677.53c.42-2.07.81-4,.61-3.03l-20.59,2.19,19.98.84ZM617.06,675.14c-7.68-1.07-15.74-2.94-22.99,1.52l22.99-1.52ZM559.89,677.1l-.16-1.63-11.36,2.18.95,1.72,10.57-2.27ZM371.41,684.49l-2.22-2.88c-.61-.79-3.19,2-3.66,2.77l5.88.11ZM269.49,693.04c-15.93-5.23-18.94,2.62-13.81,1.91l13.81-1.91ZM214.96,696.29c2.41.05,6.07-.77,8.57-2.07l-17.97-1.14c-.88-.06-3.28-1.03-3.52-.29l-1.04,3.22,13.96.29ZM243.84,693.85l-10.26.33c2.69,3.2,6.75,2.12,10.26-.33ZM51.02,700.09l-12.4-.5,2.6,3.14,9.81-2.64Z"/>
        <polygon class="cls-1" points="1035.53 682.81 1000.93 682.39 1042.94 680.28 1060.98 679.14 1081.95 677.52 1098.44 676.17 1119.44 674.57 1138.92 673.09 1158.58 671.7 1201.93 671.33 1201.09 672.62 1166.56 673.38 1121.97 676.53 1095.56 678.34 1074.5 679.89 1059.56 681.24 1035.53 682.81"/>
        <path class="cls-1" d="M175.67,55.55c-4.59.42-7.98.97-11.92-1.52,6.65-1.59,10.53-1.52,16.08-1.83l16.61-.93,23.47-1.11c8.43-.4,16.51-5.91,25.67-.25l-20.83,1.85-25.38,1.61-23.71,2.18Z"/>
        <path class="cls-1" d="M969.61,677.17l-8.03,1.55-50.85-.25,14.31-2.64,60.02-.1c-3.64,4.57-10.81,2.82-15.45,1.45Z"/>
        <path class="cls-1" d="M1278.09,23.06l-17.08-2.74,7.23-3.24-1.64-13.41c3.74-.02,7.14,3.19,7.68,7.98l5.84,2.13-4.23,3.84c-.74.67.54,2.29,2.21,5.43Z"/>
        <path class="cls-1" d="M872,679.94l-37.43.28,1-2.11,15.37-.03c6.6-.01,14.03-4.35,21.05,1.87Z"/>
        <path class="cls-1" d="M979.03,685.02l-17.21-2.74c8.69-1.42,16.27-1.85,26.29-.13l-9.08,2.88Z"/>
        <path class="cls-1" d="M160.1,56.19l-23.9,1.85c7.46-3.8,14.66-3.5,23.9-1.85Z"/>
        <path class="cls-1" d="M827.29,680.02l-12.31-.02c3.01-4.7,8.49-3.37,12.31.02Z"/>
        <rect class="cls-1" x="249.48" y="47.75" width="14.99" height="1.99"/>
        <polygon class="cls-1" points="132.36 60.11 122.56 59.16 132.75 56.34 132.36 60.11"/>
        <path class="cls-1" d="M42.13,527.4l-3.34-2.65c-.85-.68.93-4.83,2.12-5.46l1.22,8.12Z"/>
        <path class="cls-1" d="M104.1,324.51l.76,4.37c.11.64-1.7.43-4.18.35l.26-12.84c-3.64-6.32-.62-7.69-2.17-14.75-.11-.51.13-2.13.62-1.97l3.52,1.17,1.19,23.67Z"/>
        <path class="cls-1" d="M115.6,421.37c-4.77-.89-3.53-5.83-4.36-8.9-2.25-8.32-5.18-15.71-2.41-24.86l6.77,33.76Z"/>
        <path class="cls-1" d="M106.77,384.47v-11.05c3.84,2.97,3.17,5.49,0,11.05Z"/>
        <path class="cls-1" d="M116.94,564.61l-3.6-2.24c-.77-.48,1.46-2.33,3.04-3.54l.56,5.78Z"/>
      </g>
    </g>
  </g>
</svg>