<?xml version="1.0" encoding="UTF-8"?>
<svg id="Layer_1" data-name="Layer 1" xmlns="http://www.w3.org/2000/svg" viewBox="0 0 666.42 378.23">
  <defs>
    <style>
      .cls-1 {
        fill: #5a8a1f;
      }
    </style>
  </defs>
  <path class="cls-1" d="M660.87,117.6c4.2,25.87,6.87,50.19,4.88,76.83-2.1,28.2-6.81,56.81-2.39,84.67,1.66,10.44,3.65,17.31-.17,27.88-2.22,6.16-4.4,10.41-9.32,15.13-7.42,7.12-8.56,13.16-25.57,8.66l-13.69,6.37c-1.37.64-4.26,2.79-4.34,4.21-.1,1.77,2.53,5,4.1,5.89l3.79,2.15c.72.41-1.45,2.39-2.26,2.68l-5.16,1.8c-1.02.35-.02,3.17.67,5.75-4.25,2.31-11.42,4.38-17.26,4.45l-46.09.61-30.12,1.85c-19.06,1.17-36.86,3.14-56.05,3.75l-31.99,1.02-43.54,1.72-23.36-.02c-22-.02-43.41.16-65.78.34l-129.09,1.07-14.61.32-21.83.63-39.75,1.26c-17.13.54-31.86,1.69-49.68,1.6l-4.02-26.3-3.33-22.84c-1.88-12.91,4.49-25.74-2.47-34.12-3.38-4.07-7.87-4.99-14.55-3.15l-1.25-23.89c-1.85-35.33-4.7-69.08-10.31-104.02L.03,124.37c-.51-3.18,5.73-15.76,13.52-20.35l14.68-8.65-4.64-29.31c-1.2-7.58,1.4-22.23,8.81-24.86,14.4-1.28,27.75-1.9,41.77-4.58,21.5-4.1,41.98-3.8,63.91-4.97l33.92-1.8,49.99-2.1,53.81-2.38,50.17-3.2,60.01-4.13,50.13-4.03,69.7-8.78,29.84-3.91,25.73-1.26c3.88-.19,7.9.06,11.09.96,3.74,1.06,7.4,9.62,4.72,11.44l-4.88,3.3c-1.14.77,2.04,3.98,3.68,5.64l-6,10.45,10.12,5.21c-5.65,1.71-8.71,3.74-8.74,8.25-.03,3.93,3.12,5.94,8.88,8.47l-10.9,3.27-.36,24.8-8.68,7.6c-7.65-.98-15.37-1.21-22.78-.09l-29.87,4.52-20.82,1.15c-14.55.8-28.32,4.24-42.8,5.08l-26.14,1.52-30,1.89-30.04,2.09-86.79,2.82-3.86,1.78c-.66.3-1.41-2.04-.79-2.4l6.6-3.84-20.98.77-6.07.22c-1.21.04-1.05,3.07-1.25,4.55l-45.17-.08c-1.21,0-5.05-2.47-5.83-2.89-1.04-.57-1.77-.82-3.16,3.4l-20.84-1.2c-13.57-.78-27.19-.3-40.8-.18-17.54.16-33.8.7-51.2,5.17l8.47,44.41c5.47,28.65,7.73,56.63,8.7,86.01l1.3,39.52-4.55,5.62c8.67-.79,17.42-2.73,26.51-2.69l132.79.46,41.29-.2,134.09-3.76,56.39-2.1,52.42-1.95,47.04-1.66c-1.66-32.44,8.24-63.16,5.32-91.25-2.44-23.44-7.36-46.32-5.15-69.87,2.7-28.63,4.46-54.77,3.37-83.93,8.13-5.89,17.48-9,27.08-11.73l14.95-4.25,18.88-3.89c2.18-.45,7.73-.62,9.85-.4,7.65.77,5.97,47.56,4.38,70.97-.76,11.17-1.78,23.53.01,34.57Z"/>
</svg>