<?xml version="1.0" encoding="UTF-8"?>
<svg id="Layer_1" data-name="Layer 1" xmlns="http://www.w3.org/2000/svg" viewBox="0 0 587.44 570.95">
  <defs>
    <style>
      .cls-1 {
        fill: #5a8a1f;
      }
    </style>
  </defs>
  <path class="cls-1" d="M587.44,243.82l-5.59,30.08c3.08-4.25,3.88-3.73,4.15-.42l-9.31,36.66-2.62,56.69c-2.71-2.48-3.52-4.06-4.03-3.44l-3.25,3.95c-1.03,1.25-2.57,5.16-2.51,6.8.06,1.63,2.95,2.66,5.78,3.41l-3,9.59-2.51-7.02c-10.53,12.39,5.14,23.62-6.95,39.88l-1.03,1.39-14.59,20.77-16.51,17.62-13.8,11.09c-2.98,5.96-6.2,10.83-12.51,10.72,2.01,11.5-9.4,11.99-15.94,16.09-23.18,14.51-45.99,27.68-71.46,38.48l-26.62,11.29c-24.05,10.2-73.39,23.8-97.1,23.51l-12.28-.15c10.78-7.16-6.02-.67-7.62-2.88l-3.57-4.94c-7.05,1.44-15.24,2.08-21.43.51l15.6-2.68c-10.13-2.4-19.43-.16-27.29,3.2l-3.93-5.71-7.82,1.9c-.54.13-5.58-10.06-9.3-7.24l-6.19,4.7-39.65-1.28c-1.82-.06-4.34-1.21-4.05-2.12l1.12-3.43-16.23-3.65,15.76-1.81-22.07-4.79c-3.26-.96-4-2.22.36-1.66l7.42-3.22c1.17-.51-3.21-5.69-4.46-5.4l-19.81,4.69,19.78,9.47c2.91.41,6.24.88,2.66.38l-3.76,3.83c-.88.9-3.99,1.62-5.54,1.76-1.2.11-.87-2.88-.85-4.76l-19.55-6.11c-.72,1.52.46-.97.85-1.8l.91-1.99-22.89-9.56-14.32-6.09-9.5,4.48c-3.58-7.04-7.97-12.4-14.62-15.91-21.03-11.1-43.59-34.56-46.31-56l-6.83-53.82c-2.93-23.08-4.75-45.65,1.86-68.8l14.07-49.26c19.72-2.69,8.65-17.98,15.85-33.08l2.68,7.83c-1.56.88-.42.24,2.5-1.39l-.76-17.94c-.07-1.62,2.09-2.97,4.81-3.06l16.11-37.62c3.12-4.75,5.07-9.84,5.33-13.62l-6.14,4.42,9.74-21.48,9.64-16.86,6,3.88c.89.58,2.54-3.98,1.55-4.38l-4.93-1.95c2.03-3.25,3.93-6.9,5.2-11.15,1.78-5.96,5.4-7.41,9.43-11.31l17.95-17.35c-3.87-2.48-3.88-3.74.28-2.62,6-2.74,10.49-4.98,14.95-8.37,19-14.42,39.19-24.98,60.25-35.86l14.97-7.73,22.08-10.43c.61-.29,1.2-3.55.98-3.84-.14-.18.69.15,2.75.77,12.12-.99,31.34-7.71,41.73-14.13l11.61-14.02c3.71-1.3,10.76-1.96,14.93-2.04l34.04-.65c1.34-.03,3.66-.65,3.45-1.62l-1.12-5.14c10.12-.49,20.09,4.11,30.96,6.53l46.68,10.37c15.9,3.53,31.98,12.93,45.78,21.21l41.37,24.82c5.22,3.13,8.87,6.06,13.21,11.46l-13.64-6.05,10.37,19.03c3.35,6.15,6.77,15.44,14.17,17.28l21.04,5.23c.93.23,5.94-2.08,5.28-2.77l-3.82-3.97c-1.91-1.6-2.53-3.18.39-1.99l8.38,1.86-17.32-16.92c22.87,3.92,31.91,23.19,35.67,43.99l6.75,18.62,2.18,23.2c.58,6.19,2.31,14.11,4.15,20.5M261.38,35.99l-.25-2.27-29.14,8.97,1.53,2.41,27.86-9.11ZM266,38.4l-18.02,4.46c5.51,2.27,11.67,2.18,18.02-4.46ZM286.8,94.14l-3.43.91-.05,5.38-24.59,8.43-24.99,12.13c-5.39,2.61-10.87,3.78-15.72,6.73l-15.07,9.19c-6.01,3.66-11.88,7.67-17.38,12.43-1.81.19-5.99-.44-6.71,1.03l-3.53,7.17c-.91,1.85-1.52,6.92-3.36,7.41l-6.67,1.78c4.3,7.1-5.19,14.95-12.17,14.06l-10.66,15.74c-4.5,6.64-7.25,13.11-6.78,21.11-.72-.11-4.98-1.1-4.82.1l1.16,8.38c-10.24,16.39-19.67,44.8-26.15,64.86-3.91,12.1-9.22,20.25-4.79,32.81l1.37,17.59,1.35,20.65.39,22.49-4.76-9.49-1.01,21.34-8.32-24.73c-1.88,1.43-2.72,2.08-2.67,2.94l.38,6.27-8.67-6.19-1.6,6.74-4.49-7.67.06,11.15-4.22-13.9-5.49,11.7-2.12-5.74c-.31-.85-2.62,1.67-4.17,3.18l-6.64-13.88-6.65-16.68-3.25,22.61c-.43,2.96,2.83,8.19,4.26,10.56.7,13.57,10.47,31.44,21.31,39.57l22.87,17.16c8.75,6.57,17.6,11.86,27.86,16.42,5.26,2.34,11.33,2.61,17.35,4.07l44.49,10.79,70.53,10.38-17.89,2c-.98.11-3.53,2.7-2.56,2.92.64.14,3.98,1.31,4.62,1.2l22.22-3.89c-6.17-.04-6.21-2.59-2.49-3.87l29.07,1.66,8.04-.43c1.46-.08,3.46,3.57,5.11,5.68l34.5-4.11c34.65-4.13,47.45-17.45,70.34-17.8.42-1.51,2.5-6.93,4.05-6.14l8.37,4.25c3.29-5.14,6.51-10.04,14.21-7.93l16.97-11.19-8.4-.41,24.85-14.98c5.88-3.55,11.33-6.34,16.53-11.26l21.04-19.87c-10.94-23.99,1.35-30.08,1.34-30.13l-1.42-5.23c-1.15-15.39,1.2-32.34,2.97-47.81l2.49-21.78,2.32-77.92-4.63-35.37-6.49-24.75c-3.39-12.92-15.46-23.31-26.82-30.53l-8.05-.75c-5.43-5.51-14.71-10.3-21.26-14.58l-10.99-7.18c-8.78-5.73-17.8-8.75-27.97-10.26-2.57-1.24-8.13-3.74-11.21-4.2-26.97-3.95-52.15-5.56-79.07-3.38l-20.69,10.32,1.08.99,11.78.34-8.44,4.08c-1.39.67-4.75-2.12-5.08-3l-.85-1.65ZM559,200.89c1.23-12.79-2.38-25.1-13.97-31.15l12.08,50.69,1.88-19.54ZM503.97,413.74l4.25-6.36c.37-.56-2.76-1.42-3.31-1.02l-4.36,3.18,3.42,4.2ZM555.85,418.85l-.58-6.61-8.26,13.71,7.99-5.5c.26-.18.41-.55.85-1.6ZM436.68,452.72l-7.64,4.59,2.47,4.12,7.64-4.59-2.47-4.12ZM452.84,467.01l-7.35,4.41,1.94,3.23,7.35-4.41-1.94-3.23ZM215.37,480.2l-7.62.94c1.13,4.66,7.35,3.91,7.62-.94ZM270.87,481.61l-10.19,1.51c2.47,2.15,5.44,4.01,6.23,3.09l3.95-4.6ZM58.33,498.89l-3.08,3.17,8.81,8.57,3.08-3.17-8.81-8.57ZM121.56,529.18l-9.78-1.27,3.8,4.32c.76.87,4.12-1.24,5.98-3.05ZM200.04,547.3l-12.23-6.98c-1.77-1.01-6.7,1.38-8.21,3.73l20.44,3.25Z"/>
  <polygon class="cls-1" points="578.19 350.3 578.34 337.17 582.58 349.11 578.19 350.3"/>
  <g>
    <path class="cls-1" d="M189.49,54.31c-3.37.35-5.35-1.49-.58-2.73,2.6-2.24,7.03-6.99,9.61-7.47l19.8-3.71-28.83,13.91Z"/>
    <path class="cls-1" d="M124.21,93.48c2.19-10.7,15.95-18.48,26.33-18.84l-26.33,18.84Z"/>
    <path class="cls-1" d="M132.48,546.7c-3.77,2.35-8.88,1.47-12.77-3.49l12.77,3.49Z"/>
  </g>
</svg>