<?xml version="1.0" encoding="UTF-8"?>
<svg id="Layer_1" data-name="Layer 1" xmlns="http://www.w3.org/2000/svg" viewBox="0 0 488.81 458.72">
  <defs>
    <style>
      .cls-1 {
        fill: #5a8a1f;
      }
    </style>
  </defs>
  <path class="cls-1" d="M136.69,165.97c-5.77,4.4-11.35,5.25-18.13,2.81,6.01-1.93,11.5-2.85,18.13-2.81Z"/>
  <path class="cls-1" d="M137.06,251.06l-29.51,3.72-40.79,5.55c-7.43-3.66-14.48-1.86-20.73,2.3l-28.92-.21c-4.36-.03-7.92-3.34-9.04-7.9C3.06,234.27-.33,215.36.03,194.17c.08-4.66,5.86-12.5,9.26-15.75l55.71-4.32,32.14-4.37c5.03-.68,9.12.29,11.74,5.03l67.98-8.73-2.73-4.23c-.45-.7.57-1.56,2.11-3.2,1.36-7.88,1.83-16.3,1.38-24.7l-2.54-48-1.38-22.36-4.1-42.67c8.18-1.53,14.96-4.42,18.76-11.7L237.83,0c3.56,3.02,5.96,4.37,11.05,5.28l10.37,100.44,6.26,43.31,14.71,1.38-.02,3.91c0,.99,3.95,2.34,4.99,2.2l13.39-1.88c6.37,2.26,12.43,2.16,19.24,2l60.45-1.45,30.63-.17,32.19-.38,26.15.44,8.11,4.41c5.39-2.54,11.61-1.89,13.45,4.25-2.12-.41-7.19-2.5-7.94-.86l-3.46,7.58c-2.71,5.94-3.65,10.04-2.36,15.84l-.69,11.25c-.09,1.46.86,5.43-.47,5.68l-7.05,1.29,3.42,3.21c1,.94.39,3.56.4,5.61l.02,5.36c0,1.37-4.15.18-7.24-.42l6.34,5.85-12.76,1.07,4.28,5.91-74.35,1.18-76.04,1.68c6.46,10.59,14.87,16.27,23.88,24.12l49.06,42.78c10.63,9.27,18.77,19.27,30.97,26.51l1.55,9.16c.37,2.16-4.74,4.42-6.39,6.08l-13.66,13.8-.07,4.19c-.02.99-3.41,1.72-4.42,1.9l-6.57,3.38c-1.59.82-1.01,7.5-.55,8.66-6.94,1.33-15.29,4.06-21.93,7.75l4.95,3.8c.97.75-.21,3.09-.86,4.65-.47,1.12-3.76-.86-6.32-2.29,0,0-1.18,2.29-2.77,5.41-9.46-2.4-18.67-7.88-25.93-15.1l-35.02-34.82-51-39.36-16.28,2.88-6.56,12.66-17.86,44.11-11.82,31.83-14.23,32.97c-2.99-4.07-.95-7.19,1.14-12.91-6.46,5.76-10.19,15.49-12,25.57,1.31-.81,3.58-3.2,4.3-2.62l3.61,2.87c.96.76-1.34,3.64-2.47,4.74l-14.85,7.64c-4.12,2.12-7.31,5.39-10.94,4.16-5.05-1.71-5.57-4.87-5.55-10.18-2.86,2.52-6.95,2.99-9.37.42-3.08-3.28-3.43-5.93-3.14-10.93l-5.93,3.38-15.55-16.22-4.52-.13c-1.3-.04-1.51-9.49-2.96-9.54l-7.24-.28,6.84-13.46c3.66-7.21,6.42-12.26,12.53-18.39l-4.41,17.12c2.93-3.23,5.31-7.79,6.94-11.97l10.9-27.93,12.25-28.85,30.47-77.62c-14.86,13.57-14.4,34.76-26.32,50.04.75-4.23,2.48-10.53,3.98-14.21l17.14-42-25.64,2.6-1.22.76ZM332.15,170.5l23.15-1.27c-7.43-5.52-15.65-2.66-24.43-2.1l-26.18,1.68,27.46,1.69ZM398.94,165.8h-39v2h39v-2ZM474.94,165.8h-71v2h71v-2ZM333.19,173.55l-1.64,5.32,6.16,1.9,1.64-5.32-6.16-1.9ZM464.03,179.86l2.34,4.06c.4.69,2.75-.58,2.68-1.38l-.5-5.78-16.28-1.23-29.64,1.23,41.4,3.11ZM397.06,179.64c-5.81-8.27-12.89-2.32-17.69-2.4l-16.8-.28-19.71,1.44,1.08,1.47,53.12-.23ZM378.77,188.11l8.04-1.37c1.29-.22.53-5.64-.74-5.32l-7.53,1.87c-1,.94-.76,4.73.24,4.82ZM422.81,191.26c-8.45-2.43-14.79-3.12-20.29,2.07,6.92.23,13.66-.67,20.29-2.07ZM448.24,190.93l-9.79-1.27,3.81,4.32c.75.86,4.12-1.23,5.99-3.05ZM462.29,199.81l-7.9,1.06c1.38,4.56,7.19,4.22,7.9-1.06ZM157.15,210.77c-7.21-1.93-13.03-1.1-18.42,2.61,7.06.44,12.68-.51,18.42-2.61ZM321.03,213.79l-16.25,2.59c4.93,2.15,11.67,3.72,16.25-2.59ZM347.05,215.36l-1.1-1.7-11.12.54,1.1,1.7,11.12-.54ZM383.94,227.59l-.03,2.19,15.01.24.03-2.19-15.01-.24ZM137.07,247.99l-12.82.6,11.64,1.52,1.17-2.12ZM187.05,377.86c4.04-2.03,4.84-6.86,2.82-10.32l-2.82,10.32Z"/>
</svg>