<?xml version="1.0" encoding="UTF-8"?>
<svg id="Layer_1" data-name="Layer 1" xmlns="http://www.w3.org/2000/svg" viewBox="0 0 834.45 708.88">
  <g id="D18KD8">
    <g>
      <g>
        <path d="M668.18,380.03c1.5.96,2.95,3.65,4.94,2.09l-1.38-13.89,2.86-2.92c-1.1-1.12-3-3.81-2.99-5.34l.11-20.28c.01-2.11-.3-4.14-1-5.54,2.08-3.87,1.68-8.71,1.24-13.21-.32-3.35-.2-6.59-1.42-9.83,1.22-3.33,1.64-7.55-.32-11.12l-.6-11.49c-.57-10.95.34-21.72.05-32.65l-.5-18.49c-.07-2.75-1.25-5.15-2.13-7.68-.77-2.21.21-7.27-1.31-8.99l-6.08-6.88-7.99-8.56c-1.19-1.27-2.15-2.54-3.31-3.46l-8.73-6.86c-.63,4.89-.02,8.36.12,12.85l.31,9.93c.07,2.31,2.4,4.52,4.7,5.82-.82,1.95-1.98,4.67-2.99,6.07l-3.3,4.56c-1.49,2.05-2.37,4.48-2.36,7.03l-3.86-.56c-.89-.13-1.95,1.61-2.53,2.46-3.64,1.69-6.25,4.42-5.48,8.73l-8.39,5.71-5.7,7.9c-2.12,2.93-3.99,4.85-6.98,6.71l-4.59,2.85c-1.05.65-2.19,1.55-2.99,1.77s-2.57-1.55-2.96-2.33l-1.6-8.42-2.07-1.74c-.57-.48.9-2.24,1.65-2.98.43-.42-.57-1.71-1.24-2.31,4.21-6.91.04-11.76,3.95-16.87l3.66-4.8c1.28-3.69,2.86-7.13,5.43-10.21l2.09-3.76c2.28-2.02,4-4.07,5.77-6.51l3.65-5.03c2.31-1.49,3.63-2.85,5.18-4.78l8.72-10.84,4.78-4.98.84-3.32,2.29-.67c.57-.17.8-1.92,1.19-2.38l3.09-3.62,3.3-3.25,6-5.35c1.49-1.33,2.56-3.76,3.46-5.7,4.05-1.47,5.67-3.74,7.74-7.21l3.36-5.62,3.99-3.35c4.71-5.9,15.04-16.91,18.22-14.7l5.1,3.54c6.57,4.56,8.01,10.33,13.43,11.95l3.09,3.52,8.78,11.5,1.68,18.17c.04.46,1.36,1.56,1.2,1.86l-1.05,1.94c-.91,1.68-.41,6.38.14,8.37,2.12,4.41,1.24,9.32-.31,13.86l-.16,8.92c-.01.57.97,2.41,1.16,2.65-1.71,2.43-1.42,4.81-1.34,8.26l.44,17.93c0,.33,1.15,1.44.96,1.69l-1.11,1.46,1.5,2.07.36,61.68,1.36,17.41c.4.87,1.17,2.86,1.27,3.84l.84,8.26c.12,1.14,1.68,3.28,2.36,3.99l.54,11.29c.11,2.32.32,4.37,1.67,6.4l3.18,4.77,3.53,6.1c1,1.73,3.95,1.76,6.43.66l.28,3.38,3.53.04c.05-2.27.49-5.6,1.15-7.41-1.02-1.41-1.21-3-1.26-5.29l-.34-17.03.56-8.42,2.03-4.01c.49-.97-1.44-3.27-1.59-4.38-.45-3.42-.67-8.25.15-11.29.98-3.65,1.72-6.21-.16-9.79-1.27-2.42.6-5.57.73-7.9l.56-9.73-.19-12.88c-1.28-2.04-1.73-4.11-1.88-6.62l.26-6.89-1.12-34.98-1.74-2c-.35-.4,1.56-1.64,1.58-2.16.41-7.86-1.76-10.11-1.7-14.92l.2-16.61c0-.36.91-1.57,1.09-1.85.25-.37-1.17-1.54-1.17-2.16l-.11-17.44.25-16.2c.01-.82,1.83-2.38,1.5-3.02l-1.54-2.98c-.47-.9,1.31-2.9,1.55-4.04.92-4.28.28-9.61.32-14.27l.12-16.22.33-35.49-17.43-20.28c-1.9-2.21-2.44-4.75-5.82-5.8-.89-1.4-1.52-5.73-.43-7.22l3.83-5.25c2.3-3.15,4.79-5.51,7.55-8.28l7.71-7.76c2.33-2.35,3.86-3.37,5.24-6.64,2.67-6.28,8.05-7.45,11.55-13.72l5.13-5.94c1.41-1.64,2.54-5.53,5.87-4.5l5.7,1.75c1.83,7.34,9.52,15.23,14.85,20.94,3.97,4.26,7.84,8.07,12.68,11.52,1.39.99,3.78,2.76,4.83,3.83l5.75,5.87,5.2,5.67c-3.95,4.77-8.18,9.53-12.83,13.5-1.09.93-2.12,2-2.93,3.08l-3.35,4.42c-.99,1.3-2.86,4.03-2.87,5.8l-.16,22.46c-2.14,3.86-2.47,8.45-1.6,12.75l-.9,27-.14,15.49.86,22.75.6,17.09c.05,1.37,1.95,3.41.84,4.85-2.13,2.77-.86,4.83.02,7.68.68,2.21.61,5.93.63,8.61l.34,32.26-.31,10.24-.27,35.32c-.48.39-1.41,1.11-1.2,1.34l1.22,1.33-.27,30.41c-1.76,1.91-1.59,4.43.05,6.28l.92,17.03.29,6.11-.33,14.14c-.11,4.61,1.67,8.22,5.33,10.54,1.46,3.31,4.22,5.91,7.06,7.75l2.07,2.94c.42.59,1.87-.18,2.93-.46,1.59-.57,2.9-1.23,4.15-2.01,3.07-1.91,3.15-5.07,2.53-8.32,6.49-4.69,5.48-9.85,8.57-10.92l5.44,4.04,1.08,7.58c-3.12-.16-3.25,2.12-4.42,3.19l-6.41,5.82c-2.56,2.33-4.45,5.62-5.41,8.66-4.11,1.91-6.11,5.18-8.73,8.42l-8.46,10.5-3.43,4.3-8.7,9.23c-1.99,4.39-4.42,7.38-7.38,10.65l-7.8,8.62-3.95,6.2-4-3.71-2.77-3.39c-1.66-2.03-3.78-3.76-5.83-5.41l-3.46-2.78-4.84-3.09c-5.48-4.72-10.69-8.67-16.78-12.57l-1.83-1.17c-1.58-1.01-.75,4.65-1.25,4.78l-2.62.63c-3.42-1.06-5.85,1.05-6.36,4.25-3.75,1.94-5.51,5.56-6.55,9.35-2.59,1.37-5.07,3.35-6.51,6.06l-2.3,3.03c-.26.34-.84,1.6-1.2,1.4s-1.18-.82-1.56-1.34l-7.83-10.74-5.28-4.39-4.03-5.08-3.92-7.3c-.79-1.48-1.92-2.8-2.08-4.17l-1.13-10.21-7.63,4.7-7.09,11.14-3.28,4.94c-2.19,3.3-4.63,6.08-6.15,9.63l-2.65,4.09-5.79,8.34c-.63.91-1.27,3.04-2.25,2.96-1.38-.11-2.33-1.05-3.1-2.17l-4.96-7.12c-2.2-3.16-4.75-4.83-8.31-6.25l-5.87-2.98-5.02-2.93-11.15-7.88c-.87-.61-3.18-1.13-3.63-2.06-.51-1.08-.25-3.86.39-4.86,1.79-2.81.62-4.49.47-7.24l-.87-15.81-1.3-22.76-.98-1.4c-.26-.37,1.08-1.45,1.1-1.93l.48-12.85-.24-14.66c-.05-3-.56-4.72-1.35-7.73-.68-2.58-.36-7.98.25-10.62s1.4-3.94,0-6.16c-1.62-2.58.22-5.2.64-7.8.56-3.46.4-8.38.14-11.65l-1.58-3.12,3.7-4.01c3.21-1.57,4.03-4.77,5.88-7.4l5.42-7.7,2.94-4.62c2.65-4.17,6.46-7.51,10.6-10.48l1.91-8.23c2.97-1.13,4.08-2.79,5.6-5.15l2.99-4.62,5.51-5.99c1.72,1.82,3.08,3.77,2.46,6.37l-1.56,6.59-.75,14.96.15,11.41c.03,2.26.72,4.02,1.37,6.3,2.32,8.17-1.11,15.37-1.06,19.11l.34,27.63c.02,1.62,1.47,3.13-.02,4.93.37,1.04,1.24,3.62,1.23,4.84l-.12,8.08-1.36,2.29,1.22,2.89.34,11.97,5.77,3.45,5.77,3.33,11.97,7.65Z"/>
        <path d="M439.88,315.02c-1.13,0-1.57-3.2-1.35-4.27.75-3.7.38-7.11.09-10.88-.24-3.06.7-7.22.48-10.21l-.88-12.16c-.29-4.07-.16-8.58-.97-12.46-.42-2-2.03-4.61-.71-6.39,1.71-2.3.63-3.45.17-5.82-.79-4.11-.86-9.69-.17-14.03.32-2.04,1.9-4.19,1.19-6.64-.54-1.86-3.12-2.84-5.67-3.29l-6.12-5.7-6.79-6.07c-.6-.53-1.96-1.04-2.67-.93s-2.03,1.77-2.01,2.54l.16,6.98.22,9.92.05,37.33.04,6.06.02,30.88,1.52,3.03.58,23.51.63,10.09.17,19.2.37,8.18c.04.77,1.79,2.5,1.38,3.09l-1.62,2.31c-.34.49.68,1.82.94,2.4l2.82,6.42c.81,1.84,4.84,3.7,6.42,5.24l9.57,9.32-9.2,12.04c-.79,1.04-3.55,1.34-4.11,3.63-.32,1.32-2.67,2.82-3.37,3.8l-3.77,5.22c-2.6,6.24-5.8,11.7-11.31,15.83l-1.59,2.95c-8.37,6.23-7.23,14.46-12.94,13.8-1.46-.17-3.19-1.52-4.3-2.91l-3.11-3.89-5.25-5.45c-1.62-1.68-3.09-2.75-5.53-3.32l-6.53-6.13-7.95-6.78-14.55-14.15c-1.1-1.07-2.67-3.06-2.56-4.35.16-1.85,1.66-3.55,2.78-5.01l2.95-3.85,3.75-5.12,6.76-8.38c1.59-1.97,3.25-2.52,6.14-2.27l-.61-4.89,3.74-6.16c1.55-2.55,2.22-5.14,2.21-8.27l-.02-6-.46-15.76.23-31.5-.14-10.44-.32-14.43-1.16-5.39-.72-16.04c-.1-2.26-.2-4.12.04-6.41.38-3.63,0-8.03.75-11.39s2.4-5.54-.29-8.07l-14.68-13.79c-1.62-1.52-3.33-2.54-4.91-4.38l-4.03-.47c-2.22-3.35-1.1-7.58,1.34-10.68l3.02-3.83,5.2-6,6.24-7.35,4.7-6.48,5.85-7.68c3.49-4.59,8.33-8.42,11.13-13.55l2.43-4.44c.58-1.06,2.32-2.3,3.31-2.21s3.06,1.14,3.71,1.94l2.88,3.52,6.46,5.2,6.28,6.36,7.57,6.82c3.28,2.95,4.76,7.22,1.25,10.95l-.07,8c2.83,1.05,3.86-4.73,10.11-8.05l3.47-4.73,2.74-3.98c1.44-2.1,2.52-4.24,4.44-6,2.84-2.6,4.99-5.04,6.96-8.07l2.43-3.73c2.51-3.85,6.39-7.18,9.93-10.05l5.24-4.26c1.46-1.19,5.19,1.57,6.51,3.05,3.77,4.23,8.01,7.02,12.17,10.46l7.02,5.8c.73.6,2.2,2.34,2.75,1.63l3.02-3.87,8.56-11.92c.49-.69,1.7-1.76,2.33-2.08.76-.37,2.05.99,3.05,2.29,1.3-.22,2-2.36,2.02-4.22l.27-39.77.04-19.33-6.84-6.98-8.83-9.25-3.48-3.28c-1.43-1.35-3.11-2.79-3.26-4.6-.34-4.03,3.14-6.93,8.05-7.59.87-1.06,1.98-4.25,2.79-5.85,1.09-2.18,1.93-2.82,1.28-5.79l6.8-4.9c2.72-1.96,4.87-4.03,6.65-6.83l2.71-4.26,6.89-8.74c4.88-6.19,9.01-7.71,11.56-12.01,3.45-1.62,7.3.11,8.02,3.87l11.41,10.86c1.9,1.81,3.3,2.51,4.23,5.12.61,1.74,2.27,4.77,3.46,5.98l16.01,16.43,4.08,4.15,1.48,4.35c-1.44,2.41-2.55,6.73-4.67,8.59l-10.92,9.54-6.54,5.99c-2.02.15-3.5,1.29-3.43,3.38l.28,8.17-.11,37-.04,13.6c-.01,3.31-.28,6.09.32,9.52l21.29-.29c1.6-.49,4.59-1.34,6.45-1.64l9.07-1.49,6.71-1.63c.72-.18,2.6-.49,3.13-.03l2.24,1.94c.83-.88,1.94-2.02,2.67-2.48s2.44,1.41,2.89,2.22l3.75.72c1.35,1.51,2.53,2.55,4.09,3.75l-3.48.64c-2.21.41-1.55,6.11-3.36,9.75l-7.55,4.72c.43,3.24-.8,5.15-3.36,6.3-.6,3.83-2.46,7.26-5.39,9.61l-1.38,2.45-8.94,10.65c-1.46,1.74-2.25,3.46-3.15,5.94l-3.4,4.76c-1.11,1.55-1.96,3.42-2.2,5.21l-7.31-.46c-6.06-.38-8.88-3.79-12.5-1.92-.98,1.33-.49,4.69-.5,6.53l-.07,31.01-.52,21.32.6,27.29.28,24.72c1.81,3.26,2.39,7.38.84,10.99-2.9,4.29,3,9.56.29,14.79-1.8,3.47-.94,7.74.23,11.37,1.03,3.2,1.36,5.6,3.8,7.66l3.48,2.92c2.7,2.95,5.21,8.73,10.28,8.51,5.57-.24,8.64-10.62,14.92-15.1,1.18,1.57.53,3.38-.51,4.54-.4,3.13-1.43,5.8-3.66,7.61l-5.74,9.23c-1.52,2.45-3.29,4.53-5.48,6.75l-1.59,3.67c-1.69,1.3-2.04,3.17-3.37,4.84l-8.33,10.53-3.58,5.54-3.18,4.08c-1.08,1.39-2,3.95-2.59,5.53l-6.83,8.08-4.75,6.64c-.55.76-.9,3.1-1.84,3.29-1.3.28-3.06-.53-4.11-2-2.05-2.87-6.22,2.41-7.15,2.02-.57-.24-1.41-.87-2.04-1.46l-9.69-9.17c-.99-.94-2.64-2.11-3.32-3.24-3.69-6.12-8.54-9.84-14.09-13.8l-9.3-6.63c-8.58-6.11,4.66-10.99,11.74-21.38,1.32-1.94,1.64-3.01,3.41-4.33,13.63-10.11,7.08-15.94,7.26-16.38l1.4-3.38c-1.28-2.37-2.12-5.33-2.13-8.17l-.07-24.01-.59-9.21c-.08-1.19-.59-2.95-1.05-3.99l1-2.27c.27-.62-1.01-2.12-1.25-2.47.49-.88,1.24-2.71,1.25-3.74l.18-20.95-.38-14.73-1.12-2.32,1.2-2.2v-11.39c-.41-.71-1.43-2.54-1.43-3.34l.06-11.95c0-1.86.64-3.69,1.55-5.28-2.28-2.91-1.73-5.21-.08-8.35v-10.46c-.01-1.31-1.57-4.14-2.1-5.23l-14.48-1.11-5.98-.22-.37,18.32-.44,16.97c-.04,1.38,1.67,3.66,2.68,4.79.81.91.15,4.49-1.08,4.65l-3.14.4c-.76.1-1.23,1.72-1.66,2.42-3.24,2.68-5.41,5.23-6.48,9.48l-4.13,1.69c-1.02,3.82-5.4,9.34-8.59,10.92-4.77,2.36-4.53,6.53-9.82,10.62l-1.79,6.94c-2.13.81-3.26,1.37-5.3,2.74h-7.04Z"/>
      </g>
      <g>
        <path d="M55.45,624.81l4.58-5.08c.02-4.63.38-9.4-.34-14.04-.31-2-2.44-4.84-2.33-7.08.29-5.68-.21-10.54-1.73-15.92-1.43-5.05,0-11.28-.85-16.86l-1.55-10.19c-.56-3.71-2.22-7.73-2.03-11.84l.54-11.31c-.85-5.25-.49-10.85,2.01-15.62l.41-16.6.7-9.88c.12-1.75.89-4.28,1.33-5.86l1.34-15.01c.59-6.55.32-12.38-.23-18.79l.29-9.7c.12-4.14.48-8.46-1.96-11.64-1.81-2.36-3.98-2.81-6.26-3.96l-5.47-2.74c-3.32-1.66-8.44-1.7-11.16.24l-2.26-1.01c.08.04-10.7,2.06-12.87,7.97-5.14,3.8-9.67,8.16-11.99,13.93l-4.79,3.8c-1.95-3.42-.11-6.72,1.85-9.48l3.07-4.32,5.11-6.88,7.57-9.14,9.46-11.5,7.74-8.62,2.94-5.24,6.34-7.27c2.47-2.84,4.45-6.13,7.28-8.55,5.22-4.46,1.44-6.6,1.97-17.83.29-6.19.89-13.75-1.8-16.39-.23-.23,1.34-1.13,1.36-1.46l.52-9.11-2.27-2.27c-.51-.51.9-2.42,1.38-3.08l-1.04-2.27c-.25-.55,1.29-2.13,1.3-2.75l.21-10.18c.04-2.08-.64-3.93-1.47-5.52l-.45-10.98-.49-8.95c-.26-4.75-1.92-7.95-5.77-10.1l-2.62-3.32-8.58-8.92-9.07-8.81-1.97-1.94c-.69-.67-1.79-2.45-1.9-3.45-.12-1.15.92-2.87,1.99-3.84l5.63-5.14c3.03-2.76,5.15-6.92,7.83-10.65,2.88-4.01,9.11-6.56,9.41-12.15l6.81-5.44c2.31-1.85,3.52-3.19,4.98-5.76l4.09-7.22c2.3-4.06,7.76-7.46,9.18-5.88l11.34,12.59c1.64,1.82,3.28,4.94,4.58,7.25,2.86.3,5.07,1.54,6.46,4.02l4.98.84c.28,5.65,6.5,11.08,9.2,11.36,1.05.11,2.68-1.69,3.4-2.49l5.1-5.69c1.57-1.75,3.39-5.14,4.96-6.65l3.64-3.49c1.9-1.82,3.43-5.07,5.01-6.94l10.32-12.21,4.6-4.85,12.32-12.69c1.62-.05,3.5,1.15,4.57,2.32l5.74,6.25,2.91,3.96,6.13,7.22,5.9,6.95,3.14,3.95c1.53,1.92.77,5.58.72,8.15l-.45,25.11c-.17,9.6.17,19.13.42,28.86l.37,14.41c.04,1.56,1.38,4.37,1.47,5.78l.87,13.51.13,9.07-.12,35.8v7.05c-.02,3.96-.84,6.76-2.12,10.19-.9,2.42-1.42,4.41-3.66,6.34l-7.68,6.63-8.02,10.65c-1.02,1.36-2.29,2.28-3.23,3.67l-3.3,4.85-4.56,6.76-2.49,1.89c-.58,5.9-6.03,4.25-7.7,9.52-3.95,2.32-6.78,6.17-9.66,9.64l-5.84,7.03-9.09,9.63-4.82,5.17c-2.65,2.84-3.23,6.94-9.22,10.76l-7.78,4.98-1.16,6.91.05,17.85,1.69,20.92,1.17,5.32.3,9.94c.14,4.8,1.66,8.9,2.23,13.52l1.22,10,.33,8.76c.12,3.22,1,6.7,1.68,9.49l1.14,43.28.85,14.42,1.34,5.32c.42,1.66-.14,3.92-.68,4.82l-1.1,1.81c.07-.12,4.7,7.12,10.97,11.07,3.25,2.05,4.77,4.9,3.88,8.94l1.87,3.92c-2.95.77-4.74,1.47-6.22,3.18l-5.72,6.62-3.44,4.76c-.78,1.08-3.32,2.2-4.53,2.7l-2.83,5.51c-.57,1.1-2.65,2.44-3.54,3.11l-3.27,4.36-4.27,6.09-5.84,8.79c-1.32,1.99-3.54,4.75-5.23,6.54s-4.67-1.08-5.7-2.33l-3.45-4.14-3.07-4.17-7.45-7.86-6.61-6.98-11.8-11.19-12.14-11.68c1.54-4.77,6.38-11.61,10.45-11.92,1.32-3.09,2.26-8.16,4.72-10.47,1.26-1.18,2.28-2.08,3.07-3.22l6.57-9.51ZM138.27,397.69l.08-15.08c0-1.03-1.63-3.23-2.3-3.95,2.16-1.37,3.15-3.19,3.02-5.89l-.87-17.32-.53-10.63c-.05-.92-.72-2.84-1.05-3.61l1.04-2.46c.21-.5-1.43-1.83-1.45-2.5l-.53-14.38-.62-19.47c-.12-3.81-.27-7.27.59-11.13.44-1.97-.04-4.38-.07-6.48l-.27-25.66-3.67-4.92-2.75-3.45c-1.32-1.44-4.01-3.48-4.98-4.93l-5.49-8.13-1.3,13.88-4.09,2.67-4.94,3.64c-1.05.77-2.11,2.56-2.92,3.76-2.26,3.36-2.77,6.14-2.74,10.22l.23,29.94.29,34.31c0,.92.96,2.93,1.54,3.82l.34,24.49.55,8.36c.14,2.08,3.56,2.94,4.47,4.18l3.88,5.23c1.56,2.1,2.96,5.54,4.69,7.24l9.21,9.09c1.08,1.06,3.54,2.54,4.92,3.36,2.62,1.57,5.71-1.6,5.72-4.21Z"/>
        <path d="M218.84,438.98l-9.04-6.84-6.51-3.5-7.46-5.77,1.5-3.98c.79-2.1.71-6.92-.09-9.02-2.64-6.99,1.41-6.47,1.19-12.79-.66-.54-2.52-1.63-2.25-2.24l1.16-2.65-.83-1.29c-.05-.08,2.39-4.16.7-8.14-3.29-7.77,3.3-9.22-1.35-14.6l2.11-4.38-.51-12.1c-.02-.4-1.6-1.61-1.34-1.89l1.38-1.49c.6-3.59.27-7.64-1.07-10.77,4.14-5.89-3.12-9.23,1.35-12.97l-1.55-3.29-.51-12.39.66-7.09,1.21-2.26c.25-.46-1.2-1.37-1.52-1.93-1.86-3.33,1.04-8.06,4.67-8.68,1.97-4.65,4.89-8.26,8.53-11.87.3-1.79,1.37-3.21,2.98-3.67l6.86-8.14,2.4-4.18,6.13-7.47,3.67-5.32c3.1-4.49,11.22-11.98,11.83-18.36,1.96-1.65,2.73-3.53,4.42-5.43l7.19-8.09c2.58-4.54,5.31-8.01,8.67-11.81l3.19-3.6,7.23-10.88c3.3-1.32,4.76-4.6,6.15-7.35l3.43-3.36c1.6-1.56,2.31-4.35,3.35-6.3,5.29-3.09,5.44-7.75,8.84-7.94,1.77-.1,3.91,1.01,5.16,2.22l3.16,3.05,3.63,2.88c3.52,1.82,6.08,4.16,8.59,7.39,1.44,1.86,3.63,3.39,5.45,4.94l8.17,6.95c.72.39,2.69.82,2.75,1.61l.29,3.85c.56,7.42,1.41,15.11-.39,22.36-.5,2.03-1.31,3.87-1.39,5.99l-.45,12.05-.52,11.89-.58,13.26-1.35,2.26,1.38,2.28.35,15.18.39,9.35c.09,2.28,1.25,5.22,2.2,7.24l.53,24.78.52,16.48c.17,5.43,4.17,5.49.75,9.29-.8,2.29-1.81,3.93-3.63,5.29-.33,2.6-1.3,4.43-3.83,5.18-2.84.85-4.32,3.1-6.34,5.07l-2.92,2.84-7.03,5.87c-1.8,1.5-3.22,2.61-4.56,4.42l-5.78,7.81-5.85,6.15-4.08,4.87-5.97,7.65-2.88,5.25c-3.01,2.72-7.01,5.04-8.26,9.36l-7.17,8.14-2.41,4.03-3.39,5.2-5.11,6.25-3.37,4.87-2.98,4.3c-2.35,1.01-3.66,1.62-6.57,3.6l-12.64-10.88-5.53-3.18-5.11-3.58ZM284.84,394.01c3.84-4.07,4.13-10.41,1.58-15.45l-.75-22.13c-.11-3.29-.99-5.78-.41-9.21s-.6-6.95-1.99-9.43c2.85-4.44,1.16-8.55.1-12.45-.61-2.24-.21-6.12-.7-8.47-.7-3.4,1.52-5.88,1.62-8.59l.97-26.59,1.18-15.74,1.17-2.98-1.39-2.32-.1-7.94-8.91-8.31-4.02-3.41-6.39-6.44c-2.97-2.99-6.79-5.16-10.92-7.01-1.3,4.41-3.98,5.81-7.41,8.02l-4.69,3.01c-.79,15.55-.4,30.74.37,46.32,2.06,2.08,2.1,4.87-.04,7.04l.05,8.49c.3.5,1.47,2.29,1.47,2.96l.06,17.29c0,.6-1.29,2.37-1.65,2.77l.06,41.9c.23,2.82,4.87,4.04,6.72,5.13l5.73,3.39,4.31,2.55c2.76,1.63,5.45,4.95,7.36,7.48,2.22.29,4.25,1.05,5.73,2.44l3.65,3.45,4.48.72c.95.15,2.09.24,2.21.83l.57,2.69Z"/>
      </g>
    </g>
  </g>
</svg>