<?xml version="1.0" encoding="UTF-8"?>
<svg id="Layer_1" data-name="Layer 1" xmlns="http://www.w3.org/2000/svg" viewBox="0 0 318.22 319.97">
  <defs>
    <style>
      .cls-1 {
        fill: #5a8a1f;
      }
    </style>
  </defs>
  <path class="cls-1" d="M298.7,60.17l-4.59-4.08,4.85,20.41,3.42,19.56.64,34.09-6.64,20.56,5.61,3.8c1.82,1.24,1.57,11.22.78,11.06l-5.04-.98-13.43,32.18,2.24,9.95-19.28,22.68c-6.34,7.46-12.82,13.92-17.78,22.39-4.86,8.3-12.01,14.31-20.31,20.18-.06.92.65,4.22-.57,4.58l-6.85,1.99-11.45,8.71c4.86,1.44,5.11,2.26,4.07,3.64l-33.37,14.54c-13.7,5.97-28.16,11.26-43.31,12.71l-14.06,1.35c-29.91,2.86-71.76-6.63-86.49-33.03l-21.59-38.7c-5.55-9.95-9.24-19.03-11.16-30.88-2.55-15.7-6.66-31.33-2.85-47.07l7.89-32.57c7.24-17.52,18.9-32.78,28.81-48.79,11.9-19.23,25.37-35.32,43.79-48.28l17.49-12.31,18.73-10.29c6.26-3.44,18.31-10.77,24.93-9.77.78.12,1.58,3.26,2.21,3.74l5.12,3.92-18.66,4.26c4.71,1.37,8.69.79,14.17.44l5.95-.38c1.37-.09,1.34,2.74,1.73,5.43l45.36,1.59c8.9.31,15.81.95,25.31-.95l14.11,4.55c-5.14,3.69-5.74,4.11-5.33,4.07l32.54,7.34c9.08,2.05,17.91,3.16,24.93,9.28l2.75-5.48,7.22,13.04.52.93,3.69.93c1.24.31.91,3.13.49,5.9l-5.6-5.1-.97-1.1ZM130.3,18.75l3.03-5.81-6.85,3.29c-.87.42.75,1.25,3.82,2.51ZM166.16,29.64l-3.16-1.72h-8.13s-1.09,1.99-1.09,1.99l12.39-.27ZM131.93,33.06c-5.73-2.14-12.99-1.28-14.5,5.35l14.5-5.35ZM263.71,48.06l.16-3.39-27.78-4.3-.11,2.9,27.73,4.8ZM246.2,53.5l-32.65,1.45,18.78,1.7c9.62.87,18.91,1.57,25.94,9.33l-11.6-2.33-23.17-1.64,1.35,2.1,22.14,3.48c-6.38,6.73-13.18.83-19.13,1.04l-15.4.54c-6.25,3.63-12.68,5.2-20.47,5.04-15.81,5.62-31.52,7.35-48.18,3.35-.7.4-4.06,2.71-3.41,3.29l3.32,2.94-11.17,8.53,2.19,3.07c.45.63-1.13,3.3-1.87,3.97l-17.31,15.63c-10.74,9.7-16.65,21.79-23.52,33.11-11.24,18.52-16.96,38.22-17.98,59.82-.56,11.86,4.05,17.38,14.64,21.24,20.25,7.39,39.28,6.82,59.31-.83l31.64-12.09c8.75-3.34,15.18-7.66,23.47-13.05l13.2-8.58c12.91-10.57,24.12-21.9,34.21-34.15l4.08,3.55c.49.42,1.52-2.54,1.8-3.41,2.72-4.63,6.37-11.4,9.87-13.33,10.04-5.56,13.37-16.08,18.1-27.53l4.41,6.45,4.1-12.84c11.09-34.72-14.01-49.32-14.02-48.97l.19-7.93c-11.56-3.91-24.17-7.1-35.48-8.27l4.91,2.7c-.09,0,.49.04,2.39.17,2.37.17,5.23,1.23,8.57,4.21l-11.44-1.84-1.8.08ZM222.18,64.02l-1.18-4.19-13.51,1.11,14.69,3.09ZM280.21,137.72l-4.41,7.35,3.23,1.94,4.41-7.35-3.23-1.94Z"/>
  <path class="cls-1" d="M315.54,125.66c-3.29,11.75,6.96,18.18-1.04,29.5l-3.7-13.78c3.03-21.74-6.56-37.87-3.32-54.03l8.6,13.25c3.96,6.1,1.63,17.31-.54,25.06Z"/>
  <path class="cls-1" d="M277.98,36.1c1.76-1.51,3.43-2.56,2.91-3.11l-2.91-3.03-13.67-12.45-11.17-9.3c18.58-.49,36.85,19.57,38.44,35.27l-13.6-7.38Z"/>
  <polygon class="cls-1" points="225.94 1.7 214.83 2.24 213.73 .54 224.84 0 225.94 1.7"/>
  <path class="cls-1" d="M309.55,85c-3.77-.12-4.83-5.78-2.24-6.76.64,1.59,2.31,6.63,2.24,6.76Z"/>
</svg>