<?xml version="1.0" encoding="UTF-8"?>
<svg id="Layer_1" data-name="Layer 1" xmlns="http://www.w3.org/2000/svg" viewBox="0 0 2412.4 1156.24">
  <defs>
    <style>
      .cls-1 {
        fill: #5a8a1f;
      }
    </style>
  </defs>
  <path class="cls-1" d="M1002.45,416.81l-39.53-14.06c-2.59-.92-5.64-10.73-5.01-13.4.79-3.35,6.83-9.11,10.38-9.72,26.54-4.53,49.13,14.11,55.87-17.78,3.44-16.25,14.97-26.97,21.93-51.28l12.35-43.11,14.01-66.2c.7-3.31,3.78-10.74,6.12-12.95,2.81-2.66,10.95-2.38,15.75-1.64l12.85,1.98c3.5.54,4,11.23,3.24,15.01l-15.99,79.03-6.1,22.59c-2.41,8.94-4.39,25.18-8.41,32.15l-10.01,17.36c-2.88,4.99,3.98,19.85,9.43,19l84.5-11.8c15.85-2.21,30.05,1.99,42.55,10.29-32.2,16.19-63.67,20.14-97.06,27.55l-45.07,10.01-12.02,67.67c-.97,22.44-6.85,44.09-21.74,62.25,4.13,16.33-2.18,29.22-13.47,38.58l-11.78,26.16c-11.34,25.19,4.39,56.24,17.06,75.48l22.27-32.31,62.91-80.29c14.29-36.32,35.63-65.2,68.77-88.83,31.06-15.11,61.75,12.25,87.6,38.85,16.79,17.27,35.53,32.24,36.69,58.94l-30.4-7.81-17.4-18.48-4.18,33.72,3.46,44.04c.84,10.71.32,18.81,6.65,28.48l25.27-12.57c12.21-6.07,22.02-12.2,32.16-20.41l35.82-29.01c-5.76-43.48-5.14-100.65,3.81-140.08l7.77-34.2,12.59-39.56,24.98-55.7,44.94-94.68,11.17-23.32,31.08-59.25c8.33-15.88,18.85-27.03,26.61-43.74,1.84-3.95,8.76-11.69,12.65-13.54,4.45-2.12,13.24.29,19.13,1.81l9.85,2.55c2.65.68,6.33,17.2,1.43,36.96l-4.94,19.94c-3.43,13.85-4.88,26.59-10.38,40.19-11.67,28.88,3.81,21.81,1.01,39.01-.68,4.18-8.57,5.39-13.55,5.82l-20.38,75.01-5.62,53.42-11.94,34.57-13.1,24.14-15.75,54.55-12.42,28.86-29.5,57.34c-5.11,9.93-7.55,19.53-18.67,22.94-38.66,11.84-7.52,89.49,6.16,98.4,12.01,7.82,60.41-16.85,86.59-51.21,19.04-24.98,46.84-48.9,54.29-80.71l36.48-155.84-42.76-.65c-5.94-.09-14.19-9.09-14.61-14.83-.39-5.36,8.63-15.94,14.71-16.36l52.42-3.66,62.15-208.68,13.82-47.6,28.9,2.5-23.63,148.6-7.83,35.98-15.34,62.76,120.23-13.73c12.99-1.48,34.26,6.02,44.43,9.2l11.04,17.75c-.64,3.76-12.15,9.26-18.3,9.3l-65.63.4-70.05,7.11c-10.52,1.07-23.31,2.97-31.79,6.73l-41.32,105.8-18.32,51.84c-16.15,45.72-9.33,73.87,29.71,102.13l46.25-14.01-14.04-43.15c-12.83-39.43,7.12-102.48,52.59-124.85l48.1,8.99,11.25,28.01c9.99,24.87-6.8,43.93-5.22,68.94l-18.14,26.77-37.14,39.86c.31,7.56,9.53,20.34,16.95,23.44,23.92-4.2,41.02-18.94,60.26-29.75,22.19-12.46,34.09-24.23,45.71-47.15l15.84-31.23,9.2-30.64c5.32-17.72,29.19-43.08,57.16-43.74,24.4-.58,50.76,5.41,64.46,26.91l19.2,30.14,36.32-19.23c29.6-15.67,65.6-21.5,88.96-47.55l25.91-28.88,27.25-37.07,15.4-31.78,13.55-27.64,15.49-35.51-96.14,16.24c-22.13,3.74-43.07-.9-47.61-9.99-1.56-3.12,4.25-11.85,7.94-12.57l77.8-15.22,68.01-9.4c3.36-16.68,4.06-28.14,4.43-45.29l.21-9.93c.04-2.09,2.34-2,7.69-3.48l6.14-33.31c.46-2.51-5.19-11.04-3.22-12.63l9.03-7.32c-4.75-13.39.55-25.52,7.83-34.98l7.57-35.75c2.76-13.03,4.25-28.67,10.3-38.17,10.65-16.72,8.91-38.7,10.05-60.26,8.33-3.18,19.9-.11,25.73,4.02,8.53,6.04,10.51,19.25,8.06,29.33l-13.83,56.92-13.54,52.19-14.79,72.4-7.33,27.39-6.97,32.97,44.33.78,72.62-2.29c2.04,9.14,2.43,18.09,1.87,27.68l-56.88,3.45-62.51,5.9-7.48,51.21-15.62,76.02c-4.91,23.9-2.42,49.01-1,73.63,2.42,42.01,17.48,83.89,46.27,114.08l75.36-25.37,28.2-37.46,15.58-23.17c14.62,6.32,19.29,21.76,10.66,36.12-8.83,14.68-23.37,37.82-40.14,44.65l-83.26,33.9c-32.05,13.05-66.19-65.58-78.59-108.17l-4.8-41.6c-3.01-26.05,5.14-48.2,6.02-73.93l1.4-40.83c-12.76,8.15-19.47,24.48-23.65,39.79l-14.72,26.27c-15.29,11.78-28.41,24.32-37.77,42.55-4.1,7.1-21.04,12.48-28.67,15.44l-28.3,10.98-24.47,12.02c-15.05,7.39-34.67,17.56-45.85,29.53,18.28,36.05,52.23,86.97,36.69,111.38l-19.32-4.3c-10.2-35.42-25.79-68.01-44.28-99.36-15.05,8.2-26.4,16.21-34.97,27.04l-26.16,33.09-20.25,28.44-18.5,28.2c-2.57,3.91-11.72,5.72-17.38,3.25-4.23-1.85-3.54-12.58-.11-18.09l40.37-64.78c15.37-24.66,35.88-43.22,63.36-56.54l-17.04-25.22c-11.68-17.3-28.9-28.76-50.01-18.92-16.46-.39-25.12,13.99-24.66,30.06-13.18,12.3-17.85,28.71-21.3,45.77l-11.14,23.53c-13.27,21.35-33.24,34.96-52.69,48.18-35.54,24.15-82.01,48.42-102.23,14.28-17.42-29.41-51.71,26.14-91.85-2.66-17.78-12.76-31.58-34.01-44.15-53.76l-22.87,21.03c-8.74,8.04-13.64,10.4-12.44,24.46l-29.17,21.15-27.36,18.69c-23.42,16-57.96,20.32-76.32-6.9-12.39-18.37-17.27-40.35-24.65-62.35l-29,18.93-37.7,22.2c-22.11,13.02-63.98,9.03-69.31-19.84-11.53,4.91-15.89,17.38-22.42,30.52-7.45,15.01-31.43,28.26-47.57,32.51-27.69,7.28-58.31-5.34-59.24-34.35l-1.24-38.65-19.69,18.68c-13.41,12.72-22.13,25.79-24.88,46.07-33.69,11.03-56.34-24.21-78.26-57.98l-14.97,22.34-27.07,38.29c-6.4,9.05-7.73,14.51-18.98,17.88l-37.06,11.1c-17.83,5.34-27.93-.61-41.85-10.19-14.97-10.31-34.97-17.96-37.18-41.2,1.86-8.54,7.67-25.2,11.59-32.89l38.8-49.58,14.63-19.77c9.15-12.36,17.98-23.24,30.64-31.9,10.97-7.5,16.63-18.01,16.41-31.92-46.21-13.49-90.81-23.07-138.7-23.18l-21.15,19c-16.76,27.53-42.59,39.78-75.57,43.79l9.94,16.89-6.5,31.62c-5.26,25.6-22.96,47.24-37.76,66.34l3.69,4.3c2.07,2.42-15.44,11.84-36.08,29.67l-63.77,55.08c-32.48,28.06-88.24,17.87-108.32-13.24-15.41-23.86-23.49-47.03-19.6-79.7l-28.03,20.09c-39.87,35.57-82.48,64.45-135.07,77.53-11.73,2.92-14.99,11.48-15.62,23.17l-8.42,156.3-10.38,110.64-6.13,42.85c-2.12,14.84-3.1,29.51-1.04,44.99-2.14,4.31-13.5,7.75-18.44,5.98-7.02-2.51-13.04-9.79-15.48-17.28l-11.33-34.84c-8.19-25.17-16.52-51.23-16.72-77.71-.08-10.26-.6-17.6-3.03-27.68-5.24-21.79-2.2-44.1,2.14-67.45l-1.92-36.42,5.53-53.43,1.98-41.73-40.04,36.09-57.65,49.97c-6.24,5.41-23.42,10.73-29.72,13.44l-19.33-7.5,78.88-66.15c38.83-32.56,81.78-77.45,87.16-125.41,11.88-20.57,13.71-43.58,12.67-66.97,13.07-10.99,19.44-25.67,17.96-42.17,21.8-15.51-1.84-30.09,28.52-44.94,3.44-19.62,11.77-36.88,28.42-48.06,2.78-4.91,8.65-14.79,13.22-17.21l25.59-13.59c12.43-6.6,43.93-3.57,54.52,5.61l26.75,23.19c15.51,13.45,37.8,64.45,11.48,80.58,2.26,3.3,6.97,11.37,5.05,14.62-2.25,3.79-9.47,9.83-13.54,13.27-.75,8.44-5.08,16.66-10.59,23.31-.98,46.02-38.01,43.64-38.75,67.84l68.27-52.18,29.37-18.97c24.68-15.94,48.2-27.62,73.75-42.3l23.94-13.75,32.17-16.4,26.98-10.9c-4.71-8.42-6.43-13.35-6.7-21.18,39.29-1.18,65.85,22.81,106.34,13.11l31.53-28.4,44.18-41.05,45.64,14.44c26.92-5.13,51.81-4.48,79.74,8.03,7.04,1.54,2.99.2-4.34,5.58,15.51-1.95,21.1-.26,35.01,4.54,13.21,4.55,34.42,9.73,33.46,27.41-.41,7.66-11.11,19.1-15.98,23.98l-19.58,19.69-28.77,34-41.59,48.88-15.06,26.21c-1.7,2.96-5.22,13.13-2.74,15.49l12.27,11.67c14.04,13.37,37.15,18.98,52.99,3.97l24.88-23.57,27.33-41.78,18.17-25.09c6.83-9.43,5.31-22,7.7-34.01l17.16-86.36,18.98-79.37ZM1682.28,622.65c14.75-9.42,18.83-15.4,25.56-26.25l17.52-26.26c13.17-19.74,8.82-50.36,4.99-72.13-5.82-5.04-21.22-4.67-26.62.47-38.3,36.45-41.92,73.89-21.44,124.16ZM1377.01,572.37c10.13-7.25,13.41-9.9,16.15-14.97l17.41-32.21,19.7-37.05c7.41-13.94,8.13-25.09,16.4-38.18,7.25-11.48,11.31-30.52,13.06-44.18,2.47-2.72,7.05-5.95,6.48-8.99l-2.5-13.46c8.86-9.21,12.01-20.97,15.53-33.75l31.36-114.03,20.61-66.71c2.92-9.45,3.4-21.91,2.32-29.68l-5.99,8.19c-.89,1.22-4.55,1.63-5.23,1.87l-18.55,31.17-19.5,38.91-24.48,52.43c-4.99,10.68-11.96,20.56-18.95,29.21.63,23.57-13.28,20.1-25.05,54.35l-20.8,60.53-7.78,29.76-8.59,54.12-1.58,72.65ZM1497.03,366.5l5.4-16.9c-8.13,2.42-9.26,11.41-5.4,16.9ZM1195.25,630.93l9.5-32.89,12.3-42.75,14.74-17.25c2.91-3.41,13.31,6.72,17.93,10.95,4.07-22.32-44.93-23.28-76.99.78-38.67,29.02-69.95,101.3-51.77,144.58,32.78,6.15,67.18-38.86,74.28-63.42ZM1177.51,514.45c8.86,1.39,12.76-.73,15.27-8.06l-15.27,8.06ZM466.7,756.41c13.75,4.35,27.83,4.37,41.2-4.62l57.87-38.88,16.62-18.43,23.52-19.08,19.95-24.94c24.98-31.23,36.02-65.94,6.06-89.88l-39.49-10.1,6.77,15.09-46.19,22.16-46.72,26.85c-16.33,9.38-38.35,16.72-50.59,33.18-31.64,42.57-20.16,98.8,10.99,108.66ZM241.82,662.47l-8.71,78.25,31.83-8.98c17.69-4.99,27.16-27.8,37.24-42.61,27.95-41.06,66.53-99.67,64.2-144.88-1.11-21.48-18.97-40.25-34.35-51.92-18.5-14.04-37.27-6.87-50.66,9.14-12.01,14.36-31.07,29.35-31.21,50.48l-.35,50.61-7.98,59.89ZM163.64,949.67c3.1,4.52-.86,17.65-2.02,23.61,6.34,20.99,5.71,44.16.56,64.16,16.38,15.76,7.25,32.06,18.98,36.65l5.31-56.38,7.34-103.65.33-29.09,9.41-159.91c-7.16,4.1-16.26,12.04-17.22,17.87l-5.18,31.39c-1.68,10.2-.68,21.23-10.69,26.81-5,2.79-6.25,15.78-2.63,22.15l6.51-10.94c1.14,7.08.08,22.29-4.35,29.33-20.35,32.3-2.41,45.34-4.61,87.6-.14,2.62-10.13,8.18-8.64,10.34l6.9,10.06Z"/>
</svg>