<?xml version="1.0" encoding="UTF-8"?>
<svg id="Layer_1" data-name="Layer 1" xmlns="http://www.w3.org/2000/svg" viewBox="0 0 674.26 739.87">
  <defs>
    <style>
      .cls-1 {
        fill: #5a8a1f;
      }
    </style>
  </defs>
  <path d="M660.35,218.6c-.55-.27.33-2.77.88-2.74l2.67.18c.56.04.22,2.17,0,2.69-.3.69-2.52.37-3.56-.14Z"/>
  <g>
    <path class="cls-1" d="M87.3,400.99l-4.4,3.01c-1.09.75-5.1-.94-5.29-1.97,2.05-2.92,5.48-3.89,9.69-1.04Z"/>
    <path class="cls-1" d="M15.31,141.78l-12.74,1.38c3.88-2.53,8.43-2.63,12.74-1.38Z"/>
    <polygon class="cls-1" points="19.8 216.08 11.19 216.46 10.62 215.47 17.9 215.15 19.8 216.08"/>
    <path class="cls-1" d="M61.91,194.52c-1.01,1.03-2.94,2.35-3.36,1.85l-2.1-2.53,5.47.69Z"/>
    <path class="cls-1" d="M291.28,468.84c-.79,5.21-4.26,8.5-8.9,10.36,2.65-4.13,5.38-7.23,8.9-10.36Z"/>
    <path class="cls-1" d="M290.23,660.16c-3.06,2.11-6.77,4.15-10.96.18l10.96-.18Z"/>
    <g>
      <path class="cls-1" d="M603.97,137.3c2.67,1.43,3.05,1.64,2.41,1.3l-3.29,1.31c-4.59,1.83,7.45,1.16,9.86,9.65l.65,2.31c.11.39.07,1.18-.32,1.18h-3.54s5.44,5.31,5.44,5.31c2.18.02,4.41.99,5.34,2.79l3.33,6.43c4.46,8.62,12.27,9.66,7.87,17.8l-.42,3.24c-.12.95-2.46,1.83-3.36,2.26l-3.06,1.45c-.67.32,0,2.71.34,3.45l2.26,4.83-5.72-2.98-1.9,4.17c-.32.71-2.2-1.54-3.21-2.62l-2.09,5.88,2.13-1.03c.31-.15,1.2-1.54,1.22-1.21l.1,3.18c.02.65.75,2.01,1.08,2.59.41.72-2.64,2.09-2.51,2.92l.52,3.49c.12.78-1.75,1.39-3.17,1.91l4.53,5.17c1.88-.85,6.76-2.27,8.17-.85,3.08,3.1,9.7,2.88,11.39.3.67-1.02,3.37,1.12,3.37-.22v-2.94c-.25-.2,2.27,1.93,2.51,2.14l4.08-2.26c.94-.52,2.83,2.86,2.98,3.17,2.12-.86,5.31-1.43,7.77-1.21,1.92.17,3.73,4.64,3.78,6.63l.47,17.02-2.53.44c-.93.16-.34,3.46-.25,4.43l1.93,22.39,2.79.33c.44.05-.19,1.51-.61,1.6-3.25.44-.97,4.78-.2,14.42l2.37,29.75.66,6.91,1,20.35.12,23.64-.73,13.33,1.88,46.25,1.34,15.33,1.91,10.94,1.63,13.6-8.47-3.67-2.73,7.71-1.71-2.38c-.19-.27-.64-1.3-.86-1.04-2.54,3.05-3.7,2.09-9.51,7.78l-11.8,11.57c-4.37,1.43-7.93,2.99-7.71,7.98-2.83-.5-6.34.9-8.12,3.09l-6.73,8.3-6.03,5.05-7.69,8.1c-1.56,3.61-3.7,5.9-7.96,6.74-2.31,3.76-6.26,10.02-10.29,11.27-5.46,1.7-6.21,4.09-7.78,8.93l-13.87,11.71c-1.99,1.68-3.58,3.29-5.86,4.4-5.17,6.97-11.27,12.99-18.13,18.74l-23.69,19.88c-3.24,2.72-5.04,2.82-7.41,6.81l-8.07,7.73-4.63,2.61c-3.77,2.12-6.58,5.51-9.74,8.27l-38.37,33.45-13.42,13.43-4.96,12.55,1.99-.48c.52-.13,2.56-.14,2.24.29l-1.65,2.17c-.2.26-1.8.98-1.58,1.23.32.39,1.1,1.53,1.53,1.28l2.84-1.64-2,4.18,2.49.09c.6.02,1.86.73,1.59,1.26s-1.26,2.1-1.32,2.7l-.84,8.31-4.52-.91,2.13,2.04c.43.41-.68,1.99-1.42,2.39-8.2,4.41-18.45,5.92-28.06,7.63l-33.32,5.92c-8.51,1.51-16.58,2.54-25.61,2.85l-32.54,1.12-10.69.09-14.57-1.41c-.54-.05-2.13,1.14-2.57,1.45.14-.1-3.53-4.05-14,.43l-11.13-1.42c-6.87-.88-13.8-.67-19.76.66-.34,1.56-.49,2.03-.79,1.82l-2.74-1.99c-1.59-1.16-6.06.77-8.11.55l-29.39-3.15c-1.01,1.9-1.97,2.68-3.61,3.12-1.37.37-2.82-1.74-3.3-3.83l-8.84.14,6.23,2.23c-4.23,2.61-8.9.84-12.27-3.04l-3.68,4.49-4.04-1.1c-.81-.22-.05,2.51.2,3.94l-5.03-3.33,1.69,4.98-11.26-7.67c-.21.54-.84,3.07-.17,3.55l2.92,2.12-1.65,1.44c-.29.25-1.01,1.37-.64,1.43l3.95.66-.43,6.7-14.58-11.57-7.78-8.05-12.53-13.4-8.17-9.64-18.16-20.22c-12.1-13.46-25.61-24.22-40.83-34.42-2.31-1.55-4.43-2.39-6.72-2.44l-7.46-7.53-16.94-17.11,3.12.07c.52.01,1.76-.88,1.43-1.33l-3.93-5.47,2.32-8.22c.97-3.44,2.55-5.02.42-9.02-1.46-2.74-1.43-7.14-1.19-9.95l-11.74-38.68L0,488.03l2.84,3.54c2.71-5.02-3.14-12.81.25-15.68,2.35-1.99,4.55-2.9,8.51-4.74l-7.61-8.76,9.84,3.56c-.3,1.47-.68,3.3-.2,3.04l3.28-1.82-14.59-11.64,4.44-2.58-3.51-6.33c7.26-.75,6.15-5.8,9.59-9.41l17.24-18.14c5.17-5.44,7.06,2.68,13.21,4.05l-4.76-4.15,1.53-1.44,18.7,14.72c4.81,3.78,9.1,7.99,13.15,12.54l7.5,3.86,8.57,4.78,10.26,7.78,7.98,5.78c2.42,1.75,6.01,5.59,8.82,5.71,3.2.14,6.29,1.31,5.7,4.28s2.74,5.68,5.52,7.06l2.26,3.98c1.02,1.8,4.38,1.05,6.06-1.11l8.8,6.62c1.02.55.63,1.49-1.92,2.08,5.07,7.9,9.79,3.2,11.35,4.63l4.47,4.09,7.79,5.87,14.41,5.37c4.81-.63,10.38.23,15.37,1.85,4.38-1.72,8.11-2.26,12.85-2.28,3.26-.02,8.77-2.92,10.48,1.87l13.45-.17,13.53-.86c7.92-.5,9.76-3.6,14.87-8.95l19.5-20.41,14.72-15.81c5.77-6.2,9.85-14.43,19.32-17.25l-11.74,13.23c-.51.58-1.22,2.23-1.41,2.8s1.74,1.85,2.32,1.65l9.61-3.31,16.5-17.49,4.88-4.4c1.75-1.58,2.68-3.77,3.51-6.09l3.95-11.07-9.56,7.63c-7.36,5.88-8.54,12.1-14.39,12.22l18.05-20.2c6.24-6.98,10.7-10.52,11.32-18.33.08-.98,3.63-.48,4.78-.6l17.23-15.5,5.32-5.35,7.93-6.61c6.34-5.29,11.61-11.67,16.21-18.78l3.96-12.33,2.2,4.97,1.33-2.57c.92-1.78,1.89,4.33,2.01,4.27l2.42-1.36.69-10.05.59-8.57c-1.96-8.38-2.26-16.43.41-24.76-1.34-1.11-3.54-3.87-3.56-5.5l-.19-12.1c-.05-3.47-1.08-5.39-3.12-7.67l-1.32-12.73-3.05-20.25c-1.27.57-2.17.99-2.15,1.54l.2,3.84c-3.04-1.89-4.48-6.58-4.88-11l3.07-.8c.34-.09,1.58.21,1.91.31.49.15.66-2.18.14-2.19l-3.05-.05c-.56-2.8-.98-6.97-.87-9.97,1.32,3.51,1.35,5.55,3.84,7.42l-3.91-17.47-4.65-15.54-5.21-21.48,3.12-1.87c.95-.57-1.3-5.55-7.3-10.78l-31.22-27.23-18.67-17.51-14.78-12.82-12.19-8.21-30.27-21.71c-2.08-1.49-8.24-2.95-5.87-7.27l7.28-8.6c3-3.55,4.8-8.17,8.09-10.96,3.25-2.77,6.23-5.42,3.88-10.21-1.57-3.2-2.63-9.85.31-12.63,6.73-6.37,15.44-7.91,24.21-8.61l8.24-.65,12.46-2.19,13.75-3.44,21.39-4.51,20.16-4.35,22.91-5.21,29.26-5,12.8-1.78,21-2.55,8.19-.94c13.13-1.51,34.67,4.78,38.47,15.49,3.74.13,5.94,3.35,7.88,7.16l4.38,6.4,7.56,11.55c.66,1.01,1.18,3.12,2.5,4.13,7.21,5.52,7.29,13.78,13.03,19.76l.26,2.86c.08.92,2.82,2.18,3.34,3.03l6.08,9.95c.81.6,1.44,1,1.2,1.24l-1.9,1.89c2.36.9,6.03,2.05,7.01,3.61,1.24,1.98,1.58,5.8,1.64,7.7l6.55,4.77,3.13,1.99c.65.41.15,2.01-.19,3.62,6.42,2.86,10.01,9.21,9.97,16.27.87.24,3.45.77,3.56,1.46l.57,3.48c.6.32,2.27,1.07,2.08,1.55l-1.37,3.48c-.82,2.07,4.12,5.52,6.54,5.7ZM97.44,570.81l.83-1.63-10.57-35.78c-.25-.11-2.15-.32-2.03.18l.65,2.7,1.63,8.86c.68,3.67,2.33,9.03,3.79,12.42l5.7,13.25ZM89.72,622.23c-.14,1.65.3,3.69,1.12,4.33.72.56,2.42.79,4.55.88l-5.67-5.21ZM465.21,587.31c2.77-.9,5.36-2.67,7.78-5.16l4.79-4.91-6.1,1.25-.55-1.25,11.5-11.17,12.25-13.79,2.46,1.92c.44.34,2.21-.96,2.58-1.43l6.83-8.77c.85-1.1,2.74-2.43,2.49-3.42l-.97-3.91c6.67-.94,10.41-5.93,12.86-11.61,1.13.91,2.65,2.51,3.22,2.08l2.85-2.17c2.78-2.12,4.19-5.8,6.45-8.19l22.27-23.57,11.55-10.74,13.84-14.67c1.71-1.81,5.16-5.36,6.55-7.47l8.66-13.1c-3.4-4.02-1.33-8.81-1.37-13.18l-.24-28.15-.71-9.7c-.38-5.16-.03-9.64.1-14.93l.52-22.1-1.64-8.91c-1.36-7.41-.74-13.66.69-20.9.96-4.82-2.39-11.01-2.74-15.66-.63-8.26.31-16.43-1.9-24.18-1.07-.94-2.42-3.19-2.3-4.45l.87-9.23c.43-4.55-.39-8.05-1.6-12.67l-3.21-12.33.04-3.19c0-.4-1.34-.47-2.08-.53-1.04-.65-2.68-1.68-1.8-1.13,2.66-1.19,3.35-1.14,2.95-1.53l-1.69-1.68c-.36-.36-1.63-1.69-1.13-1.76l2.5-.37c.72-.11,2.63-.89,2.42-1.58l-.74-2.34c-2.16-5.35-4.94-9.85-7.61-15.08l-5.73-11.24-13.35-22.57-5.7-7.28-5.01-8.7c-1.59-2.76-4.04-5.43-6.21-7.26-1.19-3.16-3.17-6.83-6-9.76l-7.15-7.4c-.71-.74-3.08-2.81-2.59-3.66l2.39-4.19c-6.01.55-6.93-5.14-9.77-8.01-5.36-5.4-8.02-10.44-11.25-17.51l-7.65-10.83-6.05-9.82c-.54-.87-2.23-3.4-3.06-2.84l-3.74,2.5c-6.81-13.1-13.55-12.6-17.51-14.91-.33-.19,1.01-.41,1.39-.42l2.43-.1-6.17-3.91-38.75,5.54c-1.17.17-3.43,2.67-3.11,2.9-2.69-.44-6.29-.66-8.56-.11l-10.29,2.5-11.69,2.2,15.96,14.58,27.24,22.31,7.76,6.75,6.05,5.96c10.68,3.27,14.09,12.26,15.6,22.24l3.51,23.12,4.5,29.08-4.09-7.02c-.66,3.67.03,7.89,1.73,10.45,1.18-1.19,2.81-2.89,2.89-2.31l.32,2.24,2.82,20.05,1.46,14.69,1.28,19.54c.77,5.83,1.72,11.76.13,17.48,2.98,9.62,4.58,20.18,3.26,30.71l1.58,13.21c.48,4.03.69,7.8,1.95,11.57,1.6,4.34,1.75,8.95,1.2,13.4,1.55,2.92,1.81,6.68.98,10.34l-3.88,8.7c-3.33,7.47-8.98,12.72-15.5,17.18l-7.92,10.09c-1.53,1.96-3.21,3.16-5.33,4.76-4.71,3.57-8.3,10.44-12.84,13.32-5.42,3.44-8.3,7.5-12.11,12.28l-11.87,14.91-8.9,9.25-6.09,6.05-7.14,6.58-9.73,10.19-5.41,4.99-6.61,8.81-9.38,10.1-11.91,11.25c-2.31,2.18-2.85,5.51-5.3,7.21l-9.3,6.44c-.57,2.01-1.95,5.16-3.17,6.7-4.4,5.6-8.62,5.26-15.07,3.42l-10.13,1.18c-2.72.32-5.22.2-7.5-.15l-2.54,1.95c-.36.28-1.22-.53-1.78-.87-.68-.03-2.94-.07-2.89-.76l.36-4.7-5.98,2.91c-1.03,1.27-2.17,2.92-3.04,2.48-1.13-.58-4.03-2.06-3.11-1.59,1.93-2.45,2.76-3.55,3.11-4.84.25-.93-1.85-1.78-3.15-1.82-2.36-.08-4.63.94-5.65,2.79-2.37,4.26-7.28,6.67-10.73,2.54l6.95-3.79c-5.07-1.44-6.97,2.42-9.64,4.77l-2.26,1.98c-.45.4.83,1.59,1.41,1.4l2.73-.91c.53,4.58-3.8,8.37-6.99,10.85,1.36,2.32,1.36,7.62-1.28,9.73-2.41-.05-5.94.11-8.38.62l-8.38,1.75,7.7,2.53-9.23,1.42,2.18-3.27c-5.76-1.85-11.21,1.6-16.18,2.07l-13.78,1.32-14.55.95-20.75.55-9.99.44-31.41-3.67-9.91-4.57c-3.28.13-5.74-.05-8.49-.8-.21.07-1.85.61-1.82.6-2.8-4.83-6.12-8.43-10.18-11.68l-10.01-8.02c-.77,3.73,2.15,4.14,4.05,6.06l17.17,17.27-1.63.43-16.88-16.3c.58,5.41,1.65,9.54,3.64,14.36l4.62,11.2c8.06,19.54,1.25,32.63,4.95,35.5l7.55,5.88,9.06,6.7,14.25,11.43c2.94,2.36,10.2,3.45,10.61,7.07-1.81,6.76,4.46,9.43,9.92,10.08,2.35,1,5.78,3.18,8.85,2.94,3.74-.29,6.52,1.37,9.25,1.99,3.99.91,6.7,1.35,8.54,6.36l9.07.22,9.16.34,14.84-.07c2.82-.01,4.93,2.29,5.89,5.43l2.7-1.14-2.3-2.45c-.28-.3,1.48-1.21,1.83-1.19,1.5.44,4.44-.14,4.69-1.92.17-1.19-.73-2.99-1.94-4.99l22.75,1.61,13.49,2.68c-.63,2.23-1.22,4.73-.21,4.83,5.06.47,6.03-1.81,6.77-1.13l2.29,2.1,11.26-.41c1.82-.07,3.85-2.56,4.11-4.42l14.45-1.62,8.86-.58c2.58-.17,4.46.87,6.34,2.98l1.41,1.59c.22.24.06.3-.17.55l-1.59,1.76,15.82-2.17,5.94-1.36c2.24-.51,3.86-1.36,5.63-3.43l-6.66.9c-3.85.52-6.42,1.38-9.93-.35l7.16-2.62c3.13.03,5.06-.65,7.53-1.41l9.77-1.22,4.21-.52c.98-.12,2.22-2.45,2.99-3.43l13.96-2.1c5.95-.89,9.69-3.09,13.99-6.79l16.35-14.07c3.04-2.61,6.43-6.1,9.62-7.83,2.73,2.33,4.65,1.93,7.22-.05,4.15-3.3,8.73-5.67,13.7-7.4l10.03-13.5-5.01,3.12-1.08.78-8.42,6.19c1.34-3.56,4.65-5.85,8.03-7.19l.17-1.53,11.14-9.11,9.71-8.28c1.83-1.56,2.25-4.11,5.83-3.2l-6.93,6.86.68,1.1ZM100.12,564.36l.09-4.25c.01-.6-1.69-.86-2.22-.81l2.13,5.06ZM118.94,651.06l4.6,4.49,2.33-2.38-4.6-4.49-2.33,2.38ZM119.58,631.84l2.85,1.24c.54.23.66-2.33.12-2.52l-1.95-.68c-.37-.13-1.36,1.81-1.02,1.96ZM179.06,521.39c-.58-.52-4.54-.44-4.54.08.3,2.21,4.56,2.13,4.54-.08ZM189.28,554.23l-.61-.96-8.44-.28.51,1.5,8.54-.27ZM186.64,537.81c.3-.43-2.62-.77-2.9.16l-1.06,3.49c-.28.93,3.87.87,3.74.49l.22-4.14ZM199.47,533.92c-3.1-1.16-3.94-.31-4.58,1.53l4.58-1.53ZM204.55,664.93c-1.26-.58-3.56-.96-4.66-.86s-3.01,3.17-2.02,3.63c1.44.68,4.73,2.09,6.25,2.07l20.67-.28c-9.08-5.53-13.55-1.51-20.23-4.56ZM201.73,530.34c-.04,2.73-.09,3.87.38,3.82l2.37-.22,7.27-1.93-10.01-1.66ZM226.93,520.23c-4.06-.16-6.65.05-10.04,1.16.83,1.97,4.21,3.57,5.2,2.76l4.84-3.92ZM247.91,528.2l-12.62.54c-1.13.05-2.83,3.42-1.96,3.62l10.5,3.46,7.16-4.1c.08.3-2.2-3.56-3.09-3.52ZM254.04,554.01l2.63,2.4,2.33-2.55-2.63-2.4-2.33,2.55ZM264.19,524.7c-2.05-.35-3.79-.37-3.79.33l-.03,3.73,3.83-4.06ZM338.87,668.25l-11.58-1.37c1.55,1.83,3.71,3.8,5.32,4.03,1.44.2,4.26-1.15,6.26-2.66ZM389.42,388.36c.82-1.05,2.22-3.56,1.64-4.61-.48-.87-1.84-2.45-2.65-3.26l-18.91,16.15-6.62,5.79-2.4,8.23c.68,1.29,4.42.96,5.72-.17l11.66-10.1c1.95-1.69,3.05-5.1,6.66-5.81l4.89-6.22ZM408.34,81.16c-4.24-1.31-8.59-.94-12.62,1.51l12.62-1.51ZM417.28,79.03c-2.7-1.44-6.26-1.62-8.01,1.46l8.01-1.46ZM428.09,693.69l-5.29,3.03c2.53.9,5.22-1.07,5.29-3.03ZM456.64,353.01l-1.78-3.07c-.41-.7-2.77,1.63-2.83,1.91l4.61,1.16ZM463.31,587.17l-10.06,9.81c3.61-1.03,5.95-3.49,8.86-5.4l2.85-1.87c.44-.29-.32-1.85-.44-2.05l-1.21-.5ZM458.34,606.2c-.96,0-1.75.78-1.75,1.75s.78,1.75,1.75,1.75,1.75-.78,1.75-1.75-.78-1.75-1.75-1.75ZM473.45,38.22c.46-.47-1.63,1.66-2.35,2.38-.67.68.93,2.95,1.88,2.87.78-.06,2.63-.21,2.57-.21l-2.11-5.05ZM603.49,425.6l-.65-16.37-.52-25.76c-.01-.59-1.14-1.99-1.55-2.12s-1.8.28-1.64.68l.91,2.19.63,31.45.67,10.71c.45,7.13-1.32,14.26,3,20.67l-.86-21.47ZM653.09,224.71c-.08-1.19-.59-1.65-2.49.12l1.49,3.52c.22.53.21.22,1-3.64ZM654.34,235.94l-1.31-.03,2.32,14.27,1.36-.73-2.38-13.51ZM659.18,405.1l-1.2,8.51c2.71-2.89,2.14-5.95,1.2-8.51ZM657.97,379.29l-.57,13.25,2.24.9-1.67-14.16ZM657.56,363.5v12.92h1.12v-12.92h-1.12ZM658.44,354.45l-.96.62.31,6.24.96-.62-.31-6.24ZM660.29,437.49c-2.7,3.26-.65,6.58,1.75,8.09l-1.75-8.09ZM659.02,421.89l-.3,13.72c1.42-1.12,2.54-3.25,2.27-4.52l-1.97-9.2ZM665.34,441.02c-2.47,1.01-3.81,3.97-.41,6.21l.41-6.21Z"/>
      <path class="cls-1" d="M239.84,512.8c-.23.48-2.07,2.48-2.73,2.45l-17.62-.75,20.35-1.7Z"/>
      <path class="cls-1" d="M252.22,510.99c-2.43,1.44-4.83,1.99-8.08,1.55,2.41-1.48,4.86-2.05,8.08-1.55Z"/>
      <path class="cls-1" d="M208.26,726.97h-6.8c1.99-.68,4.19-.7,6.8,0Z"/>
      <path class="cls-1" d="M207.85,570.05c1.11-1.84,3.78-.59,2.32,1.23l-16.52-.12.62-1.07,13.59-.04Z"/>
      <polygon class="cls-1" points="435.28 610.59 428.15 616.5 426.76 615.03 434.05 608.81 435.28 610.59"/>
      <path class="cls-1" d="M455.34,81.16c-3.53.88-6.95,1.39-11.32,1.42,3.24-1.91,6.24-2.6,11.32-1.42Z"/>
      <path class="cls-1" d="M278.24,662.07l-7.53-1.38c2.75-1.2,5.51-1.53,7.53,1.38Z"/>
      <path class="cls-1" d="M204.91,658.31c-2.12.89-5.02,1.17-7.3-1.15,2.07.02,3.7.34,7.3,1.15Z"/>
      <path class="cls-1" d="M439.74,80l-6.9,1.5c1.42-2.68,4.57-2.88,6.9-1.5Z"/>
      <path class="cls-1" d="M332.76,659.89l-1.02,2.03c-.35.7-3.07-.13-3.46-.82-.24-.43,1.57-.8,4.49-1.2Z"/>
    </g>
    <path class="cls-1" d="M284.33,542.97c-.63-.07-.28-2.52.05-2.99s1.4.27,2.21,1.01c.58.53-1.06,2.11-2.27,1.97Z"/>
  </g>
</svg>