<?xml version="1.0" encoding="UTF-8"?>
<svg id="Layer_1" data-name="Layer 1" xmlns="http://www.w3.org/2000/svg" viewBox="0 0 949.73 1010.28">
  <defs>
    <style>
      .cls-1 {
        fill: #5a8a1f;
      }
    </style>
  </defs>
  <g id="_15PCY1" data-name="15PCY1">
    <g>
      <path class="cls-1" d="M543.47,674.43l5.95-6.2,2.25-1.88,5.97-6.91c.36-.41.87-2.21,1.41-2.27l2.16-.24c-3.11,4.59-5.86,8.1-9.38,11.7l-8.2,8.37-2.57,2.22c.07-2.31.94-3.26,2.41-4.79Z"/>
      <polygon class="cls-1" points="346.72 768.19 351 761.98 356.41 755.13 365.79 743.97 362.12 749.91 354.82 758.89 346.72 768.19"/>
      <path class="cls-1" d="M889.84,509.49c-.35.42-1.93,1.26-2.39,1.48s-1.23-.21-1.71-1.04l5.73-4.81c.55-.47,2.08-1.15,3.39-1.74l-5.02,6.11Z"/>
      <path class="cls-1" d="M231.94,1004.12c.19-2.84.2-5.14,2.56-6.49,1.33,2.66-.27,5.47-2.56,6.49Z"/>
      <g>
        <g>
          <path class="cls-1" d="M375.79,754.52l1.67,1.28c5.41-4.74,5.61-11.25,11.15-13.94l10.56-12.73c.48-1.23,1.22-3.67,1.97-4.58l3.32-4.04,3.75-4.58,4.08-4.85c2.85-.99,5.19-2.4,7.02-4.87l8.31-11.26c.97-1.32,1.44-2.59,1.08-4.1l5.88-6.75,4.37-4.57-1.41-.71c-1.11-.56,1.64-5.23,4.89-8.18l1.3,1.08c.2.17,1-.41.88-.64s-.67-.95-.95-1.09c-1.75-.89-5.42,1.97-7.83,4.75l-8.43,9.72-5.14,5.54-9.88,12.18-4.76,6.7-7.79,10.36-6.07,6.18-13.91,15.93c2.53.29,3.66-1.32,4.92-3.2,1.62-2.41,5.1-4.91,6.92-6.69l1.23-1.21c.15-.15.4.03.39.23-.02.32-.37,1.24-.59,1.51l-5.04,6.01-13.79,16.89-8.17,9.98-10.84,12.82-8.43,10.41-6.13,5.28c-1.45,1.25-3.34,4.31-4.57,6.24l-4.11,6.45-12.49,15.35-6.11,7.1c-1.78,2.07-3.28,4.87-5.72,6.6-3.05,2.16-5.4,4.12-7.96,7.15,0,.03.11-.9.14-1.11.04-.31-.92-.7-1.08-.43l-3.1,5.26-.58,4.52c-.2,1.54-3.45,2.67-4.48,3.88l-8.98,10.53c-1.89,2.22-3.08,4.94-5.61,6.74-3,2.12-4.37,5.46-6.8,7.95l-7.63,7.79-8.58,10.55-10.47,13.33c-.51.2-1.42.57-1.09.44l-.18-1.73c-.03-.33-1.11.28-1.46.61-1.03.96-1,2.1.13,3.51l-7.44,9.12-2.62,3.21-3.97,5c-1.21,1.53-2.12,2.53-4.24,2.09l-4.22,5.43c-1.39,1.47-1.9,3.59-1.68,5.41l-4.59,9.32c-1.85,3.76-3.95,6.73-6.99,9.58l-2.02,3.5c-1.15,1.99-2.24,4.2-4.21,5.59-1.42,1-4.56,2.38-3.36,4.75.57,1.11,1.39,2.8,1.52,3.44l-2.86.71c-.2,0-1.03,0-.75,0-.61-3.31-4.69-2.19-4.1-5.1.42-2.07-3.24-2.04-2.35-4.05.32-.73,1.38-1.07,2.97-1.28l.86-3.55.26-1.08c.05-.21-.77-.02-1.38.11l-1.5-2.83c-.07-.21.05-1.04.28-1.07l1.12-.16,2.13-.37c.5-.09.52-1.69.83-2.09l6.29-8.2,9.03-12.4,8.81-11.97,5.25-7.08c3.28-4.42,6.41-8.62,10.8-11.85l-12.17,15.88c1.53-.03,2.5-.61,3.26-1.72l18.87-22.91.05-1.56c0-.33-.8.15-1.59.67l-.87-.78,4.07-4.77,5.16-6.49-2.41,4.96c-.49.29-.17.6.49.62l6.87-7.91,7.03-8.74-3.06.29c.82-1.49,2.17-3.16,3.62-4.84l6.23-7.19c1.29-1.49,2.05-3.32,4.01-4.32l-1.16,4.14c2.89-2.43,4.39-4.95,6.83-7.56l6.93-7.41,9.22-10.85,3.32-3.87,4.99-5.81-1.33-2.27,6.76-8.43,3.38-4.16c1.51.49,3.57.23,4.71-1.19l4.76-5.91,7.01-8.68,3.28-4.12,5.03-6.26,7.44-9.26,14.19-17.49,6.36-7.61,8.58-9.31,7.82-8.98,3.66-5.11,8.99-9.97,2.92-3.72,9.01-11.13,16.65-20.12,8.15-9.27c1.36-1.55,4.31-2.3,4.6-5.18.09-.94-1.79-2-2.55-2.66l-9.14-7.94-5.61-4.3-11.21-7.39-8.75-6.25-11.7-7.74-11.66-7.71-13.04-8.32-8.23-5.96-10.76-7.42-6.58-4.01-5.01-3.2-9.34-6.01-17.87-11.54c-1.84,1.04-2.88,3.62-4.08,5.89l-3.51,6.6-3.76,7.44-2.7,5.16-3,7.14-3.87,5.58-6.32,11.41-9.01,12.72-8.48,11.2c-3.35,4.42-5.7,5.86-8.1,8.35l-13.4,13.92-3.93,3.58-15.1,14.91-6.04,6.23-5.9,6.48-4.47,5.09-4.66,5.51-8.81,11.85-10.15,13.73-10.51,14.18-10.67,13.82-13.67,18.81-6.7,8.18c-1.79,2.18-2.78,5.07-5.42,6.86l4.29-7.06,2.6-4.22c.1-.16.18-1.01,0-1l-1.2.05-21.94,28-3.89,5.19-2.42,2.98-2.48,3.06c-2.47,3.05-4.61,5.98-6.46,9.98l4.67-4.13c.29-.26.71-.69.71-.68s.19.7.15.56l-3.41,4.9-5.97,8.25-4.1,7.62c-.11.2-1.59.37-1.65.15s-.14-.89-.01-1.17l3.82-8.07-4.46,4.53c-.84-.14-2.3-.79-3.58-1.4l-4.5,5.82c-.41.53-2.07,1.16-2.74,1.21l-1.11.08c-.21.02-.32-.76-.42-.93l-.95-1.64c-.27-.48-2.36.02-2.59.52l-2.54,5.58c-.75,1.65-4.67-.31-4.08-2.03l1.02-2.54c.1-.24-1.39-.8-1.5-.56l-.55,1.18-.69,1.48c-.15.31-1.23-.31-1.24-.65l-.04-1.43-.08-2.63c-3.07.97-1.41,4.76-4.31,5.09.51-2.41.75-3.51.51-5.51l-2.78,2.01c-.26.19-1.18.39-1.51.42s-.14-1.05.11-1.37l2.93-3.92c-.53-.66-.59-.81-.76-.73l-1.07.49c-2.28,1.04-3.68,2.37-5.3,4.78l-.84-.29-.82-1.15c-1.4,1.61-2.76,3.07-4.91,2.14,2.37-1.77,3.19-3.94,2.21-6.78-2.9-.09-4.29,3.16-5.35,2-.23-.26-.83-1.28-.78-1.63l.73-5.25-3.39-1.32c-.54,3.22-2.26,5.33-4.57,5.11-.65-2.12-2.06-3.26-3.39-4.48-1.6-1.47.63-6.15-.4-5.66l-1.16.55-2.64,1.27c-.46.22-1.15,1.33-1.34,1.77l-.51,1.21c-.1.23-1-.11-.93-.34l.33-1.06c.59-1.93.71-3.8-.3-5.77-1.84.76-1.82,2.17-3.7,3.7-1.04.85-.67-3.67-2.38-3.72-1.56-.04-3.99,1.67-4.94,3.13-.33-.04-1.41-.18-1.04-.13l.05-5.76.71-5.06-1.22-.05c-.8-.04-.45-1.96-1.39-1.81-3.33.56-4.55-2.52-6.36-.57-.29.31-1.8.18-1.63-.15l.84-1.69,1.93-6.05,3.73-6.28c.94-1.59.3-3.72,2.13-5.31,4.41-3.84,8.5-7.6,11.39-12.69,1.34-2.35,3.36-4.17,5.07-6.3l14.02-17.44,9.95-12.49,9.33-12.11,10.34-14.1,14.93-18.98c1.33-1.68,2.34-2.36,2.93-4.71l3.37-4.03,6.46-9.06,20.22-25.51,6.32-7.16,20.45-19.6,10.02-9.1,4.6-4.97c-.05-1.15.16-3.14.85-3.92l6.7-7.59,12.43-15.7,10.55-14.16,3.8-5.29,3.59-5.75,10.6-18.19,5.56-11c.6-1.18,1.01-1.93-.04-3.2l8.6-18.79,10.45-23.05c1.15-2.54,2.29-5.53,4.54-7.14l3.76-2.69,3.31,3.59,3.85-.75.92,2.12,2.44-1.07c.55-.24,1.91-.87,2.31-.45,1.38,1.46,1.85,4.41,3.24,4.1.61-.14,1.33-1.03,2.25-2.06,5.63,2.01,7.69,6.75,12.93,5.73.95-.18,1.54-2.69,1.76-3.62l1.81-2.08c.41-.47-.37-1.9-.65-2.74-.33-.99,1.06-2.8,1.58-3.87,1.19-2.44,2.16-3.91,3.87-5.92l1.52-1.8c.34-.4,1.56-.08,2.29.1,2.76.7-.52-4.56,2.87-5.85l7.09,2.7,4.34,2.12,7,1.95,7.31,2.46,6.86,2.38c4.2,1.46,7.97,3.54,11.9,5.32l13.05,5.91c.74.34,2.16.91,2.8.65,1.87-.76,5.26-4.45,4.36-7.06l5.06-5.51,1.23-1.61c.21-.27-.72-.83-1.07-.82s-1.55.26-1.52-.05.18-1.56.36-1.81l5.59-7.53c-.06-1.03,0-2.56.34-3.27l.96-2.02,5.71-7.22,3.02-2.73c4.43-6.37,10.33-10.95,16.34-15.58l7.33-5.65-4.84-4.37-10.9-9.32-7.31-6.95-5.32-5.19-4.29-4.96-4.37-5.19-10.46-14.45-3.76-5.84c-1.86-2.89-3.93-6.16-5.07-9.34l-1.88-5.25-6.38-16.2-2.9-7.9-7.35-19.09-4.56-11.18c-1.05-2.57-2.18-5.13-3.98-7.28-3.05-3.64-4-7.89-4.39-12.35l-.38-4.35c-.1-1.17,1.33-2.27,2.49-2.47l.92-.15,1.08-.3c2.03-.56,1.99,4.32,2.53,3.79,1.79-1.76.53-2.86,1.81-3.54,1.07-.57,3.67-.35,5.02-.1l1.57-2.62,2.79-1.06c.71-.27.77-2.16.77-2.95l.03-8.31,2.14-23.3c3.06-4.51,2.77-9.66,2.94-14.6l3.35-13.21,1.43-5.12c.75-5.92,2.53-10.97,4.78-16.39,2.01-4.85,3.01-10.42,5.56-14.94l8.34-14.75,10.81-18.29,5.21-8.21c4.77-7.52,9.93-14.55,15.91-21.1l7.38-8.08c2.11-2.31,4.12-5.56,6.69-7.18,3.22-2.03,4.96-4.15,6.83-7.54,1.68-3.03,4.56-5.68,7.03-8.33,2.11-2.27,3.82-5.34,6.33-7.08,1.86-1.29,4.34-2.23,6.16-3.23.08-.31.36-1.31.56-1.23l1.74.68,5.56-4.61c3.81-3.15,7.05-6.1,10.82-10.04.24-.85-.08-1.04-1.63-.95l8.18-9.03,3.37-4.3,7.24-8.92c1.06-1.3,2.44-2.05,3.99-1.98,2.48.11,3.07-2.75,5.09-1.42l-.25,1.45c-.05.32,1,.16,1.25-.05l.79-.65c1.3-1.08,2.55-2,3.8-2.48l-1.83,4.3,1.14-.66c.29-.16,1.11-.52,1.3-.28l1.01,1.25.8-.47c.27-.16,1.11-.58.99-.38l-.95,1.63-.79.96c-.27.32.03,1.67.44,1.6,1.95-.35,1.49-1.55,3.22-1.15.35.08.12,1.16-.1,1.43l-.84,1.03c-.1.12-.51.77-.54.9l-.29,1.07c-.05.18.47.3.65.32l5.43-3.84-.67,2.55c-.14.55,1.39,1.41,1.87,1.1l3.03-1.95c2.49-1.6,5.12-3.67,8.22-1.24l-6.29,4.58c1.76,1.76,2.53,2.7,3.27,3.87l6.69,2.07,7.24-3.95c.12-.48.46-1.92.18-.74l-3.79-.54c-5.48-.79,2.6-4.28-1.96-8.72l-2.07,1.29-.13-2.31,1.35-1.08c.32-.26-1.09-1.25-1.5-1.18l-2.87.46c-.43-1.35.32-2.99,1.23-4.32,1.52-2.22,2.49-2.66,5.01-3.24l6.38-1.46,4.04-.8,1.19-.36c1.05-.32,1.11-3.43-9.81-.41l-4.02,1.11c1.74-4.77,9.86-2.77,16.68-6.14.42-.21.9-2,.45-2.1l-2.01-.45c-.1-.02-.63.11-.87.17l-.83.18-1.38.28c-.33.26-.18-.52.13-.97l1.56-2.48,5.54-.77c.31-.44.91-1.65.54-1.65h-2.04s-5.7.67-5.7.67l-1.97.44c-.42.09-.74-1.73-.45-2.04,1.97-2.13,3.19-2.33,4.65-.99.59.54,2.11.1,3.19-.09l12.64-2.24,14.17-2.52,1.71.68c3.96-1.25,10.83-2.49,11.09-2.22l1.38,1.48,14.05-3.45c2.9-.71,6.15-1.19,8.93-1.71.35-.48,1.31-1.58,1.73-1.3l1.78,1.2c3.18-.85,7.01.13,11.16-1.07,5.01-1.44,9.57-2.07,14.67-2.5l10.69-.91,4.59-.39c2.61-.22,4.76.65,8.16.23,5.82-.71,8.48,3.57,11.1.25l1.6,1.41,4.08.26c.25-.11,1.2-.35,1.14-.15l-.45,1.55-.7,2.41c-.15.53-1.83.43-2.21.81l-.85.86-.7.71-2.42-.85c-.67-.24-2.02,1.77-1.58,2.34l.69.9.54.7c.12.15.07,1.14.23,1.03l1.37-.94c.86-.59,2.91-.47,3.65.18l2.9,2.57c.36.32.99,1.22,1.14,1.66s-.86,1.38-1.31,1.46l-2.44.42-2.36.47c-.68.14-1.07,2.48-.58,2.94l5.08.82c2.73.44,4.02.39,5.45,3.26.52,1.05.73,2.4.8,3.94l.2.96c.06.31.09,1.3.39,1.41l1.54.57c.12.05.52.68.85,1.17l.72-.07-.58-1.34c-.12-.29,1.05-.44,1.16-.15l.53,1.48c.04.1.46.73.56.78l.68.39.79.46.98.55,1.74,1c.35.2.18,1.24.05,1.63l-.39,1.18c-.07.21-.41-.47-.52-.71l-.37-.76-3.08-.39c-.51-.07-1.57-.19-1.68.26l-.51,2.03-.22,5.2c2.83-.47,5.08-.3,7.59,1.86l-.87,5.78c-.08.5.14,2.21.54,2l1.83-.94,3.18-1.41.43-1.29c.1-.29.62-.44,1.15-.64.31-.12.45.79.45,1.33l-3.18,4.41c-.1.14-.62.69-.59.81l.19,1.09c.06.33.96-.15,1.24-.35l3.11-2.27c.19-.14.76-.72.87-.54.16.26.66,1.09.9,1.28l1.74,1.37,4.06-4.64c.41-.47,1.79-1.1,2.32-.8,2.51,1.45-1.15,3.04-1.21,7.73l-2.56.42c-.19,1.39-.77,2.89-1.51,3.44l-1.09.81c-.26.19-.08.87,0,1.23.29,1.31,1.8-2.02,4.23-3.39l4.64-2.62c-.05.03,2.69.03,2.52.84-.23.83-.43,1.42-.22,1.46l1.53.33,1.59-3.03,3.78,3.02-3.23,1.78,2.86,2.07.93-.1,1.37-.14c.1-.01.29.98.29,1.09-4.25,2.14-3.27,7.11-2.43,7.03l2.11-.22c2.12-.22.33,2.74,2.26,6.34.4.74,2.23-.12,3.5-1.21,1.38.41-.08,3.77-1.35,4.05l-1.03.23-1.11.24c-.28.06-.08.81.2.89s1.19.1,1.52,0l5.46-1.68c-.44,1.88-1.22,3.15-2.48,4.37,3.45,3.18,3.83-2.86,8.02-6.64.66,1.58.34,2.97-.34,3.64l-3.8,3.76c-.55.55-1.46,2.11-1.51,2.56l.58,2.35-2.14-.34c-.38-.06-.48,1.12-.15,1.42l2.6,2.37.98,1.39,2.48.73c.98.29-.88,3.95-1.14,3.81l-.94-.51c-.26-.14-.5,1.12-.6,1.46l-3.43,2.52-.26,2.98c-4.06,2.2.37,6.34-4.19,8.37l-.22-1.06-.21-1.02c-.39-1.91-5.6,7.31-9.69,11.58-4.52,4.72-8.53,8.88-12.37,14.06s-8.22,9.65-12.66,14.42l-24.71,26.53-.98,1.05c-.17.18-.93-.36-.77-.53l1.07-1.1,1.05-1.08c.16-.17-.87-.4-1-.2l-4.34,6.66-7.23,8.09.03,2.34-1.68-1.28c-.19-.14-1.23-.21-1.25.05l-.12,1.42c-.03.34-.95.42-1.34.51l-3.72,3.84c-1.45,1.5.05,5.32.52,7.09l2.05,7.72,1.73,6.84,3.73,12.46c.95,3.16,1.93,6.16,3.26,9.12l.75,3.64,2.96,9.67,6.23,17.39c.18.5,2.07.99,2.24.55.27-.67.18-1.47-.17-2.34-3.19-8.47-5.05-16.54-6.31-25.42-.2.15.4-.97.68-1.3l2.52,9.11,2.88,9.29,1.78,6.07,1.39,3.79h3.33s1.2.26,1.2.26c.28.06.27-.63.31-.99l.16-1.32c.2-1.67,1.86,1.73,3.06,1.63,1.37-.11,4.13.75,4.79,2.85l4.5-.36,8.57-.69,10.31-.44,16.21.2c4.65.06,9.41.48,14.11-.27,3.65-.58,6.99-.63,10.68-.49l8.75.33c.88.03,2.01-.02,2.52.28.63.38,1.18.57,1.58.53l12.6-1.07c1.85-3.81,4.92-7.09,8.67-9.18,2.02-2.78,4.16-5.16,6.82-7.16.58-.85,1.73-2.41,2.34-3.05l7.08-7.39,24.05-24.67,6.3-6.96,13.3-13.58c2.05-2.09,3.8-3.17,5.33-6,2.48-4.59,7.86-6.08,8.8-8.13s1.92-3.26,4.14-3.17c.39.02,1.3.46,1.1.72l-1.2,1.58,2.51.59c-.76.68-2.21,1.11-3.58,1.26l-.48,2-.82.6-.74.54c.27.59.43,1.02.62.85l1.33-1.17c1.24-1.09,2.94-1.76,4.76-1.96,3.97-.44,4.6-3.31,8.76-5.63l.87-.49,1.12-.39c.18-.06.21,0,.16.2l-.3,1.19-.23.91-.44,2.93c2.88-.9,4.5-1.83,6.88-3.28l.96.3c.33.1,1.4,1.09,1.09,1.25l-1.16.63-2.5-.59.46,1.48c.1.34.4,1.16.15,1.39l-1.24,1.14-2.53,2.69-.87,1.25c-.12.17.05.33.24.35.21.03,1.42.13,1.57,0l7.68-6.98c.9-.82,3.99-.69,3.92-2.4-.01-.27.62-1.21.79-1.01l1.08,1.21-3.43,4.53.06,1.42c.02.58-2.56.62-2.2,1.08l2.08,2.7c.42.55,1.6-1.36,1.83-2.4l2.38-.08c-.03.15.13-.65.16-.79l-.47-1.02c-.14-.3.44-1.23.73-1.06.31.19,1.28.79,1.62.85l1.61.28c2.5.43-2.11,3.26-4.08,8.37l5.27-2.29c3.56-1.55,4.01-4.7,6.47-5.82l1.45.16c.26.03-.55,1.15-.82,1.19-3.65.48-4.47,7.83-2.99,6.9,1.94-1.22,1.87-3.31,2.89-3.15l2.72.42c-1,1.35-1.79,2.49-1.56,3.13.9,2.56,2.75.32,5.29,2.02l-.46,3.14c-.05.34.44,1.69.7,1.44l1.5-1.46c-.23-.13.67.36.92.49l-1.09,3.35,2.41-1.07,5.4-3.26-2.98,7.34,2.74.71-4.36,4.57.1,1.03c2.63-2.07,4.17-3.64,6.71-3.4-.41.73-.79,1.41-.9,1.52l-1.71,1.63,1.03-.08c1.73-.92,5.93-.99,7.12-.2.31,1.85,1.02,2.93,2.05,3.59-1.01,2.44.47,3.13.97,5.78l.29,1.53c.06.32,1.74-.31,1.83-.63,1.02-3.63-3.33-8.53.01-9.19.58-.12,2.07.34,2.21.92l.52,2.26,1.62,3.7c1.19,2.72,1.58,8.35,1.5,12.21-.07,3.25.62,6.65,1.27,9.78l3.43,16.61.83,6.5,1.49,6.48,2.21,10.61,1.43,7.65,2.54,12.97,1.16,4.81,1.28,6.89c.83,2.11,1.14,4.33,1.19,6.46,1.03,1.67,1.48,3.21,1.71,5.26l1.51,3.85.85,3.69,1.93,7.35,1.43,6.41,2.78,11.3,2.6,10.4,1.55,4.76c.43,1.32.55,2.03-.37,3.69l.95,5.46c-.04.2-.39.91-.48.74l-.82-1.43c-.05-.09-.13-.58-.17-.8l-.17-.93-1.19-3.43.33-1.02c.04-.12-.17-.6-.29-.69-.18-.14-.8-.62-.36-.28l-.82,1.04c-.06.07-.56.36-.69.43-4.12,2.25.2,5.89-1.92,8.72l-.31-1.18-.21-.78c-.06-.35-.11-.61-.09-.52l-1.19-.29c-.29-.07-.5.68-.58.99l-1.07,4.11c-2.26-.36-4.41.24-6.05,1.41l-.18,4.35.08,1.26c.02.27-.63.28-.82.09-.09-.09-.61-.74-.69-.73l-2.06.19-.81,1.75c-1.1.25.26-.02.9-.15,2.48-.39,1.33,2.36,1.96,3.05.86.94,2.12,2.11,2.11,3.15-.01,1.3.43,2.7,1.15,3.12.25.15,1.4-.53,1.43-.83l.08-.87c.15-1.62.13-2.88,1.57-3.98l-.23,4.66c.04.11.27.94.24,1.04l-1.29,4.23,1.1,5.55c1.14.17,2.68.41,2.53,1.11l-.71,3.19-.51,1.14.36.88,1.4-.69c.26-.13.38.55.39.9,1.92,4.87-1.07,8.15-3.4,11.93l-4.09,6.65c-.29.46-.29,1.56-.14,2.53l-1.9,2.12-2.1,4.47-3.89,7.57-2.88.73-13.95,17.75c-2.74,3.49-4.2,7.83-8.59,9.52l.5,1.4c.13.35-.74.94-1.16,1.2l-5.59,3.48-4.79,3.69-4.11,3.46-5.02,3.99-7.35,4.59-4.33,2.59-5.48,2.22-11.37,6.57-10.63,5.6-9.35,4.94c-5.34,2.82-10.09,2.67-14.78,4.32l-9.56,3.38-12.31,3.71c-1.22.37-2.48,1.27-3.62,1.66l-13.17,4.5-8.44,2.69-10.67,4.16-7.13,2.55-4.82,1.59-11.17,3.32-10.45,2.86-18.07,4.14-9.34,2.54c-2.69.73-5.12,1.13-7.61,2.45l-3.14.59c-3.13.59-6.27,2.4-9.18,3.21l-8.5,2.38-5.61.8c-2.3.33-3.72,0-5.85-.17l-7.18-.61c-.23-.02-.85-.07-.96-.14l-1.25-.78.59-.64.95-.19s.09-.77.12-1.09c.31-2.7,6.32.37,5.7-1.35-.36-.99-2.12-1.05-3.17-1.04l-8.37.08c-.29,0-.92-.07-1.06-.24l-.61-.76c-.21-.26,1.38.43,1.66.22l2.52-1.87c-2.74-3.58-.58-4.6-2.16-6.87-.11-.16-.59-.83-.58-.83.02.01,1.22.22,1.67.29l1.21-.99c.58-.47-.43-1.97-.97-3.01-.42-.81,1.25-2.68,2.31-3.4l-1.64-6.18-.58-4.34-6.5,1.85c-4.83,1.38-9.69,2.17-14.6,3.86l-4.28.27-9.2.47c-2.85.38-5.62.37-8.24-.58-3.54,1.01-6.74-.51-10.1-.6l-5.01-.14-16.15-.89-8-.22-7.86-.35-16.57-2.78-9.4-2.73-13.11-5.15c-1.31-.51-3.98-.47-4.52.71-1.09,2.44-2.47,3.06-4.06,4.66l-4.92,4.93c-1.72,1.72-3.83,4.1-5.68,5.25-2.11,1.31-3.21,2.24-4.75,3.94l-6.05,6.64c-1.62,1.78-3.35,3.5-5.24,4.66-1.5.91-3.12,3.94-3.02,4.76.14,1.13,3.13,1.36,4.76,4.23l-2.05.08c-.5.02-.1,1.46.43,1.78,4.57,2.72,7.37,7.45,6.38,7.42l-1.46-.04c-.36,0-1.75-.13-1.85.2-.61,1.95,2.92,2.71,3.46,4.59.44,1.52-2.55,2.98-2.16,3.59l.91,1.44c.32.51.61,1.92.73,2.52l3.33,2.77c1.47,1.22.68,2.81-.06,4.63-1,2.46-2.4,3.74-5.06,4.96l1.14,2.12c.08.14-.78.82-.91.71l-4.67-4.01-4.45.49-.03,3.6-5.36-2.57c-.21-.1-.92-.24-1.14-.28-.33-.05-.26,1.21-.06,1.47l2.75,3.66.91.54c.07.44.26,1.47.61,1.32l2.18-.87c.57-.23,1-.63.94-.39l-.46,1.68c-.18.66.83,1.96,1.5,2.36l2.83,1.69c.5.3,1.68,1.14,2.14,1.55l-1.9,2.21c-.17.2-.61,1.15-.7,1.37-.08.18.04.36.26.35,1.79-.06,2.41-3.25,6.93-4.59l.28,3.07c.15,1.63,4.06-1.1,5.44.16l2.62,2.38c.3.28,2.16-.1,2,.28l-.81,1.92c-.04.1-.07.56-.12,1.28l1.42-.3c.36-.62,1.15-1.74,1.32-1.44l.81,1.38.79,1.36c.17.28.96-.03,1.47-.15l4.33-1.03,1.88-.86c.63-.29.1,4.66,1.17,3.88l1.79-1.3c.45-.33,1.75-.78,2.41-.98.24-.07.57.98.73,1.28.47.84,7.35,4.05,11.95,4.65-1.28,2.22-1.57,5.65.07,7.37,2.18-1.9,4.35-2.61,6.55-1.17,1.1.72,3.6-.61,4.76-1.45.36.51.69.97.44.63l-1.39,3.06c.5-.06,1.32-.22,1.58-.42l1.44-1.1c.9-.69,2.41,2.21,5.3,1.71,1.31-.22,3.27.27,3.33,1.01l-1.4,1.86c-.18.24.49.85.73.66l1.25-.98,1.66-1.85c.72,3.8-4.13,5.46-6.48,10.59-1.69,3.68-3.8,6.35-6.62,9.02l-4.87,4.62-4.26,3.84c-2.42,3.47-4.95,5.91-8.35,8.39l-6.68,7.65c-1.67,1.91-3.56,3.08-5.17,5.03l-6.29,7.61c-1.6,1.94-2.97,4.04-4.96,5.77-2.65,2.3-4.52,4.73-6.51,7.52s-5.27,5.14-6.09,8.35c-.3,1.17-.67,3.14-1.64,2.93l-2.23-.48c-.59-.13-1.04,2.56-4.49,6.81l-9.94,12.27-13.33,15.2-4.76,6.57c-2.57,3.27-5,6.12-8.33,8.73-1.66,3.46-3.85,7.16-7.06,9.86l-5.29,6.9c-3.01,3.92-6.07,8.55-9.96,11.65-3.63,2.89-6.01,5.53-7.9,9.95-.79,1.87-3.56,5.28-5.23,6.47-4.67,2.56-7.56,6.47-9.71,11.35-1.02,2.32-3.42,5.44-5.43,6.91l-3.09,2.27c-2.87,2.11-4.65,5.2-6.7,7.97l-2.66,3.58-4.75,4.19-6.09,7.84-3.16,3.73c-1.45,1.72-3.22,3.34-3.85,5.34-.46,1.46-.88,2.06-2.34,2.76-1.29.61-2.32,2.9-3.32,3.98l-6.36,6.84-8.3,9.81-5.43,6.12c-.56.63-.97,1.35-1.35,2.24-.99,2.33-3.23,4.09-4.9,6.1l-14.12,16.96-4.44,5.68-9.91,12.77-3.96,5.03c-1.06,1.34-2.43,2.75-3.03,4.13-2.66,6.08-6.66,7.22-9.94,13.29-2.31,4.28-6.23,5.8-5.75,10.1l-.7.74-.99.54c-1.44,4.04-4.12,7.21-7.85,9.35l-.03,1.24-.03.89-.08.75-.15.88-.17.92c-.02.09-.45.47-.55.46l-.9-.05c-.13,0-.73,0-.81.08l-.72.61-.78.66-.76.64-.77.66-.89.75-.34-.78c-1.4-3.15-2.22-4.48-4.62-4.4l-.86.03-.83.03-.58.02-.04-1.14c-.22-.2-.84-.75-.81-.73l-1.12.48-.76.33-3.35,3.84-.44-1.38c-.04-.11.33-.88.43-.97l.82-.79.84-.62.99-.74c.26-.2-.06-.68-.61-1.45l.47-2.76c-1.63,1.01-.66,2.34-3.71,3.96-2.02,1.07-2.06,3.05-1.04,4.8l-.99.77c-.08.07-.56.18-.88.26l-.57-.72.22-4.12c-.89.19-1.72-.47-1.77-1.38s.7-1.66,1.61-1.61l.19-1.18v-1.07s-.65.2-.65.2l-.89.66-.68.39-.33-.74-.38-.85c-1.36,4.92-6.45,6.82-6.88,7.91l-.35.89-.35.9-.46.87-.65,1.22s-1.13-.67-1.28-.81c-.63-.6.49-2.56,1.34-3.16,3.94-2.79,2.64-5.57,5.74-8.47,1.53-1.44,1.67-4.05-.11-4.96-1.04,2.12-2.6,3.41-5.09,3.56l-.86.75-3.13,3.95c-1.6-2.49,2.03-4.09,1.95-6.58l-.04-1.22c0-.2-.51-.48-.71-.46l-.92.09-1.1.42-1.88-1.32-.5.6-2.64,4.88-1.08-1.27c-.07-.08-.09-.79-.13-.89l-.7-2c-.03-.07-.26-.26-.32-.26l-.91.04-.2-1.64c-.06-.49-.84-1.11-1.06-.83l-1.47,1.92-.81,1.06-.54-1.12-3.15-3.74c-.26-.3-1.43-.63-1.82-.59l-.91.08-.98.11c.23-.02-1.22-4.98,2.07-7.82l-.9-1.08-3.94,1.92c-1.62-.08-3.39-.22-4.31.62-1.46,1.35-2.5,3.06-2.37,4.53l.11,1.24s-.79-.06-.9-.07c-.38-.32-2.24-1.26-2.29-.75l-.27,2.71s-.34.29-.41.36l-.76-.06-.08-.99-.2-2.55.9-.32.8-.42.78-.7.84-.75,1.13-1.01c.21-.19.33-.98.06-1l-1.94-.11c-1.76-3.79-.65-7.54,2.4-10.06l3.33-4.13,5.54-6.34c2.28-3.72,4.46-6.2,6.98-9.66l6.16-8.49c2.08-2.87,3.75-6.37,6.6-8.38,2.58-1.82,5.89-3.9,6.63-7.13.63-2.73,1.16-4.89,3.21-7.12l4.33-4.7c3.56-5.25,7.01-9.57,11.78-13.84l6.25-7.28c1.45-1.69,2.88-2.47,4.05-4.43s3.61-2.72,4.8-4.53l4.93-7.55,3-4.01c4.55-1.41,3.11-4.3,5.6-6.84l4.11-4.18,9.55-11.39c4.43-2.19,7.57-5.73,9.65-10.3l16.69-20.88,6.94-7.86,3.18-5.14,3.69-3.43c2.96-2.76,5.31-5.37,7.63-8.48l8.54-11.45,4.26-6.27,9.73-12.38,8.58-11.39ZM920.5,270.34l-1.86-11.53-.74-4.44c-.6-3.58-1.1-6.69-2.68-9.99-.5.65-.97,1.86-.84,2.43l2.82,12.23,1.29,7.71,1.3,3.81.72-.22ZM699.28,78.73c.4.11,1.57-1.94.93-1.24l-2.16-2.62c-.73.14-2.19,1.92-2.28,2.92l3.5.95ZM920.85,270.8l-1.15.35c-.46,3.18,2.23,4.55.01,9.41.39,1.2.62,2.53.89,3.73l1.36,5.97c.38,1.65,1.06,2.93,1.29,4.46.65,4.19,1.22,8.16,1.05,12.38s1.13,8.43,2.2,12.54l.56,3.27,1.09,4.38c.55,2.21.08,4.26,1.4,6.08l2.06,2.84c3.22-4.03.06-10.94-.6-14.7l-.82-4.67c-.27-1.51-1.1-2.74-1.3-4.07l-.62-4.04-1.33-9.03-1.38-8.13-2.28-11.73-1.21-4.84-1.21-4.21ZM796.41,453.62l17.15-6c3.08-1.08,5.58-2.44,7.8-4.92,2.55-2.84,6.92-4,8.47-7.64l-4.84,2.23-5.19,3.25-.1-1.38,5.6-3.98,9.6-5.82c2.54-1.54,4.63-2.85,7.61-3.91,2.2-.78,4.01-3.16,5.54-5.01l9.22-11.08,2.4-3.53,3.93-3.72-3.11-12.27c-.41-1.63-.56-3.57-1.32-5.13-.7-1.42-.64-2.69.55-3.92l1.55,5.34.9,4.01,1.54,4.23c-.41,2.01-.13,3.73,1.88,4.98l2.81-3.15c.15-.17,1.03.61.9.81l-.64.96-3.58,5.39c2.78,1.04,2.79-3.25,7.06-1.73l-.69-6.31-3.91-15.68-4.09-15.36.88-4.29c.27-1.32.63-2.54,1.39-4l-2.69-12.38c-.59-2.72-2.02-4.74-3.51-7.2-2.55-5.87-2.22-16.35-8.55-16.37l-1.12-6.52c-1.79,2.4-1.69,5.5-.5,7.96l-3.07,5.83,2.68,13.39c.32,1.59,2.52,3.09.54,5.23-2.14-3.5-2.38-7.35-3.05-11.14l-2.03-11.54-2.41-.15c-.41-.02.17-1.11-1.16-3.24-.18-.29-.99,1.04-1.25,1.32l-5.17,5.52-12.72,13.69-4.74,5.16-5.33,6.16c-2.01,2.33-3.84,4.36-6.49,6.03-1.47.93-2.41,2.45-2.7,4.22-6.5,1.02-6.35,8.49-12.15,10.27.51-1.79.9-2.62,1.9-4.58l-.74-1.68-2.68,3.43c-.19.05-1.2-.37-1.11-.68l.63-2.08c-.82-.05-2.43.84-3.3,1.69l-1.34,1.29c-.18.18-.41-.92-.3-1.15l3.05-5.93c.13-.26-.18-1.39-.42-1.24l-1.17.73c-1.31.82-3.7,3.21-5.58,2.13-.94-.54-2.2-.89-3-1.05l-2.16-2.31-.97-2.39c-.46-1.14-4.13,2.55-5.21.03-.95-2.22-1.71-3.76-3.56-5.48-.81-.75-3.29,0-4.38.02-1.98.03-4.39-.41-4.88,2.25h3.09s-3.1,2.9-3.1,2.9l4.06,1.67-5,1.14-5.47,1.02c-2.14.4-3.28,1.22-5.41,1.17l-10.75-.27-11.26-.5c-5.69.27-10.69-.4-16.37-.81l-6.12-.44c-.93,1.62-1.61,2.15-3.11,1.97-2.09-.25-3.8-.01-5.77.14l-17.74,1.38-14.35,1.13-8.23.74c-1.76.16-3.5.76-5.22,1.24l-7.21,1.99-14.15,3.18-4.74,1.07-9.93,3.91-.97.54c-.22.12-.83-.7-.63-.85l.98-.73.84-.63c.15-.11-.3-.73-.45-.63l-.81.54-1.38.92c-.28.18-.99-.93-.69-1.08l5.35-2.64c.31-.15,1.21-1.07.92-1.22l-.92-.5c-.19-.1-.68.19-.97.31l-9.52,3.57c.65-2.18,3-2.96,5.04-3.53l17.23-4.8,5.66-1.26,5.25-1.22,11-2.14c2.21.3,4.37-.42,6.38-1.41,1.96.55,3.92.71,5.82.36,2.7.13,5.35.2,7.9-.28l6.46-1.2,8.24-.81,15.58-.99,9.87-.72,9.17-.43c2.49,1.29,4.98,1.6,7.59,1.68l16.14.48c.7.02,2.06-.08,2.34-.19-.89-2.17-2.62-1.57-4.11-1.66l-6.29-.41-5-.55-5.94-.57-5.75.03c-3.09.02-6.07-.87-9.18-.08-2.14-1.01-4.69-.95-7.09-.44l-9.07.12-5.75.59-29.74,3.71-8.65,1.43-13.77,2.86-10.06,1.88-13.36,4,2.5-4.36-5.47,1.66,3.66-4.89c-1.11-.5-2.73-.86-3.8-1l.73-2.32-.94-1.71.54-1.85c.1-.36-.91-.78-1.05-.92,1.2-2.53,1.09-4.28.15-6.45l-1.18-3.66c1.74-2.71.46-5.65-1.09-8.15-.02-2.61.37-6.72-.4-9.26-.18-.6-2.14-1.68-1.82-2.2l1.32-2.06c.47-.73,1.76-2.57,1.35-3.29l-2.5-3.77-4.65-2.14-3.14,2.69,4.5,4.8-5.42-2.18.61,2.35-3.92-1.53c-2.14-2.17-4.09-3.48-7.35-2.98-.72-.84-.85-.77-.49.01l-.92,1.81c-.17.34-1.31-.6-1.63-.87l-7.08-6.13c-3.08-2.67-3.92-6.62-3.8-10.36l-2.18-4.67-2.14-5.19-1.28-4.43-1.24-5.26-2.52-13.01-1.93-6.74-1.3-5.34c-1.19-4.92-3.2-9.83-3.97-14.78-.3-1.94-.18-2.81-1.3-4.54-1.95-3.02-2.15-6.93-3.45-10.25l-2.49-6.36-2.15-6.32-2.04-6.87c-.76-2.56-2.55-6.17-2.43-8.74l.38-8.35c.92.31,2.35.96,2.89.5l2.05-1.77,2.89,1.53,3.02-5.48c2.6,1.82,4.11.51,5.67-1.03.94-.92.34-3.56-.6-4.17l-2.41,1.85,1.19-5.23-3.47,1.88.65-4.47c-2.2-1.63-1.8-3.38-1-5.75l.64-1.87c.14-.42-.99-1.1-1.36-1.33l-1.37-.86-1.98.24c-2.59-2.12.93-5.24,4.9-10.09l6.36-7.76,9.32-11.09,29.14-30.38,9.19-9.58c-2.71-.1-4.31.79-6.48,1.23s-5.14.24-7.18.72l-3.76.88-14.37,2.63c1.33-1.84,3.05-2.18,4.77-2.51-1.34-1.49-4.65-.91-5.35.31-.15.27.19,1.62-.07,1.69l-1.25.31-6.44,1.56-1.92.45c-.42.1-.16-1.45-.06-1.93.11-.55-1.8-.55-1.88,0l-.29,2.13-3.99,2.1-.38-1.12c-.06-.17-.13-.33-.22-.19l-.96,1.38c-.47.68-2.14.86-3.1,1.04-1.8.34-3.26,1.03-5.23.59l3.42-2.36c.6-.41,1.46-1.2,1.64-1.9-2.9-.23-5.81,2.34-6.8,1.22-.38-.44-.74-1.42-1.09-2.43-2.52.59-5.49,2.04-7.2,4.57,2.08,1.43,3.64.91,5.93.06.14.04-.39,1.84-.89,1.91l-2.09.32c-3.29,1.25-7.53,2.11-10.58,3.97-4.47,3.38-8.33,7.33-12.52,11.1l-9.05,8.15-4.73,4.78c-3.79,3.83-7.97,7.47-11.34,11.66-2.83,3.53-5.17,6.7-8.39,9.83-1.25,1.22-2.85,3.54-4.19,4.36-2.24,1.36-4.14,2.52-5.2,4.96-1.14,2.63-2.5,5.15-5.07,6.63-1.85,1.07-2.05,2.83-3.13,4.46l-8.86,13.37c-2.83,1.72-4.71,4.3-5.76,7.48-3.25,2.75-4.14,6.52-5.89,10.08-4.21,8.56-7.43,16.86-9.9,26l-2.32,8.59-2.77,12.81-1.85,6.91c-.62,2.33-.82,4.66-2.57,6.31l2.32-11.41c.39-5.57,1.31-10.9,3.58-16.05l-.16-1.45c-.02-.21-.68-.46-.78-.27l-.82,1.59c-.2,0-1.39-.04-1.17-.03l2.41-6.95c.4-1.15,2.34-2.59,2.83-3.52,3.4-6.48,3.38-12.91,5.89-16.92l9.61-15.32,5.49-9.73c2.45-4.35,5.3-8.17,8.25-12.22,2.72-3.74,4.93-7.49,8.5-10.43s6.34-7.28,9.83-10.74l5.4-5.36c4.92-4.88,9.28-9.74,13.43-15.35,3.67-4.95,6.74-4.62,8.87-8.87,1.49-2.98,4.15-4.91,6.34-7.26l3.28-3.51,5.36-5.24,3.88-4.48c-1.87-1.43-3.17.25-3.99,1.55l-.45-1.84-6.62,4.97-16.34,13.92c-1.68,2.77-4.05,5.45-7.2,6.92-3.14,3.9-6.46,7.37-9.97,10.93l-8.09,8.18-10.17,11.22c-2.41,2.65-4.38,5.75-7.19,8.38-1.46,1.36-2.58,2.88-3.66,4.47l-3,4.44c-4.3,6.35-8.32,12.54-12.17,19.23-1.38,2.4-3.13,4.25-3.16,7.09l4.01-5.49,2.73-4.62c1.21-2.05,1.83-4.42,4.57-5.13l-6.97,11.48-5.24,8.62c-1.08,1.79-1.35,4.24-4.75,3.47l-2.55,7.19-2.71,5.21-2.73,9.72,1.32,1.37-1.35,4.89-1.39,6.78c-1.43,2.08-3.31,4.54-3.78,7.15l-3.07,17.02c-.31,1.74-1.06,3.48-1.04,5.38l.13,9.6c.05,3.7-.59,6.91.51,10.7.85,2.91.27,6.53,1.1,9.28l1.84,6.04,1.07,3.82c-1.55,1.08-1.18,2.21-.61,3.67l6.68,17.01,1.96,4.2c.12.25,1.3.39,1.34.12l.3-1.69c.06.05.9,1.52,1.24,2.15l5.27,9.74,3.7,5.72,3.94,6.21c1.54,2.43,4.78,5.06,6.93,7.37l7.7,8.26,10.68,9.99,4.78,3.91,5.46,4.02,9.89,8.47,6.3,5.18,4.73,3.62,6.78,5.18c.3.23.77.89.89,1.14s-.48,1.15-.73,1.02l-1.16-.62-4.38-3.15c-4.7-3.38-8.18-7.71-13.96-9.94.78,1.28,1.87,2.59,2.81,3.37l3.74,3.13,18.86,14.49,3.89,2.8-2.49.43c-.57.1-1.3,1.56-1.37,2.01l3.19,1.42,1.04-2.89c4.43,1.26,3.8,4.06,8.47,4.26,2.98.13,4.92,2.4,5.63,4.92l-7.83-2.12c.31,1.3,1.64,3.12,2.67,3.53.38.15,1.69-.37,1.93-.04l1.08,1.46c.99,1.35,1.8,2.49,2.54,4.08-5.54.82-7.55-4.74-12.29-3.99-.56.09-1.74,1.54-1.36,1.97,1.3,1.46,6.52,1.26,7.63,6.81l-5.57-1.75c-1.48-.47-2.92-.84-4.69-1.03l9,5.88,5.4,3.42-5.89-1.24-1.01-.21c-.19-.04.17.85.32.97l3.68,2.75c-4.45-.2-6.91-4.41-13.33-3.65-.17-.84-.51-1.8-.94-1.53l-1.81,1.11c-.4.25.72,1.46,1.14,1.71l9.94,5.86,14.06,6.68,4.2,1.9,4.86,1.45,4.7,1.41,14.16,4.26,3.49,1.36,9.32,3.47c5.17,1.93,9.81,3.55,15.07,4.65,4.03.84,7.67,1.81,12.06,1.71.17.43.29,1.51.73,1.59l2.23.42,6.99.57,4.64.91,4.73.69,5.41.74c3.26.45,5.51.23,8.85-.66,1.61-.43,4.67-.13,6.38-.11l1.74,1.66c2.63-.3,4.32-.21,7.26.07-.51-1.04-1.11-2.38-.61-3.09.74-1.04,2.24-1.58,3.33-1.65l9.92-.69,4.28-1.08,6.09-1.91c8.04-2.52,11.96,1.53,17.57-3.56,1.5-.72,4.56-1.77,6.17-1.9,2.64-.21,4.19-.7,6.59-1.45l7.91-2.48c1.72-.54,3.43-1.07,5.29-1.23,2.52-.21,4.53-.74,6.91-1.34l6.45-1.62,8.08-1.8c3.82-.85,7.18-1.64,10.84-3.46,7.4-3.7,10-2.11,15.21-4.2l8.04-3.23,13.21-5.96,4.77-1.63,4.46-1.28c1.75-1.02,3.76-2.39,5.82-3.11ZM516.72,38.21c-.26-.13-1.14-.53-1.43-.47l-5.11,1.23c2.33,2.65,7.58-.24,6.54-.76ZM858.81,414.74l.91-3.83c-1.55,1.12-2.68,2.06-3.59,3.46l-2.94,4.53c2.81.36,5.01-1.58,5.62-4.16ZM559.64,241.68l-.22-2.38c-.04-.44-1.88-.13-1.98.11l.62,4.45c.34,2.45,1.04,5.17,2.65,6.98,1.96-.59-.56-3.58-1.07-9.16ZM538.87,492.07l5.74,2.1,6.06,2.08,5.25,1.5c4,1.14,8.5,2.47,11.92,4.39,3.99,2.24,7.7,3.1,12.2,3.73l6.74.95,7.4.44c1.92,1.72,3.88,2.73,6.63,2.54l4-.27c1.89.52,4.23,1.34,5.94,1.37l4.71.08,10.24-.5,6.72.26,9.88,1.18c.54.06,1.63-1.03,1.32-1.36l-1.36-1.44c1.44-.09,3.33-.24,4.04-.48.5-1.8.9-2.54,2.02-3.69.25-.5-.87-2.43-1.5-2.65l-4.77-.46-3.74-.29-15.32-.22-7.26,1.53-13.54,2.01-4.88-.33-7.96-1.14-9.9-2.39c2.01-.65,2.65-.6,4.52-.88-6.14-3.34-13.4-1.89-19.11-3.78l-18.12-5.99-7.3-2.15-13.82-4.39-2.33-.78c-.52-.17-1.63,1.16-1.5,1.74,2.22,2.84,7.24,4.38,11.1,3.15,1.13,2.91,3.11,3.08,5.99,4.14ZM436.06,367.84l-3.37-5.45c-1.12-1.81-1.59-3.06-3.86-3.88.65,2.04,1.65,3.76,3,5.67l3.17,4.48.87,1.08c.15.19.69-.24.65-.48s-.3-1.17-.46-1.43ZM462.14,394.91c.4.35,1.93.52,2.23.36l-10.46-8.83-9.13-9.69c-1.79-1.9-3.33-3.54-5.78-4.31l2.81,3.63,6.79,7.49c3.9,4.3,8.73,7.19,13.55,11.36ZM495.41,444.63c.81-.43,2.25-.72,2.2-.28l-.21,1.8c-.05.41,1.48.69,1.45.29l-.15-1.81-.17-1.97c-.03-.33-1.45.08-1.91.22l-3.07-3.68c-2.25,3.14-7.32,3.66-5.93,5.19,1.21,1.34,3.19,1.69,4.06,1.17.47-.28.95-1.25,1.31-2.06.2-.46,1.72-.69,1.9-.21l.52,1.34ZM542.94,487.23l.06-1.95,8.44,2.75c.34-1.4-.55-3.66-1.85-3.84l-3.52-.48-4.88-.48-2.41-2.45-3.23,3.94,7.38,2.5ZM517.25,476.88l6.31,2.76c.32.14,1.15.25,1.47.27.22.01.23-.82.04-.93l-1.94-1.08c1.06-.52,1.87-1.05,1.93-1.43-4.65-1.69-8.8-3.6-11.19-7.33l-3.36,2.02c-.45.27-1.43.64-1.38,1.08s.92,1.49,1.38,1.69l6.73,2.94ZM346.5,369.82l1.44-1.18c-3.19-2.27-3.58-6.03-5.1-9.59l-2.97-6.96c-.25-.58-2.32-1.28-2.63-.79-1.56,2.46,2.19,12.54,5.02,17.9,1.73,3.27,2.94,6.53,6.06,8.79v-3.8c.13-1.75-.38-2.94-1.83-4.35ZM459.39,568.01l10.9-15.84,2.2-4.32c1.59-3.13,3.91-5.78,5.18-8.97.47-1.19.38-3.11,1.55-4.22.56-.53,1.67-1.58,1.29-1.95-.28-.27-1.25-1.01-1.66-1.22l-14.48-7.39-6.26-3.29-6.5-3.32c-3.55-1.81-7.82-2.35-10.17-6.71l13.98,6.83,5.54,2.48,12.03,6.83c1.72.98,3.24,1.34,5.25,1.95,1.65.5,3.41,2.63,5.43.24-2.7-2.08-5.81-3.01-8.67-4.5l-18.11-9.47-3.29-1.88-3.99-1.64-6.54-3.17-18.73-8.72-11.02-6.18.54-.86,8.4,3.72c2.17.96,3.82,2.4,6.29,2.54l-7.07-4.65-7.5-3.81c-.47-1.2.97-3.28,1.24-4.36.52-2.27,1.19-3.5,3.2-5.19,1.18-.99,1.97-4.2,2.78-5.58,1.2-2.03,1.85-3.33,2.2-5.42l1.84-3.22-5.34-4.86c-1.69-1.54-3.94,1.58-6.74,3.27-1.3,2.09-2.96,3.89-5.13,5.63-.64.69-1.57,2.32-2.22,3.54,1.55-.97,2.4-2.15,3.45-4.06l2.45,1.91c-2.68,1.65-3.36,4.26-5.09,6.32l-6.42,7.63c-.33.39-1.13,1.22-1.34.89l-1.09-1.72c-1.41,1.08-2.88,3.08-3.09,4.68l3.29-2.33c-1.05,1.98-2.05,2.45-3.55,3.98l-3.46,3.53c-3.05,1.97-5.23,4.33-7.4,7.02l-5.03,3.19c.68.99,1.38,1.79,1.13,2.12l-1.08,1.42-1.4,3.08-1.6-1.15c-.6-.44-2.29,2.83-3.22,2.66l-2.53-.47c-.39-.02-1.09,1.2-.77,1.58l1.52,1.86,18.63,11.86,4.93,3.46,6.54,4.71,14.16,9,6.71,4.08,7.7,5.32,6.73,4.54c3.21,2.17,5.82,4.37,8.78,6.88l5.76,4.87c.88.74,3.52,1.25,4.57,1.02,1.31-1.06,3.43-2.86,4.32-4.16ZM469.93,513.99l5.47,3.75,4.34,1.97c.57.26,1.86-.06,2.51-.52l-5.61-3.19-7.25-4.23c-.42-.17-.01,1.84.55,2.22ZM446.09,645.04c1.76-.78,2.64-2.14,2.53-4.3l-2.54,1.61c-.55.35-.58,2.31,0,2.69ZM452.34,659.58l3.97-3.45c.23.33,1.02,1.43,1.49,1.23,2.05-.92,4.43-3.01,4.51-4.53-1.81-.03-1.91.02-3.34-.8-1.07.52-3,2.36-3.94,3.72l-2.69,3.84ZM449.49,663.38c2.39.27,4.36-1.6,5.12-3.03l-3.89-.05c-.88-.01-2.01,2.5-1.22,3.08ZM312.32,580.68l-6.63-4.72-1.31-1.44c-.22-.24-1.5.89-1.33,1.17,1.35,2.2,6.12,4.88,9.27,4.99ZM275.36,611.01l4.15-7.12,8.41-14.14-1.69,5.94c2.83-3.05,5.13-7.59,3.87-9.15-.37-.45-1.83-.49-2.51-.3l-8.99,16.44-3.59,6.45-4.52,8.13c-1.02,1.83-2.78,3.15-2.74,5.35,3.29-3.59,5.23-7.55,7.61-11.62ZM241.58,661.07c4.14-3.62,6.59-7.23,9.41-11.2,3.69-5.19,8.05-10.1,8.79-16.19-3.23,3.72-6.15,7.23-8.29,11.23s-4.03,8.08-7.56,11.52c-1.32,1.29-2.16,3.02-2.35,4.64ZM430.58,792.93l8.91-11.31,1.36-3.97c.1-.05-.85-.89-1.14-.69s-1.07.9-1.32,1.25l-8.74,11.75c-.39.52-.73,1.54-.41,1.82l1.34,1.16ZM377.02,855.31c4.55-.45,6.1-3.99,6.68-7.18-2.37.12-5.57,3.92-6.68,7.18ZM353.28,885.17l1.59,2.44c3.82-3.83,5.95-7.99,8.55-12.54,1.42-2.49,4.02-4.45,2.55-8.09-3.69,2.77-5.68,6.15-8.28,9.5l-9.63,12.41.81.24,4.41-3.98ZM109.69,692.52l6.68-7.79c.27-.32.41-1.54.41-2.34-3.55,2.21-8.58,8.67-7.09,10.14ZM98.27,705.94c4.06-1.45,5.97-4.66,6.65-8.49-2.83,2.46-5.07,5.32-6.65,8.49ZM343.01,894.96c2.94-.27,4.45-2.79,3.33-4.75-1.67,1.18-2.98,3.06-3.33,4.75ZM288.81,885.1l3.95-5.26c-2.8.27-5.47,2.29-3.95,5.26ZM86.75,723.93c.3-.26-.31-1.67-.58-1.54l-1.11.53c-1.34.64-2.38,2.87-2.48,4.67l4.16-3.67ZM313.75,938.1l3.82-5.06,8.25-10.94c-3.81.54-4.77,3.88-6.79,6.11-2.69,2.97-5.44,5.07-6.5,9.19.83.51.95.58,1.22.7ZM75.94,738.27l3.01-3.86-1.25-.97-3.78,3.91c-.23.24.07,1.54.4,1.53s1.42-.36,1.62-.62ZM289.53,962.51l11.88-14.77,3.56-4.43c-.68-.55-1.09-.96-1.38-.79l-1.12.65c-3.87,5.68-7.94,10.99-12.85,15.88l-3,5.31c1.02-.22,2.18-.95,2.91-1.86ZM273.71,981.85c4.24-.42,4.84-4.05,6.55-6.36,2.36-3.19,4.47-5.94,6.18-9.73-2.78,1.78-3.8,4.34-5.59,6.7l-7.13,9.38ZM31.79,794.29l.91.37,7.36-9.02c-3.41,0-4.11,3.02-5.49,4.88l-2.79,3.77ZM19.42,809.09c-.2.28.88.66,1.09.43l1.03-1.14,10.48-12.73c-2.27-.81-2.43,1.12-3.34,2.02l-3.86,3.81-5.4,7.62Z"/>
          <path class="cls-1" d="M638.98,234.9c-1.45-1.67-1.9-3.75-2.59-5.92l-5.63-17.59-1.92-5.2-.3-.95c-.1-.3.63-1.19.84-.95l1.08,1.26,5.89,17.59c.99,3.92,2.71,7.24,2.62,11.76Z"/>
          <path class="cls-1" d="M668.3,18.62l-4.46.41c-1.22-1.86-.7-4.02,1.14-5.18.23-.43.83-1.36,1.12-1.14.42.31,1.59,1.32,1.65,1.8l.55,4.12Z"/>
          <path class="cls-1" d="M503.99,426.64l-3.07-3.33c5.94,1.92,7.51,5.72,11.92,7.39l6.1,2.31,1.52,3.37c-5.07-1.53-9.59-4.38-14.17-7.7l-2.3-2.03Z"/>
          <path class="cls-1" d="M476.09,154.24c.69-2.16,2.14-3.63,3.6-5.38l8.21-9.83c1.65,3.65-2.04,4.08-3.49,5.55-3.05,3.09-5.34,6.3-8.32,9.66Z"/>
        </g>
        <path class="cls-1" d="M441.2,511.72c-2.99-.51-5.12-1.59-6.32-4.12l5.08,1.98c.69.27,1.44,1.75,1.24,2.13Z"/>
        <path class="cls-1" d="M395.88,494.47l-.78-1.32,3.64-3.65c.24-.24,1.53.36,1.75.7l-4.61,4.27Z"/>
        <g>
          <path class="cls-1" d="M394.41,729.42c.5-1.51,1.02-2.44,1.63-3.68,1.22-2.8,3.58-4.25,5.45-6.36l6.15-6.94c1.05,3.01-2.33,3.29-3.13,4.48-3.08,4.61-5.76,8.62-10.09,12.51Z"/>
          <path class="cls-1" d="M316.38,807.87c-.61.77-2.56,2.12-3.42,2.62l11.29-14.49,1.83-.39-9.7,12.26Z"/>
          <path class="cls-1" d="M272.55,858.6c1.18-3.72,3.46-6,6.21-8.29l4.23-3.53-3.67,5.49-6.77,6.33Z"/>
        </g>
      </g>
    </g>
  </g>
</svg>