<?xml version="1.0" encoding="UTF-8"?>
<svg id="Layer_1" data-name="Layer 1" xmlns="http://www.w3.org/2000/svg" xmlns:xlink="http://www.w3.org/1999/xlink" viewBox="0 0 357.79 608.55">
  <defs>
    <style>
      .cls-1 {
        filter: url(#AI_BevelShadow_1);
      }

      .cls-2 {
        fill: #fff;
      }

      .cls-3 {
        fill: #5a8a1f;
      }
    </style>
    <filter id="AI_BevelShadow_1" x="-20%" y="-20%" width="140%" height="140%">
      <feGaussianBlur in="SourceAlpha" result="blur" stdDeviation="4"/>
      <feOffset dx="4" dy="4" in="blur" result="offsetBlur"/>
      <feSpecularLighting in="blur" result="specOut" specularConstant="1" specularExponent="10" surfaceScale="5">
        <fePointLight x="-5000" y="-10000" z="-20000"/>
      </feSpecularLighting>
      <feComposite in="specOut" in2="SourceAlpha" operator="in" result="specOut"/>
      <feComposite in="SourceGraphic" in2="specOut" k1="0" k2="1" k3="1" k4="0" operator="arithmetic" result="litPaint"/>
      <feMerge>
        <feMergeNode in="offsetBlur"/>
        <feMergeNode in="litPaint"/>
      </feMerge>
    </filter>
  </defs>
  <g class="cls-1">
    <g>
      <path class="cls-3" d="M123.67,414.74c-2.71,0-5.34-.47-7.85-1.4-.14.01-.27.02-.39.04-.72.06-1.53.14-2.39.14-2.86,0-5.18-.9-6.88-2.67l-1.25-1.3c-2.18.75-4.44,1.13-6.75,1.13-6.67,0-11.98-3.11-15.61-5.35l-4.82,3.71c-1.34,1.03-2.95,1.56-4.58,1.56-1.19,0-2.38-.28-3.47-.85-2.43-1.27-3.96-3.76-4.02-6.47-1.58-.15-3.08-.79-4.28-1.86-1.58-1.4-2.49-3.4-2.52-5.51l-.75-59.82-4.17-38.4c-.07-.66-.06-1.32.05-1.97l1.6-10.18.52-21.36c.05-1.95.85-3.8,2.24-5.16,3.84-3.78,4.67-5.62,4.76-5.82,1.06-2.53,3.41-4.29,6.14-4.57l42.44-4.46c.08,0,.16-.02.25-.02l39.9-2.87c9.95-.71,31.37-5.9,53.3-12.91,23.29-7.44,41.63-15.16,47.84-20.13l12.16-9.73-5.54-9.09c-7.65-12.56-14.87-24.41-26.32-31.13l-45.53-26.69c-16.1-9.44-36.93-14.9-65.52-17.17l-35.83,2.8c-.07,0-29.68,1.45-29.68,1.45-1.05.05-2.04.12-3,.19-1.84.13-3.58.25-5.44.25-5.49,0-10.22-1.18-15.34-3.82-2.75-1.42-4.35-4.39-4.01-7.48.05-.5.16-.98.3-1.44-.3-.32-.59-.66-.86-1.02l-7.61-10.25c-1.53-2.06-1.9-4.76-.98-7.15,2.2-5.74.03-7.26-1.13-8.07-1.62-1.13-2.73-2.85-3.09-4.79l-2.86-15.5c-.55-2.96-.86-5.7-1.17-8.35-.61-5.29-1.14-9.86-3.34-14.62-1.37-2.96-.67-6.46,1.72-8.66,9.86-9.09,24.6-14.54,42.63-15.76l65.17-4.42c2.47-.17,5.01-.25,7.55-.25,20.99,0,41.1,5.65,59.9,11.43,22.69,6.98,42.82,18.49,62.28,29.62,8.67,4.96,17.64,10.09,26.69,14.72l15.76,8.08c8.69,4.46,12.4,9.94,14.85,13.56.27.4.59.88.88,1.28.11-.03.22-.07.35-.11.78-.26,1.58-.38,2.37-.38,2.64,0,5.16,1.4,6.52,3.79,7.49,13.15,12.07,27.84,16.5,42.05,1.48,4.75,3.01,9.66,4.61,14.34l9.66,28.38c.17.5.29,1.02.35,1.54l3.96,33.66c2.14,18.21-6.04,30.63-13.95,42.64l-11.96,18.15c-.27.41-.58.8-.93,1.15-11.9,12.02-26.09,25.78-44.02,36.89-35.28,21.86-74.25,32.04-114.49,40.89l-1.95,20.15c-.76,7.86-3.7,11.25-6.54,14.53-.43.5-.89,1.02-1.37,1.61l-9.93,16.78c-4.62,7.81-12.52,12.47-21.12,12.48Z"/>
      <path class="cls-2" d="M125.27,15c19.64,0,38.91,5.32,57.69,11.1,31.86,9.8,58.35,28.79,87.75,43.85l15.76,8.08c13.04,6.69,11.84,15.87,18.28,15.87.99,0,2.16-.22,3.59-.69,9.56,16.79,14.25,36.66,20.53,55.1l9.66,28.38,3.96,33.66c1.8,15.31-4.86,25.64-12.77,37.64l-11.96,18.15c-13.19,13.33-26.25,25.63-42.64,35.79-35.27,21.86-75.3,31.95-117.48,41.1l-2.48,25.59c-.65,6.72-2.99,8.07-6.62,12.56l-10.22,17.27c-3.4,5.75-9.07,8.79-14.67,8.79-2.08,0-4.15-.42-6.09-1.27-.28-.12-.68-.17-1.13-.17-1.02,0-2.36.21-3.4.21-.66,0-1.21-.09-1.48-.37l-5.09-5.29c-2.89,2.06-5.69,2.82-8.31,2.82-7.64,0-13.74-6.52-16.28-6.52-.25,0-.46.06-.64.2l-8.09,6.23.3-5.96c.05-1.08-1.82-1.5-4.23-1.5-.9,0-1.88.06-2.87.16l-.76-60.17-4.2-38.76,1.68-10.67.53-21.86c2.64-2.6,5.35-5.71,6.42-8.27l42.44-4.46,39.9-2.87c21.99-1.58,89.7-22.19,105.29-34.67l17.31-13.85-8.46-13.89c-7.97-13.08-16.07-26.69-29.44-34.53l-45.53-26.69c-20.33-11.92-45.09-16.34-69.31-18.23l-36.42,2.84-29.46,1.44c-2.98.15-5.54.42-8.07.42-3.66,0-7.24-.58-11.9-2.99l12.45-3.31c-5.17-.97-12.42-1.72-14.44-4.43l-7.61-10.25c2.45-6.39,2.11-12.75-3.85-16.9l-2.86-15.5c-1.61-8.7-1.15-16.27-5.08-24.76,9.87-9.1,24.17-12.85,38.05-13.79l65.18-4.42c2.35-.16,4.7-.24,7.04-.24M125.27,0c-2.71,0-5.42.09-8.06.27L52.04,4.69c-20.04,1.36-35.92,7.32-47.2,17.73C.05,26.83-1.35,33.83,1.39,39.74c1.69,3.67,2.12,7.3,2.7,12.34.31,2.65.65,5.65,1.25,8.86l2.86,15.5c.6,3.27,2.28,6.24,4.73,8.44-.04.12-.09.24-.14.38-1.83,4.79-1.1,10.19,1.96,14.3l6.64,8.95c-.04,5.61,3.06,10.83,8.12,13.44,6.24,3.22,12.03,4.66,18.78,4.66,2.11,0,4.07-.13,5.96-.26.91-.06,1.85-.13,2.85-.18l29.46-1.44c.15,0,.29-.02.44-.03l35.24-2.75c27.12,2.21,46.76,7.34,61.74,16.12l45.53,26.69c9.82,5.76,16.57,16.83,23.71,28.56l.51.83,1.6,2.62-7,5.61c-4.48,3.58-20.26,10.8-45.44,18.84-21.09,6.74-42.29,11.91-51.56,12.58l-39.9,2.87c-.16.01-.33.03-.49.04l-42.44,4.46c-5.34.56-9.97,3.93-12.14,8.83-.21.32-1.05,1.53-3.23,3.67-2.77,2.73-4.38,6.43-4.47,10.33l-.51,20.87-1.52,9.69c-.21,1.31-.24,2.63-.09,3.95l4.13,38.05.75,59.46c.05,4.22,1.88,8.23,5.04,11.03.92.82,1.93,1.51,3.01,2.08,1.34,3.08,3.7,5.68,6.8,7.29,2.19,1.15,4.58,1.71,6.95,1.71,3.25,0,6.48-1.06,9.16-3.12l.87-.67c3.9,1.98,9.01,3.87,14.98,3.87,1.56,0,3.09-.12,4.6-.37,2.31,1.7,5.65,3.21,10.28,3.21.67,0,1.3-.03,1.86-.07,2.83.86,5.76,1.29,8.77,1.29,11.28,0,21.59-6.04,27.58-16.15l9.62-16.26c.29-.35.59-.69.9-1.04,3.1-3.58,7.35-8.48,8.34-18.72l1.43-14.74c17.11-3.84,34.89-8.23,52.09-13.82,22.8-7.41,42.24-16.19,59.41-26.83,18.62-11.54,33.2-25.66,45.4-37.99.7-.7,1.32-1.47,1.86-2.3l11.96-18.15c8.25-12.52,17.6-26.72,15.14-47.65l-3.96-33.66c-.12-1.05-.36-2.08-.7-3.08l-9.66-28.38c-1.56-4.59-3.01-9.23-4.55-14.15-4.55-14.59-9.26-29.68-17.15-43.54-2.57-4.52-7.21-7.26-12.16-7.55-2.82-3.88-7.51-9.24-15.91-13.55l-15.76-8.08c-8.89-4.56-17.78-9.64-26.39-14.56-19.82-11.33-40.31-23.05-63.8-30.28C168.03,5.81,147.3,0,125.27,0h0Z"/>
    </g>
    <g>
      <path class="cls-3" d="M182.81,601.05c-1.3,0-2.6-.34-3.77-1.02l-5.22-3.04c-1.32,1.27-3.07,2.03-4.94,2.1l-19.04.7c-.12,0-.25,0-.38,0-2.4,0-4.69-.82-6.75-2.34-1.09.59-2.32.92-3.59.92-.27,0-.54-.01-.81-.04-.17-.02-.34-.04-.51-.07-1.81,1.25-4.09,2.01-6.19,2.01-2.34,0-4.47-.9-6.01-2.55l-3.33-3.56c-.12-.13-.23-.25-.33-.38-.27.03-.54.04-.81.04-2.61,0-5.08-1.37-6.45-3.68-6.55-11.06-10.69-23.34-12.65-37.53l-5.96-20.69c-.1-.34-.17-.7-.22-1.05l-6.63-48.13c-1-7.28-2.14-15.54,8.81-22.99.92-.63,1.99-1.4,3.15-2.23,5.6-4.03,12.57-9.05,18.69-10.25l32.84-6.45c1.61-.32,3.21-.48,4.75-.48,3.97,0,10.3,1.1,15.41,7.08.85-.32,1.75-.48,2.65-.48.85,0,1.71.14,2.53.44,2.67.96,4.57,3.35,4.91,6.16l6.25,52.04,9.76,32.94c.02.08.04.15.06.23l7.67,29.29c.79,3.02-.37,6.22-2.92,8.02-.12.09-.25.17-.37.25.33,2.28-.32,4.57-1.79,6.31-.47.55-1.25,1.3-2.39,1.9l.11.49c.66,2.89-.45,5.9-2.83,7.67l-9.23,6.89c-1.32.99-2.9,1.49-4.49,1.49Z"/>
      <path class="cls-2" d="M157.46,447.84c6.19,0,10.74,3.84,13.38,11.06l4.68-4.46,6.33,52.66,9.94,33.55,7.67,29.29-3.72-2.52c-.27-.18-.66-.32-.96-.32-.27,0-.46.11-.41.39l.72,4.31.9,5.59c.07.43-.3.59-.9.59-1.28,0-3.64-.72-5.3-1.18l2.24,9.86-9.23,6.89-9.66-5.62c-2.56-3.32-4.43-5.59-8.15-8.36l3.6,12.03-19.04.7s-.07,0-.1,0c-2.59,0-5.22-3.69-6.6-7.59l-3.74,6.16-3.94-11.5c-.36,1.47-1.07,5.29-1.05,6.76l.05,5.14c0,.65-1.64,1.5-2.57,1.5-.23,0-.42-.05-.53-.17l-3.32-3.56c-.4-.43-.78-3.88-1.38-3.88-.01,0-.02,0-.03,0l-5.22,1.16c-6.26-10.58-9.99-22.11-11.74-35.26l-6.11-21.21-6.59-47.85c-.98-7.13-1.64-11.15,5.56-16.05,4.8-3.27,13.42-10.22,19.06-11.32l32.84-6.45c1.15-.23,2.25-.34,3.3-.34M157.46,432.84c-2.02,0-4.11.21-6.19.62l-32.84,6.45c-7.14,1.4-14.02,6.05-21.63,11.53-1.12.81-2.18,1.57-2.98,2.12-14.8,10.07-13.06,22.69-12.02,30.22l.04.28,6.59,47.85c.1.71.25,1.41.45,2.1l5.81,20.18c2.13,14.97,6.57,28,13.55,39.79,2.27,3.84,6.06,6.37,10.26,7.12l1.64,1.75c2.97,3.18,7.05,4.93,11.49,4.93,2.68,0,5.46-.68,7.97-1.9.79-.02,1.57-.11,2.33-.25,2.38,1.1,4.93,1.68,7.56,1.68.22,0,.43,0,.65-.01l19.04-.7c1.61-.06,3.18-.38,4.65-.92l1.45.84c2.34,1.36,4.94,2.03,7.54,2.03,3.17,0,6.33-1,8.98-2.98l9.23-6.89c3.51-2.62,5.64-6.59,5.98-10.81.12-.13.23-.26.34-.39,1.9-2.23,3.1-4.93,3.51-7.77,3.15-3.68,4.39-8.73,3.12-13.56l-7.67-29.29c-.04-.15-.08-.31-.13-.46l-9.58-32.33-6.18-51.41c-.68-5.64-4.48-10.41-9.83-12.33-1.65-.59-3.37-.88-5.06-.88h-.04c-4.94-4.29-11.09-6.59-18.02-6.59h0Z"/>
    </g>
  </g>
</svg>